<svg xmlns="http://www.w3.org/2000/svg" width="150" height="145.077" viewBox="0 0 150 145.077">
  <g id="Ambassador-bro_1_" data-name="Ambassador-bro (1)" transform="translate(-22.625 -20.494)">
    <g id="freepik--background-simple--inject-5" transform="translate(22.625 20.494)">
      <path id="Path_2295" data-name="Path 2295" d="M172.241,86.834a58.96,58.96,0,0,0-16.583-48.242,55.379,55.379,0,0,0-25.924-14.928c-31.57-7.947-52.029-.669-62.257,18.676S27.9,58.349,23.23,91.7s18.01,70.033,56.476,72.04,33.515-17.14,54.558-25.36C150.355,132.1,169.229,113.325,172.241,86.834Z" transform="translate(-22.625 -20.494)" fill="#13c693"/>
      <path id="Path_2296" data-name="Path 2296" d="M172.241,86.834a58.96,58.96,0,0,0-16.583-48.242,55.379,55.379,0,0,0-25.924-14.928c-31.57-7.947-52.029-.669-62.257,18.676S27.9,58.349,23.23,91.7s18.01,70.033,56.476,72.04,33.515-17.14,54.558-25.36C150.355,132.1,169.229,113.325,172.241,86.834Z" transform="translate(-22.625 -20.494)" fill="#fff" opacity="0.7"/>
    </g>
    <g id="freepik--Plant--inject-5" transform="translate(121.693 134.206)">
      <path id="Path_2297" data-name="Path 2297" d="M324.771,384.922a8.856,8.856,0,0,0,2.594.287s-.4-1.206-.429-1.279c-.405-.844-1.681-2.238-2.719-2.1a1.243,1.243,0,0,0-.989,1.556A2.585,2.585,0,0,0,324.771,384.922Z" transform="translate(-323.184 -376.435)" fill="#263238"/>
      <path id="Path_2298" data-name="Path 2298" d="M325.772,379.3a8.655,8.655,0,0,0,2.555-.4,21.629,21.629,0,0,0,.989,2.756c.224.524.468,1.042.722,1.559-.152-.218-.287-.412-.31-.438-.613-.709-2.212-1.714-3.177-1.318a1.243,1.243,0,0,0-.547,1.763,2.55,2.55,0,0,0,1.9,1.068,8.341,8.341,0,0,0,2.479-.379c.1.2.194.4.3.593.475.946.953,1.889,1.394,2.828.155.33.3.659.438.989-.132-.2-.247-.359-.267-.382-.613-.709-2.212-1.717-3.177-1.318a1.239,1.239,0,0,0-.55,1.76,2.56,2.56,0,0,0,1.9,1.071,7.783,7.783,0,0,0,2.416-.363c.135.346.27.689.389,1.028.073.234.162.452.221.689s.132.468.194.7c.109.448.221.91.33,1.348.066.307.125.6.185.893-.152-.33-.458-.989-.491-1.025-.5-.791-1.928-2.03-2.943-1.773a1.246,1.246,0,0,0-.811,1.648,2.6,2.6,0,0,0,1.717,1.345,8.863,8.863,0,0,0,2.571,0c.1.485.188.959.267,1.411.056.33.112.659.161.959h.659c-.063-.33-.132-.7-.2-1.075-.1-.494-.211-1.022-.33-1.562a13.213,13.213,0,0,0,1.434-.659,9.225,9.225,0,0,0,2.09,1.348c-.188.458-.376.9-.557,1.318-.1.221-.191.432-.283.639h.692c.053-.132.109-.26.165-.4.191-.465.386-.966.583-1.483a8.643,8.643,0,0,0,2.561.2,2.6,2.6,0,0,0,1.813-1.213,1.243,1.243,0,0,0-.682-1.717c-.989-.33-2.512.8-3.069,1.549-.033.046-.33.567-.517.9.079-.214.158-.419.237-.636.158-.432.3-.87.461-1.338q.105-.33.208-.692c.073-.231.122-.484.185-.728a17.559,17.559,0,0,0,.33-1.737,8.12,8.12,0,0,0,2.433.56,2.6,2.6,0,0,0,1.978-.926,1.236,1.236,0,0,0-.415-1.8c-.933-.481-2.6.405-3.266,1.065-.04.04-.465.567-.689.864.056-.356.112-.709.155-1.068.132-1.042.227-2.1.33-3.148.03-.33.066-.659.1-.966a8.657,8.657,0,0,0,2.515.587,2.592,2.592,0,0,0,1.978-.923,1.239,1.239,0,0,0-.415-1.8c-.933-.481-2.6.405-3.266,1.065-.049.049-.659.811-.8,1.012.076-.709.155-1.414.264-2.106a22.264,22.264,0,0,1,.6-2.769,8.475,8.475,0,0,0,2.528.6,2.6,2.6,0,0,0,1.978-.926,1.243,1.243,0,0,0-.415-1.8c-.933-.478-2.6.405-3.266,1.068-.053.049-.705.867-.814,1.025.016-.053.026-.109.043-.161a15.942,15.942,0,0,1,1.1-2.637c.237-.465.491-.9.748-1.318a8.357,8.357,0,0,0,2.393.841,2.558,2.558,0,0,0,2.067-.7,1.239,1.239,0,0,0-.218-1.833c-.873-.58-2.637.115-3.362.7-.04.033-.409.4-.659.659.119-.188.237-.382.353-.557.438-.659.883-1.239,1.279-1.747.227-.287.438-.541.639-.778a8.133,8.133,0,0,0,2.5-.356,2.567,2.567,0,0,0,1.51-1.576,1.246,1.246,0,0,0-1.038-1.529c-1.042-.112-2.281,1.318-2.66,2.172-.033.076-.415,1.289-.4,1.289h.02c-.194.224-.405.465-.626.735-.409.5-.864,1.071-1.318,1.724a22.021,22.021,0,0,0-1.368,2.179,16.321,16.321,0,0,0-1.167,2.637v.036c0-.31,0-1.167-.016-1.233-.122-.93-.9-2.653-1.932-2.841a1.239,1.239,0,0,0-1.431,1.167,2.621,2.621,0,0,0,.989,1.941,8.637,8.637,0,0,0,2.353,1.071,21.757,21.757,0,0,0-.692,2.848c-.1.564-.181,1.131-.26,1.7v-.537c-.119-.926-.9-2.637-1.928-2.841a1.239,1.239,0,0,0-1.431,1.167,2.61,2.61,0,0,0,.989,1.941,8.188,8.188,0,0,0,2.281,1.051c-.03.221-.056.438-.082.659-.129,1.055-.247,2.1-.4,3.131-.053.363-.119.715-.181,1.071v-.465c-.119-.93-.9-2.653-1.928-2.841a1.239,1.239,0,0,0-1.431,1.167,2.61,2.61,0,0,0,.989,1.941,7.549,7.549,0,0,0,2.215,1.028c-.079.363-.155.725-.244,1.071-.069.234-.115.465-.2.7s-.148.461-.221.689c-.158.432-.33.88-.481,1.3-.112.293-.224.567-.33.847.056-.359.152-1.068.155-1.127a4.852,4.852,0,0,0-.659-2.344,1.532,1.532,0,0,0-.02-.274,1.236,1.236,0,0,0-1.516-1.051c-1.012.27-1.648,2.047-1.7,2.966,0,.053.033.659.063,1.035-.049-.221-.1-.435-.152-.659-.105-.448-.227-.893-.353-1.371-.069-.231-.138-.461-.211-.7s-.161-.468-.244-.705c-.2-.55-.428-1.094-.659-1.648a8.176,8.176,0,0,0,2.337-.877,2.584,2.584,0,0,0,1.137-1.862,1.239,1.239,0,0,0-1.342-1.269c-1.042.112-1.945,1.773-2.136,2.69,0,.056-.073.732-.1,1.1-.148-.33-.3-.659-.458-.989-.465-.939-.966-1.875-1.46-2.808-.152-.287-.3-.574-.448-.86a8.735,8.735,0,0,0,2.423-.9,2.6,2.6,0,0,0,1.137-1.862,1.239,1.239,0,0,0-1.342-1.269c-1.042.112-1.945,1.773-2.136,2.69,0,.069-.1,1.038-.112,1.285-.33-.633-.659-1.266-.939-1.9a21.94,21.94,0,0,1-1.025-2.637,8.286,8.286,0,0,0,2.439-.9,2.588,2.588,0,0,0,1.137-1.859,1.246,1.246,0,0,0-1.342-1.272c-1.042.115-1.945,1.773-2.133,2.69-.016.073-.109,1.117-.112,1.318a.607.607,0,0,0-.056-.158,15.872,15.872,0,0,1-.531-2.789c-.059-.521-.086-1.022-.1-1.51a8.315,8.315,0,0,0,2.462-.62,2.479,2.479,0,0,0,1.318-1.724,1.243,1.243,0,0,0-1.193-1.411c-1.048,0-2.129,1.549-2.419,2.439,0,.049-.119.56-.191.933v-.659c0-.794.053-1.52.1-2.162.03-.366.066-.7.1-.989a8.247,8.247,0,0,0,1.889-1.678,2.575,2.575,0,0,0,.389-2.146,1.243,1.243,0,0,0-1.707-.7c-.93.481-1.177,2.357-1.022,3.3a13.208,13.208,0,0,0,.382,1.292h.016c-.04.293-.082.613-.119.959-.063.659-.129,1.371-.148,2.166a22.185,22.185,0,0,0,.063,2.571,15.91,15.91,0,0,0,.475,2.835v.033c-.165-.257-.659-.966-.692-1.019-.613-.705-2.212-1.714-3.177-1.318a1.243,1.243,0,0,0-.55,1.763A2.416,2.416,0,0,0,325.772,379.3Z" transform="translate(-323.545 -365.48)" fill="#263238"/>
      <path id="Path_2299" data-name="Path 2299" d="M379.274,382.97s.33-1.223.33-1.3c.129-.926-.168-2.8-1.111-3.25a1.239,1.239,0,0,0-1.688.748,2.585,2.585,0,0,0,.448,2.136A9.185,9.185,0,0,0,379.274,382.97Z" transform="translate(-359.07 -374.08)" fill="#263238"/>
    </g>
    <g id="freepik--Heart--inject-5" transform="translate(147.621 120.644)">
      <path id="Path_2300" data-name="Path 2300" d="M413.868,330.089l-.748.755-4.766,4.766-4.77-4.766-.752-.755a3.37,3.37,0,0,1,4.766-4.766l.755.755.752-.755a3.369,3.369,0,0,1,4.763,4.766Z" transform="translate(-401.845 -324.335)" fill="none" stroke="#263238" stroke-linecap="round" stroke-linejoin="round" stroke-width="1"/>
    </g>
    <g id="freepik--Stars--inject-5" transform="translate(35.571 134.951)">
      <path id="Path_2301" data-name="Path 2301" d="M64.883,367.74l.705,2.166h2.281l-1.846,1.342.705,2.169-1.846-1.342-1.843,1.342.705-2.169L61.9,369.906h2.281Z" transform="translate(-61.9 -367.74)" fill="none" stroke="#263238" stroke-linecap="round" stroke-linejoin="round" stroke-width="1"/>
      <path id="Path_2302" data-name="Path 2302" d="M86.423,367.74l.705,2.166h2.278l-1.843,1.342.7,2.169-1.843-1.342-1.846,1.342.705-2.169-1.843-1.342h2.278Z" transform="translate(-76.34 -367.74)" fill="none" stroke="#263238" stroke-linecap="round" stroke-linejoin="round" stroke-width="1"/>
      <path id="Path_2303" data-name="Path 2303" d="M107.953,367.74l.705,2.166h2.278l-1.843,1.342.705,2.169-1.846-1.342-1.843,1.342.7-2.169-1.843-1.342h2.278Z" transform="translate(-90.774 -367.74)" fill="none" stroke="#263238" stroke-linecap="round" stroke-linejoin="round" stroke-width="1"/>
      <path id="Path_2304" data-name="Path 2304" d="M129.486,367.74l.7,2.166h2.281l-1.846,1.342.705,2.169-1.843-1.342-1.846,1.342.705-2.169-1.846-1.342h2.281Z" transform="translate(-105.207 -367.74)" fill="none" stroke="#263238" stroke-linecap="round" stroke-linejoin="round" stroke-width="1"/>
      <path id="Path_2305" data-name="Path 2305" d="M151.016,367.74l.7,2.166H154l-1.843,1.342.7,2.169-1.843-1.342-1.846,1.342.705-2.169-1.846-1.342h2.281Z" transform="translate(-119.64 -367.74)" fill="none" stroke="#263238" stroke-linecap="round" stroke-linejoin="round" stroke-width="1"/>
    </g>
    <g id="freepik--device-2--inject-5" transform="translate(132.335 36.901)">
      <path id="Path_2306" data-name="Path 2306" d="M362.064,70.27h23.4a1.45,1.45,0,0,1,1.45,1.45V87.575h-26.3V71.72A1.45,1.45,0,0,1,362.064,70.27Z" transform="translate(-358.922 -70.27)" fill="none" stroke="#263238" stroke-linecap="round" stroke-linejoin="round" stroke-width="1"/>
      <path id="Path_2307" data-name="Path 2307" d="M364.708,72.09h21.834a1.318,1.318,0,0,1,1.318,1.318V88.195H363.39V73.408A1.318,1.318,0,0,1,364.708,72.09Z" transform="translate(-360.779 -71.49)" fill="none" stroke="#263238" stroke-linecap="round" stroke-linejoin="round" stroke-width="1"/>
      <path id="Path_2308" data-name="Path 2308" d="M355.47,122.91h29.688a1.576,1.576,0,0,1-1.572,1.576h-26.54A1.576,1.576,0,0,1,355.47,122.91Z" transform="translate(-355.47 -105.559)" fill="none" stroke="#263238" stroke-linecap="round" stroke-linejoin="round" stroke-width="1"/>
    </g>
    <g id="freepik--device-1--inject-5" transform="translate(38.999 33.015)">
      <rect id="Rectangle_284" data-name="Rectangle 284" width="12.295" height="24.586" rx="4.34" transform="translate(0 0)" fill="none" stroke="#263238" stroke-linecap="round" stroke-linejoin="round" stroke-width="1"/>
      <path id="Path_2309" data-name="Path 2309" d="M72.3,123.91v1.368a1.524,1.524,0,0,0,1.365,1.648h9.559a1.526,1.526,0,0,0,1.365-1.648V123.91Z" transform="translate(-72.3 -102.343)" fill="none" stroke="#263238" stroke-linecap="round" stroke-linejoin="round" stroke-width="1"/>
      <path id="Path_2310" data-name="Path 2310" d="M84.6,61.506V60.138a1.524,1.524,0,0,0-1.365-1.648H73.675a1.526,1.526,0,0,0-1.365,1.648v1.368Z" transform="translate(-72.307 -58.487)" fill="none" stroke="#263238" stroke-linecap="round" stroke-linejoin="round" stroke-width="1"/>
    </g>
    <g id="freepik--speech-bubble-6--inject-5" transform="translate(124.105 92.444)">
      <path id="Path_2311" data-name="Path 2311" d="M330.5,258.488v-13.7a1.7,1.7,0,0,1,1.75-1.648h2.106l-.274-4.357,3.576,4.357h8.5a1.7,1.7,0,0,1,1.75,1.648V258.5a1.7,1.7,0,0,1-1.75,1.648H332.25a1.7,1.7,0,0,1-1.75-1.661Z" transform="translate(-330.5 -238.78)" fill="#263238" stroke="#263238" stroke-linecap="round" stroke-linejoin="round" stroke-width="1"/>
      <path id="Path_2312" data-name="Path 2312" d="M346.3,262.458a25.4,25.4,0,0,0,3.135-.564,2.072,2.072,0,0,0,1.2-2.571c-.323-1.688.33-1.526.966-1.285a2.512,2.512,0,0,1,1.045,2.169,6.95,6.95,0,0,0,.079,1.609s2.967.241,3.214.33.33.883.33,1.285,0,1.045-.33,1.206-.883.4-.883.4-.4,2.409-.481,2.967,0,1.045-.643,1.285a3.039,3.039,0,0,1-1.688.082c-.564-.082-6.187-.564-6.187-.564Z" transform="translate(-340.931 -251.59)" fill="#fff" stroke="#263238" stroke-linecap="round" stroke-linejoin="round" stroke-width="1"/>
      <rect id="Rectangle_285" data-name="Rectangle 285" width="4.74" height="8.277" transform="translate(1.513 10.142)" fill="#13c693" stroke="#263238" stroke-linecap="round" stroke-linejoin="round" stroke-width="1"/>
    </g>
    <g id="freepik--speech-bubble-5--inject-5" transform="translate(125.061 65.775)">
      <path id="Path_2313" data-name="Path 2313" d="M356.381,162.36H339.409a1.648,1.648,0,0,0-1.648,1.648v2.9l-4.361-.257L337.761,170v3.322a1.648,1.648,0,0,0,1.648,1.648h16.972a1.648,1.648,0,0,0,1.648-1.648v-9.325A1.648,1.648,0,0,0,356.381,162.36Z" transform="translate(-333.4 -160.88)" fill="#fff" stroke="#263238" stroke-linecap="round" stroke-linejoin="round" stroke-width="1"/>
      <path id="Path_2314" data-name="Path 2314" d="M367.372,188.622l-.722,7.469,3.533-2.891,3.458,2.732-1.289-7.713Z" transform="translate(-355.69 -178.216)" fill="#263238" stroke="#263238" stroke-linecap="round" stroke-linejoin="round" stroke-width="1"/>
      <path id="Path_2315" data-name="Path 2315" d="M369.957,163.74c0-.6.547-1.276.372-1.813s-1.028-.784-1.368-1.249-.3-1.345-.765-1.688-1.282-.026-1.843-.208-1.012-.913-1.612-.913-1.071.738-1.612.913-1.375-.132-1.839.208-.425,1.216-.768,1.688-1.187.689-1.368,1.249.372,1.216.372,1.813-.547,1.276-.372,1.816,1.032.784,1.368,1.249.3,1.345.768,1.688,1.282.026,1.839.208,1.015.913,1.612.913,1.071-.738,1.612-.913,1.375.132,1.843-.208.422-1.216.765-1.688,1.187-.689,1.368-1.249S369.957,164.34,369.957,163.74Z" transform="translate(-350.642 -157.87)" fill="#13c693" stroke="#263238" stroke-linecap="round" stroke-linejoin="round" stroke-width="1"/>
      <circle id="Ellipse_26" data-name="Ellipse 26" cx="4.598" cy="4.598" r="4.598" transform="matrix(0.989, -0.149, 0.149, 0.989, 8.85, 2.017)" fill="#fff" stroke="#263238" stroke-linecap="round" stroke-linejoin="round" stroke-width="1"/>
      <path id="Path_2316" data-name="Path 2316" d="M373.848,172.728v-4.361l-.168.079-.2.086-.2.086-.178.079v-.837l.208-.112c.092-.046.188-.1.293-.158s.2-.119.29-.178a1.359,1.359,0,0,0,.2-.162h.887v5.478Z" transform="translate(-360.014 -164.158)" fill="#263238"/>
    </g>
    <g id="freepik--speech-bubble-4--inject-5" transform="translate(107.683 29.999)">
      <path id="Path_2317" data-name="Path 2317" d="M299.3,49.33H282.328a1.648,1.648,0,0,0-1.648,1.648v7.36a1.648,1.648,0,0,0,1.648,1.648h1.061l-1.381,3.626,3.843-3.626H299.3a1.648,1.648,0,0,0,1.648-1.648V50.965A1.648,1.648,0,0,0,299.3,49.33Z" transform="translate(-280.68 -49.33)" fill="#fff" stroke="#263238" stroke-linecap="round" stroke-linejoin="round" stroke-width="1"/>
      <circle id="Ellipse_27" data-name="Ellipse 27" cx="0.663" cy="0.663" r="0.663" transform="translate(5.913 4.786)" fill="#263238"/>
      <circle id="Ellipse_28" data-name="Ellipse 28" cx="0.663" cy="0.663" r="0.663" transform="translate(9.223 4.786)" fill="#263238"/>
      <circle id="Ellipse_29" data-name="Ellipse 29" cx="0.663" cy="0.663" r="0.663" transform="translate(12.532 4.786)" fill="#263238"/>
    </g>
    <g id="freepik--speech-bubble-3--inject-5" transform="translate(57.358 42.109)">
      <path id="Path_2318" data-name="Path 2318" d="M154.847,93.493,151.4,91.548v-3.83a1.648,1.648,0,0,0-1.648-1.648H129.648A1.648,1.648,0,0,0,128,87.718v8.5a1.648,1.648,0,0,0,1.648,1.648h20.106a1.648,1.648,0,0,0,1.648-1.648V93.793Z" transform="translate(-128 -86.07)" fill="#263238" stroke="#263238" stroke-linecap="round" stroke-linejoin="round" stroke-width="1"/>
      <path id="Path_2319" data-name="Path 2319" d="M135.444,98.47l.409,1.256h1.315l-1.065.771.405,1.253-1.065-.771-1.065.771.405-1.253-1.065-.771h1.318Z" transform="translate(-131.835 -94.383)" fill="#fff"/>
      <path id="Path_2320" data-name="Path 2320" d="M147.884,98.47l.409,1.256h1.315l-1.065.771.409,1.253-1.068-.771-1.065.771.409-1.253-1.068-.771h1.318Z" transform="translate(-140.174 -94.383)" fill="#fff"/>
      <path id="Path_2321" data-name="Path 2321" d="M160.327,98.47l.405,1.256h1.318l-1.068.771.409,1.253-1.065-.771-1.068.771.409-1.253-1.068-.771h1.318Z" transform="translate(-148.514 -94.383)" fill="#fff"/>
      <path id="Path_2322" data-name="Path 2322" d="M172.774,98.47l.405,1.256H174.5l-1.065.771.405,1.253-1.065-.771-1.068.771.409-1.253-1.065-.771h1.315Z" transform="translate(-156.86 -94.383)" fill="#fff"/>
      <path id="Path_2323" data-name="Path 2323" d="M185.214,98.47l.409,1.256h1.315l-1.065.771.405,1.253-1.065-.771-1.065.771.405-1.253-1.065-.771h1.318Z" transform="translate(-165.2 -94.383)" fill="#fff"/>
    </g>
    <g id="freepik--speech-bubble-2--inject-5" transform="translate(41.184 71.939)">
      <path id="Path_2324" data-name="Path 2324" d="M100.048,180.947H94.9v-2.729a1.648,1.648,0,0,0-1.648-1.648H80.578a1.648,1.648,0,0,0-1.648,1.648v7.373a1.648,1.648,0,0,0,1.648,1.648h12.69a1.648,1.648,0,0,0,1.648-1.648v-2.35Z" transform="translate(-78.93 -176.57)" fill="#fff" stroke="#263238" stroke-linecap="round" stroke-linejoin="round" stroke-width="1"/>
      <path id="Path_2325" data-name="Path 2325" d="M97.085,186.069l-.5.5-3.164,3.168-3.171-3.168-.5-.5a2.239,2.239,0,1,1,3.168-3.164l.5.5.5-.5a2.239,2.239,0,1,1,3.168,3.164Z" transform="translate(-85.743 -180.377)" fill="#13c693" stroke="#263238" stroke-linecap="round" stroke-linejoin="round" stroke-width="1"/>
    </g>
    <g id="freepik--speech-bubble-1--inject-5" transform="translate(46.971 94.956)">
      <path id="Path_2326" data-name="Path 2326" d="M98.376,246.4h18.439a1.955,1.955,0,0,1,1.889,2.021v1.473l4.918-2.04-4.918,5.857v14.243a1.958,1.958,0,0,1-1.889,2.021H98.376a1.958,1.958,0,0,1-1.889-2.021V248.421a1.955,1.955,0,0,1,1.889-2.021Z" transform="translate(-96.487 -246.4)" fill="#fff" stroke="#263238" stroke-linecap="round" stroke-linejoin="round" stroke-width="1"/>
      <circle id="Ellipse_30" data-name="Ellipse 30" cx="6.108" cy="6.108" r="6.108" transform="translate(3.66 2.406)" fill="#263238" stroke="#263238" stroke-linecap="round" stroke-linejoin="round" stroke-width="1"/>
      <path id="Path_2327" data-name="Path 2327" d="M121.966,267.5v-.89a1.816,1.816,0,0,1-1.384-.6,2.723,2.723,0,0,1-.5-1.7l1.371-.2a3.625,3.625,0,0,0,.079.751.817.817,0,0,0,.211.412.474.474,0,0,0,.33.125.33.33,0,0,0,.33-.168.847.847,0,0,0,.076-.359,1.318,1.318,0,0,0-.208-.758,3.224,3.224,0,0,0-.57-.633l-.636-.547a5.316,5.316,0,0,1-.488-.5,2.034,2.034,0,0,1-.353-.59,2.106,2.106,0,0,1-.135-.8,1.793,1.793,0,0,1,.488-1.335,2.014,2.014,0,0,1,1.318-.547v-.85h.458v.841a1.648,1.648,0,0,1,.834.241,1.384,1.384,0,0,1,.471.518,2.393,2.393,0,0,1,.214.659,4.213,4.213,0,0,1,.066.639l-1.388.171a3.441,3.441,0,0,0-.04-.564.837.837,0,0,0-.125-.372.33.33,0,0,0-.3-.122.356.356,0,0,0-.33.188.745.745,0,0,0-.109.376,1.042,1.042,0,0,0,.221.7,4.541,4.541,0,0,0,.478.5l.61.527a5.561,5.561,0,0,1,.56.593,2.594,2.594,0,0,1,.409.7,2.393,2.393,0,0,1,.152.887,1.918,1.918,0,0,1-.2.87,1.648,1.648,0,0,1-.564.643,1.942,1.942,0,0,1-.877.3v.9Z" transform="translate(-112.304 -254.384)" fill="#fff"/>
      <path id="Path_2328" data-name="Path 2328" d="M121.549,272.72l-4.117,1.411,1.134.989-5.768,6.592-3.474-1.915a.659.659,0,0,0-.719.056l-5.452,4.166a.66.66,0,1,0,.8,1.048l5.119-3.916,3.56,1.961a.659.659,0,0,0,.814-.142l6.121-6.978,1.134.989Z" transform="translate(-100.782 -264.045)" fill="#13c693" stroke="#263238" stroke-linecap="round" stroke-linejoin="round" stroke-width="1"/>
    </g>
    <g id="freepik--Character--inject-5" transform="translate(55.786 42.475)">
      <path id="Path_2329" data-name="Path 2329" d="M212.36,266.533s1.434,27.358,2.152,32.9,2.152,13.633,2.152,13.633a3.614,3.614,0,0,0-1.229,1.437,16.51,16.51,0,0,0,.1,3.382l7.482.511a41.961,41.961,0,0,0,.307-6.048v-6.263c0-.817,1.233-35.875,1.233-35.875l.92,35.981s-.307,11.171.208,11.375a8.994,8.994,0,0,1,1.434.923l6.559-.2a21.486,21.486,0,0,0,.514-3.688c0-1.437-.923-4.2-.821-5.742s2.769-14.042,2.769-16.194V259.15H212.571Z" transform="translate(-182.982 -202.467)" fill="#263238" stroke="#263238" stroke-linecap="round" stroke-linejoin="round" stroke-width="1"/>
      <path id="Path_2330" data-name="Path 2330" d="M216.947,432.947s-2.765-2.357-3.995-2.152a4.078,4.078,0,0,0-2.462,1.229c-.1.307-.821.923-1.025,1.536s-3.484,3.692-4.2,4.512-1.229.923-.613,1.434a2.966,2.966,0,0,0,1.318.616h11.7a6.47,6.47,0,0,0,.307-2.769c-.105-1.846-.307-3.9-.307-3.9Z" transform="translate(-177.628 -317.527)" fill="#fff" stroke="#263238" stroke-linecap="round" stroke-linejoin="round" stroke-width="1"/>
      <path id="Path_2331" data-name="Path 2331" d="M204.38,456c0,.119.073.241.274.409a2.966,2.966,0,0,0,1.318.616h11.7a4.236,4.236,0,0,0,.247-1.025Z" transform="translate(-177.632 -334.433)" fill="#fff" stroke="#263238" stroke-linecap="round" stroke-linejoin="round" stroke-width="1"/>
      <path id="Path_2332" data-name="Path 2332" d="M255.248,432.947s2.607-2.357,3.767-2.152a3.7,3.7,0,0,1,2.307,1.229c.086.307.771.923.966,1.536s3.3,3.692,3.955,4.512,1.16.923.58,1.434a2.712,2.712,0,0,1-1.256.616H254.559a6.9,6.9,0,0,1-.29-2.769c.1-1.846.29-3.9.29-3.9Z" transform="translate(-211.067 -317.527)" fill="#fff" stroke="#263238" stroke-linecap="round" stroke-linejoin="round" stroke-width="1"/>
      <path id="Path_2333" data-name="Path 2333" d="M267.266,456c0,.119-.069.241-.257.409a2.713,2.713,0,0,1-1.256.616H254.744A4.548,4.548,0,0,1,254.51,456Z" transform="translate(-211.239 -334.433)" fill="#fff" stroke="#263238" stroke-linecap="round" stroke-linejoin="round" stroke-width="1"/>
      <path id="Path_2334" data-name="Path 2334" d="M232.537,147.67l-2.967,2.518.534,34.794h12.819s.61-35.559.382-36.093-1.6-1.068-1.6-1.068Z" transform="translate(-194.52 -127.732)" fill="#fff" stroke="#263238" stroke-linecap="round" stroke-linejoin="round" stroke-width="1"/>
      <path id="Path_2335" data-name="Path 2335" d="M275.911,163.137l5.1,1.411s-5.165-9.473-6.1-11.744a4.041,4.041,0,0,0-2.027-2.449c-1.955-1.262-9.539-2.225-9.539-2.225l-.593,17.374-.906,28.835h10.788s-.91-10.182-1.411-13.409l-.709-4.539s.873-6.922,1.648-13.55Z" transform="translate(-216.153 -128.041)" fill="#13c693" stroke="#263238" stroke-linecap="round" stroke-linejoin="round" stroke-width="1"/>
      <path id="Path_2336" data-name="Path 2336" d="M267.453,214.44a13.984,13.984,0,0,1-1.253,2.5" transform="translate(-219.076 -172.494)" fill="none" stroke="#263238" stroke-linecap="round" stroke-linejoin="round" stroke-width="1"/>
      <path id="Path_2337" data-name="Path 2337" d="M271.21,151.37,273,155.362l-1.473,1.6,2.334,2.825a75.256,75.256,0,0,1-2.515,10.92" transform="translate(-222.434 -130.213)" fill="none" stroke="#263238" stroke-linecap="round" stroke-linejoin="round" stroke-width="1"/>
      <path id="Path_2338" data-name="Path 2338" d="M232.322,120.618s-.959-1.318-1.648-.372,1.918,4.212,1.918,4.212Z" transform="translate(-195.182 -109.118)" fill="#fff" stroke="#263238" stroke-linecap="round" stroke-linejoin="round" stroke-width="1"/>
      <path id="Path_2339" data-name="Path 2339" d="M269.01,120.618s.959-1.318,1.648-.372-1.918,4.212-1.918,4.212Z" transform="translate(-220.779 -109.118)" fill="#fff" stroke="#263238" stroke-linecap="round" stroke-linejoin="round" stroke-width="1"/>
      <path id="Path_2340" data-name="Path 2340" d="M235.258,103.2s.587,6.131.7,7.2a16.355,16.355,0,0,0,.906,4.156c.428.8,3.359,3.787,4.156,3.468s3.573-3.2,4.321-4.054.478-2.4.587-2.772.531-4.051.531-4.051l.254-3.883a12.832,12.832,0,0,0-.053-2.772c-.161-2.4-.158-3.468-.425-4.054s-.959-.906-2.189-1.226a10.526,10.526,0,0,0-5.969.643,5.11,5.11,0,0,0-2.772,2.663C235.249,98.993,235.258,103.2,235.258,103.2Z" transform="translate(-198.333 -92.445)" fill="#fff" stroke="#263238" stroke-linecap="round" stroke-linejoin="round" stroke-width="1"/>
      <path id="Path_2341" data-name="Path 2341" d="M244.941,113.676s-1.648-1.068-2.561.33" transform="translate(-203.107 -104.682)" fill="none" stroke="#263238" stroke-linecap="round" stroke-linejoin="round" stroke-width="1"/>
      <path id="Path_2342" data-name="Path 2342" d="M257.1,114.248a1.829,1.829,0,0,1,2.241.267" transform="translate(-212.975 -105.149)" fill="none" stroke="#263238" stroke-linecap="round" stroke-linejoin="round" stroke-width="1"/>
      <path id="Path_2343" data-name="Path 2343" d="M251.983,116.41a2.713,2.713,0,0,1,.33,1.318c.053.959-.109,2.93-.109,2.93l-2.024-.214" transform="translate(-208.336 -106.776)" fill="none" stroke="#263238" stroke-linecap="round" stroke-linejoin="round" stroke-width="1"/>
      <path id="Path_2344" data-name="Path 2344" d="M246.91,130.81s1.012,1.648,3.573.8" transform="translate(-206.144 -116.43)" fill="none" stroke="#263238" stroke-linecap="round" stroke-linejoin="round" stroke-width="1"/>
      <path id="Path_2345" data-name="Path 2345" d="M246.539,118.1c0,.31-.142.56-.33.56s-.33-.251-.33-.56.145-.56.33-.56S246.539,117.791,246.539,118.1Z" transform="translate(-205.454 -107.534)" fill="#263238"/>
      <path id="Path_2346" data-name="Path 2346" d="M260.289,118.1c0,.31-.142.56-.33.56s-.33-.251-.33-.56.142-.56.33-.56S260.289,117.791,260.289,118.1Z" transform="translate(-214.671 -107.534)" fill="#263238"/>
      <path id="Path_2347" data-name="Path 2347" d="M246.143,121.43a3.626,3.626,0,0,1-1.493.85" transform="translate(-204.629 -110.141)" fill="none" stroke="#263238" stroke-linecap="round" stroke-linejoin="round" stroke-width="1"/>
      <path id="Path_2348" data-name="Path 2348" d="M258.72,121.43a2.7,2.7,0,0,0,1.388.85" transform="translate(-214.061 -110.141)" fill="none" stroke="#263238" stroke-linecap="round" stroke-linejoin="round" stroke-width="1"/>
      <path id="Path_2349" data-name="Path 2349" d="M247.07,146.34s1.015,1.226,3.84.053" transform="translate(-206.251 -126.841)" fill="none" stroke="#263238" stroke-linecap="round" stroke-linejoin="round" stroke-width="1"/>
      <path id="Path_2350" data-name="Path 2350" d="M232.506,92.923s.158,5.386.33,5.491.639.214.745-.158a10.7,10.7,0,0,0,.053-1.76s.534-.053.639-.906a7.422,7.422,0,0,0-.372-2.347,14.83,14.83,0,0,1,3.731-1.918c1.813-.534,2.775.267,3.893.33a2.637,2.637,0,0,0,1.813-.587,3.483,3.483,0,0,0-.534,1.173,20.05,20.05,0,0,1,.587,2.934c-.109.587-.211,1.226.109,1.437s.692.481.692.481,0,1.44.214,1.546.587-.478.639-1.279a14.924,14.924,0,0,1,.33-3.3c.277-.577.692-1.012.372-1.866a3.849,3.849,0,0,0-1.6-1.648c-.158-.049-2.185-2.663-4.8-3.3s-6.77,3.1-7.2,4.268S232.506,92.923,232.506,92.923Z" transform="translate(-196.163 -87.182)" fill="#263238" stroke="#263238" stroke-linecap="round" stroke-linejoin="round" stroke-width="1"/>
      <path id="Path_2351" data-name="Path 2351" d="M136.047,147.513a16.3,16.3,0,0,1-.735-2.307,3.59,3.59,0,0,0-1.925-2.264,6.645,6.645,0,0,1-2.548-1.757c-.794-.847-1.246-1.131-1.361-.283s.455,1.246,1.022,1.757,1.131.962,1.131.962a7.007,7.007,0,0,1-1.754.33,11.206,11.206,0,0,1-3.115-.283c-.85-.227-3.794-2.377-3.51-1.529s1.7,1.925,2.831,3a7.173,7.173,0,0,0,3.171,2.037c1.3.389,3.4.906,3.4.906l1.19,1.585Z" transform="translate(-123.232 -122.852)" fill="#fff" stroke="#263238" stroke-linecap="round" stroke-linejoin="round" stroke-width="1"/>
      <path id="Path_2352" data-name="Path 2352" d="M130.907,147.6a5.939,5.939,0,0,1-2.1-2.887c-.283-1.529-.168-2.093.227-1.869a10.9,10.9,0,0,1,1.358,2.436l1.7,1.869" transform="translate(-126.867 -124.465)" fill="#fff" stroke="#263238" stroke-linecap="round" stroke-linejoin="round" stroke-width="1"/>
      <path id="Path_2353" data-name="Path 2353" d="M135.633,147.72s-1.7-1.022-1.866-2.04-.567-4.018-.171-3.794,1.19,3.4,1.19,3.4l.962.85" transform="translate(-130.066 -123.847)" fill="#fff" stroke="#263238" stroke-linecap="round" stroke-linejoin="round" stroke-width="1"/>
      <path id="Path_2354" data-name="Path 2354" d="M139.562,148.142s-1.019-1.978-1.246-2.6-.735-3.227-.224-3.115.962,2.716.962,2.716l1.3,1.648a8.782,8.782,0,0,1,2.307-.455c.5.112,1.134,1.134,1.134,1.134" transform="translate(-133.046 -124.212)" fill="#fff" stroke="#263238" stroke-linecap="round" stroke-linejoin="round" stroke-width="1"/>
      <path id="Path_2355" data-name="Path 2355" d="M156.63,162.176l-1.355-1.256-3.346,3.491.982,1.289Z" transform="translate(-142.471 -136.615)" fill="#fff" stroke="#263238" stroke-linecap="round" stroke-linejoin="round" stroke-width="1"/>
      <path id="Path_2356" data-name="Path 2356" d="M181.909,147.67s-1.147,9.078-1.3,14.269.382,32.431.382,32.431l-10.149-.307s1.144-9.615,1.978-13.125a30.713,30.713,0,0,0,.61-8.24c-.076-.458-.61-4.654-.61-4.654s-5.725,3.814-6.411,3.738-4.654-2.967-7.706-6.79a32.843,32.843,0,0,1-4.654-8.24l3.609-4.123,8.547,8.547s4.423-8.926,4.882-9.157S181.909,147.67,181.909,147.67Z" transform="translate(-143.892 -127.732)" fill="#13c693" stroke="#263238" stroke-linecap="round" stroke-linejoin="round" stroke-width="1"/>
      <path id="Path_2357" data-name="Path 2357" d="M225.78,195.27a55.282,55.282,0,0,0,2.38,8.692" transform="translate(-191.979 -159.643)" fill="none" stroke="#263238" stroke-linecap="round" stroke-linejoin="round" stroke-width="1"/>
      <path id="Path_2358" data-name="Path 2358" d="M226.66,152.29l-1.846,4.671,1.477,1.229-2.581,2.7a33.577,33.577,0,0,0,.442,4.156" transform="translate(-190.591 -130.83)" fill="none" stroke="#263238" stroke-linecap="round" stroke-linejoin="round" stroke-width="1"/>
      <path id="Path_2359" data-name="Path 2359" d="M206.3,186.684s-1.526-6.714-1.978-9.384" transform="translate(-177.592 -147.596)" fill="#fff" stroke="#263238" stroke-linecap="round" stroke-linejoin="round" stroke-width="1"/>
      <path id="Path_2360" data-name="Path 2360" d="M238.07,163.4l1.3,3.82,3.533-3.365,2.805,3.626,1.229-3.26" transform="translate(-200.218 -138.278)" fill="#fff" stroke="#263238" stroke-linecap="round" stroke-linejoin="round" stroke-width="1"/>
      <path id="Path_2361" data-name="Path 2361" d="M249.888,166.754l-1.6,2.848-1.833-2.868,2.07-1.955Z" transform="translate(-205.842 -139.203)" fill="#263238" stroke="#263238" stroke-linecap="round" stroke-linejoin="round" stroke-width="1"/>
      <path id="Path_2362" data-name="Path 2362" d="M244.793,179.41,241.24,203.2l3.168,2.548,2.472-2.624Z" transform="translate(-202.343 -149.01)" fill="#263238" stroke="#263238" stroke-linecap="round" stroke-linejoin="round" stroke-width="1"/>
      <circle id="Ellipse_31" data-name="Ellipse 31" cx="4.713" cy="4.713" r="4.713" transform="translate(49.803 12.656) rotate(-13.37)" fill="#fff" stroke="#263238" stroke-linecap="round" stroke-linejoin="round" stroke-width="1"/>
      <path id="Path_2363" data-name="Path 2363" d="M281.977,153.561a16.219,16.219,0,0,0-.04,2.515c.122.405.989,2.027.989,2.027a4.05,4.05,0,0,0,.079,1.5c.2.366,2.149,2.676,2.149,2.676l2.307-2.03-1.309-2.6-.04-3.365S283.576,152.1,281.977,153.561Z" transform="translate(-229.595 -131.346)" fill="#fff" stroke="#263238" stroke-linecap="round" stroke-linejoin="round" stroke-width="1"/>
      <path id="Path_2364" data-name="Path 2364" d="M285.63,145.852l.712,5.851a1.147,1.147,0,0,0,1.266.989h0a1.147,1.147,0,0,0,1.018-1.18l-.2-5.976S286.662,144.214,285.63,145.852Z" transform="translate(-232.101 -125.964)" fill="#fff" stroke="#263238" stroke-linecap="round" stroke-linejoin="round" stroke-width="1"/>
      <path id="Path_2365" data-name="Path 2365" d="M282.916,151.39s-1.516.181-1.516.659.544,2.67,1.028,2.792.85.122.85-.85A16.036,16.036,0,0,0,282.916,151.39Z" transform="translate(-229.266 -130.226)" fill="#fff" stroke="#263238" stroke-linecap="round" stroke-linejoin="round" stroke-width="1"/>
      <path id="Path_2366" data-name="Path 2366" d="M289.549,156.36s-3.52.3-3.58.659.059,1.276.3,1.276,3.4.023,3.458-.33A1.926,1.926,0,0,0,289.549,156.36Z" transform="translate(-232.319 -133.558)" fill="#fff" stroke="#263238" stroke-linecap="round" stroke-linejoin="round" stroke-width="1"/>
      <path id="Path_2367" data-name="Path 2367" d="M289.976,161.54s-3.135.175-3.2.5.02,1.134.237,1.14,3.016.112,3.082-.194A1.735,1.735,0,0,0,289.976,161.54Z" transform="translate(-232.855 -137.031)" fill="#fff" stroke="#263238" stroke-linecap="round" stroke-linejoin="round" stroke-width="1"/>
      <path id="Path_2368" data-name="Path 2368" d="M289.842,166.16s-2.6.145-2.637.412.016.939.2.946,2.5.092,2.548-.162A1.451,1.451,0,0,0,289.842,166.16Z" transform="translate(-233.15 -140.128)" fill="#fff" stroke="#263238" stroke-linecap="round" stroke-linejoin="round" stroke-width="1"/>
      <path id="Path_2369" data-name="Path 2369" d="M288.809,151.57s-3.52.3-3.58.659.059,1.272.3,1.272,3.4.026,3.458-.33S289.234,152.041,288.809,151.57Z" transform="translate(-231.823 -130.347)" fill="#fff" stroke="#263238" stroke-linecap="round" stroke-linejoin="round" stroke-width="1"/>
      <path id="Path_2370" data-name="Path 2370" d="M290.9,170.314l-1.022-.524-2.772,3.4,1.137,1.516Z" transform="translate(-233.094 -142.561)" fill="#fff" stroke="#263238" stroke-linecap="round" stroke-linejoin="round" stroke-width="1"/>
      <path id="Path_2371" data-name="Path 2371" d="M291.162,169.56a16.6,16.6,0,0,1-1.763,3.191c-.755.84-1.6,1.6-1.6,1.6s3.527,8.316,4.021,9.911a5.41,5.41,0,0,0,3.276,2.937,4.845,4.845,0,0,0,3.626-1.259c.771-.841,1.846-3.527,1.259-5.036S291.162,169.56,291.162,169.56Z" transform="translate(-233.556 -142.407)" fill="#13c693" stroke="#263238" stroke-linecap="round" stroke-linejoin="round" stroke-width="1"/>
      <circle id="Ellipse_32" data-name="Ellipse 32" cx="8.527" cy="8.527" r="8.527" transform="translate(50.855 8.031) rotate(-14.51)" fill="#13c693" stroke="#263238" stroke-linecap="round" stroke-linejoin="round" stroke-width="1"/>
      <circle id="Ellipse_33" data-name="Ellipse 33" cx="6.948" cy="6.948" r="6.948" transform="translate(52.91 8.942) rotate(-13.02)" fill="#263238" stroke="#263238" stroke-linecap="round" stroke-linejoin="round" stroke-width="1"/>
      <circle id="Ellipse_34" data-name="Ellipse 34" cx="2.818" cy="2.818" r="2.818" transform="translate(57.758 11.671)" fill="#fff" stroke="#263238" stroke-linecap="round" stroke-linejoin="round" stroke-width="1"/>
      <path id="Path_2372" data-name="Path 2372" d="M307.432,126.959a1.556,1.556,0,1,0-1.556,1.552A1.556,1.556,0,0,0,307.432,126.959Z" transform="translate(-244.631 -112.803)" fill="#13c693" stroke="#263238" stroke-linecap="round" stroke-linejoin="round" stroke-width="1"/>
    </g>
    <g id="freepik--Floor--inject-5" transform="translate(31.187 165.071)">
      <line id="Line_1" data-name="Line 1" x2="3.573" transform="translate(133.978)" fill="none" stroke="#263238" stroke-linecap="round" stroke-linejoin="round" stroke-width="1"/>
      <line id="Line_2" data-name="Line 2" x2="131.526" fill="none" stroke="#263238" stroke-linecap="round" stroke-linejoin="round" stroke-width="1"/>
    </g>
  </g>
</svg>
