<svg xmlns="http://www.w3.org/2000/svg" width="170" height="126.67" viewBox="0 0 170 126.67">
  <g id="Create-rafiki" transform="translate(0 -55)">
    <g id="freepik--background-complete--inject-41" transform="translate(0 55)">
      <rect id="Rectangle_295" data-name="Rectangle 295" width="170" height="0.085" transform="translate(0 111.316)" fill="#e0e0e0"/>
      <rect id="Rectangle_296" data-name="Rectangle 296" width="3.563" height="0.085" transform="translate(131.012 113.9)" fill="#e0e0e0"/>
      <rect id="Rectangle_297" data-name="Rectangle 297" width="13.685" height="0.085" transform="translate(137.812 115.6)" fill="#e0e0e0"/>
      <rect id="Rectangle_298" data-name="Rectangle 298" width="4.094" height="0.085" transform="translate(91.178 115.348)" fill="#e0e0e0"/>
      <rect id="Rectangle_299" data-name="Rectangle 299" width="21.808" height="0.085" transform="translate(67.412 115.348)" fill="#e0e0e0"/>
      <rect id="Rectangle_300" data-name="Rectangle 300" width="17.53" height="0.085" transform="translate(29.957 114.811)" fill="#e0e0e0"/>
      <rect id="Rectangle_301" data-name="Rectangle 301" width="14.039" height="0.085" transform="translate(108.994 113.41)" fill="#e0e0e0"/>
      <rect id="Rectangle_302" data-name="Rectangle 302" width="4.865" height="0.085" transform="translate(22.076 114.77)" fill="#e0e0e0"/>
      <path id="Path_2523" data-name="Path 2523" d="M105.8,151.152H40.148a1.941,1.941,0,0,1-1.938-1.941V56.924A1.941,1.941,0,0,1,40.148,55H105.8a1.941,1.941,0,0,1,1.941,1.941v92.269A1.941,1.941,0,0,1,105.8,151.152ZM40.148,55.068A1.856,1.856,0,0,0,38.3,56.924v92.286a1.856,1.856,0,0,0,1.853,1.856H105.8a1.86,1.86,0,0,0,1.856-1.856V56.924a1.86,1.86,0,0,0-1.856-1.856Z" transform="translate(-25.219 -55)" fill="#e0e0e0"/>
      <path id="Path_2524" data-name="Path 2524" d="M322.1,151.152H256.441a1.945,1.945,0,0,1-1.941-1.941V56.924A1.945,1.945,0,0,1,256.441,55H322.1a1.941,1.941,0,0,1,1.935,1.924v92.286A1.941,1.941,0,0,1,322.1,151.152ZM256.441,55.068a1.86,1.86,0,0,0-1.856,1.856v92.286a1.86,1.86,0,0,0,1.856,1.856H322.1a1.86,1.86,0,0,0,1.856-1.856V56.924a1.86,1.86,0,0,0-1.856-1.856Z" transform="translate(-167.97 -55)" fill="#e0e0e0"/>
      <rect id="Rectangle_303" data-name="Rectangle 303" width="29.468" height="33.912" transform="translate(111.666 12.903)" fill="#e0e0e0"/>
      <rect id="Rectangle_304" data-name="Rectangle 304" width="31.902" height="33.912" transform="translate(112.577 12.903)" fill="#f0f0f0"/>
      <rect id="Rectangle_305" data-name="Rectangle 305" width="28.567" height="26.557" transform="translate(141.807 15.575) rotate(90)" fill="#fafafa"/>
      <circle id="Ellipse_36" data-name="Ellipse 36" cx="8.286" cy="8.286" r="8.286" transform="matrix(0.987, -0.159, 0.159, 0.987, 119.03, 22.989)" fill="#f0f0f0"/>
      <rect id="Rectangle_306" data-name="Rectangle 306" width="7.477" height="29.658" transform="translate(139.482 81.654)" fill="#e0e0e0"/>
      <path id="Path_2525" data-name="Path 2525" d="M425.169,374.559h1.418V370.52H423.68Z" transform="translate(-279.629 -263.243)" fill="#ebebeb"/>
      <rect id="Rectangle_307" data-name="Rectangle 307" width="7.477" height="29.658" transform="translate(106.723 81.654)" fill="#e0e0e0"/>
      <rect id="Rectangle_308" data-name="Rectangle 308" width="34" height="27.18" transform="translate(112.958 81.654)" fill="#ebebeb"/>
      <path id="Path_2526" data-name="Path 2526" d="M367.27,298.71h-31.8v7.453h31.8Z" transform="translate(-221.41 -215.849)" fill="#f5f5f5"/>
      <path id="Path_2527" data-name="Path 2527" d="M333.651,374.559H332.23V370.52h2.91Z" transform="translate(-219.272 -263.243)" fill="#ebebeb"/>
      <path id="Path_2528" data-name="Path 2528" d="M380,308.211a.751.751,0,1,0,.751-.751A.751.751,0,0,0,380,308.211Z" transform="translate(-250.8 -221.624)" fill="#e0e0e0"/>
      <path id="Path_2529" data-name="Path 2529" d="M367.27,324.17h-31.8v7.456h31.8Z" transform="translate(-221.41 -232.652)" fill="#f5f5f5"/>
      <path id="Path_2530" data-name="Path 2530" d="M380,333.675a.751.751,0,1,0,.219-.534A.751.751,0,0,0,380,333.675Z" transform="translate(-250.8 -238.427)" fill="#e0e0e0"/>
      <path id="Path_2531" data-name="Path 2531" d="M367.27,349.64h-31.8v7.453h31.8Z" transform="translate(-221.41 -249.462)" fill="#f5f5f5"/>
      <path id="Path_2532" data-name="Path 2532" d="M380,359.141a.751.751,0,1,0,.751-.751A.751.751,0,0,0,380,359.141Z" transform="translate(-250.8 -255.237)" fill="#e0e0e0"/>
      <path id="Path_2533" data-name="Path 2533" d="M246.347,191.115a31.126,31.126,0,0,1,6.494,7.861,20.188,20.188,0,0,1,2.8,8.565c0-3.91-.02-8.112-.034-12.077-.452-1.02-1.486-3.369-2.227-5.229-2.475-6.2-3.4-7.721-5.62-13.07-2.968-7.14-6.011-15.592-5.137-14.916,1.771,1.38,8.575,14.113,9.309,15.936A51.106,51.106,0,0,1,255.6,193.42c0-3.74-.027-7.14-.041-9.782-.048-8.605-.194-11.38-.265-12.24-.275-.435-.6-.942-.789-1.217-1.6-2.309-2.213-4.277-3.72-7.721-2.132-4.882-3.968-13.549-3.431-13.11,2.234,1.819,4,5.732,6.317,10.72s1.652,7.851,2.115,12.111c.1.836.17,3.988.221,8.361.6-4.658,1.731-7.725,3.788-10.516a30.088,30.088,0,0,1,6.773-6.953c1.8-1.207-3.1,7.215-5.44,10.88a54.88,54.88,0,0,0-5.1,9.01c.058,5.923.085,13.423.085,20.4a40.992,40.992,0,0,1,2.584-9.248c1.408-3.186,3.57-8.068,5.294-9.724.411-.4-1.8,9.1-3.223,11.625s-2.465,4.906-3.359,6.338c-.207.34-.9,1.622-1.3,2.36,0,8.524-.048,16.048-.122,18.608h-.367c.024-.68.027-5,.02-10.737-.887-3.114-2.914-6.671-4.587-9.914C249.237,199.159,244.566,189.659,246.347,191.115Z" transform="translate(-160.032 -117.26)" fill="#e0e0e0"/>
      <path id="Path_2534" data-name="Path 2534" d="M264.476,362.125h10.656l.806-10.445H263.67Z" transform="translate(-174.022 -250.809)" fill="#ebebeb"/>
      <path id="Path_2535" data-name="Path 2535" d="M260.568,348.412h13.852l.4-3.522H260.17Z" transform="translate(-171.712 -246.327)" fill="#ebebeb"/>
      <rect id="Rectangle_309" data-name="Rectangle 309" width="19.057" height="20.927" transform="translate(25.65 12.029)" fill="#e0e0e0"/>
      <rect id="Rectangle_310" data-name="Rectangle 310" width="19.686" height="20.927" transform="translate(27.088 12.029)" fill="#f0f0f0"/>
      <rect id="Rectangle_311" data-name="Rectangle 311" width="17.629" height="16.388" transform="translate(45.121 13.678) rotate(90)" fill="#fafafa"/>
      <rect id="Rectangle_312" data-name="Rectangle 312" width="9.081" height="8.442" transform="translate(41.15 17.952) rotate(90)" fill="#f0f0f0"/>
      <rect id="Rectangle_313" data-name="Rectangle 313" width="14.137" height="15.524" transform="translate(50.368 24.507)" fill="#e0e0e0"/>
      <rect id="Rectangle_314" data-name="Rectangle 314" width="14.603" height="15.524" transform="translate(51.435 24.507)" fill="#f0f0f0"/>
      <rect id="Rectangle_315" data-name="Rectangle 315" width="13.076" height="12.155" transform="translate(64.814 25.731) rotate(90)" fill="#fafafa"/>
      <path id="Path_2536" data-name="Path 2536" d="M166.3,140.19l-3.325,5.756h6.65Z" transform="translate(-107.56 -111.225)" fill="#f0f0f0"/>
      <rect id="Rectangle_316" data-name="Rectangle 316" width="9.289" height="38.257" transform="translate(24.324 71.254)" fill="#ebebeb"/>
      <rect id="Rectangle_317" data-name="Rectangle 317" width="64.539" height="1.805" transform="translate(26.105 109.511)" fill="#ebebeb"/>
      <rect id="Rectangle_318" data-name="Rectangle 318" width="58.82" height="38.257" transform="translate(92.429 109.511) rotate(180)" fill="#f5f5f5"/>
      <rect id="Rectangle_319" data-name="Rectangle 319" width="51.517" height="9.343" transform="translate(88.777 95.054) rotate(180)" fill="#ebebeb"/>
      <rect id="Rectangle_320" data-name="Rectangle 320" width="51.517" height="9.343" transform="translate(88.777 106.104) rotate(180)" fill="#ebebeb"/>
      <path id="Path_2537" data-name="Path 2537" d="M171.578,307.612H144.953a.643.643,0,0,1-.643-.639h0a.643.643,0,0,1,.643-.643h26.625a.643.643,0,0,1,.639.643h0A.639.639,0,0,1,171.578,307.612Z" transform="translate(-95.245 -220.878)" fill="#f5f5f5"/>
      <rect id="Rectangle_321" data-name="Rectangle 321" width="51.517" height="9.343" transform="translate(88.777 84.004) rotate(180)" fill="#ebebeb"/>
      <path id="Path_2538" data-name="Path 2538" d="M171.578,275.122H144.953a.643.643,0,0,1-.643-.643h0a.643.643,0,0,1,.643-.639h26.625a.639.639,0,0,1,.639.639h0A.643.643,0,0,1,171.578,275.122Z" transform="translate(-95.245 -199.434)" fill="#f5f5f5"/>
      <path id="Path_2539" data-name="Path 2539" d="M171.578,340.112H144.953a.643.643,0,0,1-.643-.643h0a.643.643,0,0,1,.643-.639h26.625a.639.639,0,0,1,.639.639h0A.643.643,0,0,1,171.578,340.112Z" transform="translate(-95.245 -242.328)" fill="#f5f5f5"/>
      <rect id="Rectangle_322" data-name="Rectangle 322" width="60.058" height="3.142" transform="translate(33.612 68.112)" fill="#ebebeb"/>
      <rect id="Rectangle_323" data-name="Rectangle 323" width="10.588" height="3.142" transform="translate(33.612 71.257) rotate(180)" fill="#e0e0e0"/>
    </g>
    <g id="freepik--Shadow--inject-41" transform="translate(19.077 173.973)">
      <ellipse id="Ellipse_37" data-name="Ellipse 37" cx="65.923" cy="3.849" rx="65.923" ry="3.849" transform="translate(0 0)" fill="#f5f5f5"/>
    </g>
    <g id="freepik--Picture--inject-41" transform="translate(15.752 60.957)">
      <rect id="Rectangle_324" data-name="Rectangle 324" width="0.34" height="2.268" transform="translate(84.014 9.85) rotate(-2.43)" fill="#13c693"/>
      <rect id="Rectangle_325" data-name="Rectangle 325" width="0.34" height="2.268" transform="translate(84.014 9.85) rotate(-2.43)" opacity="0.3"/>
      <rect id="Rectangle_326" data-name="Rectangle 326" width="0.34" height="4.92" transform="translate(83.718 2.951) rotate(-2.43)" fill="#13c693"/>
      <rect id="Rectangle_327" data-name="Rectangle 327" width="0.34" height="4.92" transform="translate(83.718 2.951) rotate(-2.43)" opacity="0.3"/>
      <path id="Path_2540" data-name="Path 2540" d="M46.33,76.025l2.757,65.154,3.584,17.473,79.907-3.386L129.072,72.52Z" transform="translate(-46.33 -72.52)" fill="#13c693"/>
      <path id="Path_2541" data-name="Path 2541" d="M46.33,76.025l2.757,65.154,3.584,17.473,79.907-3.386L129.072,72.52Z" transform="translate(-46.33 -72.52)" opacity="0.3"/>
      <path id="Path_2542" data-name="Path 2542" d="M135.081,158.113h0l-.156-3.669h0l-.156-3.669h0l-.153-3.669h0l-.156-3.669h0l-.156-3.669h0l-.156-3.669h0l-.153-3.665h0l-.156-3.669h0l-.156-3.669h0l-.15-3.686h0l-.078-1.836-.078-1.833h0l-.156-3.669h0l-.156-3.669h0l-.153-3.669h0l-.16-3.665h0l-.156-3.669h0l-.156-3.669h0l-.153-3.669h0l-.156-3.669h0l-.156-3.686h0l-.139-3.672h0a.085.085,0,0,0-.085-.082h0l-3.669.156h0l-3.669.153h0l-3.672.156h0l-66.086,2.8a.126.126,0,0,0-.061.027.1.1,0,0,0-.02.061L56.2,122.851l1.36,31.793-3.091-7.891,3.58,17.469,1.387-2.819,2.166-.092h0l3.669-.156h0L68.93,161h0l3.669-.156h0l3.669-.156h0l3.665-.153h0l3.669-.156h0l3.665-.156h0l3.669-.156h0l3.669-.153h0l3.665-.156h0l3.669-.156h0l3.713-.156h0l3.669-.153h0l3.665-.156h0l3.669-.156h0l3.665-.153h0l3.665-.153h0l3.665-.156h0l3.665-.156h0l3.665-.153h0a.088.088,0,0,0,.058-.031.078.078,0,0,0,.044-.065Zm-77.52-7.66,3.5-.146.15,3.5-3.5.15Zm-.156-3.669,3.5-.15.146,3.5-3.5.146Zm-.153-3.669,3.5-.15.15,3.5-3.5.15Zm-.173-3.662,3.5-.15.15,3.5-3.5.15Zm-.156-3.669,3.5-.15.146,3.478-3.5.15Zm-.156-3.672,3.5-.146.163,3.488-3.5.15Zm-.153-3.669,3.5-.15.15,3.5-3.5.146Zm-.156-3.672,3.5-.146.136,3.488-3.5.15Zm-.082-1.918-.075-1.761,3.5-.15.071,1.751.075,1.751-3.5.146Zm-.231-5.44,3.5-.146.15,3.5-3.5.15Zm-.153-3.669,3.5-.133.15,3.5-3.5.146Zm-.156-3.672,3.5-.146.15,3.5-3.5.15Zm-.163-3.662,3.5-.15.146,3.5-3.5.146Zm-.146-3.679,3.5-.146.15,3.5-3.5.15Zm-.156-3.669,3.5-.15.15,3.5-3.5.146ZM55.211,95.4l3.519-.143.146,3.5-3.5.15Zm-.156-3.672,3.5-.15.146,3.5-3.5.15ZM54.9,88.056l3.488-.143.15,3.5-3.5.15Zm-.156-3.672,3.5-.146.146,3.505-3.5.15Zm77.051.245-3.5.146-.15-3.5,3.5-.15Zm.156,3.669-3.5.15-.146-3.5,3.5-.146Zm.156,3.669-3.5.15-.146-3.5,3.5-.15Zm.153,3.672-3.5.146-.15-3.5,3.5-.15Zm.156,3.669-3.5.15-.15-3.5,3.5-.146Zm.156,3.672-3.5.146-.146-3.5,3.5-.15Zm.156,3.669-3.5.15-.15-3.5,3.5-.146Zm.153,3.672-3.5.146-.15-3.5,3.5-.15Zm.156,3.669-3.5.15-.15-3.5,3.5-.146Zm.156,3.672-3.5.146-.146-3.5,3.5-.15Zm.082,1.918.071,1.751-3.5.15-.061-1.744-.075-1.751,3.5-.146Zm.228,5.423-3.5.146-.15-3.5,3.5-.15Zm.156,3.669-3.5.15-.146-3.5,3.516-.143Zm.156,3.669-3.5.15-.146-3.5,3.5-.15Zm.153,3.672-3.5.146-.15-3.5,3.5-.15Zm.156,3.669-3.5.15-.15-3.5,3.5-.146Zm.156,3.672-3.5.146-.146-3.5,3.5-.15Zm.156,3.669-3.5.15-.146-3.5,3.5-.146Zm.153,3.672-3.5.146-.15-3.5,3.5-.15Zm.156,3.669-3.5.15-.15-3.5,3.5-.146ZM60.043,122.688l-.071-1.751,3.5-.15.075,1.751.075,1.751-3.5.15Zm69.564-2.955.075,1.751-3.5.146-.075-1.748-.075-1.751,3.5-.15Zm-65.892,2.791-.075-1.751,3.5-.146.071,1.748.075,1.751-3.5.15Zm62.22-2.635.075,1.751-3.5.146-.075-1.751-.075-1.748,3.5-.15Zm-58.551,2.485-.071-1.748,3.5-.15.075,1.751.075,1.748-3.5.15Zm54.883-2.322.075,1.748-3.5.15-.075-1.751-.075-1.751,3.5-.146Zm-51.211,2.169-.075-1.751,3.5-.15.075,1.751.075,1.751-3.5.146Zm47.542-2.016.075,1.751-3.5.156-.075-1.751-.071-1.751,3.5-.146Zm-43.86,1.86-.075-1.751,3.5-.146.075,1.748.075,1.751-3.5.15Zm40.2-1.7.075,1.751-3.5.146-.075-1.748-.075-1.751,3.5-.15ZM78.4,121.91l-.075-1.751,3.5-.146.075,1.751.075,1.748-3.5.15Zm32.861-1.391.075,1.748-3.5.15-.075-1.751-.065-1.748,3.5-.15Zm-29.192,1.234-.075-1.748,3.5-.15.075,1.751.075,1.751-3.5.146Zm25.52-1.081.075,1.751-3.5.15-.075-1.751-.075-1.751,3.5-.146Zm-21.848.928-.075-1.751,3.5-.15.075,1.751.075,1.751-3.5.146Zm18.18-.772.075,1.751-3.5.15-.071-1.751-.075-1.751,3.5-.15Zm-10.846.459L93,119.54l3.5-.15.075,1.751.075,1.748-3.5.15Zm-.231-5.42,3.5-.15.146,3.5-3.5.15Zm-.014,3.526-3.5.146-.146-3.5,3.5-.15ZM100.248,121l.071,1.751-3.5.146-.075-1.748-.075-1.751,3.5-.15Zm-3.584-1.771-.146-3.5,3.5-.146.15,3.5Zm0,3.845.15,3.5-3.5.146-.146-3.5Zm.17,0,3.5-.146.15,3.5-3.5.15Zm3.669-.153,3.5-.15.15,3.5-3.5.15Zm-.16-3.842-.15-3.5,3.5-.15.15,3.5Zm-.156-3.669-.15-3.5,3.5-.146.146,3.5Zm-.17,0-3.5.146-.146-3.5,3.5-.15Zm-3.672.153-3.5.15-.15-3.5,3.5-.15Zm-3.669.156-3.5.15-.146-3.5,3.5-.146ZM89,115.878l-3.5.15-.15-3.5,3.5-.15Zm0,.17.146,3.5-3.5.15-.15-3.5Zm.4,5.386-.075-1.751,3.5-.146.075,1.748.071,1.751-3.5.15Zm3.584,1.771.146,3.5-3.5.167-.15-3.5Zm.153,3.672.15,3.5-3.5.15-.146-3.5Zm.17,0,3.5-.146.146,3.5-3.5.15Zm3.672-.153,3.5-.15.15,3.5-3.5.146Zm3.669-.156,3.5-.15.136,3.516-3.5.146Zm3.672-.156,3.5-.146.15,3.5-3.5.15Zm0-.17-.15-3.5,3.5-.15.15,3.5Zm-.313-7.341-.15-3.5,3.5-.15.15,3.5Zm-.156-3.669-.146-3.5,3.5-.146.15,3.5Zm-.153-3.672-.15-3.5,3.5-.15.15,3.5Zm-.17,0-3.5.146-.16-3.488,3.5-.15Zm-3.672.153-3.5.15-.15-3.5,3.5-.146Zm-3.669.156-3.5.15-.146-3.5,3.5-.146Zm-3.672.156-3.5.146-.15-3.5,3.5-.15Zm-3.669.153-3.5.15-.153-3.475,3.5-.15Zm-3.672.156-3.5.15-.15-3.5,3.5-.146Zm0,.17.15,3.5-3.5.146-.15-3.5Zm.156,3.672.15,3.5-3.5.15-.133-3.492Zm.313,7.341.146,3.5-3.5.15-.15-3.5Zm.17,0,3.512-.146.136,3.5-3.5.15Zm3.655,3.522.146,3.5-3.5.146-.15-3.5Zm.156,3.672.146,3.5-3.505.143-.15-3.5Zm.17,0,3.5-.15.15,3.5-3.5.15Zm3.669-.156,3.5-.15.15,3.5-3.5.146Zm3.669-.156,3.5-.146.15,3.5-3.5.15Zm3.672-.156,3.5-.146.15,3.5-3.5.15Zm3.669-.153,3.5-.15.146,3.5-3.5.146Zm3.672-.156,3.5-.15.15,3.5-3.5.146Zm0-.17-.15-3.5,3.5-.15.146,3.5Zm-.156-3.669-.15-3.5,3.5-.15.146,3.5Zm-.3-7.347-.15-3.5,3.5-.146.15,3.5Zm-.156-3.672-.163-3.5,3.5-.15.146,3.5Zm-.184-3.669-.15-3.5,3.5-.146.15,3.5Zm-.156-3.672-.146-3.5,3.5-.15.15,3.5Zm-.17,0-3.5.15-.15-3.5,3.5-.146Zm-3.669.156-3.5.15-.146-3.5,3.5-.146Zm-3.672.156-3.5.146-.15-3.5,3.5-.15Zm-3.669.156-3.5.146-.122-3.492,3.5-.15Zm-3.672.153-3.5.15-.15-3.5,3.5-.146Zm-3.669.156-3.5.15-.15-3.5,3.5-.146Zm-3.669.156-3.5.146-.146-3.5,3.5-.15Zm-3.672.153-3.5.15-.15-3.5,3.5-.15Zm0,.17.15,3.5-3.5.146-.146-3.5Zm.156,3.672.15,3.5-3.5.15-.146-3.5Zm.156,3.669.146,3.5-3.5.146-.15-3.5Zm.309,7.341.15,3.5-3.5.146-.146-3.5Zm.156,3.672.15,3.5-3.5.15-.15-3.5Zm.17,0,3.5-.15.15,3.5-3.5.15Zm3.655,3.519.15,3.5-3.5.15-.146-3.5Zm.156,3.672.146,3.5-3.5.15-.129-3.492Zm.17,0,3.5-.15.15,3.5-3.5.146Zm3.669-.156,3.5-.15.146,3.5-3.5.15Zm3.672-.156,3.5-.146.15,3.5-3.5.15Zm3.669-.153,3.5-.15.146,3.5-3.5.15Zm3.672-.156,3.5-.15.15,3.5-3.5.146Zm3.669-.156,3.5-.146.146,3.5-3.5.15Zm3.672-.156,3.5-.146.15,3.5-3.5.15Zm3.669-.153,3.5-.15.146,3.5-3.5.146Zm0-.17-.15-3.5,3.5-.146.146,3.5Zm-.156-3.672-.146-3.5,3.5-.15.15,3.5Zm-.156-3.669-.146-3.5,3.5-.146.15,3.5Zm-.309-7.341-.15-3.5,3.5-.146.146,3.492Zm-.156-3.672-.146-3.5,3.5-.15.15,3.5Zm-.153-3.669-.15-3.5,3.5-.146.15,3.5Zm-.156-3.672-.136-3.492,3.5-.15.146,3.5Zm-.156-3.669-.15-3.5,3.5-.15.15,3.5Zm-.17,0-3.5.15-.15-3.5,3.5-.146Zm-3.669.156-3.5.146-.146-3.5,3.5-.15Zm-3.672.156-3.5.146-.15-3.5,3.5-.15Zm-3.669.153-3.5.15-.146-3.5,3.5-.146Zm-3.672.156-3.5.15-.15-3.5,3.5-.146Zm-3.669.156-3.5.146-.146-3.5,3.5-.15Zm-3.672.156-3.5.146-.15-3.5,3.5-.15ZM84.849,105l-3.5.15-.146-3.5,3.5-.146Zm-3.672.156-3.5.15-.15-3.5,3.5-.146Zm-3.669.156-3.478.136-.146-3.5,3.5-.15Zm0,.17.15,3.5-3.5.15-.146-3.5Zm.156,3.669.146,3.5-3.5.146-.15-3.5Zm.153,3.672.15,3.5-3.5.15-.15-3.5Zm.156,3.669.15,3.5-3.5.146-.146-3.5Zm.313,7.341.146,3.5-3.5.15-.15-3.5Zm.153,3.669.15,3.5-3.5.15-.15-3.5Zm.156,3.672.15,3.5-3.5.15-.146-3.5Zm.17,0,3.5-.15.146,3.5-3.5.146Zm3.675,3.516.15,3.5-3.5.15-.146-3.5Zm.156,3.669.15,3.5-3.5.146-.146-3.5Zm.17,0,3.5-.15.146,3.5-3.5.146Zm3.672-.156,3.5-.146.15,3.5-3.5.15Zm3.669-.153,3.5-.15.15,3.5-3.5.15Zm3.669-.156,3.5-.15.15,3.5-3.5.146Zm3.672-.156,3.5-.15.15,3.5-3.5.15Zm3.669-.156,3.5-.146.146,3.5-3.5.15Zm3.672-.153,3.5-.15.15,3.5-3.5.15Zm3.669-.156,3.5-.15.146,3.5-3.5.146Zm3.672-.156,3.5-.146.15,3.5-3.5.15Zm3.669-.156,3.5-.146.146,3.5-3.5.15Zm0-.17-.146-3.5,3.5-.15.15,3.5Zm-.156-3.669-.146-3.5,3.5-.146.15,3.5Zm-.153-3.672-.15-3.5,3.5-.15.15,3.5Zm-.156-3.669-.163-3.505,3.5-.15.146,3.5Zm-.313-7.341-.146-3.5,3.5-.15.15,3.5Zm-.153-3.669-.15-3.5,3.5-.146.146,3.5Zm-.156-3.672-.15-3.5,3.5-.15.146,3.5Zm-.156-3.669-.146-3.5,3.5-.146.15,3.5Zm-.153-3.672-.15-3.5,3.5-.15.15,3.5Zm-.156-3.669-.15-3.5,3.5-.146.146,3.5Zm-.17,0-3.5.15-.146-3.5,3.5-.146Zm-3.672.156-3.5.146-.15-3.5,3.5-.15Zm-3.669.153-3.5.15-.146-3.5,3.5-.15Zm-3.672.156-3.5.15-.15-3.5,3.5-.146Zm-3.669.156-3.5.146-.146-3.5,3.5-.15Zm-3.672.156-3.5.146-.15-3.5,3.5-.15Zm-3.672.163-3.5.15-.15-3.5,3.5-.146Zm-3.669.156-3.5.15-.146-3.5,3.5-.146Zm-3.672.156-3.5.146-.153-3.519,3.5-.15Zm-3.669.156-3.5.146-.146-3.5,3.5-.15Zm-3.672.153-3.5.15-.15-3.5,3.5-.146Zm-3.669.156-3.5.15-.146-3.5,3.5-.146Zm0,.17.146,3.5-3.5.15-.15-3.5Zm.156,3.669.146,3.5-3.5.146-.146-3.505Zm.153,3.672.15,3.5-3.5.15-.146-3.5Zm.156,3.669.15,3.5-3.5.146-.146-3.5Zm.156,3.672.146,3.5-3.5.15-.15-3.5ZM74.632,124l.15,3.5-3.5.15-.146-3.5Zm.156,3.669.15,3.5-3.5.146-.15-3.5Zm.156,3.672.146,3.5-3.5.15-.15-3.5Zm.153,3.669.15,3.5-3.5.146-.15-3.5Zm.17,0,3.5-.15.146,3.5-3.5.146Zm3.658,3.522.146,3.5-3.5.15-.15-3.5Zm.153,3.669.15,3.5-3.5.146-.146-3.5Zm.17,0,3.5-.146.146,3.5-3.5.15Zm3.672-.156,3.5-.146.15,3.5-3.5.15Zm3.669-.153,3.5-.15.146,3.5-3.5.146Zm3.672-.156,3.5-.15.15,3.5-3.5.146Zm3.669-.156,3.5-.146.146,3.5-3.5.15Zm3.672-.153,3.5-.15.15,3.5-3.5.15Zm3.669-.156,3.5-.15.146,3.5-3.5.146Zm3.672-.156,3.5-.15.15,3.5-3.5.15Zm3.669-.156,3.5-.146.146,3.5-3.5.15Zm3.672-.153,3.5-.15.15,3.5-3.5.15Zm3.669-.156,3.5-.177.15,3.5-3.5.146Zm3.672-.177,3.5-.146.146,3.5-3.5.15Zm0-.17-.146-3.5,3.5-.15.15,3.5Zm-.153-3.669-.15-3.5,3.5-.146.15,3.5Zm-.156-3.672-.15-3.5,3.5-.15.146,3.5Zm-.156-3.669-.15-3.5,3.5-.146.15,3.5ZM119,125.622l-.153-3.509,3.5-.15.15,3.5Zm-.309-7.341-.15-3.5,3.5-.15.146,3.5Zm-.156-3.669-.146-3.5,3.5-.146.15,3.5Zm-.156-3.672-.15-3.5,3.5-.15.15,3.5Zm-.15-3.672-.15-3.5,3.5-.15.146,3.5Zm-.156-3.669-.15-3.5,3.5-.146.146,3.5Zm-.156-3.672-.146-3.5,3.5-.15.15,3.5Zm-.163-3.655-.15-3.5,3.5-.146.15,3.5Zm-.17,0-3.5.146-.15-3.5,3.5-.15Zm-3.672.156-3.5.146-.15-3.5,3.5-.15Zm-3.669.153-3.5.15-.146-3.5,3.5-.146Zm-3.672.156-3.5.15-.15-3.5,3.5-.146ZM102.9,96.9l-3.5.146-.146-3.488,3.5-.15Zm-3.672.153-3.5.15-.15-3.5,3.5-.15Zm-3.669.156-3.5.15-.146-3.5,3.5-.146Zm-3.672.156-3.5.146-.15-3.5,3.5-.15Zm-3.669.156-3.5.146-.15-3.505,3.5-.15Zm-3.672.153-3.5.15-.15-3.5,3.5-.146Zm-3.669.156-3.5.15-.146-3.5,3.5-.146Zm-3.672.156-3.5.146-.15-3.5,3.5-.15Zm-3.669.156-3.5.146-.15-3.5,3.5-.15Zm-3.669.153-3.5.15-.16-3.509,3.5-.146Zm0,.17.146,3.5-3.5.146-.15-3.5Zm.153,3.672.15,3.5-3.492.16-.133-3.519Zm.163,3.658.15,3.5-3.5.146-.146-3.5Zm.156,3.672.146,3.5-3.5.15-.15-3.5Zm.156,3.669.146,3.5-3.5.146L67,113.274Zm.153,3.672.15,3.5-3.5.15-.146-3.5Zm.316,7.347.146,3.5-3.5.15-.15-3.5Zm.153,3.672.15,3.5-3.5.15-.15-3.5Zm.156,3.669.15,3.5-3.519.139-.133-3.5Zm.156,3.672.15,3.5-3.5.15-.15-3.5Zm.156,3.669.146,3.5-3.488.139-.15-3.5Zm.17,0,3.5-.146.15,3.5-3.5.15Zm3.655,3.522.146,3.5-3.5.15-.15-3.5Zm.156,3.669.146,3.5-3.5.15-.15-3.5Zm.17,0,3.5-.146.15,3.5-3.5.15Zm3.669-.153,3.5-.15.146,3.5-3.5.15Zm3.672-.156,3.5-.15.15,3.5-3.5.146Zm3.669-.156,3.5-.146.15,3.5-3.5.15Zm3.669-.156,3.5-.146.15,3.5-3.5.15Zm3.669-.17,3.5-.15.15,3.5-3.5.146Zm3.669-.156,3.5-.15.146,3.5-3.5.146Zm3.672-.156,3.5-.146.15,3.5-3.5.15Zm3.669-.153,3.5-.15.146,3.5-3.5.15Zm3.672-.156,3.5-.15.15,3.5-3.5.146Zm3.679-.16,3.5-.15.146,3.5-3.5.15Zm3.672-.156,3.5-.146.15,3.5-3.5.15Zm3.669-.153,3.5-.15.146,3.5-3.5.15Zm3.672-.156,3.5-.15.15,3.5-3.5.146Zm0-.17-.146-3.5,3.5-.146.15,3.5Zm-.153-3.672-.15-3.5,3.5-.15.146,3.5Zm-.156-3.669-.15-3.5,3.5-.146.146,3.5ZM123,132.8l-.146-3.5,3.5-.15.15,3.5Zm-.153-3.669-.15-3.5,3.5-.15.15,3.5Zm-.156-3.669-.15-3.5,3.5-.146.146,3.5Zm-.313-7.341-.167-3.492,3.5-.146.15,3.5Zm-.153-3.672-.15-3.5,3.5-.15.139,3.488Zm-.156-3.669-.15-3.5,3.5-.146.146,3.5Zm-.156-3.672-.146-3.5,3.5-.15.15,3.5Zm-.156-3.669-.146-3.5,3.5-.146.15,3.5Zm-.153-3.672-.17-3.5,3.5-.15.146,3.5Zm-.156-3.669-.153-3.5,3.5-.146.146,3.5Zm-.156-3.672-.146-3.5,3.5-.15.15,3.5Zm-.17,0-3.5.146-.15-3.5,3.5-.15Zm-3.669.153-3.5.15-.146-3.5,3.5-.146Zm-3.672.156-3.5.15-.15-3.5,3.5-.146Zm-3.669.156-3.5.146-.146-3.5,3.5-.15Zm-3.672.156-3.505.16-.15-3.5,3.5-.15Zm-3.669.153-3.5.15-.146-3.5,3.5-.146Zm-3.672.156-3.5.15-.15-3.5,3.5-.146Zm-3.669.156-3.5.146-.15-3.5,3.5-.15Zm-3.669.153-3.5.15-.146-3.5,3.5-.15Zm-3.672.156-3.5.15-.15-3.5,3.5-.146Zm-3.669.156-3.5.146-.146-3.5,3.5-.15Zm-3.672.156-3.5.146L77.09,90.8l3.5-.15Zm-3.669.153-3.5.15-.146-3.5,3.5-.146Zm-3.672.156-3.5.15-.15-3.5,3.5-.146Zm-3.669.156-3.5.146-.146-3.5,3.5-.15Zm-3.672.156-3.519.15-.15-3.5,3.5-.15Zm0,.17.146,3.509-3.5.15-.15-3.5Zm.146,3.679.15,3.5-3.5.15-.146-3.5Zm.156,3.669.15,3.5-3.5.146-.15-3.5Zm.156,3.672.146,3.5-3.5.15-.15-3.5Zm.153,3.669.15,3.5-3.5.15-.15-3.5Zm.156,3.672.15,3.5-3.5.15-.146-3.5Zm.156,3.669.146,3.5-3.5.146-.146-3.5ZM67.3,124.3l.15,3.5-3.5.146-.146-3.5Zm.156,3.672.15,3.5-3.5.15-.146-3.5Zm.153,3.658.146,3.5-3.5.146-.15-3.5Zm.153,3.672.15,3.509-3.5.15-.15-3.5Zm.15,3.679.15,3.5-3.5.15-.146-3.5Zm.156,3.669.15,3.5-3.5.15-.146-3.5Zm.17,0,3.5-.146.15,3.5-3.5.15Zm3.655,3.522.15,3.5-3.5.146-.146-3.5Zm.156,3.672.146,3.5-3.5.15-.143-3.5Zm.17,0,3.5-.15.15,3.5-3.5.15Zm3.669-.156,3.5-.15.146,3.5-3.5.146Zm3.672-.156,3.5-.15.15,3.5-3.5.15Zm3.669-.156,3.5-.146.153,3.482-3.5.15Zm3.672-.153,3.5-.15.15,3.5-3.5.15Zm3.669-.156,3.5-.15.146,3.5-3.5.146Zm3.672-.156,3.5-.146.15,3.5-3.5.15Zm3.669-.156,3.5-.146.146,3.5-3.5.15Zm3.672-.153,3.5-.15.15,3.5-3.5.146Zm3.669-.156,3.5-.15.15,3.5-3.5.146Zm3.669-.156,3.5-.146.15,3.5-3.5.15Zm3.672-.153,3.5-.15.15,3.5-3.5.15Zm3.669-.156,3.5-.15.146,3.5-3.5.146Zm3.672-.156,3.5-.15.15,3.5-3.5.15Zm3.669-.156,3.5-.146.146,3.5-3.5.15Zm3.672-.153,3.5-.15.15,3.5-3.509.15Zm0-.17-.15-3.5,3.5-.146.146,3.5Zm-.156-3.672-.15-3.5,3.5-.15.146,3.5ZM126.958,140l-.146-3.5,3.5-.146.15,3.5Zm-.156-3.672-.146-3.5,3.5-.15.15,3.5Zm-.153-3.679-.15-3.5,3.5-.146.146,3.5Zm-.156-3.672-.15-3.5,3.5-.15.146,3.5Zm-.156-3.669-.146-3.5,3.5-.146.15,3.5Zm-.309-7.341-.15-3.5,3.5-.15.146,3.5Zm-.156-3.672-.16-3.5,3.5-.15.15,3.5Zm-.16-3.672-.146-3.5,3.5-.15.15,3.5Zm-.153-3.669-.15-3.5,3.5-.146.15,3.5Zm-.156-3.672-.15-3.5,3.5-.15.146,3.5Zm-.156-3.669-.146-3.5,3.5-.146.15,3.5Zm-.156-3.672-.146-3.5,3.5-.15.15,3.5Zm-.153-3.669-.15-3.5,3.5-.146.146,3.5Zm-.156-3.672-.15-3.5,3.5-.15.146,3.5Zm-.17,0-3.5.15-.16-3.492,3.5-.15Zm-3.669.156-3.5.15-.15-3.5,3.5-.146Zm-3.672.156-3.5.146-.15-3.5,3.5-.15Zm-3.669.156-3.5.146-.143-3.488,3.516-.153Zm-3.672.153-3.5.15-.15-3.5,3.5-.146Zm-3.669.156-3.5.15-.146-3.5,3.5-.146Zm-3.672.156-3.5.146-.15-3.5,3.5-.15Zm-3.669.156-3.5.146-.146-3.5,3.5-.15Zm-3.672.153-3.5.15-.15-3.5,3.5-.146Zm-3.669.156-3.5.15-.146-3.5,3.5-.146Zm-3.672.156-3.5.146-.15-3.5,3.5-.15Zm-3.675.16-3.5.15-.146-3.5,3.5-.15Zm-3.672.156-3.5.15-.15-3.5,3.5-.146Zm-3.669.156-3.5.146-.15-3.5,3.509-.15Zm-3.669.156-3.5.146-.139-3.505,3.5-.15Zm-3.672.153-3.5.15-.15-3.5,3.509-.16ZM65.88,91.1l-3.5.15-.146-3.5,3.5-.146Zm-3.672.156L58.73,91.4l-.15-3.5,3.5-.15Zm0,.17.167,3.485-3.5.15-.143-3.488Zm.156,3.669.15,3.5-3.5.146-.129-3.492Zm.156,3.672.146,3.5-3.5.15-.15-3.5Zm.153,3.669.15,3.5-3.5.146-.15-3.5Zm.156,3.672.15,3.5-3.5.15-.146-3.5Zm.156,3.669.163,3.5-3.5.146-.15-3.5Zm.156,3.672.146,3.5-3.5.15-.133-3.485Zm.153,3.669.15,3.5-3.482.136-.15-3.5Zm.313,7.341.146,3.5-3.5.15-.15-3.5Zm.156,3.669.146,3.5-3.482.146-.15-3.5Zm.153,3.672.15,3.5-3.5.15-.136-3.5Zm.156,3.669.15,3.5-3.5.146-.146-3.5Zm.156,3.672.146,3.5-3.5.15-.15-3.5Zm.153,3.669.15,3.5-3.5.146-.15-3.5Zm.156,3.672.167,3.512-3.5.15-.146-3.5Zm.17,0,3.5-.15.146,3.5-3.5.15Zm3.672,3.512.15,3.5-3.5.146-.15-3.5Zm.156,3.672.15,3.5-3.5.15-.146-3.5Zm.17,0,3.5-.15.146,3.5-3.5.146Zm3.672-.156,3.5-.15.15,3.5-3.5.146Zm3.669-.156,3.5-.146.146,3.5-3.5.15Zm3.672-.153,3.488-.146.15,3.5-3.5.15Zm3.669-.156,3.5-.15.15,3.5-3.5.146Zm3.669-.156,3.5-.15.15,3.5-3.5.15Zm3.672-.156,3.5-.146.15,3.5-3.5.15Zm3.669-.153,3.5-.15.146,3.5-3.5.15Zm3.672-.156,3.5-.15.15,3.5-3.5.146Zm3.669-.156,3.5-.146.146,3.5-3.5.15Zm3.672-.156,3.5-.146.15,3.5-3.5.15Zm3.669-.153,3.5-.15.146,3.5-3.5.146Zm3.672-.156,3.5-.15.15,3.5-3.5.146Zm3.669-.156,3.5-.146.146,3.5-3.5.15Zm3.672-.153,3.5-.15.15,3.5-3.5.15Zm3.669-.156,3.5-.15.146,3.5-3.5.146Zm3.672-.156,3.5-.15.15,3.5-3.5.146Zm.68-66.382-3.5.15-.146-3.5,3.5-.146Zm-3.672.156-3.492.143-.15-3.5,3.5-.146Zm-3.669.156-3.5.146-.146-3.5,3.5-.15Zm-3.672.153-3.485.133-.146-3.488,3.5-.15Zm-3.669.156-3.5.15-.146-3.5,3.5-.146Zm-3.672.156-3.5.146-.15-3.5,3.5-.15Zm-3.655.16-3.5.146-.15-3.5,3.5-.15Zm-3.669.153-3.5.15-.15-3.5,3.5-.146Zm-3.672.156-3.5.15-.156-3.519,3.5-.146Zm-3.655.146-3.5.146-.146-3.5,3.485-.163Zm-3.672.156-3.5.146-.15-3.5,3.5-.15ZM87.77,86.5l-3.5.15-.146-3.5,3.485-.133Zm-3.672.156-3.5.15-.15-3.5,3.5-.15Zm-3.669.156-3.5.146-.146-3.5,3.5-.15Zm-3.672.153-3.5.15-.15-3.5h0l3.5-.15Zm-3.669.156-3.5.15-.146-3.492h0l3.5-.146Zm-3.672.156-3.512.156-.15-3.485h0l3.516-.173Zm-3.682.156-3.5.146L62.086,84.1h0l3.5-.15Zm-3.672.153-3.5.15-.146-3.475v-.027l3.5-.146Zm-.85,62.713,3.5-.15.15,3.5-3.5.146Zm3.658,3.522.146,3.5-3.5.153-.15-3.5Zm.153,3.669.167,3.5-3.5.15-.15-3.5Zm.17,0,3.5-.15.146,3.5-3.5.146Zm3.672-.156,3.5-.146.15,3.5-3.5.15Zm3.669-.156,3.5-.146.146,3.5-3.5.15Zm3.672-.153,3.5-.15.15,3.5-3.5.146Zm3.669-.156,3.5-.15.146,3.5-3.5.146Zm3.672-.156,3.5-.146.15,3.5-3.5.15Zm3.669-.153,3.5-.15.146,3.5-3.5.15Zm3.672-.156,3.5-.15.15,3.5-3.5.146Zm3.669-.156,3.5-.15.146,3.5-3.5.15Zm3.672-.156,3.5-.146.15,3.5-3.5.15Zm3.669-.153,3.5-.15.15,3.5-3.5.15Zm3.669-.156,3.5-.15.15,3.5-3.5.146Zm3.672-.156,3.5-.146.15,3.5-3.5.15Zm3.669-.156,3.5-.146.146,3.5-3.5.15Zm3.672-.153,3.5-.15.15,3.5-3.5.146Zm3.669-.156,3.5-.15.146,3.5-3.5.146Zm3.672-.156,3.5-.146.15,3.5-3.5.15Zm3.669-.156,3.5-.146.146,3.5-3.5.15Zm3.672-.153,3.5-.15.15,3.5-3.5.146Zm-73.549-.568,3.5-.15.139,3.5-2.645.112-.962-2.455Zm1.068,3.631,2.587-.109.15,3.5-1.989.085.34-.68Z" transform="translate(-51.702 -78.09)" fill="#13c693"/>
      <path id="Path_2543" data-name="Path 2543" d="M135.081,158.113h0l-.156-3.669h0l-.156-3.669h0l-.153-3.669h0l-.156-3.669h0l-.156-3.669h0l-.156-3.669h0l-.153-3.665h0l-.156-3.669h0l-.156-3.669h0l-.15-3.686h0l-.078-1.836-.078-1.833h0l-.156-3.669h0l-.156-3.669h0l-.153-3.669h0l-.16-3.665h0l-.156-3.669h0l-.156-3.669h0l-.153-3.669h0l-.156-3.669h0l-.156-3.686h0l-.139-3.672h0a.085.085,0,0,0-.085-.082h0l-3.669.156h0l-3.669.153h0l-3.672.156h0l-66.086,2.8a.126.126,0,0,0-.061.027.1.1,0,0,0-.02.061L56.2,122.851l1.36,31.793-3.091-7.891,3.58,17.469,1.387-2.819,2.166-.092h0l3.669-.156h0L68.93,161h0l3.669-.156h0l3.669-.156h0l3.665-.153h0l3.669-.156h0l3.665-.156h0l3.669-.156h0l3.669-.153h0l3.665-.156h0l3.669-.156h0l3.713-.156h0l3.669-.153h0l3.665-.156h0l3.669-.156h0l3.665-.153h0l3.665-.153h0l3.665-.156h0l3.665-.156h0l3.665-.153h0a.088.088,0,0,0,.058-.031.078.078,0,0,0,.044-.065Zm-77.52-7.66,3.5-.146.15,3.5-3.5.15Zm-.156-3.669,3.5-.15.146,3.5-3.5.146Zm-.153-3.669,3.5-.15.15,3.5-3.5.15Zm-.173-3.662,3.5-.15.15,3.5-3.5.15Zm-.156-3.669,3.5-.15.146,3.478-3.5.15Zm-.156-3.672,3.5-.146.163,3.488-3.5.15Zm-.153-3.669,3.5-.15.15,3.5-3.5.146Zm-.156-3.672,3.5-.146.136,3.488-3.5.15Zm-.082-1.918-.075-1.761,3.5-.15.071,1.751.075,1.751-3.5.146Zm-.231-5.44,3.5-.146.15,3.5-3.5.15Zm-.153-3.669,3.5-.133.15,3.5-3.5.146Zm-.156-3.672,3.5-.146.15,3.5-3.5.15Zm-.163-3.662,3.5-.15.146,3.5-3.5.146Zm-.146-3.679,3.5-.146.15,3.5-3.5.15Zm-.156-3.669,3.5-.15.15,3.5-3.5.146ZM55.211,95.4l3.519-.143.146,3.5-3.5.15Zm-.156-3.672,3.5-.15.146,3.5-3.5.15ZM54.9,88.056l3.488-.143.15,3.5-3.5.15Zm-.156-3.672,3.5-.146.146,3.505-3.5.15Zm77.051.245-3.5.146-.15-3.5,3.5-.15Zm.156,3.669-3.5.15-.146-3.5,3.5-.146Zm.156,3.669-3.5.15-.146-3.5,3.5-.15Zm.153,3.672-3.5.146-.15-3.5,3.5-.15Zm.156,3.669-3.5.15-.15-3.5,3.5-.146Zm.156,3.672-3.5.146-.146-3.5,3.5-.15Zm.156,3.669-3.5.15-.15-3.5,3.5-.146Zm.153,3.672-3.5.146-.15-3.5,3.5-.15Zm.156,3.669-3.5.15-.15-3.5,3.5-.146Zm.156,3.672-3.5.146-.146-3.5,3.5-.15Zm.082,1.918.071,1.751-3.5.15-.061-1.744-.075-1.751,3.5-.146Zm.228,5.423-3.5.146-.15-3.5,3.5-.15Zm.156,3.669-3.5.15-.146-3.5,3.516-.143Zm.156,3.669-3.5.15-.146-3.5,3.5-.15Zm.153,3.672-3.5.146-.15-3.5,3.5-.15Zm.156,3.669-3.5.15-.15-3.5,3.5-.146Zm.156,3.672-3.5.146-.146-3.5,3.5-.15Zm.156,3.669-3.5.15-.146-3.5,3.5-.146Zm.153,3.672-3.5.146-.15-3.5,3.5-.15Zm.156,3.669-3.5.15-.15-3.5,3.5-.146ZM60.043,122.688l-.071-1.751,3.5-.15.075,1.751.075,1.751-3.5.15Zm69.564-2.955.075,1.751-3.5.146-.075-1.748-.075-1.751,3.5-.15Zm-65.892,2.791-.075-1.751,3.5-.146.071,1.748.075,1.751-3.5.15Zm62.22-2.635.075,1.751-3.5.146-.075-1.751-.075-1.748,3.5-.15Zm-58.551,2.485-.071-1.748,3.5-.15.075,1.751.075,1.748-3.5.15Zm54.883-2.322.075,1.748-3.5.15-.075-1.751-.075-1.751,3.5-.146Zm-51.211,2.169-.075-1.751,3.5-.15.075,1.751.075,1.751-3.5.146Zm47.542-2.016.075,1.751-3.5.156-.075-1.751-.071-1.751,3.5-.146Zm-43.86,1.86-.075-1.751,3.5-.146.075,1.748.075,1.751-3.5.15Zm40.2-1.7.075,1.751-3.5.146-.075-1.748-.075-1.751,3.5-.15ZM78.4,121.91l-.075-1.751,3.5-.146.075,1.751.075,1.748-3.5.15Zm32.861-1.391.075,1.748-3.5.15-.075-1.751-.065-1.748,3.5-.15Zm-29.192,1.234-.075-1.748,3.5-.15.075,1.751.075,1.751-3.5.146Zm25.52-1.081.075,1.751-3.5.15-.075-1.751-.075-1.751,3.5-.146Zm-21.848.928-.075-1.751,3.5-.15.075,1.751.075,1.751-3.5.146Zm18.18-.772.075,1.751-3.5.15-.071-1.751-.075-1.751,3.5-.15Zm-10.846.459L93,119.54l3.5-.15.075,1.751.075,1.748-3.5.15Zm-.231-5.42,3.5-.15.146,3.5-3.5.15Zm-.014,3.526-3.5.146-.146-3.5,3.5-.15ZM100.248,121l.071,1.751-3.5.146-.075-1.748-.075-1.751,3.5-.15Zm-3.584-1.771-.146-3.5,3.5-.146.15,3.5Zm0,3.845.15,3.5-3.5.146-.146-3.5Zm.17,0,3.5-.146.15,3.5-3.5.15Zm3.669-.153,3.5-.15.15,3.5-3.5.15Zm-.16-3.842-.15-3.5,3.5-.15.15,3.5Zm-.156-3.669-.15-3.5,3.5-.146.146,3.5Zm-.17,0-3.5.146-.146-3.5,3.5-.15Zm-3.672.153-3.5.15-.15-3.5,3.5-.15Zm-3.669.156-3.5.15-.146-3.5,3.5-.146ZM89,115.878l-3.5.15-.15-3.5,3.5-.15Zm0,.17.146,3.5-3.5.15-.15-3.5Zm.4,5.386-.075-1.751,3.5-.146.075,1.748.071,1.751-3.5.15Zm3.584,1.771.146,3.5-3.5.167-.15-3.5Zm.153,3.672.15,3.5-3.5.15-.146-3.5Zm.17,0,3.5-.146.146,3.5-3.5.15Zm3.672-.153,3.5-.15.15,3.5-3.5.146Zm3.669-.156,3.5-.15.136,3.516-3.5.146Zm3.672-.156,3.5-.146.15,3.5-3.5.15Zm0-.17-.15-3.5,3.5-.15.15,3.5Zm-.313-7.341-.15-3.5,3.5-.15.15,3.5Zm-.156-3.669-.146-3.5,3.5-.146.15,3.5Zm-.153-3.672-.15-3.5,3.5-.15.15,3.5Zm-.17,0-3.5.146-.16-3.488,3.5-.15Zm-3.672.153-3.5.15-.15-3.5,3.5-.146Zm-3.669.156-3.5.15-.146-3.5,3.5-.146Zm-3.672.156-3.5.146-.15-3.5,3.5-.15Zm-3.669.153-3.5.15-.153-3.475,3.5-.15Zm-3.672.156-3.5.15-.15-3.5,3.5-.146Zm0,.17.15,3.5-3.5.146-.15-3.5Zm.156,3.672.15,3.5-3.5.15-.133-3.492Zm.313,7.341.146,3.5-3.5.15-.15-3.5Zm.17,0,3.512-.146.136,3.5-3.5.15Zm3.655,3.522.146,3.5-3.5.146-.15-3.5Zm.156,3.672.146,3.5-3.505.143-.15-3.5Zm.17,0,3.5-.15.15,3.5-3.5.15Zm3.669-.156,3.5-.15.15,3.5-3.5.146Zm3.669-.156,3.5-.146.15,3.5-3.5.15Zm3.672-.156,3.5-.146.15,3.5-3.5.15Zm3.669-.153,3.5-.15.146,3.5-3.5.146Zm3.672-.156,3.5-.15.15,3.5-3.5.146Zm0-.17-.15-3.5,3.5-.15.146,3.5Zm-.156-3.669-.15-3.5,3.5-.15.146,3.5Zm-.3-7.347-.15-3.5,3.5-.146.15,3.5Zm-.156-3.672-.163-3.5,3.5-.15.146,3.5Zm-.184-3.669-.15-3.5,3.5-.146.15,3.5Zm-.156-3.672-.146-3.5,3.5-.15.15,3.5Zm-.17,0-3.5.15-.15-3.5,3.5-.146Zm-3.669.156-3.5.15-.146-3.5,3.5-.146Zm-3.672.156-3.5.146-.15-3.5,3.5-.15Zm-3.669.156-3.5.146-.122-3.492,3.5-.15Zm-3.672.153-3.5.15-.15-3.5,3.5-.146Zm-3.669.156-3.5.15-.15-3.5,3.5-.146Zm-3.669.156-3.5.146-.146-3.5,3.5-.15Zm-3.672.153-3.5.15-.15-3.5,3.5-.15Zm0,.17.15,3.5-3.5.146-.146-3.5Zm.156,3.672.15,3.5-3.5.15-.146-3.5Zm.156,3.669.146,3.5-3.5.146-.15-3.5Zm.309,7.341.15,3.5-3.5.146-.146-3.5Zm.156,3.672.15,3.5-3.5.15-.15-3.5Zm.17,0,3.5-.15.15,3.5-3.5.15Zm3.655,3.519.15,3.5-3.5.15-.146-3.5Zm.156,3.672.146,3.5-3.5.15-.129-3.492Zm.17,0,3.5-.15.15,3.5-3.5.146Zm3.669-.156,3.5-.15.146,3.5-3.5.15Zm3.672-.156,3.5-.146.15,3.5-3.5.15Zm3.669-.153,3.5-.15.146,3.5-3.5.15Zm3.672-.156,3.5-.15.15,3.5-3.5.146Zm3.669-.156,3.5-.146.146,3.5-3.5.15Zm3.672-.156,3.5-.146.15,3.5-3.5.15Zm3.669-.153,3.5-.15.146,3.5-3.5.146Zm0-.17-.15-3.5,3.5-.146.146,3.5Zm-.156-3.672-.146-3.5,3.5-.15.15,3.5Zm-.156-3.669-.146-3.5,3.5-.146.15,3.5Zm-.309-7.341-.15-3.5,3.5-.146.146,3.492Zm-.156-3.672-.146-3.5,3.5-.15.15,3.5Zm-.153-3.669-.15-3.5,3.5-.146.15,3.5Zm-.156-3.672-.136-3.492,3.5-.15.146,3.5Zm-.156-3.669-.15-3.5,3.5-.15.15,3.5Zm-.17,0-3.5.15-.15-3.5,3.5-.146Zm-3.669.156-3.5.146-.146-3.5,3.5-.15Zm-3.672.156-3.5.146-.15-3.5,3.5-.15Zm-3.669.153-3.5.15-.146-3.5,3.5-.146Zm-3.672.156-3.5.15-.15-3.5,3.5-.146Zm-3.669.156-3.5.146-.146-3.5,3.5-.15Zm-3.672.156-3.5.146-.15-3.5,3.5-.15ZM84.849,105l-3.5.15-.146-3.5,3.5-.146Zm-3.672.156-3.5.15-.15-3.5,3.5-.146Zm-3.669.156-3.478.136-.146-3.5,3.5-.15Zm0,.17.15,3.5-3.5.15-.146-3.5Zm.156,3.669.146,3.5-3.5.146-.15-3.5Zm.153,3.672.15,3.5-3.5.15-.15-3.5Zm.156,3.669.15,3.5-3.5.146-.146-3.5Zm.313,7.341.146,3.5-3.5.15-.15-3.5Zm.153,3.669.15,3.5-3.5.15-.15-3.5Zm.156,3.672.15,3.5-3.5.15-.146-3.5Zm.17,0,3.5-.15.146,3.5-3.5.146Zm3.675,3.516.15,3.5-3.5.15-.146-3.5Zm.156,3.669.15,3.5-3.5.146-.146-3.5Zm.17,0,3.5-.15.146,3.5-3.5.146Zm3.672-.156,3.5-.146.15,3.5-3.5.15Zm3.669-.153,3.5-.15.15,3.5-3.5.15Zm3.669-.156,3.5-.15.15,3.5-3.5.146Zm3.672-.156,3.5-.15.15,3.5-3.5.15Zm3.669-.156,3.5-.146.146,3.5-3.5.15Zm3.672-.153,3.5-.15.15,3.5-3.5.15Zm3.669-.156,3.5-.15.146,3.5-3.5.146Zm3.672-.156,3.5-.146.15,3.5-3.5.15Zm3.669-.156,3.5-.146.146,3.5-3.5.15Zm0-.17-.146-3.5,3.5-.15.15,3.5Zm-.156-3.669-.146-3.5,3.5-.146.15,3.5Zm-.153-3.672-.15-3.5,3.5-.15.15,3.5Zm-.156-3.669-.163-3.505,3.5-.15.146,3.5Zm-.313-7.341-.146-3.5,3.5-.15.15,3.5Zm-.153-3.669-.15-3.5,3.5-.146.146,3.5Zm-.156-3.672-.15-3.5,3.5-.15.146,3.5Zm-.156-3.669-.146-3.5,3.5-.146.15,3.5Zm-.153-3.672-.15-3.5,3.5-.15.15,3.5Zm-.156-3.669-.15-3.5,3.5-.146.146,3.5Zm-.17,0-3.5.15-.146-3.5,3.5-.146Zm-3.672.156-3.5.146-.15-3.5,3.5-.15Zm-3.669.153-3.5.15-.146-3.5,3.5-.15Zm-3.672.156-3.5.15-.15-3.5,3.5-.146Zm-3.669.156-3.5.146-.146-3.5,3.5-.15Zm-3.672.156-3.5.146-.15-3.5,3.5-.15Zm-3.672.163-3.5.15-.15-3.5,3.5-.146Zm-3.669.156-3.5.15-.146-3.5,3.5-.146Zm-3.672.156-3.5.146-.153-3.519,3.5-.15Zm-3.669.156-3.5.146-.146-3.5,3.5-.15Zm-3.672.153-3.5.15-.15-3.5,3.5-.146Zm-3.669.156-3.5.15-.146-3.5,3.5-.146Zm0,.17.146,3.5-3.5.15-.15-3.5Zm.156,3.669.146,3.5-3.5.146-.146-3.505Zm.153,3.672.15,3.5-3.5.15-.146-3.5Zm.156,3.669.15,3.5-3.5.146-.146-3.5Zm.156,3.672.146,3.5-3.5.15-.15-3.5ZM74.632,124l.15,3.5-3.5.15-.146-3.5Zm.156,3.669.15,3.5-3.5.146-.15-3.5Zm.156,3.672.146,3.5-3.5.15-.15-3.5Zm.153,3.669.15,3.5-3.5.146-.15-3.5Zm.17,0,3.5-.15.146,3.5-3.5.146Zm3.658,3.522.146,3.5-3.5.15-.15-3.5Zm.153,3.669.15,3.5-3.5.146-.146-3.5Zm.17,0,3.5-.146.146,3.5-3.5.15Zm3.672-.156,3.5-.146.15,3.5-3.5.15Zm3.669-.153,3.5-.15.146,3.5-3.5.146Zm3.672-.156,3.5-.15.15,3.5-3.5.146Zm3.669-.156,3.5-.146.146,3.5-3.5.15Zm3.672-.153,3.5-.15.15,3.5-3.5.15Zm3.669-.156,3.5-.15.146,3.5-3.5.146Zm3.672-.156,3.5-.15.15,3.5-3.5.15Zm3.669-.156,3.5-.146.146,3.5-3.5.15Zm3.672-.153,3.5-.15.15,3.5-3.5.15Zm3.669-.156,3.5-.177.15,3.5-3.5.146Zm3.672-.177,3.5-.146.146,3.5-3.5.15Zm0-.17-.146-3.5,3.5-.15.15,3.5Zm-.153-3.669-.15-3.5,3.5-.146.15,3.5Zm-.156-3.672-.15-3.5,3.5-.15.146,3.5Zm-.156-3.669-.15-3.5,3.5-.146.15,3.5ZM119,125.622l-.153-3.509,3.5-.15.15,3.5Zm-.309-7.341-.15-3.5,3.5-.15.146,3.5Zm-.156-3.669-.146-3.5,3.5-.146.15,3.5Zm-.156-3.672-.15-3.5,3.5-.15.15,3.5Zm-.15-3.672-.15-3.5,3.5-.15.146,3.5Zm-.156-3.669-.15-3.5,3.5-.146.146,3.5Zm-.156-3.672-.146-3.5,3.5-.15.15,3.5Zm-.163-3.655-.15-3.5,3.5-.146.15,3.5Zm-.17,0-3.5.146-.15-3.5,3.5-.15Zm-3.672.156-3.5.146-.15-3.5,3.5-.15Zm-3.669.153-3.5.15-.146-3.5,3.5-.146Zm-3.672.156-3.5.15-.15-3.5,3.5-.146ZM102.9,96.9l-3.5.146-.146-3.488,3.5-.15Zm-3.672.153-3.5.15-.15-3.5,3.5-.15Zm-3.669.156-3.5.15-.146-3.5,3.5-.146Zm-3.672.156-3.5.146-.15-3.5,3.5-.15Zm-3.669.156-3.5.146-.15-3.505,3.5-.15Zm-3.672.153-3.5.15-.15-3.5,3.5-.146Zm-3.669.156-3.5.15-.146-3.5,3.5-.146Zm-3.672.156-3.5.146-.15-3.5,3.5-.15Zm-3.669.156-3.5.146-.15-3.5,3.5-.15Zm-3.669.153-3.5.15-.16-3.509,3.5-.146Zm0,.17.146,3.5-3.5.146-.15-3.5Zm.153,3.672.15,3.5-3.492.16-.133-3.519Zm.163,3.658.15,3.5-3.5.146-.146-3.5Zm.156,3.672.146,3.5-3.5.15-.15-3.5Zm.156,3.669.146,3.5-3.5.146L67,113.274Zm.153,3.672.15,3.5-3.5.15-.146-3.5Zm.316,7.347.146,3.5-3.5.15-.15-3.5Zm.153,3.672.15,3.5-3.5.15-.15-3.5Zm.156,3.669.15,3.5-3.519.139-.133-3.5Zm.156,3.672.15,3.5-3.5.15-.15-3.5Zm.156,3.669.146,3.5-3.488.139-.15-3.5Zm.17,0,3.5-.146.15,3.5-3.5.15Zm3.655,3.522.146,3.5-3.5.15-.15-3.5Zm.156,3.669.146,3.5-3.5.15-.15-3.5Zm.17,0,3.5-.146.15,3.5-3.5.15Zm3.669-.153,3.5-.15.146,3.5-3.5.15Zm3.672-.156,3.5-.15.15,3.5-3.5.146Zm3.669-.156,3.5-.146.15,3.5-3.5.15Zm3.669-.156,3.5-.146.15,3.5-3.5.15Zm3.669-.17,3.5-.15.15,3.5-3.5.146Zm3.669-.156,3.5-.15.146,3.5-3.5.146Zm3.672-.156,3.5-.146.15,3.5-3.5.15Zm3.669-.153,3.5-.15.146,3.5-3.5.15Zm3.672-.156,3.5-.15.15,3.5-3.5.146Zm3.679-.16,3.5-.15.146,3.5-3.5.15Zm3.672-.156,3.5-.146.15,3.5-3.5.15Zm3.669-.153,3.5-.15.146,3.5-3.5.15Zm3.672-.156,3.5-.15.15,3.5-3.5.146Zm0-.17-.146-3.5,3.5-.146.15,3.5Zm-.153-3.672-.15-3.5,3.5-.15.146,3.5Zm-.156-3.669-.15-3.5,3.5-.146.146,3.5ZM123,132.8l-.146-3.5,3.5-.15.15,3.5Zm-.153-3.669-.15-3.5,3.5-.15.15,3.5Zm-.156-3.669-.15-3.5,3.5-.146.146,3.5Zm-.313-7.341-.167-3.492,3.5-.146.15,3.5Zm-.153-3.672-.15-3.5,3.5-.15.139,3.488Zm-.156-3.669-.15-3.5,3.5-.146.146,3.5Zm-.156-3.672-.146-3.5,3.5-.15.15,3.5Zm-.156-3.669-.146-3.5,3.5-.146.15,3.5Zm-.153-3.672-.17-3.5,3.5-.15.146,3.5Zm-.156-3.669-.153-3.5,3.5-.146.146,3.5Zm-.156-3.672-.146-3.5,3.5-.15.15,3.5Zm-.17,0-3.5.146-.15-3.5,3.5-.15Zm-3.669.153-3.5.15-.146-3.5,3.5-.146Zm-3.672.156-3.5.15-.15-3.5,3.5-.146Zm-3.669.156-3.5.146-.146-3.5,3.5-.15Zm-3.672.156-3.505.16-.15-3.5,3.5-.15Zm-3.669.153-3.5.15-.146-3.5,3.5-.146Zm-3.672.156-3.5.15-.15-3.5,3.5-.146Zm-3.669.156-3.5.146-.15-3.5,3.5-.15Zm-3.669.153-3.5.15-.146-3.5,3.5-.15Zm-3.672.156-3.5.15-.15-3.5,3.5-.146Zm-3.669.156-3.5.146-.146-3.5,3.5-.15Zm-3.672.156-3.5.146L77.09,90.8l3.5-.15Zm-3.669.153-3.5.15-.146-3.5,3.5-.146Zm-3.672.156-3.5.15-.15-3.5,3.5-.146Zm-3.669.156-3.5.146-.146-3.5,3.5-.15Zm-3.672.156-3.519.15-.15-3.5,3.5-.15Zm0,.17.146,3.509-3.5.15-.15-3.5Zm.146,3.679.15,3.5-3.5.15-.146-3.5Zm.156,3.669.15,3.5-3.5.146-.15-3.5Zm.156,3.672.146,3.5-3.5.15-.15-3.5Zm.153,3.669.15,3.5-3.5.15-.15-3.5Zm.156,3.672.15,3.5-3.5.15-.146-3.5Zm.156,3.669.146,3.5-3.5.146-.146-3.5ZM67.3,124.3l.15,3.5-3.5.146-.146-3.5Zm.156,3.672.15,3.5-3.5.15-.146-3.5Zm.153,3.658.146,3.5-3.5.146-.15-3.5Zm.153,3.672.15,3.509-3.5.15-.15-3.5Zm.15,3.679.15,3.5-3.5.15-.146-3.5Zm.156,3.669.15,3.5-3.5.15-.146-3.5Zm.17,0,3.5-.146.15,3.5-3.5.15Zm3.655,3.522.15,3.5-3.5.146-.146-3.5Zm.156,3.672.146,3.5-3.5.15-.143-3.5Zm.17,0,3.5-.15.15,3.5-3.5.15Zm3.669-.156,3.5-.15.146,3.5-3.5.146Zm3.672-.156,3.5-.15.15,3.5-3.5.15Zm3.669-.156,3.5-.146.153,3.482-3.5.15Zm3.672-.153,3.5-.15.15,3.5-3.5.15Zm3.669-.156,3.5-.15.146,3.5-3.5.146Zm3.672-.156,3.5-.146.15,3.5-3.5.15Zm3.669-.156,3.5-.146.146,3.5-3.5.15Zm3.672-.153,3.5-.15.15,3.5-3.5.146Zm3.669-.156,3.5-.15.15,3.5-3.5.146Zm3.669-.156,3.5-.146.15,3.5-3.5.15Zm3.672-.153,3.5-.15.15,3.5-3.5.15Zm3.669-.156,3.5-.15.146,3.5-3.5.146Zm3.672-.156,3.5-.15.15,3.5-3.5.15Zm3.669-.156,3.5-.146.146,3.5-3.5.15Zm3.672-.153,3.5-.15.15,3.5-3.509.15Zm0-.17-.15-3.5,3.5-.146.146,3.5Zm-.156-3.672-.15-3.5,3.5-.15.146,3.5ZM126.958,140l-.146-3.5,3.5-.146.15,3.5Zm-.156-3.672-.146-3.5,3.5-.15.15,3.5Zm-.153-3.679-.15-3.5,3.5-.146.146,3.5Zm-.156-3.672-.15-3.5,3.5-.15.146,3.5Zm-.156-3.669-.146-3.5,3.5-.146.15,3.5Zm-.309-7.341-.15-3.5,3.5-.15.146,3.5Zm-.156-3.672-.16-3.5,3.5-.15.15,3.5Zm-.16-3.672-.146-3.5,3.5-.15.15,3.5Zm-.153-3.669-.15-3.5,3.5-.146.15,3.5Zm-.156-3.672-.15-3.5,3.5-.15.146,3.5Zm-.156-3.669-.146-3.5,3.5-.146.15,3.5Zm-.156-3.672-.146-3.5,3.5-.15.15,3.5Zm-.153-3.669-.15-3.5,3.5-.146.146,3.5Zm-.156-3.672-.15-3.5,3.5-.15.146,3.5Zm-.17,0-3.5.15-.16-3.492,3.5-.15Zm-3.669.156-3.5.15-.15-3.5,3.5-.146Zm-3.672.156-3.5.146-.15-3.5,3.5-.15Zm-3.669.156-3.5.146-.143-3.488,3.516-.153Zm-3.672.153-3.5.15-.15-3.5,3.5-.146Zm-3.669.156-3.5.15-.146-3.5,3.5-.146Zm-3.672.156-3.5.146-.15-3.5,3.5-.15Zm-3.669.156-3.5.146-.146-3.5,3.5-.15Zm-3.672.153-3.5.15-.15-3.5,3.5-.146Zm-3.669.156-3.5.15-.146-3.5,3.5-.146Zm-3.672.156-3.5.146-.15-3.5,3.5-.15Zm-3.675.16-3.5.15-.146-3.5,3.5-.15Zm-3.672.156-3.5.15-.15-3.5,3.5-.146Zm-3.669.156-3.5.146-.15-3.5,3.509-.15Zm-3.669.156-3.5.146-.139-3.505,3.5-.15Zm-3.672.153-3.5.15-.15-3.5,3.509-.16ZM65.88,91.1l-3.5.15-.146-3.5,3.5-.146Zm-3.672.156L58.73,91.4l-.15-3.5,3.5-.15Zm0,.17.167,3.485-3.5.15-.143-3.488Zm.156,3.669.15,3.5-3.5.146-.129-3.492Zm.156,3.672.146,3.5-3.5.15-.15-3.5Zm.153,3.669.15,3.5-3.5.146-.15-3.5Zm.156,3.672.15,3.5-3.5.15-.146-3.5Zm.156,3.669.163,3.5-3.5.146-.15-3.5Zm.156,3.672.146,3.5-3.5.15-.133-3.485Zm.153,3.669.15,3.5-3.482.136-.15-3.5Zm.313,7.341.146,3.5-3.5.15-.15-3.5Zm.156,3.669.146,3.5-3.482.146-.15-3.5Zm.153,3.672.15,3.5-3.5.15-.136-3.5Zm.156,3.669.15,3.5-3.5.146-.146-3.5Zm.156,3.672.146,3.5-3.5.15-.15-3.5Zm.153,3.669.15,3.5-3.5.146-.15-3.5Zm.156,3.672.167,3.512-3.5.15-.146-3.5Zm.17,0,3.5-.15.146,3.5-3.5.15Zm3.672,3.512.15,3.5-3.5.146-.15-3.5Zm.156,3.672.15,3.5-3.5.15-.146-3.5Zm.17,0,3.5-.15.146,3.5-3.5.146Zm3.672-.156,3.5-.15.15,3.5-3.5.146Zm3.669-.156,3.5-.146.146,3.5-3.5.15Zm3.672-.153,3.488-.146.15,3.5-3.5.15Zm3.669-.156,3.5-.15.15,3.5-3.5.146Zm3.669-.156,3.5-.15.15,3.5-3.5.15Zm3.672-.156,3.5-.146.15,3.5-3.5.15Zm3.669-.153,3.5-.15.146,3.5-3.5.15Zm3.672-.156,3.5-.15.15,3.5-3.5.146Zm3.669-.156,3.5-.146.146,3.5-3.5.15Zm3.672-.156,3.5-.146.15,3.5-3.5.15Zm3.669-.153,3.5-.15.146,3.5-3.5.146Zm3.672-.156,3.5-.15.15,3.5-3.5.146Zm3.669-.156,3.5-.146.146,3.5-3.5.15Zm3.672-.153,3.5-.15.15,3.5-3.5.15Zm3.669-.156,3.5-.15.146,3.5-3.5.146Zm3.672-.156,3.5-.15.15,3.5-3.5.146Zm.68-66.382-3.5.15-.146-3.5,3.5-.146Zm-3.672.156-3.492.143-.15-3.5,3.5-.146Zm-3.669.156-3.5.146-.146-3.5,3.5-.15Zm-3.672.153-3.485.133-.146-3.488,3.5-.15Zm-3.669.156-3.5.15-.146-3.5,3.5-.146Zm-3.672.156-3.5.146-.15-3.5,3.5-.15Zm-3.655.16-3.5.146-.15-3.5,3.5-.15Zm-3.669.153-3.5.15-.15-3.5,3.5-.146Zm-3.672.156-3.5.15-.156-3.519,3.5-.146Zm-3.655.146-3.5.146-.146-3.5,3.485-.163Zm-3.672.156-3.5.146-.15-3.5,3.5-.15ZM87.77,86.5l-3.5.15-.146-3.5,3.485-.133Zm-3.672.156-3.5.15-.15-3.5,3.5-.15Zm-3.669.156-3.5.146-.146-3.5,3.5-.15Zm-3.672.153-3.5.15-.15-3.5h0l3.5-.15Zm-3.669.156-3.5.15-.146-3.492h0l3.5-.146Zm-3.672.156-3.512.156-.15-3.485h0l3.516-.173Zm-3.682.156-3.5.146L62.086,84.1h0l3.5-.15Zm-3.672.153-3.5.15-.146-3.475v-.027l3.5-.146Zm-.85,62.713,3.5-.15.15,3.5-3.5.146Zm3.658,3.522.146,3.5-3.5.153-.15-3.5Zm.153,3.669.167,3.5-3.5.15-.15-3.5Zm.17,0,3.5-.15.146,3.5-3.5.146Zm3.672-.156,3.5-.146.15,3.5-3.5.15Zm3.669-.156,3.5-.146.146,3.5-3.5.15Zm3.672-.153,3.5-.15.15,3.5-3.5.146Zm3.669-.156,3.5-.15.146,3.5-3.5.146Zm3.672-.156,3.5-.146.15,3.5-3.5.15Zm3.669-.153,3.5-.15.146,3.5-3.5.15Zm3.672-.156,3.5-.15.15,3.5-3.5.146Zm3.669-.156,3.5-.15.146,3.5-3.5.15Zm3.672-.156,3.5-.146.15,3.5-3.5.15Zm3.669-.153,3.5-.15.15,3.5-3.5.15Zm3.669-.156,3.5-.15.15,3.5-3.5.146Zm3.672-.156,3.5-.146.15,3.5-3.5.15Zm3.669-.156,3.5-.146.146,3.5-3.5.15Zm3.672-.153,3.5-.15.15,3.5-3.5.146Zm3.669-.156,3.5-.15.146,3.5-3.5.146Zm3.672-.156,3.5-.146.15,3.5-3.5.15Zm3.669-.156,3.5-.146.146,3.5-3.5.15Zm3.672-.153,3.5-.15.15,3.5-3.5.146Zm-73.549-.568,3.5-.15.139,3.5-2.645.112-.962-2.455Zm1.068,3.631,2.587-.109.15,3.5-1.989.085.34-.68Z" transform="translate(-51.702 -78.09)" fill="#fafafa" opacity="0.1"/>
      <path id="Path_2544" data-name="Path 2544" d="M152.773,105.5c-1.054,0-2.1-.02-3.135-.054a.082.082,0,0,1-.065-.037.078.078,0,0,1,0-.071,86.82,86.82,0,0,1,6.059-15.324.49.49,0,0,1,.408-.258.476.476,0,0,1,.425.224,86.908,86.908,0,0,1,7.334,14.753.082.082,0,0,1,0,.075.078.078,0,0,1-.061.041c-2.295.275-4.661.469-7.028.568C155.363,105.481,154.054,105.5,152.773,105.5Zm-3.019-.221c2.275.075,4.6.065,6.926-.034s4.651-.286,6.909-.554a87.721,87.721,0,0,0-7.279-14.62.313.313,0,0,0-.275-.146.32.32,0,0,0-.265.17,87.983,87.983,0,0,0-6.032,15.184Z" transform="translate(-114.465 -83.898)" fill="#fafafa"/>
      <path id="Path_2545" data-name="Path 2545" d="M140.332,166.645a.082.082,0,0,1-.085-.075c-.34-2.7-.541-5.1-.632-7.3a77.008,77.008,0,0,1,3.322-24.959.092.092,0,0,1,.085-.061c2.309.082,4.675.071,7.035-.031s4.726-.289,7.018-.564a.082.082,0,0,1,.088.051,83.669,83.669,0,0,1,4.345,15.13.086.086,0,0,1-.17.031,83.429,83.429,0,0,0-4.291-15.038c-2.278.275-4.621.462-6.963.561s-4.692.112-6.987.031a76.927,76.927,0,0,0-3.295,24.844c.092,2.21.3,4.59.632,7.283a.088.088,0,0,1-.075.1Zm22.154-.938h0a.085.085,0,0,1-.082-.088c.1-2.72.109-5.1,0-7.31a.085.085,0,0,1,.082-.088.082.082,0,0,1,.088.082c.1,2.213.088,4.61,0,7.324a.085.085,0,0,1-.088.082Z" transform="translate(-107.859 -112.871)" fill="#fafafa"/>
      <path id="Path_2546" data-name="Path 2546" d="M157.621,171.073a7.5,7.5,0,0,1-7.514-7.041v-.187a7.55,7.55,0,0,1,15.086-.639v.187a7.5,7.5,0,0,1-7.228,7.674C157.845,171.073,157.733,171.073,157.621,171.073Zm.024-14.929h-.32a7.378,7.378,0,0,0-7.062,7.687v.184a7.388,7.388,0,1,0,14.763-.619v-.184a7.378,7.378,0,0,0-7.364-7.069Zm0,12.893a5.477,5.477,0,1,1,.238,0Zm.235-.088Zm-.228-10.768h-.228a5.343,5.343,0,0,0,.452,10.676h0a5.345,5.345,0,0,0-.224-10.683Z" transform="translate(-114.818 -127.6)" fill="#fafafa"/>
      <path id="Path_2547" data-name="Path 2547" d="M161.848,173.127a5.477,5.477,0,1,1,.238,0Zm.235-.088Zm-.224-10.768h-.231a5.343,5.343,0,0,0,.452,10.676h0a5.335,5.335,0,0,0-.231-10.666Z" transform="translate(-119.036 -131.692)" fill="#fafafa"/>
      <path id="Path_2548" data-name="Path 2548" d="M126.965,255.357a1.591,1.591,0,0,1-.551-.1,2.334,2.334,0,0,1-1.36-2.38l.6-11.38a2.683,2.683,0,0,1,.177-.84l4.831-12.24a.088.088,0,0,1,.092-.054.1.1,0,0,1,.075.075c.459,3.723,1.085,7.443,1.7,11.036.19,1.119.377,2.227.554,3.315l6.331-.269-.34-1.455a2.768,2.768,0,0,1-.031-1.108,3.366,3.366,0,0,1,6.572-.279,2.754,2.754,0,0,1,.061,1.105l-.211,1.482,6.331-.269q.129-1.652.272-3.352c.3-3.631.609-7.388.751-11.138a.085.085,0,0,1,.16-.034l5.851,11.788a2.6,2.6,0,0,1,.248.823l1.564,11.288a2.307,2.307,0,0,1-1.142,2.482,1.578,1.578,0,0,1-1.894-.428l-6.086-6.542-6.759.286-.255,1.778a1.819,1.819,0,0,1-3.577.153l-.4-1.758-6.759.286-5.511,7.041A1.649,1.649,0,0,1,126.965,255.357Zm3.74-26.568L126,240.72a2.512,2.512,0,0,0-.17.785l-.6,11.38h0a2.134,2.134,0,0,0,1.238,2.21,1.418,1.418,0,0,0,1.656-.534l5.535-7.065a.082.082,0,0,1,.061-.031l6.868-.292a.088.088,0,0,1,.088.068l.418,1.819a1.652,1.652,0,0,0,3.247-.139l.265-1.846a.085.085,0,0,1,.078-.075l6.871-.289a.071.071,0,0,1,.065.027l6.12,6.569a1.411,1.411,0,0,0,1.7.391,2.134,2.134,0,0,0,1.047-2.305L158.925,240.1a2.455,2.455,0,0,0-.235-.772l-5.7-11.489c-.146,3.641-.449,7.286-.741,10.815q-.143,1.734-.275,3.424a.085.085,0,0,1-.082.078l-6.508.275a.1.1,0,0,1-.068-.027.085.085,0,0,1-.02-.068l.228-1.584a2.6,2.6,0,0,0-.058-1.037,3.2,3.2,0,0,0-6.242.265,2.6,2.6,0,0,0,.027,1.037l.36,1.557a.085.085,0,0,1,0,.071.088.088,0,0,1-.065.034l-6.508.275a.078.078,0,0,1-.085-.071q-.275-1.668-.568-3.4c-.605-3.478-1.214-7.086-1.669-10.7ZM125.153,252.882Z" transform="translate(-98.286 -174.757)" fill="#fafafa"/>
    </g>
    <g id="freepik--Character--inject-41" transform="translate(69.285 75.52)">
      <path id="Path_2549" data-name="Path 2549" d="M378.138,214.651l-1.608-.071.728,3.06a8.422,8.422,0,0,0,1.557-1.377.772.772,0,0,0-.082-1.091Z" transform="translate(-317.795 -180.843)" fill="#ebb376"/>
      <path id="Path_2550" data-name="Path 2550" d="M371.04,216.229l.724,2.489,1.87-1.085-.728-3.053Z" transform="translate(-314.172 -180.843)" fill="#ebb376"/>
      <rect id="Rectangle_328" data-name="Rectangle 328" width="2.2" height="54.461" transform="matrix(-0.228, 0.974, -0.974, -0.228, 59.09, 31.949)" fill="#13c693"/>
      <rect id="Rectangle_329" data-name="Rectangle 329" width="2.2" height="54.461" transform="matrix(-0.228, 0.974, -0.974, -0.228, 59.09, 31.949)" opacity="0.6"/>
      <rect id="Rectangle_330" data-name="Rectangle 330" width="2.2" height="54.461" transform="matrix(-0.228, 0.974, -0.974, -0.228, 58.086, 36.23)" fill="#13c693"/>
      <rect id="Rectangle_331" data-name="Rectangle 331" width="2.2" height="54.461" transform="matrix(-0.228, 0.974, -0.974, -0.228, 58.086, 36.23)" opacity="0.6"/>
      <rect id="Rectangle_332" data-name="Rectangle 332" width="2.2" height="54.461" transform="matrix(-0.228, 0.974, -0.974, -0.228, 58.588, 34.088)" fill="#263238"/>
      <path id="Path_2551" data-name="Path 2551" d="M207.8,176.065l.452-1.928,4.247-1.377-1.506,6.423Z" transform="translate(-206.433 -153.241)" fill="#e4897b"/>
      <path id="Path_2552" data-name="Path 2552" d="M203.78,177.4l1.819-.592-.452,1.928Z" transform="translate(-203.78 -155.914)" fill="#fafafa"/>
      <path id="Path_2553" data-name="Path 2553" d="M266.842,167.821c-1.139,1.53-2.315,2.972-3.57,4.389-.629.7-1.265,1.4-1.935,2.084s-1.36,1.36-2.084,2l-.136.122-.187.163a3.454,3.454,0,0,1-.6.394,3.676,3.676,0,0,1-1.17.36,5.94,5.94,0,0,1-1.884-.068,13.509,13.509,0,0,1-2.955-.969,27.286,27.286,0,0,1-4.961-2.958l.966-1.608c.813.34,1.659.7,2.5,1.02s1.676.619,2.506.86a12.162,12.162,0,0,0,2.38.5,2.682,2.682,0,0,0,.877-.051c.092-.027.143-.058.139-.065s0,0-.027,0,.031-.034.065-.071l.116-.116c1.214-1.261,2.38-2.638,3.536-4.032s2.295-2.829,3.4-4.233Z" transform="translate(-232.543 -148.476)" fill="#ebb376"/>
      <path id="Path_2554" data-name="Path 2554" d="M236.824,175.03l-1.4,1.788,2.424,1.792,1.4-2.628Z" transform="translate(-224.662 -154.74)" fill="#ebb376"/>
      <path id="Path_2555" data-name="Path 2555" d="M245.246,179.894l-1.3-2.064-1.4,2.628s1.193,1.768,2.72,1.085Z" transform="translate(-229.368 -156.588)" fill="#ebb376"/>
      <path id="Path_2556" data-name="Path 2556" d="M338.928,164.64q1.4,2.479,2.7,5.022c.439.84.86,1.7,1.292,2.54l.629,1.282.16.316c.034.054.041.1.092.17s.082.136.139.218.109.153.173.235a23.847,23.847,0,0,0,1.744,2c.629.68,1.3,1.326,1.955,1.992l4.032,3.968-1.166,1.469c-1.618-1.054-3.182-2.159-4.7-3.346-.768-.588-1.513-1.207-2.258-1.843a25.342,25.342,0,0,1-2.19-2.115c-.088-.1-.18-.207-.269-.323s-.184-.231-.275-.36-.194-.289-.286-.435l-.184-.306-.731-1.224c-.476-.819-.966-1.632-1.431-2.458q-1.428-2.462-2.747-4.981Z" transform="translate(-290.788 -147.882)" fill="#ebb376"/>
      <path id="Path_2557" data-name="Path 2557" d="M306.629,135.629c.041.2-.031.384-.156.418s-.265-.1-.306-.3.027-.384.153-.418S306.585,135.432,306.629,135.629Z" transform="translate(-271.348 -128.534)" fill="#263238"/>
      <path id="Path_2558" data-name="Path 2558" d="M306.4,137.34a7.561,7.561,0,0,1-.578,1.921,1.153,1.153,0,0,0,.972-.058Z" transform="translate(-271.126 -129.864)" fill="#de5753"/>
      <path id="Path_2559" data-name="Path 2559" d="M305.767,131.943a.119.119,0,0,1-.1-.051.116.116,0,0,1,.031-.163,1.159,1.159,0,0,1,1.071-.082.122.122,0,0,1,.065.156.119.119,0,0,1-.153.065.915.915,0,0,0-.847.054A.122.122,0,0,1,305.767,131.943Z" transform="translate(-271.013 -126.045)" fill="#263238"/>
      <path id="Path_2560" data-name="Path 2560" d="M316.3,138.43c-.428,1.829-.915,5.175.316,6.4,0,0-.571,1.853-3.968,1.853-3.74,0-1.7-1.853-1.7-1.853,2.057-.486,2.064-2,1.765-3.417Z" transform="translate(-274.147 -130.584)" fill="#ebb376"/>
      <path id="Path_2561" data-name="Path 2561" d="M317.231,155.725c.292-.585.612-1.258,0-1.469a15.716,15.716,0,0,0-5.6-.034,1.36,1.36,0,0,0-.969,1.625Z" transform="translate(-274.296 -140.847)" fill="#13c693"/>
      <path id="Path_2562" data-name="Path 2562" d="M317.231,155.725c.292-.585.612-1.258,0-1.469a15.716,15.716,0,0,0-5.6-.034,1.36,1.36,0,0,0-.969,1.625Z" transform="translate(-274.296 -140.847)" fill="#fafafa" opacity="0.6"/>
      <path id="Path_2563" data-name="Path 2563" d="M343.97,408.844s-.949-.68-1.173-.289C342.532,409.007,343.569,408.942,343.97,408.844Z" transform="translate(-295.503 -308.786)" fill="#13c693"/>
      <path id="Path_2564" data-name="Path 2564" d="M345.049,407.657s-.041-1.064-.5-1.02S344.733,407.484,345.049,407.657Z" transform="translate(-296.582 -307.6)" fill="#13c693"/>
      <path id="Path_2565" data-name="Path 2565" d="M299.737,408.844s-1.176-.68-1.421-.289S299.254,408.942,299.737,408.844Z" transform="translate(-266.152 -308.786)" fill="#13c693"/>
      <path id="Path_2566" data-name="Path 2566" d="M301,407.657s-.061-1.064-.612-1.02S300.617,407.484,301,407.657Z" transform="translate(-267.416 -307.6)" fill="#13c693"/>
      <path id="Path_2567" data-name="Path 2567" d="M305.743,398.413h-2.5l-.024-5.783h2.5Z" transform="translate(-269.41 -298.356)" fill="#ebb376"/>
      <path id="Path_2568" data-name="Path 2568" d="M347.9,398.413h-2.5l-1.03-5.783h2.5Z" transform="translate(-296.569 -298.356)" fill="#ebb376"/>
      <path id="Path_2569" data-name="Path 2569" d="M339.189,408.79h2.805a.207.207,0,0,1,.207.173l.408,2.22a.384.384,0,0,1-.384.442c-.979-.017-1.452-.075-2.686-.075-.758,0-2.326.082-3.373.082s-1.146-1.02-.714-1.132a6.488,6.488,0,0,0,3.325-1.554.622.622,0,0,1,.411-.156Z" transform="translate(-290.525 -309.021)" fill="#263238"/>
      <path id="Path_2570" data-name="Path 2570" d="M291.494,408.79h2.72a.2.2,0,0,1,.2.173l.408,2.22a.377.377,0,0,1-.377.442c-.983-.017-2.4-.075-3.638-.075-1.445,0-2.7.082-4.393.082-1.02,0-1.272-1.02-.84-1.132,1.972-.428,3.57-.473,5.3-1.513a1.176,1.176,0,0,1,.619-.2Z" transform="translate(-257.633 -309.021)" fill="#263238"/>
      <path id="Path_2571" data-name="Path 2571" d="M336.157,158.752c2.319.537,4.76,6.919,4.76,6.919l-4.825,3.223a37.575,37.575,0,0,1-2.9-5.28C331.91,160.694,333.784,158.2,336.157,158.752Z" transform="translate(-288.917 -143.946)" fill="#13c693"/>
      <path id="Path_2572" data-name="Path 2572" d="M337.1,170.87l2,5.919-.228.153s-.911-1.36-1.88-3.172Z" transform="translate(-291.699 -151.994)" fill="#13c693"/>
      <path id="Path_2573" data-name="Path 2573" d="M337.1,170.87l2,5.919-.228.153s-.911-1.36-1.88-3.172Z" transform="translate(-291.699 -151.994)" opacity="0.2"/>
      <path id="Path_2574" data-name="Path 2574" d="M296.879,168.8c.02,2.788.187,6.256.605,10.56H310.86c.17-2.04-.734-12.056,1.615-21.719a34.366,34.366,0,0,0-4.447-.564,49.385,49.385,0,0,0-5.678,0,25.541,25.541,0,0,0-3.869.68s-1.142,1.238-1.489,7.041C296.92,165.962,296.872,167.281,296.879,168.8Z" transform="translate(-265.225 -142.84)" fill="#13c693"/>
      <path id="Path_2575" data-name="Path 2575" d="M296.879,179.84c.809-1.476,2.278-4.437,2.071-6.12l-1.972,2.135C296.92,177,296.872,178.317,296.879,179.84Z" transform="translate(-265.225 -153.875)" fill="#13c693"/>
      <path id="Path_2576" data-name="Path 2576" d="M296.879,179.84c.809-1.476,2.278-4.437,2.071-6.12l-1.972,2.135C296.92,177,296.872,178.317,296.879,179.84Z" transform="translate(-265.225 -153.875)" opacity="0.2"/>
      <path id="Path_2577" data-name="Path 2577" d="M290.79,161.486c.211,2.38-5.185,8.106-5.185,8.106l-4.325-3.522a27.881,27.881,0,0,1,4.043-5.27C287.852,158.355,290.555,158.821,290.79,161.486Z" transform="translate(-254.93 -144.293)" fill="#13c693"/>
      <path id="Path_2578" data-name="Path 2578" d="M303.22,392.64l.014,2.978h2.5l-.014-2.978Z" transform="translate(-269.41 -298.362)" fill="#da9d62"/>
      <path id="Path_2579" data-name="Path 2579" d="M346.859,392.64h-2.5l.534,2.978h2.5Z" transform="translate(-296.563 -298.362)" fill="#da9d62"/>
      <path id="Path_2580" data-name="Path 2580" d="M313.329,124.667c.364,2.462.7,3.876-.245,5.44a3.227,3.227,0,0,1-5.709-.3c-.976-2.04-1.411-5.726.734-7.283a3.257,3.257,0,0,1,5.219,2.145Z" transform="translate(-271.621 -119.636)" fill="#ebb376"/>
      <path id="Path_2581" data-name="Path 2581" d="M312.658,121.6c-.857,2.2-1.476,3.172-2.5,3.529-2.679.932-4.335-2.332-4.957-5.178a5.011,5.011,0,0,1-2.38-.731c-1.183-.755-1.591-2.094.445-3.247.017.075.432.9,1.989.34,2.611-.935,7.613-1.928,6.827.925C313.318,117.252,313.511,119.4,312.658,121.6Z" transform="translate(-268.495 -115.352)" fill="#263238"/>
      <path id="Path_2582" data-name="Path 2582" d="M313.733,132.727a2.931,2.931,0,0,1-.6,1.731c-.507.653-1.088.34-1.227-.394a2.3,2.3,0,0,1,.632-2.176C313.172,131.493,313.737,131.979,313.733,132.727Z" transform="translate(-275.116 -126.173)" fill="#ebb376"/>
      <path id="Path_2583" data-name="Path 2583" d="M330.66,118.14a2.1,2.1,0,0,0,1.408-1.36S332.533,118.732,330.66,118.14Z" transform="translate(-287.521 -116.295)" fill="#263238"/>
      <path id="Path_2584" data-name="Path 2584" d="M312.6,222.78s2.1,19.088,3.376,26.238c1.4,7.82,6.8,33.918,6.8,33.918h4.58s-3.25-25.456-3.924-33.208c-.731-8.415-2.224-26.948-2.224-26.948Z" transform="translate(-275.601 -186.255)" fill="#13c693"/>
      <path id="Path_2585" data-name="Path 2585" d="M312.6,222.78s2.1,19.088,3.376,26.238c1.4,7.82,6.8,33.918,6.8,33.918h4.58s-3.25-25.456-3.924-33.208c-.731-8.415-2.224-26.948-2.224-26.948Z" transform="translate(-275.601 -186.255)" fill="#fafafa" opacity="0.6"/>
      <path id="Path_2586" data-name="Path 2586" d="M340.619,394.75c-.02,0,.4,1.758.4,1.758h5.144l-.031-1.567Z" transform="translate(-294.093 -299.755)" fill="#13c693"/>
      <path id="Path_2587" data-name="Path 2587" d="M340.619,394.75c-.02,0,.4,1.758.4,1.758h5.144l-.031-1.567Z" transform="translate(-294.093 -299.755)" fill="#fafafa" opacity="0.1"/>
      <path id="Path_2588" data-name="Path 2588" d="M315.651,242.72c3.254.643,2.434,12.866,1.8,19.152-.775-4.457-1.829-12.995-2.54-19.077a1.139,1.139,0,0,1,.741-.075Z" transform="translate(-277.126 -199.395)" fill="#13c693"/>
      <path id="Path_2589" data-name="Path 2589" d="M315.651,242.72c3.254.643,2.434,12.866,1.8,19.152-.775-4.457-1.829-12.995-2.54-19.077a1.139,1.139,0,0,1,.741-.075Z" transform="translate(-277.126 -199.395)" fill="#fafafa" opacity="0.4"/>
      <path id="Path_2590" data-name="Path 2590" d="M296.548,222.78s-1.064,18.673-1.088,26.292c-.024,7.922,1.741,33.864,1.741,33.864h4.223s1.139-25.48,1.629-33.259c.53-8.483,2.268-26.9,2.268-26.9Z" transform="translate(-264.288 -186.255)" fill="#13c693"/>
      <path id="Path_2591" data-name="Path 2591" d="M296.548,222.78s-1.064,18.673-1.088,26.292c-.024,7.922,1.741,33.864,1.741,33.864h4.223s1.139-25.48,1.629-33.259c.53-8.483,2.268-26.9,2.268-26.9Z" transform="translate(-264.288 -186.255)" fill="#fafafa" opacity="0.6"/>
      <path id="Path_2592" data-name="Path 2592" d="M300.46,282.572a.044.044,0,0,1-.044-.041c-.469-7.181-1.557-24.555-1.537-30.784.017-6.378.775-20.638,1.02-24.857a.044.044,0,1,1,.085,0c-.231,4.219-.989,18.479-1.02,24.854-.02,6.225,1.068,23.6,1.537,30.777a.044.044,0,0,1-.041.048Z" transform="translate(-266.545 -188.93)" fill="#13c693"/>
      <path id="Path_2593" data-name="Path 2593" d="M300.46,282.572a.044.044,0,0,1-.044-.041c-.469-7.181-1.557-24.555-1.537-30.784.017-6.378.775-20.638,1.02-24.857a.044.044,0,1,1,.085,0c-.231,4.219-.989,18.479-1.02,24.854-.02,6.225,1.068,23.6,1.537,30.777a.044.044,0,0,1-.041.048Z" transform="translate(-266.545 -188.93)" fill="#fafafa" opacity="0.4"/>
      <path id="Path_2594" data-name="Path 2594" d="M298.377,394.75c-.02,0,.17,1.758.17,1.758h5.141l.2-1.567Z" transform="translate(-266.213 -299.755)" fill="#13c693"/>
      <path id="Path_2595" data-name="Path 2595" d="M298.377,394.75c-.02,0,.17,1.758.17,1.758h5.141l.2-1.567Z" transform="translate(-266.213 -299.755)" fill="#fafafa" opacity="0.1"/>
    </g>
  </g>
</svg>
