<svg xmlns="http://www.w3.org/2000/svg" width="150" height="144.404" viewBox="0 0 150 144.404">
  <g id="Create-pana" transform="translate(-41.25 -57.23)">
    <g id="freepik--background-complete--inject-47" transform="translate(48.883 64.842)">
      <rect id="Rectangle_286" data-name="Rectangle 286" width="19.243" height="24.295" transform="translate(114.638 15.534) rotate(-0.23)" fill="#fff"/>
      <path id="Path_2373" data-name="Path 2373" d="M389.527,147.14h1.383l3.9-.035,13.949-.1-.074.077c-.032-6.938-.074-15.3-.116-24.292h0l.091.091-19.243.07.081-.081c0,7.2.025,13.264.032,17.533v5c0-1.152-.025-2.83-.042-4.957-.028-4.28-.067-10.361-.112-17.586v-.084h.084l19.243-.088h.091v.091h0c.032,8.995.06,17.354.084,24.292v.077H389.872C389.643,147.147,389.527,147.14,389.527,147.14Z" transform="translate(-274.788 -107.319)" fill="#e0e0e0"/>
      <rect id="Rectangle_287" data-name="Rectangle 287" width="2.668" height="0.65" transform="translate(123.15 39.232) rotate(-0.24)" fill="#e0e0e0"/>
      <rect id="Rectangle_288" data-name="Rectangle 288" width="5.839" height="8.43" transform="translate(121.497 24.01) rotate(-0.23)" fill="#e0e0e0"/>
      <rect id="Rectangle_289" data-name="Rectangle 289" width="2.668" height="0.555" transform="translate(123.429 15.15) rotate(-0.24)" fill="#e0e0e0"/>
      <path id="Path_2374" data-name="Path 2374" d="M104.27,78.91H86.88v22.677l17.39.435Z" transform="translate(-78.492 -78.91)" fill="#e0e0e0"/>
      <path id="Path_2375" data-name="Path 2375" d="M105.026,81.21H89.81v20.567l15.216.513Z" transform="translate(-80.394 -80.402)" fill="#fff"/>
      <path id="Path_2376" data-name="Path 2376" d="M106.9,91.143,96.8,90.76v14.374h10.1Z" transform="translate(-84.93 -86.6)" fill="#e0e0e0"/>
      <path id="Path_2377" data-name="Path 2377" d="M96.8,105.134l10.1-7.383L96.8,90.76Z" transform="translate(-84.93 -86.6)" fill="#f5f5f5"/>
      <path id="Path_2378" data-name="Path 2378" d="M74.86,178.26H62.99v15.476l11.87.3Z" transform="translate(-62.99 -143.379)" fill="#e0e0e0"/>
      <path id="Path_2379" data-name="Path 2379" d="M75.375,179.83H64.99v14.037l10.385.351Z" transform="translate(-64.288 -144.398)" fill="#fff"/>
      <path id="Path_2380" data-name="Path 2380" d="M76.652,186.613l-6.892-.263v9.809h6.892Z" transform="translate(-67.383 -148.629)" fill="#e0e0e0"/>
      <path id="Path_2381" data-name="Path 2381" d="M69.76,196.159l6.892-5.038L69.76,186.35Z" transform="translate(-67.383 -148.629)" fill="#f5f5f5"/>
      <path id="Path_2382" data-name="Path 2382" d="M386.625,403.93a2.543,2.543,0,0,1-.7-3.128,2.9,2.9,0,0,1,1.485-1.053,5.968,5.968,0,0,0,1.629-.839c.881-.748,1.127-1.987,1.71-2.984A3.751,3.751,0,0,1,394,393.984a4.1,4.1,0,0,1,3.36,2.71,12.151,12.151,0,0,1,.607,4.49,3.088,3.088,0,0,1-.653,2.356,2.9,2.9,0,0,1-2.2.506l-8.3-.228" transform="translate(-272.352 -283.362)" fill="#f5f5f5"/>
      <path id="Path_2383" data-name="Path 2383" d="M393.2,366.18H373.35l3.578,21.216a2.366,2.366,0,0,0,1.692,1.889l.07.021a1.076,1.076,0,0,1,.176.046,3.081,3.081,0,0,0,.4.046v.021l.1-.018h8.844a2.5,2.5,0,0,0,.488-.046,2.384,2.384,0,0,0,2-2.075l1.724-14.619.077-.583h0l.681-5.789Zm-3.746,13.535h-2.036l.207-6.158h2.359Zm.727-6.158h1.952l-.727,6.158h-1.755Zm-5.818,12.99-.123-5.347h2.932l-.179,5.347ZM381.2,381.2h2.851l.123,5.347h-2.556Zm.221,5.347h-2.4c-.225-1.443-.523-3.321-.843-5.347h2.809Zm-.351-6.825-.47-6.165h3.269l.144,6.158Zm3.128,0-.14-6.158h3.363l-.207,6.158Zm-.176-7.636-.133-5.7h3.771l-.186,5.7Zm-.2,0h-3.353l-.442-5.7h3.662Zm-3.549,0h-3.539c-.126-.786-.246-1.531-.351-2.2-.369-2.307-.509-3.16-.586-3.511h4.038Zm.116,1.478.481,6.158h-2.932c-.1-.625-.2-1.257-.3-1.889-.228-1.454-.46-2.907-.678-4.269Zm-2.651,6.158h-1.913l-1.053-6.158h1.98c.334,1.9.653,4.013.99,6.151Zm.235,1.478c.291,1.85.579,3.676.839,5.347h-1.84l-.9-5.347Zm9.209,5.347.176-5.347h1.959l-.456,5.347Zm.484-14.461.19-5.7H390.6l-.492,5.7Zm-12.06-5.7c.077.414.442,2.658.927,5.7h-1.994l-.965-5.709ZM390.6,386.547h-1.534l.46-5.347h1.7Zm1.7-14.461h-2l.492-5.7h2.18Z" transform="translate(-264.385 -265.322)" fill="#e0e0e0"/>
    </g>
    <g id="freepik--Floor--inject-47" transform="translate(41.25 188.938)">
      <path id="Path_2384" data-name="Path 2384" d="M191.25,432.5c0,.074-33.582.133-75,.133s-75-.046-75-.133,33.575-.133,75-.133S191.25,432.43,191.25,432.5Z" transform="translate(-41.25 -432.37)" fill="#263238"/>
    </g>
    <g id="freepik--Sketches--inject-47" transform="translate(88.261 57.23)">
      <rect id="Rectangle_290" data-name="Rectangle 290" width="21.711" height="30.296" transform="translate(1.711 17.723) rotate(0.22)" fill="#f5f5f5"/>
      <path id="Path_2385" data-name="Path 2385" d="M193.553,142.023h4.7l-.049.053c0-1.531-.018-3.427-.028-5.6v-.07h.067l3.388-.06h.077v.077c.035,1.727.074,3.63.116,5.635l-.088-.084,4.824.032-.088.095c-.046-1.64-.088-3.346-.133-5.091-.035-1.317-.07-2.616-.1-3.883l.035.07-6.716-5.228h.105l-6.2,5.617.021-.049c.032,2.612.056,4.726.074,6.2v2.138a1.052,1.052,0,0,1,0,.154.656.656,0,0,1,0-.14v-.432c0-.4-.025-.958-.046-1.682-.032-1.478-.081-3.606-.14-6.232v-.028l.021-.021,6.169-5.649.049-.046.056.042,6.741,5.175.032.028v.042q.046,1.9.1,3.883.063,2.633.13,5.087v.095h-.088l-4.824-.042h-.091v-.084c-.035-2-.07-3.908-.1-5.617l.077.077-3.385.046.067-.07v5.646h-.049l-3.49-.039h-1.141Z" transform="translate(-186.973 -103.024)" fill="#263238"/>
      <path id="Path_2386" data-name="Path 2386" d="M183.675,110.43h1.345l3.862.028,14.019.126h.07v27.94h-.235l-19.012.116h-.084V112.512c0,1.348.021,3.311.035,5.789.021,4.957.049,11.979.081,20.254l-.081-.084,19.012-.13h.144l-.091.091V110.658l.074.074-13.97-.2-3.862-.067h-1.018Z" transform="translate(-180.659 -91.752)" fill="#263238"/>
      <path id="Path_2387" data-name="Path 2387" d="M230.92,103.515l4.571,4.536.8-1.036-4.6-4.125Z" transform="translate(-211.34 -86.859)" fill="#455a64"/>
      <path id="Path_2388" data-name="Path 2388" d="M175.15,185.281l4.568,4.536.8-1.036-4.6-4.122Z" transform="translate(-175.15 -139.921)" fill="#455a64"/>
      <path id="Path_2389" data-name="Path 2389" d="M225.394,186.088a8.683,8.683,0,0,1-1.225.074c-.758.021-1.808.039-2.967.049h-2.809l.067-.07v1.022a1.567,1.567,0,0,1-.021.376,1.4,1.4,0,0,1-.053-.376c-.021-.239-.046-.586-.067-1.015v-.07h.074c.734-.021,1.717-.039,2.809-.046h2.963A7.626,7.626,0,0,1,225.394,186.088Z" transform="translate(-203.163 -140.807)" fill="#263238"/>
      <rect id="Rectangle_291" data-name="Rectangle 291" width="15.192" height="21.195" transform="translate(35.896 26.32) rotate(-11.87)" fill="#ebebeb"/>
      <path id="Path_2390" data-name="Path 2390" d="M293.154,151.956l.056-.018.165-.039.632-.144,2.356-.527-.035.06c-.232-1.053-.52-2.342-.846-3.823V147.4h.067l2.307-.537.074-.018.018.074c.277,1.176.586,2.458.906,3.837l-.1-.063,3.3-.7-.07.109c-.267-1.113-.548-2.275-.836-3.462-.218-.9-.428-1.777-.639-2.64l.049.06L295.2,141.49l.1-.025-3.427,4.747v-.053l.944,4.213c.109.5.193.885.253,1.162l.067.305a.986.986,0,0,1,.018.109.29.29,0,0,0-.028-.095,2.95,2.95,0,0,1-.077-.291l-.281-1.138c-.242-1.015-.59-2.458-1.022-4.248v-.053l3.4-4.768.039-.056.063.032,5.372,2.552h.039v.042c.207.86.421,1.755.635,2.64.288,1.187.569,2.349.836,3.462l.021.091-.091.021-3.307.678h-.081v-.081c-.316-1.366-.618-2.661-.892-3.841l.095.06-2.31.558.053-.084c.312,1.485.583,2.784.8,3.834v.049h-.049l-2.4.477-.625.119Z" transform="translate(-250.813 -111.784)" fill="#263238"/>
      <path id="Path_2391" data-name="Path 2391" d="M280.33,128.459l.228-.056.685-.147,2.64-.551,9.613-1.977.07-.018v.074l4.1,18.987.018.088-.088.021-.1.021-12.99,2.861h-.084l-.018-.081c-1.211-5.681-2.236-10.5-2.963-13.907-.351-1.685-.635-3.023-.832-3.946-.091-.453-.165-.8-.214-1.053-.021-.112-.039-.2-.053-.263s0-.091,0-.088a.433.433,0,0,1,.025.095c.018.067.039.158.067.274.056.246.133.6.239,1.053.2.927.5,2.268.878,3.96.744,3.388,1.794,8.184,3.033,13.833l-.1-.063,12.99-2.879.1-.021-.07.109c-1.52-7.138-2.925-13.731-4.052-19l.088.056-9.581,1.892-2.689.541-.7.133Z" transform="translate(-243.402 -101.667)" fill="#263238"/>
      <path id="Path_2392" data-name="Path 2392" d="M311.76,121.687l3.792,2.433.4-.825-3.75-2.145Z" transform="translate(-263.797 -98.708)" fill="#455a64"/>
      <path id="Path_2393" data-name="Path 2393" d="M285.58,185.8l3.792,2.433.4-.825-3.753-2.145Z" transform="translate(-246.809 -140.31)" fill="#455a64"/>
      <path id="Path_2394" data-name="Path 2394" d="M319.889,177.36a4.143,4.143,0,0,1-.825.249c-.513.13-1.229.3-2.019.474-.737.165-1.4.305-1.917.4l.053-.084a5.035,5.035,0,0,1,.172.962,5.122,5.122,0,0,1-.305-.927l-.018-.067.07-.018c.5-.126,1.169-.284,1.906-.449s1.51-.323,2.029-.421A4.08,4.08,0,0,1,319.889,177.36Z" transform="translate(-265.919 -135.183)" fill="#263238"/>
      <rect id="Rectangle_292" data-name="Rectangle 292" width="13.057" height="18.218" transform="translate(37.678 13.565) rotate(-80.56)" fill="#ebebeb"/>
      <path id="Path_2395" data-name="Path 2395" d="M301.332,79.056h.158l.425.049,1.626.2-.056.042c.095-.727.211-1.619.351-2.64v-.067h.067l1.6.19h.077v.077c-.095.815-.2,1.713-.309,2.661l-.074-.095,2.272.327-.1.081c.084-.776.176-1.583.267-2.4.07-.625.14-1.239.207-1.836l.028.074-2.83-2.889h.105l-3.3,2.233.028-.046c-.161,1.215-.291,2.2-.386,2.911-.049.334-.084.6-.112.8a2.383,2.383,0,0,1-.049.288,1.4,1.4,0,0,1,.018-.267l.081-.79c.077-.7.186-1.724.323-2.96V74.97h.025l3.272-2.261.06-.039.049.049,2.837,2.875.032.032v.042c-.067.6-.137,1.215-.207,1.836-.091.825-.183,1.633-.27,2.408V80h-.095l-2.268-.351H305.1v-.084c.116-.944.228-1.843.327-2.661l.067.088-1.6-.2.077-.06c-.147,1.018-.274,1.906-.379,2.633v.049h-.049l-1.647-.263-.425-.07A.565.565,0,0,1,301.332,79.056Z" transform="translate(-257.028 -67.249)" fill="#263238"/>
      <path id="Path_2396" data-name="Path 2396" d="M284.43,72.72a1.1,1.1,0,0,1,.028-.2c.028-.133.053-.351.095-.593.088-.534.218-1.3.379-2.286.351-1.994.825-4.849,1.4-8.317V61.25h.07l16.5,2.661H303v.176c-.628,4.027-1.229,7.857-1.755,11.3v.084h-.081L289.1,73.493l-3.423-.569-.9-.154-.232-.042h.014l.239.035.92.137,3.448.53,11.969,1.885-.095.07c.534-3.444,1.127-7.275,1.755-11.3V64l.074.1-16.459-2.693.084-.06c-.618,3.444-1.127,6.278-1.482,8.261l-.418,2.293-.116.607C284.451,72.646,284.43,72.72,284.43,72.72Z" transform="translate(-246.063 -59.839)" fill="#263238"/>
      <path id="Path_2397" data-name="Path 2397" d="M285.015,60.084l3.132-2.279-.537-.576-2.889,2.335Z" transform="translate(-246.251 -57.23)" fill="#455a64"/>
      <path id="Path_2398" data-name="Path 2398" d="M328.175,101.074l3.132-2.279-.537-.576-2.889,2.335Z" transform="translate(-274.258 -83.829)" fill="#455a64"/>
      <path id="Path_2399" data-name="Path 2399" d="M333.356,68.73a17.043,17.043,0,0,1-.291,2.507c-.1.642-.2,1.225-.281,1.661l-.06-.077a3.557,3.557,0,0,1,.822.169,3.56,3.56,0,0,1-.839-.035h-.067v-.07c.053-.439.133-1.025.232-1.668a18.046,18.046,0,0,1,.484-2.486Z" transform="translate(-277.347 -64.692)" fill="#263238"/>
    </g>
    <g id="freepik--Desk--inject-47" transform="translate(91.056 101.474)">
      <path id="Path_2400" data-name="Path 2400" d="M188.148,277.19c-.063.351,0,54.616,0,54.616H185.74V277.19Z" transform="translate(-184.817 -244.209)" fill="#455a64"/>
      <path id="Path_2401" data-name="Path 2401" d="M306.908,290.78c-.063.351,0,49.746,0,49.746H304.5V290.78Z" transform="translate(-261.881 -253.027)" fill="#455a64"/>
      <path id="Path_2402" data-name="Path 2402" d="M341.408,265c-.06.351,0,58.808,0,58.808H339V265Z" transform="translate(-284.268 -236.298)" fill="#455a64"/>
      <path id="Path_2403" data-name="Path 2403" d="M339.279,219.122c.2-.327,0,17.663,0,17.663l-2.219.351.527-17.79Z" transform="translate(-283.01 -206.525)" fill="#455a64"/>
      <path id="Path_2404" data-name="Path 2404" d="M228.079,225.224c-.165.5,17.906-33.069,17.906-33.069l-.334-1.517L201.7,188.1,185,219.9Z" transform="translate(-184.336 -186.397)" fill="#263238"/>
      <path id="Path_2405" data-name="Path 2405" d="M226.67,220.88c-.042-.853,17.755-33.5,17.755-33.5l-44.852-4.125L183.11,215.463Z" transform="translate(-183.11 -183.25)" fill="#455a64"/>
      <path id="Path_2406" data-name="Path 2406" d="M233.008,216.047l15.469,1.615,9.918-25.054-22.249-2.738L225,215.05Z" transform="translate(-210.293 -187.546)" fill="#f5f5f5"/>
      <path id="Path_2407" data-name="Path 2407" d="M272.367,207.634a2.227,2.227,0,0,1,.369.1,3.62,3.62,0,0,1,.969.5,4.248,4.248,0,0,1,1.176,1.26,3.841,3.841,0,0,1,.565,2.2,4.308,4.308,0,0,1-1.018,2.559,3.553,3.553,0,0,1-1.232.955c-.485.225-1.008.39-1.531.576-.263.095-.527.19-.79.3-.13.053-.256.112-.386.172l-.19.1a.9.9,0,0,0-.144.126,3,3,0,0,0-.5.7c-.133.253-.211.548-.351.829a1.64,1.64,0,0,1-.628.723,1.664,1.664,0,0,1-.962.133l-1.9-.221c-.319-.042-.639-.088-.955-.151a1.928,1.928,0,0,1-.906-.39.565.565,0,0,1-.19-.5,1.7,1.7,0,0,1,.176-.46c.137-.281.284-.548.432-.815l.435-.79.1-.2.049-.1a.19.19,0,0,0,.018-.074,1.4,1.4,0,0,0-.056-.407c-.144-.558-.351-1.1-.453-1.654a4.262,4.262,0,0,1,.635-3.086,5.34,5.34,0,0,1,2.022-1.885,6.506,6.506,0,0,1,2.166-.7,7.233,7.233,0,0,1,1.727,0c.47.053.832.116,1.074.158l.277.053a.273.273,0,0,1,.095.025h-.095l-.281-.035c-.246-.028-.611-.081-1.078-.123a7.425,7.425,0,0,0-1.706.028,6.509,6.509,0,0,0-2.107.734,5.175,5.175,0,0,0-1.952,1.85,4.1,4.1,0,0,0-.6,2.97c.109.541.305,1.074.456,1.647a1.608,1.608,0,0,1,.063.463.376.376,0,0,1-.035.137l-.049.1-.105.2-.432.769c-.147.267-.295.534-.428.808a1.647,1.647,0,0,0-.158.407.376.376,0,0,0,.137.351,1.791,1.791,0,0,0,.818.351c.305.063.621.109.941.151l1.889.221a1.534,1.534,0,0,0,.86-.112,1.464,1.464,0,0,0,.551-.646c.137-.26.214-.555.351-.829a3.216,3.216,0,0,1,.523-.741,1.207,1.207,0,0,1,.186-.154l.2-.1.4-.179c.267-.109.534-.2.8-.295.527-.183,1.053-.351,1.52-.565a3.332,3.332,0,0,0,1.183-.906,4.213,4.213,0,0,0,1.008-2.458,3.75,3.75,0,0,0-.527-2.145,4.213,4.213,0,0,0-1.13-1.257,3.961,3.961,0,0,0-.941-.523C272.493,207.676,272.367,207.641,272.367,207.634Z" transform="translate(-235.45 -198.916)" fill="#13c693"/>
      <path id="Path_2408" data-name="Path 2408" d="M267.208,236.55a2.531,2.531,0,0,1-.179.463c-.126.291-.316.7-.534,1.236-.109.263-.221.551-.334.867a2.433,2.433,0,0,1-.527.958,2.215,2.215,0,0,1-1.092.53,4.849,4.849,0,0,1-1.285.1,4.775,4.775,0,0,1-1.264-.246,2.861,2.861,0,0,1-1.053-.579,1.289,1.289,0,0,1-.442-1.011,2.331,2.331,0,0,1,.327-.9c.256-.477.47-.878.639-1.187a2.46,2.46,0,0,1,.256-.425,2.516,2.516,0,0,1-.193.456c-.154.316-.351.727-.586,1.215a2.243,2.243,0,0,0-.291.846,1.159,1.159,0,0,0,.4.878,2.862,2.862,0,0,0,1,.534,4.75,4.75,0,0,0,2.458.14,2.107,2.107,0,0,0,1.015-.474,2.349,2.349,0,0,0,.5-.892c.119-.312.239-.6.351-.864.235-.523.442-.934.586-1.218A2.951,2.951,0,0,1,267.208,236.55Z" transform="translate(-233.328 -217.714)" fill="#13c693"/>
      <path id="Path_2409" data-name="Path 2409" d="M267.351,240.818a3.8,3.8,0,0,1-.829.021c-.509,0-1.211-.035-1.987-.074s-1.475-.088-1.984-.13a3.472,3.472,0,0,1-.822-.109,3.75,3.75,0,0,1,.825-.021c.509,0,1.215.035,1.991.077s1.478.084,1.984.126A3.43,3.43,0,0,1,267.351,240.818Z" transform="translate(-234.127 -220.395)" fill="#13c693"/>
      <path id="Path_2410" data-name="Path 2410" d="M266.239,244.405a20.363,20.363,0,0,1-2.7.084,19.426,19.426,0,0,1-2.693-.1,39.812,39.812,0,0,1,5.389.014Z" transform="translate(-233.556 -222.862)" fill="#13c693"/>
      <path id="Path_2411" data-name="Path 2411" d="M266.064,247.889c.018,0-.028.179-.242.351a1.436,1.436,0,0,1-.994.242,1.541,1.541,0,0,1-.558-.119.625.625,0,0,1-.351-.351.421.421,0,0,1,0-.327c.035-.074.074-.095.084-.088a.555.555,0,0,0,.028.351c.088.214.414.33.79.351a1.538,1.538,0,0,0,.906-.165C265.956,248.008,266.033,247.872,266.064,247.889Z" transform="translate(-235.526 -225.005)" fill="#13c693"/>
      <path id="Path_2412" data-name="Path 2412" d="M268.979,230.524a1.964,1.964,0,0,1,.2-.411l.614-1.078c.274-.463.59-1,.934-1.587a2.107,2.107,0,0,0,.411-.937.7.7,0,0,0-.685-.65,1.274,1.274,0,0,0-.973.418,5.617,5.617,0,0,0-.643.85,15.743,15.743,0,0,0-.934,1.576c-.232.46-.421.846-.544,1.113a2.106,2.106,0,0,1-.2.407,2.061,2.061,0,0,1,.137-.435c.105-.274.267-.671.5-1.141a15.532,15.532,0,0,1,.909-1.611,5.663,5.663,0,0,1,.657-.888,1.45,1.45,0,0,1,1.113-.47.9.9,0,0,1,.846.815,1.162,1.162,0,0,1-.169.569c-.091.165-.186.309-.277.46l-.958,1.58-.667,1.053A2.586,2.586,0,0,1,268.979,230.524Z" transform="translate(-237.651 -210.782)" fill="#13c693"/>
      <path id="Path_2413" data-name="Path 2413" d="M274.663,219.9a3.462,3.462,0,0,1,.193,1.092,3.391,3.391,0,0,1,0,1.106,3.462,3.462,0,0,1-.193-1.092,3.279,3.279,0,0,1,0-1.106Z" transform="translate(-242.489 -207.033)" fill="#13c693"/>
      <path id="Path_2414" data-name="Path 2414" d="M274.126,219.1c.021,0,0,.067.042.119s.091.084.147.028.035-.109-.025-.147-.105-.025-.119-.046.028-.095.154-.077a.225.225,0,0,1,.176.126.253.253,0,0,1-.33.33.235.235,0,0,1-.126-.179C274.028,219.126,274.112,219.077,274.126,219.1Z" transform="translate(-242.117 -206.431)" fill="#13c693"/>
      <path id="Path_2415" data-name="Path 2415" d="M280.789,222.44a4.356,4.356,0,0,1-1.053.9,4.43,4.43,0,0,1-1.225.667,6.983,6.983,0,0,1,1.123-.818A6.724,6.724,0,0,1,280.789,222.44Z" transform="translate(-245.016 -208.681)" fill="#13c693"/>
      <path id="Path_2416" data-name="Path 2416" d="M284.994,221.525c-.021,0,.056-.105.211-.063a.256.256,0,0,1,.172.211.284.284,0,0,1-.492.232.235.235,0,0,1-.039-.277.165.165,0,0,1,.172-.081c.042,0,.056.039.049.049s-.088,0-.105.088a.109.109,0,0,0,.042.1.13.13,0,0,0,.137.021.123.123,0,0,0,.067-.116.119.119,0,0,0-.056-.109C285.079,221.528,285,221.549,284.994,221.525Z" transform="translate(-249.109 -208.039)" fill="#13c693"/>
      <path id="Path_2417" data-name="Path 2417" d="M278.663,220.381a18.464,18.464,0,0,1-3.553-.751,17.646,17.646,0,0,1,3.553.751Z" transform="translate(-242.81 -206.857)" fill="#13c693"/>
      <path id="Path_2418" data-name="Path 2418" d="M250.646,234c.021.049-.281.218-.667.383a1.713,1.713,0,0,1-.741.211c-.021-.046.281-.218.667-.379A1.7,1.7,0,0,1,250.646,234Z" transform="translate(-226.02 -216.182)" fill="#263238"/>
      <path id="Path_2419" data-name="Path 2419" d="M251.769,203.08c.049.021-1.527,3.7-3.511,8.223s-3.644,8.17-3.69,8.152,1.531-3.7,3.511-8.226S251.741,203.052,251.769,203.08Z" transform="translate(-222.99 -196.118)" fill="#263238"/>
      <path id="Path_2420" data-name="Path 2420" d="M272.009,204.7c.046.021-1.615,3.894-3.708,8.647s-3.83,8.595-3.862,8.574,1.612-3.89,3.708-8.647S271.949,204.679,272.009,204.7Z" transform="translate(-235.885 -197.169)" fill="#263238"/>
      <path id="Path_2421" data-name="Path 2421" d="M255.827,248.611c0,.049-2.861-.267-6.376-.7s-6.358-.839-6.351-.888,2.858.263,6.376.7S255.834,248.558,255.827,248.611Z" transform="translate(-222.038 -224.628)" fill="#263238"/>
      <path id="Path_2422" data-name="Path 2422" d="M261.471,236.158a2.383,2.383,0,0,1-.506-.028l-1.366-.14c-1.155-.13-2.746-.319-4.5-.537s-3.346-.432-4.5-.59l-1.359-.2a3.139,3.139,0,0,1-.5-.1,2.379,2.379,0,0,1,.506.028l1.369.14c1.152.13,2.746.316,4.5.537s3.346.428,4.494.59l1.362.2A2.7,2.7,0,0,1,261.471,236.158Z" transform="translate(-225.698 -216.546)" fill="#263238"/>
      <path id="Path_2423" data-name="Path 2423" d="M275.331,206.305a2.491,2.491,0,0,1-.506-.025l-1.366-.144c-1.155-.126-2.749-.316-4.5-.537s-3.349-.428-4.5-.59l-1.373-.193a2.37,2.37,0,0,1-.5-.1,3.181,3.181,0,0,1,.506.028l1.366.14c1.155.13,2.749.319,4.5.537s3.349.432,4.5.593l1.362.2A3.14,3.14,0,0,1,275.331,206.305Z" transform="translate(-234.685 -197.18)" fill="#263238"/>
      <path id="Path_2424" data-name="Path 2424" d="M264.148,203.772c.028.042-.211.225-.53.407s-.6.291-.621.249.211-.228.53-.407S264.124,203.726,264.148,203.772Z" transform="translate(-234.948 -196.56)" fill="#263238"/>
      <path id="Path_2425" data-name="Path 2425" d="M244.97,246.29a2.166,2.166,0,0,1-.783.435,2.317,2.317,0,0,1-.857.267,2.226,2.226,0,0,1,.783-.435A2.3,2.3,0,0,1,244.97,246.29Z" transform="translate(-222.187 -224.157)" fill="#263238"/>
      <path id="Path_2426" data-name="Path 2426" d="M265.464,249.5a2.415,2.415,0,0,1,.088-.586l.063.1a4.414,4.414,0,0,1-.551-.067l.1-.063h0c-.067.2-.13.393-.186.551l-.063-.1a2.244,2.244,0,0,1,.551.158c.021.025-.2.032-.576,0H264.8l.025-.095c.042-.161.1-.351.161-.558h0l.025-.074h.077l.551.091.091.021-.028.081C265.572,249.328,265.478,249.532,265.464,249.5Z" transform="translate(-236.119 -225.767)" fill="#263238"/>
      <path id="Path_2427" data-name="Path 2427" d="M307.7,274.152,325.606,263.5h-12.1Z" transform="translate(-263.958 -235.325)" fill="#263238"/>
      <path id="Path_2428" data-name="Path 2428" d="M309.78,193l3.911,4.8.748-1.446-3.076-3.83Z" transform="translate(-265.307 -189.272)" fill="#263238"/>
      <path id="Path_2429" data-name="Path 2429" d="M329.356,259.581v-1.889l-10.947-.232-4.929,9.1Z" transform="translate(-267.708 -231.406)" fill="#263238"/>
    </g>
    <g id="freepik--Character--inject-47" transform="translate(90.481 95.563)">
      <rect id="Rectangle_293" data-name="Rectangle 293" width="1.924" height="34.431" transform="translate(12.853 71.639)" fill="#455a64"/>
      <path id="Path_2430" data-name="Path 2430" d="M211.323,352.743c0,2.538-6.351,4.592-14.191,4.592s-14.191-2.054-14.191-4.592a11.392,11.392,0,0,1,.154-4.055c.874-2.658,8.654-.534,14.044-.534,5.779,0,13.064-1.053,13.987,1.5A8.593,8.593,0,0,1,211.323,352.743Z" transform="translate(-182.348 -283.825)" fill="#263238"/>
      <ellipse id="Ellipse_35" data-name="Ellipse 35" cx="14.191" cy="4.592" rx="14.191" ry="4.592" transform="translate(0.585 60.952)" fill="#455a64"/>
      <path id="Path_2431" data-name="Path 2431" d="M223.408,419.2s10.754-.737,11.235,14.258h-1.755s.878-12.306-9.508-12.657v-1.324" transform="translate(-208.667 -330.444)" fill="#455a64"/>
      <path id="Path_2432" data-name="Path 2432" d="M199.035,419.2s-10.754-.737-11.235,14.258h1.755s-.878-12.306,9.508-12.657v-1.324" transform="translate(-185.578 -330.444)" fill="#455a64"/>
      <rect id="Rectangle_294" data-name="Rectangle 294" width="16.964" height="1.96" transform="translate(21.878 14.158) rotate(-7.481)" fill="#13c693"/>
      <path id="Path_2433" data-name="Path 2433" d="M245.665,405.77l1.636-3.423-6.393-3.107-2.458,4.982.383.218c1.717.958,8.795,4.74,10.15,4.954C250.5,409.636,245.665,405.77,245.665,405.77Z" transform="translate(-218.446 -317.497)" fill="#13c693"/>
      <g id="Group_62" data-name="Group 62" transform="translate(20.057 84.854)" opacity="0.3">
        <path id="Path_2434" data-name="Path 2434" d="M240.893,411.049a2.458,2.458,0,0,0-.154-1.755,2.4,2.4,0,0,0-1.267-1.194l-.871,1.787Z" transform="translate(-238.6 -408.1)" fill="#fff"/>
      </g>
      <path id="Path_2435" data-name="Path 2435" d="M247.982,416.709s1.636,1.475,1.246,1.671-7.689-3.353-10.768-5.2l.077-.137,8.479,4.213S247.6,416.537,247.982,416.709Z" transform="translate(-218.452 -326.452)" fill="#fff" opacity="0.3"/>
      <path id="Path_2436" data-name="Path 2436" d="M238.4,412.89l.105.067.305.172,1.138.614c.965.513,2.307,1.2,3.8,1.935s2.868,1.362,3.862,1.808L248.8,418l.323.137.116.039-.109-.056-.316-.151-1.173-.541c-.994-.46-2.359-1.1-3.862-1.829s-2.84-1.4-3.813-1.91l-1.148-.593-.316-.158a.458.458,0,0,0-.1-.049Z" transform="translate(-218.413 -326.354)" fill="#263238"/>
      <path id="Path_2437" data-name="Path 2437" d="M262.68,424.028a3.084,3.084,0,0,1,.488-.449,2.73,2.73,0,0,1,.614-.249.934.934,0,0,0-.66.179A.962.962,0,0,0,262.68,424.028Z" transform="translate(-234.169 -333.125)" fill="#263238"/>
      <path id="Path_2438" data-name="Path 2438" d="M258.638,419.319a.784.784,0,0,0,.319-.147c.161-.1.291-.2.277-.221a.762.762,0,0,0-.319.147C258.765,419.2,258.624,419.294,258.638,419.319Z" transform="translate(-231.545 -330.287)" fill="#263238"/>
      <path id="Path_2439" data-name="Path 2439" d="M257.549,418.176c0,.025.14,0,.3-.039s.281-.1.274-.123-.14,0-.3.039S257.542,418.155,257.549,418.176Z" transform="translate(-230.839 -329.674)" fill="#263238"/>
      <path id="Path_2440" data-name="Path 2440" d="M257.45,416.32a1.022,1.022,0,0,0,.313.207.831.831,0,0,0,.351.126.978.978,0,0,0-.312-.2A.811.811,0,0,0,257.45,416.32Z" transform="translate(-230.775 -328.58)" fill="#263238"/>
      <path id="Path_2441" data-name="Path 2441" d="M257.717,415c-.018.018.112.169.319.291a.73.73,0,0,0,.411.137,2.155,2.155,0,0,0-.369-.211A2.292,2.292,0,0,0,257.717,415Z" transform="translate(-230.947 -327.723)" fill="#263238"/>
      <path id="Path_2442" data-name="Path 2442" d="M259.954,418.173a1.3,1.3,0,0,0,.411.2,2.9,2.9,0,0,0,.484.116,1.387,1.387,0,0,0,.3,0,.267.267,0,0,0,.165-.077.19.19,0,0,0,0-.2.839.839,0,0,0-1.053-.232.765.765,0,0,0-.267.211c-.053.06-.07.1-.067.105a1.278,1.278,0,0,1,.351-.26.818.818,0,0,1,.463-.06.7.7,0,0,1,.47.274c.042.081-.021.144-.112.151a1.256,1.256,0,0,1-.281,0,2.966,2.966,0,0,1-.474-.095A3.55,3.55,0,0,0,259.954,418.173Z" transform="translate(-232.383 -329.598)" fill="#263238"/>
      <path id="Path_2443" data-name="Path 2443" d="M259.822,417.07a.521.521,0,0,0,.186-.263.759.759,0,0,0,.032-.351.456.456,0,0,0-.239-.376.179.179,0,0,0-.218.13.47.47,0,0,0-.021.218,1.289,1.289,0,0,0,.074.351c.067.19.144.288.154.281s-.046-.112-.1-.3a1.423,1.423,0,0,1-.049-.33c0-.112.021-.288.133-.256s.161.193.186.305a.752.752,0,0,1,0,.323A1.963,1.963,0,0,1,259.822,417.07Z" transform="translate(-232.142 -328.421)" fill="#263238"/>
      <path id="Path_2444" data-name="Path 2444" d="M241.2,408.086a2.553,2.553,0,0,1,.463.246,2.31,2.31,0,0,1,.825.927,2.286,2.286,0,0,1,.2,1.222c-.035.323-.116.513-.1.516s.032-.042.063-.13a1.663,1.663,0,0,0,.1-.376,2.156,2.156,0,0,0-1.053-2.212,2.018,2.018,0,0,0-.351-.161C241.253,408.09,241.2,408.079,241.2,408.086Z" transform="translate(-220.23 -323.236)" fill="#263238"/>
      <path id="Path_2445" data-name="Path 2445" d="M244.34,401.43a11.583,11.583,0,0,0-.7,1.285,12.012,12.012,0,0,0-.618,1.327,13,13,0,0,0,.7-1.289A12.637,12.637,0,0,0,244.34,401.43Z" transform="translate(-221.411 -318.918)" fill="#263238"/>
      <path id="Path_2446" data-name="Path 2446" d="M248.28,415.838a5.783,5.783,0,0,0,1.861.927c0-.025-.421-.2-.934-.456S248.294,415.816,248.28,415.838Z" transform="translate(-224.824 -328.266)" fill="#263238"/>
      <path id="Path_2447" data-name="Path 2447" d="M244.7,414.1c-.025,0,0,.105,0,.221s-.021.211,0,.221.084-.084.088-.218S244.721,414.088,244.7,414.1Z" transform="translate(-222.494 -327.138)" fill="#263238"/>
      <path id="Path_2448" data-name="Path 2448" d="M244.171,411.769c-.025,0,0,.095.018.193s.081.172.1.165,0-.095-.018-.193S244.192,411.762,244.171,411.769Z" transform="translate(-222.151 -325.627)" fill="#263238"/>
      <path id="Path_2449" data-name="Path 2449" d="M242.64,410.049c0,.025.077.063.154.144s.123.161.147.154,0-.123-.084-.218S242.643,410.025,242.64,410.049Z" transform="translate(-221.165 -324.503)" fill="#263238"/>
      <path id="Path_2450" data-name="Path 2450" d="M241.428,409c-.018,0,0,.067.046.112s.095.07.112.056,0-.067-.049-.112A.181.181,0,0,0,241.428,409Z" transform="translate(-220.374 -323.83)" fill="#263238"/>
      <path id="Path_2451" data-name="Path 2451" d="M246.629,414.911l2.057-3.191-5.969-3.89-3.058,4.634.351.267c1.58,1.166,8.124,5.811,9.441,6.193C250.941,419.367,246.629,414.911,246.629,414.911Z" transform="translate(-219.231 -323.071)" fill="#13c693"/>
      <g id="Group_63" data-name="Group 63" transform="translate(20.513 87.663)" opacity="0.3">
        <path id="Path_2452" data-name="Path 2452" d="M242.021,419.225a2.457,2.457,0,0,0,.07-1.755,2.4,2.4,0,0,0-1.1-1.369l-1.088,1.661Z" transform="translate(-239.9 -416.1)" fill="#fff"/>
      </g>
      <path id="Path_2453" data-name="Path 2453" d="M248.712,425.531s1.436,1.671,1.025,1.819-7.2-4.3-10.027-6.523l.095-.126,7.878,5.266S248.354,425.32,248.712,425.531Z" transform="translate(-219.263 -331.422)" fill="#fff" opacity="0.3"/>
      <path id="Path_2454" data-name="Path 2454" d="M239.72,420.52l.095.077.284.211,1.053.755c.892.628,2.135,1.485,3.528,2.4s2.675,1.713,3.606,2.279l1.113.664.305.176a.562.562,0,0,0,.109.056.66.66,0,0,0-.1-.07l-.295-.19-1.1-.685c-.927-.579-2.2-1.387-3.6-2.3s-2.64-1.755-3.539-2.38l-1.053-.73-.291-.2A.4.4,0,0,0,239.72,420.52Z" transform="translate(-219.27 -331.305)" fill="#263238"/>
      <path id="Path_2455" data-name="Path 2455" d="M262.24,434.854a2.809,2.809,0,0,1,.541-.386,3.1,3.1,0,0,1,.639-.172.969.969,0,0,0-.678.095A.948.948,0,0,0,262.24,434.854Z" transform="translate(-233.883 -340.229)" fill="#263238"/>
      <path id="Path_2456" data-name="Path 2456" d="M258.9,429.581a.8.8,0,0,0,.351-.105c.179-.081.312-.165.3-.186a.8.8,0,0,0-.351.105C259.026,429.476,258.892,429.56,258.9,429.581Z" transform="translate(-231.715 -336.996)" fill="#263238"/>
      <path id="Path_2457" data-name="Path 2457" d="M258,428.3c0,.025.137.025.3,0s.295-.067.291-.088a.575.575,0,0,0-.3,0A.6.6,0,0,0,258,428.3Z" transform="translate(-231.132 -336.283)" fill="#263238"/>
      <path id="Path_2458" data-name="Path 2458" d="M258.19,426.323a1.083,1.083,0,0,0,.284.242.927.927,0,0,0,.33.172,1,1,0,0,0-.284-.246C258.348,426.376,258.2,426.3,258.19,426.323Z" transform="translate(-231.255 -335.069)" fill="#263238"/>
      <path id="Path_2459" data-name="Path 2459" d="M258.625,425a.77.77,0,0,0,.281.33.7.7,0,0,0,.386.186,2.931,2.931,0,0,0-.334-.256,2.843,2.843,0,0,0-.333-.26Z" transform="translate(-231.536 -334.212)" fill="#263238"/>
      <path id="Path_2460" data-name="Path 2460" d="M260.428,428.686a1.292,1.292,0,0,0,.383.246,2.511,2.511,0,0,0,.467.176,1.218,1.218,0,0,0,.295.06.263.263,0,0,0,.172-.06.183.183,0,0,0,.042-.19.836.836,0,0,0-1-.351.772.772,0,0,0-.291.172c-.06.056-.084.095-.077.1a1.313,1.313,0,0,1,.386-.214.843.843,0,0,1,.467,0,.7.7,0,0,1,.432.33c.032.084-.039.14-.13.137a1.838,1.838,0,0,1-.277-.049,3.032,3.032,0,0,1-.46-.158C260.579,428.773,260.435,428.686,260.428,428.686Z" transform="translate(-232.7 -336.494)" fill="#263238"/>
      <path id="Path_2461" data-name="Path 2461" d="M260.369,427.4a.509.509,0,0,0,.218-.235.78.78,0,0,0,.081-.351.467.467,0,0,0-.193-.4.183.183,0,0,0-.232.1.432.432,0,0,0-.046.211,1.342,1.342,0,0,0,.028.351.7.7,0,0,0,.116.3,2.677,2.677,0,0,1-.056-.309,1.455,1.455,0,0,1,0-.334c0-.116.06-.284.169-.239s.137.211.144.327a.744.744,0,0,1-.053.319A1.459,1.459,0,0,1,260.369,427.4Z" transform="translate(-232.556 -335.12)" fill="#263238"/>
      <path id="Path_2462" data-name="Path 2462" d="M243.1,416.11a2.718,2.718,0,0,1,.432.3,2.314,2.314,0,0,1,.7,1.025,2.278,2.278,0,0,1,.046,1.236c-.077.316-.179.492-.165.5a.39.39,0,0,0,.077-.119,1.927,1.927,0,0,0,.147-.351,2.191,2.191,0,0,0-.025-1.281,2.166,2.166,0,0,0-.741-1.053,1.819,1.819,0,0,0-.334-.207.45.45,0,0,0-.14-.049Z" transform="translate(-221.463 -328.444)" fill="#263238"/>
      <path id="Path_2463" data-name="Path 2463" d="M246.463,410.21a11.885,11.885,0,0,0-.853,1.187,12.863,12.863,0,0,0-.779,1.236,11.708,11.708,0,0,0,.85-1.187A12.841,12.841,0,0,0,246.463,410.21Z" transform="translate(-222.586 -324.615)" fill="#263238"/>
      <path id="Path_2464" data-name="Path 2464" d="M249.15,424.689a4.17,4.17,0,0,0,.815.657,4,4,0,0,0,.913.5c0-.021-.39-.253-.867-.572S249.168,424.671,249.15,424.689Z" transform="translate(-225.389 -334.01)" fill="#263238"/>
      <path id="Path_2465" data-name="Path 2465" d="M245.7,422.51c-.025,0-.025.105-.042.221s-.049.207-.028.218.095-.074.112-.207S245.718,422.506,245.7,422.51Z" transform="translate(-223.098 -332.597)" fill="#263238"/>
      <path id="Path_2466" data-name="Path 2466" d="M245.568,420.139c-.021,0-.025.091,0,.193s.056.183.081.179.025-.095,0-.2S245.593,420.132,245.568,420.139Z" transform="translate(-223.054 -331.058)" fill="#263238"/>
      <path id="Path_2467" data-name="Path 2467" d="M244.28,418.237c0,.025.07.074.137.161s.1.179.126.176.028-.119-.056-.228S244.287,418.215,244.28,418.237Z" transform="translate(-222.229 -329.819)" fill="#263238"/>
      <path id="Path_2468" data-name="Path 2468" d="M243.214,417.065c-.021,0,0,.067.032.119s.081.081.1.067,0-.067-.032-.116S243.232,417.037,243.214,417.065Z" transform="translate(-221.532 -329.058)" fill="#263238"/>
      <path id="Path_2469" data-name="Path 2469" d="M243.89,413.471l6,3.865.365-.565-6-3.981Z" transform="translate(-221.976 -326.289)" opacity="0.2"/>
      <path id="Path_2470" data-name="Path 2470" d="M248.448,339.51l-7.018,23.06,6.225,2.416,9.012-20.7Z" transform="translate(-220.379 -278.737)" fill="#263238"/>
      <path id="Path_2471" data-name="Path 2471" d="M217.318,322.918s24.359-6.067,25.022-6.362c0,0,2.717-7.868-2.981-10.845-5.424-2.837-23.449,6.759-23.449,6.759Z" transform="translate(-203.819 -256.464)" fill="#263238"/>
      <path id="Path_2472" data-name="Path 2472" d="M190.743,331.951c2.781.425,5.912,1.4,7.724,1.566,4.915.449,7.257-1.562,11.344-.467.021-2.984-.2-8.514-.2-8.514l-22.74-3.016S187.291,329.444,190.743,331.951Z" transform="translate(-184.975 -267.063)" fill="#263238"/>
      <path id="Path_2473" data-name="Path 2473" d="M268.379,332.052h0a6.269,6.269,0,0,0,.871-4.062c-.544-2.756-3.844-3.058-7.289-3.472-7.742-.934-17.79-2.258-17.79-2.258l1.882,11.274,9.167.664-12.53,19.335,8.935,5.993,16.284-26.683c.1-.154.2-.319.295-.484Z" transform="translate(-221.197 -267.544)" fill="#263238"/>
      <path id="Path_2474" data-name="Path 2474" d="M266.287,325.087a4.64,4.64,0,0,1-.625-.021c-.4-.025-.987-.07-1.7-.14-1.436-.133-3.416-.372-5.6-.66s-4.157-.544-5.589-.7l-1.7-.2a3.6,3.6,0,0,1-.618-.091,4.64,4.64,0,0,1,.625.021c.4.025.987.07,1.7.14,1.436.133,3.416.372,5.6.66s4.157.544,5.589.7l1.7.2A3.592,3.592,0,0,1,266.287,325.087Z" transform="translate(-226.239 -268.201)" fill="#455a64"/>
      <path id="Path_2475" data-name="Path 2475" d="M278.5,325.306c.025.046-.049.137-.147.232s-.2.165-.239.137,0-.158.112-.27S278.472,325.264,278.5,325.306Z" transform="translate(-244.171 -269.508)" fill="#455a64"/>
      <path id="Path_2476" data-name="Path 2476" d="M256.829,353.37a.948.948,0,0,1-.116.2l-.369.558-1.369,2.029c-1.155,1.717-2.735,4.1-4.431,6.758s-3.195,5.094-4.266,6.864c-.527.871-.955,1.58-1.264,2.107l-.351.565a.932.932,0,0,1-.133.193,1.671,1.671,0,0,1,.1-.211c.081-.151.19-.351.319-.583.281-.506.7-1.232,1.218-2.128,1.053-1.787,2.521-4.234,4.213-6.9s3.3-5.031,4.48-6.727c.59-.85,1.074-1.534,1.4-2l.4-.537A1.32,1.32,0,0,1,256.829,353.37Z" transform="translate(-222.391 -287.731)" fill="#455a64"/>
      <path id="Path_2477" data-name="Path 2477" d="M262.214,355.084a8.575,8.575,0,0,1-1.222,0c-.755-.025-1.794-.06-2.946-.126s-2.191-.169-2.939-.267c-.376-.049-.678-.095-.885-.133a1.141,1.141,0,0,1-.323-.077,9.434,9.434,0,0,1,1.222.081c.751.067,1.787.147,2.935.214s2.191.123,2.942.179A8.021,8.021,0,0,1,262.214,355.084Z" transform="translate(-228.471 -288.451)" fill="#455a64"/>
      <path id="Path_2478" data-name="Path 2478" d="M294.409,228.428s.407-.541.874-.193,2.524,2.012,2.524,2.012l1.4,3.806-2,3.648-3.448-1.478a16.2,16.2,0,0,1,.751-2.5s-2.314-1.791-1.594-2.5c0,0,.19-.351,1.173.463l.98.815s-1.72-2.4-1.612-2.949h0a.674.674,0,0,1,.85-.6h0Z" transform="translate(-253.704 -206.454)" fill="#ffbe9d"/>
      <path id="Path_2479" data-name="Path 2479" d="M291.24,231.68l1.422.351,6.179,5.459a.541.541,0,0,1,.053.762h0a.541.541,0,0,1-.769.06L291.967,233Z" transform="translate(-252.702 -208.765)" fill="#13c693"/>
      <path id="Path_2480" data-name="Path 2480" d="M310.54,248.707l.681-.857.232.228a.541.541,0,0,1,.032.727h0a.537.537,0,0,1-.776.053Z" transform="translate(-265.226 -219.258)" fill="#fff" opacity="0.4"/>
      <path id="Path_2481" data-name="Path 2481" d="M291.91,232.281l.239-.281.969.249a.327.327,0,0,1,0,.327c-.095.123-.277.021-.277.021a.386.386,0,0,1,0,.351c-.088.126-.305.074-.305.074a.179.179,0,0,1-.025.274l-.088-.077Z" transform="translate(-253.136 -208.973)" fill="#fff" opacity="0.4"/>
      <path id="Path_2482" data-name="Path 2482" d="M293.939,233.7l6.141,5.15-.323.4-6.127-5.129a.3.3,0,0,0,.312-.1A.323.323,0,0,0,293.939,233.7Z" transform="translate(-254.253 -210.076)" opacity="0.4"/>
      <path id="Path_2483" data-name="Path 2483" d="M296.2,238.755a13.762,13.762,0,0,0,.657-1.71c.077-.425-.664-3.188.442-3.406l.351.165.937,4.445-1.836,1.755Z" transform="translate(-255.92 -210.037)" fill="#ffbe9d"/>
      <path id="Path_2484" data-name="Path 2484" d="M299.341,232.072c-.032,0-.091-.256-.284-.643a3.575,3.575,0,0,0-1.025-1.289,3.94,3.94,0,0,1-.741-.6,1,1,0,0,1-.274-.755.667.667,0,0,1,.274-.47c.112-.074.19-.067.19-.06a1.347,1.347,0,0,0-.144.116.625.625,0,0,0-.19.425.927.927,0,0,0,.27.635,4.754,4.754,0,0,0,.723.565,3.3,3.3,0,0,1,1.036,1.383,1.637,1.637,0,0,1,.165.7Z" transform="translate(-256.449 -206.538)" fill="#eb996e"/>
      <path id="Path_2485" data-name="Path 2485" d="M298.7,237.839a2.036,2.036,0,0,1-.091-.351c-.049-.228-.147-.548-.256-.951a5.514,5.514,0,0,1-.133-.678c-.032-.246-.046-.509-.088-.776a2.594,2.594,0,0,0-.091-.4,2.62,2.62,0,0,0-.154-.383.119.119,0,0,0-.116-.06.629.629,0,0,0-.183.063.737.737,0,0,0-.291.295,1.65,1.65,0,0,0-.2.846,4.1,4.1,0,0,0,.105.839,3.289,3.289,0,0,1,.088.793,1.779,1.779,0,0,1-.183.681,2.658,2.658,0,0,0-.323.909,2.232,2.232,0,0,0,.018.351.53.53,0,0,1-.088-.351,2.458,2.458,0,0,1,.274-.958,1.755,1.755,0,0,0,.151-.632,3.318,3.318,0,0,0-.1-.755,4.015,4.015,0,0,1-.119-.874,1.755,1.755,0,0,1,.221-.941,1.221,1.221,0,0,1,.151-.2.629.629,0,0,1,.214-.158.67.67,0,0,1,.253-.081.3.3,0,0,1,.27.133,2.054,2.054,0,0,1,.176.435,2.426,2.426,0,0,1,.091.425c.039.281.049.544.074.783a5.457,5.457,0,0,0,.109.664c.091.4.172.737.2.969A1.2,1.2,0,0,1,298.7,237.839Z" transform="translate(-256.252 -210.315)" fill="#eb996e"/>
      <path id="Path_2486" data-name="Path 2486" d="M204.94,218.33l9.472-9.17,4.838,3.63-9.876,11.755Z" transform="translate(-196.701 -194.152)" fill="#13c693"/>
      <path id="Path_2487" data-name="Path 2487" d="M204.94,218.33l9.472-9.17,4.838,3.63-9.876,11.755Z" transform="translate(-196.701 -194.152)" opacity="0.4"/>
      <path id="Path_2488" data-name="Path 2488" d="M238.08,202.733l4.29-.565a8.334,8.334,0,0,0-3.862-1.4c-3.195-.555-5.9,3.076-5.9,3.076l3.925,2.97L238,205.349s2.268-.33,3.511-.614a1.1,1.1,0,0,0,.7-.569h-.063C240.3,204.036,238.649,203.541,238.08,202.733Z" transform="translate(-214.656 -188.666)" fill="#ffbe9d"/>
      <path id="Path_2489" data-name="Path 2489" d="M249.385,206.615a3.026,3.026,0,0,1-2.015-1.538c.042-.032.393.425.948.843S249.4,206.566,249.385,206.615Z" transform="translate(-224.234 -191.501)" fill="#eb996e"/>
      <path id="Path_2490" data-name="Path 2490" d="M203.963,176.108l-.053,16.751,7.187.351.218-4.087s2.556.509,3.212-1.864c.421-1.513.316-13.219.316-13.219Z" transform="translate(-196.032 -171.362)" fill="#ffbe9d"/>
      <path id="Path_2491" data-name="Path 2491" d="M207.536,166.5a16.3,16.3,0,0,1-3.7,1.022c-.983.077-7.636.081-8.244,3.834l-.046.46V171.8c0,.018-1.436-.579-1.053,2.019a23.052,23.052,0,0,0,1.267,4.094c.351,2.2-.9,2.756-1.938,3.483-.256.183-.565.407-.523.7s.351.428.635.474a2.366,2.366,0,0,0,1.731-.4,9.994,9.994,0,0,1-.492.941.743.743,0,0,0,.186.948.8.8,0,0,0,.572.028,2.918,2.918,0,0,0,1.506-.9.639.639,0,0,0,.242.815,1.517,1.517,0,0,0,.9.193c1.4-.021,3.135,0,4.445-1.454a5.6,5.6,0,0,0,1.629-4.076s-1.429-.235-1.264-1.383c.232-1.587,1.447-1.629,2.349-.92l1.053-2.791s2.637-1.731,2.788-2.833S209.72,165.791,207.536,166.5Z" transform="translate(-189.147 -166.413)" fill="#263238"/>
      <path id="Path_2492" data-name="Path 2492" d="M208.551,247.018c-2.163-2.647-4.167-5.021-4.167-5.021.091,3.462.449,6.46.449,6.46l1.029,10.712a3.16,3.16,0,0,1-2.4,3.356c-6.716,1.622-14.577,2.082-18.98-.941a4.262,4.262,0,0,1-1.826-3.511v-9.128L181.5,236.679a19.784,19.784,0,0,1,.523-5.751,7.994,7.994,0,0,1,7.211-5.7c2.43-.137,5.151-.351,7.587-.383a12.818,12.818,0,0,1,7.956,2.6c3.588,2.724,6.3,8.981,8.833,12.966l6.941-8.374,5.74,3.665-7.843,11.586a6.52,6.52,0,0,1-9.9-.274Z" transform="translate(-181.472 -204.33)" fill="#13c693"/>
      <path id="Path_2493" data-name="Path 2493" d="M196.37,243.1a7.524,7.524,0,0,1,.516-1.6,7.921,7.921,0,0,1,.7-1.531,8.044,8.044,0,0,1-.516,1.6,7.921,7.921,0,0,1-.7,1.531Z" transform="translate(-191.14 -214.145)" fill="#263238"/>
      <path id="Path_2494" data-name="Path 2494" d="M216.154,256.516a9.248,9.248,0,0,1-1.6-2.036A9.248,9.248,0,0,1,216.154,256.516Z" transform="translate(-202.937 -223.56)" fill="#263238"/>
      <path id="Path_2495" data-name="Path 2495" d="M228.537,241.67a6.892,6.892,0,0,1-2.107.678,3.484,3.484,0,0,1,1.032-.428A3.413,3.413,0,0,1,228.537,241.67Z" transform="translate(-210.646 -215.248)" fill="#263238"/>
      <path id="Path_2496" data-name="Path 2496" d="M198.66,268.791a4.782,4.782,0,0,1,.477-1.264,5.108,5.108,0,0,1,.642-1.187,5.1,5.1,0,0,1-.477,1.264,5.017,5.017,0,0,1-.643,1.187Z" transform="translate(-192.626 -231.257)" fill="#263238"/>
      <path id="Path_2497" data-name="Path 2497" d="M194.389,288.51a5.731,5.731,0,0,1-.885-1.134,5.551,5.551,0,0,1-.734-1.236,5.9,5.9,0,0,1,.885,1.134A5.617,5.617,0,0,1,194.389,288.51Z" transform="translate(-188.804 -244.105)" fill="#263238"/>
      <path id="Path_2498" data-name="Path 2498" d="M222.273,285.67a8.2,8.2,0,0,1-1.545.7,7.985,7.985,0,0,1-1.608.53,7.5,7.5,0,0,1,1.541-.7A7.724,7.724,0,0,1,222.273,285.67Z" transform="translate(-205.902 -243.8)" fill="#263238"/>
      <path id="Path_2499" data-name="Path 2499" d="M210.113,277.441a3.409,3.409,0,0,1,0-2.2,6.441,6.441,0,0,1,0,1.1A6.405,6.405,0,0,1,210.113,277.441Z" transform="translate(-199.939 -237.032)" fill="#263238"/>
      <path id="Path_2500" data-name="Path 2500" d="M235.343,268.18a9.417,9.417,0,0,1-1.053-3.549c.049,0,.235.8.53,1.777A18.169,18.169,0,0,1,235.343,268.18Z" transform="translate(-215.746 -230.147)" fill="#263238"/>
      <path id="Path_2501" data-name="Path 2501" d="M251.4,256.761a11.082,11.082,0,0,1-1.267-.291,10.312,10.312,0,0,1-1.271-.263,3.034,3.034,0,0,1,1.31.088A3.079,3.079,0,0,1,251.4,256.761Z" transform="translate(-225.201 -224.658)" fill="#263238"/>
      <path id="Path_2502" data-name="Path 2502" d="M259.937,271a5.29,5.29,0,0,1-1.292.5,5.228,5.228,0,0,1-1.345.327,10.274,10.274,0,0,1,2.637-.825Z" transform="translate(-230.678 -234.28)" fill="#263238"/>
      <path id="Path_2503" data-name="Path 2503" d="M272.747,281.5a5.344,5.344,0,0,1,.228-3.142c.049,0-.109.7-.169,1.566S272.807,281.5,272.747,281.5Z" transform="translate(-240.613 -239.056)" fill="#263238"/>
      <path id="Path_2504" data-name="Path 2504" d="M284.444,271.438a26.127,26.127,0,0,0-2.015-1.548,2.809,2.809,0,0,1,1.138.607A2.746,2.746,0,0,1,284.444,271.438Z" transform="translate(-246.983 -233.56)" fill="#263238"/>
      <path id="Path_2505" data-name="Path 2505" d="M292.87,257.86a12.878,12.878,0,0,1-2.71,1.527,6.805,6.805,0,0,1,1.31-.843A6.943,6.943,0,0,1,292.87,257.86Z" transform="translate(-252.001 -225.754)" fill="#263238"/>
      <path id="Path_2506" data-name="Path 2506" d="M237.25,301.7a14.24,14.24,0,0,1,.994-3.058,6.956,6.956,0,0,1-.411,1.559A7.257,7.257,0,0,1,237.25,301.7Z" transform="translate(-217.667 -252.216)" fill="#263238"/>
      <path id="Path_2507" data-name="Path 2507" d="M209.579,306.647a7.067,7.067,0,0,1-.983-1.222c-.334-.47-.611-.892-.744-1.123l-.172-.3.239.239c.1.1.151.161.14.176s-.081-.025-.2-.105l.067-.06c.179.2.484.6.818,1.053A6.624,6.624,0,0,1,209.579,306.647Z" transform="translate(-198.479 -255.694)" fill="#263238"/>
      <path id="Path_2508" data-name="Path 2508" d="M225.26,310.24a8.46,8.46,0,0,1,.39,1.678,8.324,8.324,0,0,1,.211,1.713,8.115,8.115,0,0,1-.393-1.682A7.877,7.877,0,0,1,225.26,310.24Z" transform="translate(-209.887 -259.744)" fill="#263238"/>
      <path id="Path_2509" data-name="Path 2509" d="M195.914,316.529a9.945,9.945,0,0,1-1.864-1.949,5.045,5.045,0,0,1,1,.913,4.979,4.979,0,0,1,.864,1.036Z" transform="translate(-189.634 -262.56)" fill="#263238"/>
      <path id="Path_2510" data-name="Path 2510" d="M215.088,329.982a8.342,8.342,0,0,1-2.458,0A8.342,8.342,0,0,1,215.088,329.982Z" transform="translate(-201.691 -272.495)" fill="#263238"/>
      <path id="Path_2511" data-name="Path 2511" d="M239.711,319.6a6.286,6.286,0,0,1-1.1,1.029,6.163,6.163,0,0,1-1.218.885,6.446,6.446,0,0,1,1.1-1.029A6.281,6.281,0,0,1,239.711,319.6Z" transform="translate(-217.758 -265.817)" fill="#263238"/>
    </g>
    <g id="freepik--Plant--inject-47" transform="translate(59.027 155.985)">
      <path id="Path_2512" data-name="Path 2512" d="M98.283,374.408a3.841,3.841,0,0,0-.741-3.771,5.08,5.08,0,0,0-3.567-1.65,2.131,2.131,0,0,0-1.727.513A1.643,1.643,0,0,0,92,371.143a3.328,3.328,0,0,0,1.053,1.359c1.534,1.274,3.255,2.226,5.224,1.91" transform="translate(-91.883 -358.282)" fill="#13c693"/>
      <path id="Path_2513" data-name="Path 2513" d="M119.1,378.541a8.956,8.956,0,0,1,5.7-5.867,1.889,1.889,0,0,1,2.022.232,1.856,1.856,0,0,1-.109,2.033,7.65,7.65,0,0,1-7.591,3.8" transform="translate(-109.545 -360.565)" fill="#13c693"/>
      <path id="Path_2514" data-name="Path 2514" d="M119.1,378.541a8.956,8.956,0,0,1,5.7-5.867,1.889,1.889,0,0,1,2.022.232,1.856,1.856,0,0,1-.109,2.033,7.65,7.65,0,0,1-7.591,3.8" transform="translate(-109.545 -360.565)" fill="#fff" opacity="0.3"/>
      <path id="Path_2515" data-name="Path 2515" d="M115.367,338.51a4.483,4.483,0,0,0-2.651,2.3,7.931,7.931,0,0,0-.779,3.511,13.99,13.99,0,0,0,2.107,6.839c2.159-1.429,2.995-4.311,3.328-5.8.527-2.352.049-6.927-2-6.839" transform="translate(-104.896 -338.51)" fill="#13c693"/>
      <path id="Path_2516" data-name="Path 2516" d="M105.491,385.738a9.936,9.936,0,0,0,.046-1.169,16.47,16.47,0,0,0-.906-4.3,8.219,8.219,0,0,0-2.542-3.578,5.407,5.407,0,0,0-1.152-.7,1.54,1.54,0,0,0-.467-.154,11.708,11.708,0,0,1,1.5.99,8.648,8.648,0,0,1,2.416,3.528,19.032,19.032,0,0,1,.965,4.213" transform="translate(-97.455 -362.727)" fill="#263238"/>
      <path id="Path_2517" data-name="Path 2517" d="M114.588,368.055c.067-.562.151-1.3.253-2.18.207-1.843.5-4.389.864-7.2s.727-5.344.99-7.18l.312-2.173a4.64,4.64,0,0,0,.081-.8,4.943,4.943,0,0,0-.183.786c-.1.509-.235,1.25-.393,2.163-.312,1.829-.7,4.364-1.053,7.176s-.625,5.361-.786,7.208c-.081.927-.14,1.675-.172,2.194" transform="translate(-106.56 -345.006)" fill="#263238"/>
      <path id="Path_2518" data-name="Path 2518" d="M121.061,379.1a1.6,1.6,0,0,0-.453.116,3.7,3.7,0,0,0-.516.19,6.672,6.672,0,0,0-.66.309,9.66,9.66,0,0,0-1.59,1.053,10.122,10.122,0,0,0-2.809,3.669,9.256,9.256,0,0,0-.6,1.8,5.393,5.393,0,0,0-.13.7,3.945,3.945,0,0,0-.053.548c0,.3.067.39.084.393a15.874,15.874,0,0,1,.277-1.615,10.491,10.491,0,0,1,.639-1.755,12.031,12.031,0,0,1,1.187-1.942,11.566,11.566,0,0,1,1.569-1.643,10.691,10.691,0,0,1,1.524-1.071C120.443,379.349,121.079,379.149,121.061,379.1Z" transform="translate(-106.397 -364.849)" fill="#263238"/>
      <path id="Path_2519" data-name="Path 2519" d="M98.283,374.408a3.841,3.841,0,0,0-.741-3.771,5.08,5.08,0,0,0-3.567-1.65,2.131,2.131,0,0,0-1.727.513A1.643,1.643,0,0,0,92,371.143a3.328,3.328,0,0,0,1.053,1.359c1.534,1.274,3.255,2.226,5.224,1.91" transform="translate(-91.883 -358.282)" opacity="0.2"/>
      <path id="Path_2520" data-name="Path 2520" d="M97.34,402.83h12.025v4.494a6.014,6.014,0,0,1-6.014,6.011h0a6.014,6.014,0,0,1-6.011-6.011Z" transform="translate(-95.424 -380.248)" fill="#455a64"/>
      <path id="Path_2521" data-name="Path 2521" d="M109.51,410.447a2.228,2.228,0,0,1-.47,0l-1.281-.039c-1.081-.035-2.573-.081-4.213-.109s-3.16-.032-4.213-.032H98.05a2.179,2.179,0,0,1-.47-.025,2.522,2.522,0,0,1,.467-.046c.3-.018.741-.039,1.281-.053,1.085-.032,2.581-.049,4.234-.021s3.16.095,4.213.165c.541.032.976.067,1.278.095a2.151,2.151,0,0,1,.456.063Z" transform="translate(-95.58 -384.972)" fill="#263238"/>
      <path id="Path_2522" data-name="Path 2522" d="M109.5,412.377a2.61,2.61,0,0,1-.474,0l-1.278-.039c-1.081-.035-2.577-.081-4.213-.109s-3.16-.032-4.213-.032H98.04a2.209,2.209,0,0,1-.47-.025,2.6,2.6,0,0,1,.47-.046c.3-.018.741-.039,1.281-.053,1.081-.032,2.577-.049,4.213-.021s3.16.095,4.213.165c.541.032.98.067,1.281.095a2.152,2.152,0,0,1,.47.063Z" transform="translate(-95.573 -386.224)" fill="#263238"/>
    </g>
  </g>
</svg>
