<svg xmlns="http://www.w3.org/2000/svg" width="275" height="248.097" viewBox="0 0 275 248.097">
  <g id="Group_43" data-name="Group 43" transform="translate(-93 -633)">
    <g id="QA_engineers-bro" data-name="QA engineers-bro" transform="translate(109.473 620.395)">
      <g id="freepik--background-simple--inject-1" transform="translate(58.527 62.286)">
        <g id="freepik--background-simple--inject-1-2" data-name="freepik--background-simple--inject-1">
          <path id="Path_1692" data-name="Path 1692" d="M196.078,64.132c-15.031,3.619-28.85,11.584-44.706,14.822-25.706,5.223-54.692,3.687-73.76,24.881-14.4,16.007-22.536,39.447-17.674,60.8,12.66,55.548,92.441,65.461,135.4,41.86,22.285-12.247,38.444-34.992,49.694-57.225,10.325-20.415,21.3-47.286,5.745-68-7.416-9.887-19.073-16.19-31.263-18.232A57.225,57.225,0,0,0,196.078,64.132Z" transform="translate(-58.527 -62.286)" fill="#13c693"/>
          <path id="Path_1693" data-name="Path 1693" d="M196.078,64.132c-15.031,3.619-28.85,11.584-44.706,14.822-25.706,5.223-54.692,3.687-73.76,24.881-14.4,16.007-22.536,39.447-17.674,60.8,12.66,55.548,92.441,65.461,135.4,41.86,22.285-12.247,38.444-34.992,49.694-57.225,10.325-20.415,21.3-47.286,5.745-68-7.416-9.887-19.073-16.19-31.263-18.232A57.225,57.225,0,0,0,196.078,64.132Z" transform="translate(-58.527 -62.286)" fill="#fff" opacity="0.8"/>
        </g>
      </g>
      <g id="freepik--Graphics--inject-1" transform="translate(72.504 68.785)">
        <g id="freepik--graphics--inject-1-2" data-name="freepik--graphics--inject-1" transform="translate(0 0)">
          <rect id="Rectangle_257" data-name="Rectangle 257" width="4.215" height="23.815" transform="translate(147.17 129.794)" fill="#13c693"/>
          <path id="Path_1694" data-name="Path 1694" d="M371.322,347.088H366.59V322.75h4.732Zm-4.209-.522H370.8V323.272h-3.687Z" transform="translate(-219.676 -193.217)" fill="#263238"/>
          <rect id="Rectangle_258" data-name="Rectangle 258" width="4.215" height="11.824" transform="translate(152.68 141.785)" fill="#13c693"/>
          <path id="Path_1695" data-name="Path 1695" d="M381.867,358.056H377.13V345.71h4.737Zm-4.215-.522h3.692v-11.3h-3.692Z" transform="translate(-224.712 -204.186)" fill="#263238"/>
          <rect id="Rectangle_259" data-name="Rectangle 259" width="4.215" height="19.601" transform="translate(158.028 134.009)" fill="#13c693"/>
          <path id="Path_1696" data-name="Path 1696" d="M392.1,350.943H387.37V330.82H392.1Zm-4.209-.522h3.687V331.342h-3.687Z" transform="translate(-229.604 -197.073)" fill="#263238"/>
          <path id="Path_1697" data-name="Path 1697" d="M386.595,372.132H366.571a.261.261,0,1,1,0-.522h20.024a.261.261,0,0,1,0,.522Z" transform="translate(-219.542 -216.559)" fill="#263238"/>
          <path id="Path_1698" data-name="Path 1698" d="M401.981,356.3a.261.261,0,0,1-.261-.261V336.011a.261.261,0,1,1,.522,0v20.024A.261.261,0,0,1,401.981,356.3Z" transform="translate(-236.459 -199.428)" fill="#263238"/>
          <path id="Path_1699" data-name="Path 1699" d="M105.411,76.14A1.415,1.415,0,1,1,104,74.73a1.415,1.415,0,0,1,1.415,1.41Z" transform="translate(-93.55 -74.73)" fill="#263238"/>
          <path id="Path_1700" data-name="Path 1700" d="M133.228,81.929a2.554,2.554,0,1,1-2.559-2.549A2.554,2.554,0,0,1,133.228,81.929Z" transform="translate(-105.751 -76.951)" fill="#263238"/>
          <path id="Path_1701" data-name="Path 1701" d="M89.2,97.423a1.953,1.953,0,1,1-.578-1.387A1.953,1.953,0,0,1,89.2,97.423Z" transform="translate(-85.29 -84.638)" fill="#263238"/>
          <path id="Path_1702" data-name="Path 1702" d="M89.058,88.694l-.418-.313,8.6-11.511,15.088,3.609-.12.507L97.451,77.46Z" transform="translate(-86.89 -75.752)" fill="#263238"/>
          <path id="Path_1703" data-name="Path 1703" d="M397.2,294.667a9.626,9.626,0,0,0,.261,2.22l-2.23,1.729,2.261,3.985,2.611-1.076a9.484,9.484,0,0,0,3.828,2.246l.376,2.8h4.575l.4-2.81a9.4,9.4,0,0,0,3.854-2.209l2.611,1.076,2.3-3.954-2.22-1.729a9.449,9.449,0,0,0,0-4.439l2.23-1.734-2.261-3.985-2.611,1.045a9.434,9.434,0,0,0-3.828-2.251l-.371-2.8h-4.575l-.4,2.81a9.4,9.4,0,0,0-3.86,2.209l-2.611-1.076-2.272,4.006,2.214,1.734a9.694,9.694,0,0,0-.282,2.2Zm8.3-4.93a3.8,3.8,0,1,0,.005,0Z" transform="translate(-233.358 -174.122)" fill="#263238"/>
          <path id="Path_1704" data-name="Path 1704" d="M363.3,252.618a5.361,5.361,0,0,0,.136,1.253l-1.259.992,1.285,2.23,1.478-.6a5.322,5.322,0,0,0,2.162,1.259l.214,1.567h2.57l.225-1.567a5.374,5.374,0,0,0,2.167-1.248l1.473.606,1.3-2.225L373.8,253.9a5.4,5.4,0,0,0,0-2.5l1.259-.971-1.285-2.23-1.473.6a5.322,5.322,0,0,0-2.162-1.259l-.209-1.567h-2.564l-.225,1.567a5.276,5.276,0,0,0-2.167,1.243l-1.473-.606-1.3,2.225,1.253.982a5.048,5.048,0,0,0-.151,1.238Zm4.784-2.815a2.852,2.852,0,1,1-2.261,2.241A2.852,2.852,0,0,1,368.087,249.8Z" transform="translate(-217.569 -156.537)" fill="#fff"/>
          <path id="Path_1705" data-name="Path 1705" d="M122.86,190.153a6.727,6.727,0,0,0,.757,1.384l-1.013,1.708,2.528,2,1.436-1.4a6.565,6.565,0,0,0,3.081.449l.992,1.723,2.982-1.2-.48-1.938a6.622,6.622,0,0,0,1.927-2.46h1.99l.449-3.186-1.906-.522a6.68,6.68,0,0,0-1.17-2.9l.992-1.718-2.528-2-1.431,1.389a6.711,6.711,0,0,0-3.092-.454l-.982-1.723-2.987,1.2.486,1.938a6.654,6.654,0,0,0-1.932,2.465h-1.985l-.454,3.186,1.906.522A6.726,6.726,0,0,0,122.86,190.153Zm4.11-5.411a3.588,3.588,0,1,1-1.478,3.473,3.525,3.525,0,0,1,1.462-3.473Z" transform="translate(-102.121 -124.687)" fill="#13c693"/>
          <path id="Path_1706" data-name="Path 1706" d="M128.211,168.774a2.83,2.83,0,0,0,.3.569l-.407.7,1.045.81.585-.569a2.752,2.752,0,0,0,1.264.178l.4.705,1.217-.491-.2-.783a2.8,2.8,0,0,0,.789-1.008h.809l.183-1.3-.778-.225a2.778,2.778,0,0,0-.475-1.18l.407-.7-1.045-.81-.58.564a2.685,2.685,0,0,0-1.264-.178l-.4-.705-1.217.491.193.783a2.789,2.789,0,0,0-.783,1.008h-.815l-.183,1.3.778.219A2.553,2.553,0,0,0,128.211,168.774Zm1.718-2.246a1.462,1.462,0,1,1-.423,2.021,1.5,1.5,0,0,1-.214-.522A1.478,1.478,0,0,1,129.929,166.528Z" transform="translate(-105.34 -117.544)" fill="#13c693"/>
        </g>
      </g>
      <g id="freepik--Window--inject-1" transform="translate(83.211 81.774)">
        <g id="freepik--Screen--inject-1" transform="translate(0)">
          <path id="Path_1707" data-name="Path 1707" d="M114.907,141.69H254.493a1.567,1.567,0,0,1,1.567,1.567v69.174A1.567,1.567,0,0,1,254.493,214H113.34V143.257A1.567,1.567,0,0,1,114.907,141.69Z" transform="translate(-109.397 -119.708)" fill="#13c693"/>
          <path id="Path_1708" data-name="Path 1708" d="M114.907,141.69H254.493a1.567,1.567,0,0,1,1.567,1.567v69.174A1.567,1.567,0,0,1,254.493,214H113.34V143.257A1.567,1.567,0,0,1,114.907,141.69Z" transform="translate(-109.397 -119.708)" opacity="0.2"/>
          <path id="Path_1709" data-name="Path 1709" d="M253.55,197.734H108.662a2.878,2.878,0,0,1-2.872-2.872V102.472a2.878,2.878,0,0,1,2.872-2.872h145.41a2.355,2.355,0,0,1,2.35,2.35v92.911A2.878,2.878,0,0,1,253.55,197.734ZM108.662,100.122a2.355,2.355,0,0,0-2.35,2.35v92.389a2.355,2.355,0,0,0,2.35,2.35H253.55a2.355,2.355,0,0,0,2.35-2.35V101.95a1.828,1.828,0,0,0-1.828-1.828Z" transform="translate(-105.79 -99.6)" fill="#263238"/>
          <path id="Path_1710" data-name="Path 1710" d="M114.909,107.7H192.6a2.089,2.089,0,0,1,2.089,2.089v.747a1.567,1.567,0,0,1-1.567,1.567h-78.21a2.089,2.089,0,0,1-2.089-2.089v-.225A2.089,2.089,0,0,1,114.909,107.7Z" transform="translate(-109.148 -103.47)" fill="#13c693"/>
          <path id="Path_1711" data-name="Path 1711" d="M192.88,112.12H114.67a2.35,2.35,0,0,1-2.35-2.35v-.219a2.355,2.355,0,0,1,2.35-2.35h77.687a2.35,2.35,0,0,1,2.35,2.35v.742A1.828,1.828,0,0,1,192.88,112.12Zm-78.21-4.4a1.828,1.828,0,0,0-1.828,1.828v.219a1.828,1.828,0,0,0,1.828,1.828h78.21a1.306,1.306,0,0,0,1.306-1.306v-.742a1.828,1.828,0,0,0-1.828-1.828Z" transform="translate(-108.91 -103.231)" fill="#263238"/>
          <path id="Path_1712" data-name="Path 1712" d="M118,126.345a1.64,1.64,0,1,1-1.635-1.635A1.64,1.64,0,0,1,118,126.345Z" transform="translate(-110.056 -111.596)" fill="#fff"/>
          <path id="Path_1713" data-name="Path 1713" d="M116.1,128a1.9,1.9,0,1,1,1.9-1.9A1.9,1.9,0,0,1,116.1,128Zm0-3.275a1.379,1.379,0,1,0,1.374,1.374A1.379,1.379,0,0,0,116.1,124.728Z" transform="translate(-109.803 -111.352)" fill="#263238"/>
          <circle id="Ellipse_22" data-name="Ellipse 22" cx="1.635" cy="1.635" r="1.635" transform="translate(10.226 13.114)" fill="#fff"/>
          <path id="Path_1714" data-name="Path 1714" d="M126.756,128a1.9,1.9,0,1,1,1.9-1.9A1.9,1.9,0,0,1,126.756,128Zm0-3.275a1.379,1.379,0,1,0,1.374,1.374A1.379,1.379,0,0,0,126.756,124.728Z" transform="translate(-114.896 -111.352)" fill="#263238"/>
          <path id="Path_1715" data-name="Path 1715" d="M139.29,126.345a1.64,1.64,0,1,1-1.64-1.635A1.64,1.64,0,0,1,139.29,126.345Z" transform="translate(-120.227 -111.596)" fill="#fff"/>
          <path id="Path_1716" data-name="Path 1716" d="M137.411,128a1.9,1.9,0,1,1,1.9-1.9A1.9,1.9,0,0,1,137.411,128Zm0-3.275a1.374,1.374,0,1,0,.975.4A1.379,1.379,0,0,0,137.411,124.728Z" transform="translate(-119.988 -111.352)" fill="#263238"/>
        </g>
      </g>
      <g id="freepik--Floor--inject-1" transform="translate(77.889 245.108)">
        <ellipse id="Ellipse_23" data-name="Ellipse 23" cx="80.638" cy="7.797" rx="80.638" ry="7.797" transform="translate(0)" fill="#13c693"/>
        <ellipse id="Ellipse_24" data-name="Ellipse 24" cx="80.638" cy="7.797" rx="80.638" ry="7.797" transform="translate(0)" fill="#fff" opacity="0.7"/>
      </g>
      <g id="freepik--character-2--inject-1" transform="translate(156.573 78.071)">
        <g id="freepik--character-2--inject-1-2" data-name="freepik--character-2--inject-1">
          <path id="Path_1717" data-name="Path 1717" d="M251.241,414.247s-3.489,4.22-4.11,7.547.449,3.134,1.3,3.207,3.134-2.7,3.719-3.771S254,413.85,254,413.85Z" transform="translate(-246.586 -246.024)" fill="#fff"/>
          <path id="Path_1718" data-name="Path 1718" d="M316.9,412.257l1.88-1.227a19.366,19.366,0,0,0,5.447,3.348c2.439.736,7.275-.475,8.153,2.47,0,0-4.413,1.536-7.025,1.337s-8.779-.1-8.779-.1Z" transform="translate(-279.853 -244.677)" fill="#fff"/>
          <path id="Path_1719" data-name="Path 1719" d="M268.918,237.631s-3.656,27.853-4.747,35.6S258.8,301.4,258,306.006s-3.8,24.369-3.8,24.369l3.165,1.426,23.105-69.462s3.322,25.633,3.165,33.389,3.008,34.3,3.008,34.3l3.16-1.415s3.959-20.739,3.327-28.338,1.739-32.119.951-40.982-1.9-22.155-1.9-22.155S283.635,242.378,268.918,237.631Z" transform="translate(-250.052 -161.604)" fill="#263238"/>
          <path id="Path_1720" data-name="Path 1720" d="M247.841,424.867h-.251a1.337,1.337,0,0,1-1.253-1.086c-.684-2.658,3.228-9.432,4.982-10.633a.261.261,0,0,1,.36.063.266.266,0,0,1-.068.36c-1.567,1.092-5.39,7.709-4.774,10.085a.836.836,0,0,0,.8.7h.2c3.656,0,5.364-9.448,5.385-9.542a.251.251,0,0,1,.3-.209.256.256,0,0,1,.209.3C253.66,415.31,251.91,424.867,247.841,424.867Z" transform="translate(-246.258 -245.667)" fill="#263238"/>
          <path id="Path_1721" data-name="Path 1721" d="M304.766,274.5a.267.267,0,0,1-.162-.057.256.256,0,0,1-.037-.36l7.51-9.27a.256.256,0,0,1,.36-.037.251.251,0,0,1,.037.36l-7.542,9.27A.251.251,0,0,1,304.766,274.5Z" transform="translate(-274.087 -174.78)" fill="#fff"/>
          <path id="Path_1722" data-name="Path 1722" d="M306.243,282.931a.266.266,0,0,1-.225-.131.256.256,0,0,1,.094-.35,20.273,20.273,0,0,0,3.233-2.361.256.256,0,0,1,.366,0,.261.261,0,0,1,0,.366,20.965,20.965,0,0,1-3.316,2.418.246.246,0,0,1-.151.057Z" transform="translate(-274.791 -182.086)" fill="#fff"/>
          <path id="Path_1723" data-name="Path 1723" d="M325.125,417.313c-1.154,0-2.58-.068-3.959-.13a22.475,22.475,0,0,0-4.674,0,.272.272,0,0,1-.266,0,.261.261,0,0,1-.136-.23l.136-8.038a.235.235,0,0,1,.261-.256.266.266,0,0,1,.256.261l-.131,7.7a30.548,30.548,0,0,1,4.58.052c1.374.063,2.794.131,3.933.131a25.524,25.524,0,0,0,6.722-1.253A2.533,2.533,0,0,0,330,414.012a8.669,8.669,0,0,0-2.131-.157h-.856a12.143,12.143,0,0,1-8.607-4,.256.256,0,0,1,0-.366.261.261,0,0,1,.366,0,11.584,11.584,0,0,0,8.236,3.828h.815a8.955,8.955,0,0,1,2.324.219,2.943,2.943,0,0,1,2.282,2.167.266.266,0,0,1-.172.282A28.863,28.863,0,0,1,325.125,417.313Z" transform="translate(-279.619 -243.544)" fill="#263238"/>
          <path id="Path_1724" data-name="Path 1724" d="M281.781,247.569a1.468,1.468,0,0,1-.637-.141.256.256,0,0,1,.214-.465,1.468,1.468,0,0,0,1.666-.58,4.747,4.747,0,0,0,.71-1.99l.653-3.264a.261.261,0,0,1,.3-.2.256.256,0,0,1,.2.3l-.648,3.264a5.222,5.222,0,0,1-.81,2.2A2.173,2.173,0,0,1,281.781,247.569Z" transform="translate(-262.853 -163.411)" fill="#fff"/>
          <path id="Path_1725" data-name="Path 1725" d="M324.186,421.457a19.634,19.634,0,0,1-2.611-.172l-.736-.11c-1.535-.225-3.134-.465-4.408.251l-.251-.449c1.436-.8,3.134-.554,4.732-.308l.736.1a19.1,19.1,0,0,0,9.693-1.232l.193.48A19.585,19.585,0,0,1,324.186,421.457Z" transform="translate(-279.662 -248.743)" fill="#263238"/>
          <path id="Path_1726" data-name="Path 1726" d="M249.311,425.579a2.821,2.821,0,0,1-1.374-1.4,4.267,4.267,0,0,1-.12-1.567,12.279,12.279,0,0,1,3.348-7.562l.371.36a11.756,11.756,0,0,0-3.207,7.239,4.037,4.037,0,0,0,.1,1.379,2.429,2.429,0,0,0,1.1,1.081Z" transform="translate(-246.991 -246.598)" fill="#263238"/>
          <path id="Path_1727" data-name="Path 1727" d="M343.149,151.61,359.47,125.1,341.6,118.06,326.87,139.933Z" transform="translate(-284.769 -104.716)" fill="#fff"/>
          <path id="Path_1728" data-name="Path 1728" d="M373.5,154.585A7.164,7.164,0,0,0,374.936,151c.037-1.791-1.139-2.011-.83-3.055s.052-1.645-1.044-2.747-3.567-1.755-3.729-1.17,2.214,1.535,1.985,2.543c0,0-4.23.162-4.429,1.238l-.063.747s-.851.392-.653.851,4.528.392,4.528.392-.715,2.831.23,3.656Z" transform="translate(-303.531 -117.018)" fill="#fff"/>
          <path id="Path_1729" data-name="Path 1729" d="M344.52,132.64c4.481,5.907.4,13.344-5.64,17.188s-11.908,2.131-14.942-2.611-.59-11.8,5.447-15.621S341.1,128.117,344.52,132.64Z" transform="translate(-282.745 -109.926)" fill="#fff"/>
          <path id="Path_1730" data-name="Path 1730" d="M317.011,159.032,309.48,176.3l-13.715-11.892s-5-2.47-5.635-6.648L280.4,156.4s-1.165,4.622-3.165,5.625l-2.183-3.818-.329,4.7s-5.024-2.037-6.44-3.233c0,0-11.224,5.076-13.057,10.618s4.178,18.9,4.178,18.9,2.272,5.813,4.178,6.178,5.745-3.186,5.745-3.186l-1.045,6.664s14.686,5.823,24.4-.6l-.131-21.648s12.383,6.267,16.107,7.615,5.087.815,5.087.815,6.361-16.713,7.453-24.437ZM267.4,184.895l-1.9-7.129,3.228,6.053Z" transform="translate(-250.374 -123.032)" fill="#13c693"/>
          <path id="Path_1731" data-name="Path 1731" d="M329.529,152.2s7.589,3.134,14.843-4.617S347.009,135,347.009,135s6.44,4.434.914,12.268-11.626,7.912-15.088,7.312S329.529,152.2,329.529,152.2Z" transform="translate(-286.039 -112.809)" fill="#13c693"/>
          <path id="Path_1732" data-name="Path 1732" d="M285.544,218.33c-.125,0,0,.188.125.188,1.917.031,3.833-.026,5.745-.183l-5.223,2.037a1.2,1.2,0,0,0-.454.266,1.169,1.169,0,0,0-.2.449c-.783,2.752-2.4,8.33-2.324,8.356l-2.679-.987,1.044-6.664Z" transform="translate(-262.631 -152.618)" opacity="0.2"/>
          <path id="Path_1733" data-name="Path 1733" d="M274.256,187.118l.971-8.508s3.134,2.387,2.194,5.343,2.382,9.061,2.382,9.061l-1.943,1.415-3.86-8Z" transform="translate(-259.511 -133.643)" opacity="0.2"/>
          <path id="Path_1734" data-name="Path 1734" d="M327.1,183.87a29.909,29.909,0,0,0,1.092,4.3c.3.3-.3-3.332.24-3.515s2,4.727,2,4.727,5.573,3.269,7.453,2.966,4.841-3.656,4.841-3.656l1.144,1.045s-1.144,3.1-2.533,3.7c0,0,2.361,3.134,7.688,2.543,0,0-.376,2.857-2.481,2.423-4.962-1.045-19.512-8.685-19.512-8.685Z" transform="translate(-284.845 -136.156)" opacity="0.2"/>
          <path id="Path_1735" data-name="Path 1735" d="M258.533,173.34c-2.366,8.79-1.452,11.845,1.374,19.266,0,0,3.88-1.828,7.035-.151l.3.825-5.134,3.181s.522,4.1,3.99,5.886c0,0-1.384,1.337-2.475,1.139s-5.406-9.547-6.351-11.438S251.827,180.7,258.533,173.34Z" transform="translate(-250.395 -131.125)" opacity="0.2"/>
          <path id="Path_1736" data-name="Path 1736" d="M324.574,148.534a8.32,8.32,0,0,1-2.251-7.484c.883-4.659,5.5-9.171,9.155-10.7s9.923-2.173,12.012,1.849c0,0-4.345-3.3-12.012.888A13.514,13.514,0,0,0,324.574,148.534Z" transform="translate(-282.52 -110.021)" fill="#13c693"/>
          <path id="Path_1737" data-name="Path 1737" d="M344.249,181.692a.277.277,0,0,1-.172-.068L327.8,167a.257.257,0,0,1,.345-.381l16.274,14.623a.256.256,0,0,1,0,.36A.261.261,0,0,1,344.249,181.692Z" transform="translate(-285.174 -127.883)" fill="#263238"/>
          <path id="Path_1738" data-name="Path 1738" d="M347,187.786c-4.178,0-18.279-7.756-20-8.711a.257.257,0,0,1,.251-.449c7.28,4.037,18.7,9.646,20.321,8.534,1.828-1.248,6.131-17.517,7.709-23.967l-3.739-1.65-8.356,19.669a.261.261,0,1,1-.475-.2l8.476-19.9a.277.277,0,0,1,.146-.141.261.261,0,0,1,.2,0l4.178,1.844a.256.256,0,0,1,.146.3c-.23.93-5.583,22.844-7.97,24.479A1.536,1.536,0,0,1,347,187.786Z" transform="translate(-284.768 -125.202)" fill="#263238"/>
          <path id="Path_1739" data-name="Path 1739" d="M294.21,214.334a41.513,41.513,0,0,1-13.976-2.883.261.261,0,0,1-.157-.277l1.045-6.669a.256.256,0,1,1,.507.078l-1,6.466c1.812.721,16.4,6.194,23.847-.554l-.084-28a.256.256,0,0,1,.256-.261h0a.266.266,0,0,1,.261.256L305,210.61a.261.261,0,0,1-.084.188C302.013,213.446,298.085,214.334,294.21,214.334Z" transform="translate(-262.414 -135.372)" fill="#263238"/>
          <path id="Path_1740" data-name="Path 1740" d="M312.7,156.984h-.031l-9.6-1.144a.263.263,0,0,1,.063-.522l9.6,1.144a.256.256,0,0,1,.225.287A.261.261,0,0,1,312.7,156.984Z" transform="translate(-273.287 -122.515)" fill="#263238"/>
          <path id="Path_1741" data-name="Path 1741" d="M263.72,198.558c-1.071,0-1.953-1.567-2.481-2.465l-.2-.339a55.962,55.962,0,0,1-3.134-6.267c-2.319-5.2-4.288-10.706-3.034-15.767,1.274-5.139,5.181-7.275,9.317-9.531,1.139-.622,2.319-1.264,3.442-1.974a.257.257,0,0,1,.277.434c-1.138.721-2.324,1.368-3.473,2-4.032,2.2-7.834,4.277-9.061,9.2s.726,10.325,3,15.438a56.738,56.738,0,0,0,3.1,6.231c.063.1.131.214.2.35.444.773,1.264,2.209,2.037,2.209h0c2.22-.052,14.707-11.338,19.543-15.882l-2.235-3.426-17.757,11.913a.256.256,0,0,1-.355-.068.266.266,0,0,1,.068-.36l17.966-12.054a.257.257,0,0,1,.36.068l.042.063,2.455,3.766a.261.261,0,0,1-.037.329c-.7.658-17.146,16.1-20.045,16.19Z" transform="translate(-250.187 -125.79)" fill="#263238"/>
          <path id="Path_1742" data-name="Path 1742" d="M303.4,124.809a.261.261,0,0,1-.157-.057.251.251,0,0,1-.047-.36c.444-.575,1.5-2.251,1.045-3.06a.789.789,0,0,0-.522-.465.82.82,0,0,0-.6.209.257.257,0,0,1-.35-.376,1.353,1.353,0,0,1,1.045-.345,1.285,1.285,0,0,1,.893.726c.695,1.248-.909,3.389-1.1,3.63A.266.266,0,0,1,303.4,124.809Z" transform="translate(-273.219 -105.809)" fill="#263238"/>
          <path id="Path_1743" data-name="Path 1743" d="M329.735,150.118a7.9,7.9,0,0,1-6.366-2.737,8.131,8.131,0,0,1-1.175-7.489,16.629,16.629,0,0,1,14.07-11.391,7.571,7.571,0,0,1,8.257,10.205A16.629,16.629,0,0,1,330.445,150.1C330.2,150.112,329.97,150.118,329.735,150.118ZM336.973,129h-.679a16.112,16.112,0,0,0-13.605,11.015,7.058,7.058,0,0,0,7.724,9.547,16.117,16.117,0,0,0,13.61-11.009,7.65,7.65,0,0,0-1.081-7.03A7.476,7.476,0,0,0,336.973,129Z" transform="translate(-282.343 -109.694)" fill="#263238"/>
          <path id="Path_1744" data-name="Path 1744" d="M332.93,153.669a7.941,7.941,0,0,1-6.382-2.726,8.131,8.131,0,0,1-1.175-7.489,15.668,15.668,0,0,1,5.358-7.771c5.51-4.46,12.6-4.862,15.8-.9a8.128,8.128,0,0,1,1.175,7.489,15.668,15.668,0,0,1-5.348,7.777A15.49,15.49,0,0,1,332.93,153.669Zm7.2-21.12a14.906,14.906,0,0,0-9.1,3.515,15.146,15.146,0,0,0-5.176,7.515,7.652,7.652,0,0,0,1.081,7.03c3.024,3.739,9.787,3.3,15.073-.977a15.146,15.146,0,0,0,5.181-7.515,7.639,7.639,0,0,0-1.081-7.024A7.447,7.447,0,0,0,340.132,132.549Z" transform="translate(-283.862 -111.402)" fill="#263238"/>
          <path id="Path_1745" data-name="Path 1745" d="M319.373,169.355l-5.385,6.1h0l-6.967,7.9-1.259-2.925-.559.287s-.209.078-.2.052a2.481,2.481,0,0,0,.345-1.248c.35-.1.026-.465,0-.59v-.658l4.048-3.75.23-.24,7.192-7.27h.089a2.209,2.209,0,0,1,.381.078,2.611,2.611,0,0,1,.857.444,3.786,3.786,0,0,1,1.18,1.624A.554.554,0,0,0,319.373,169.355Z" transform="translate(-274.321 -128.101)" fill="#263238"/>
          <path id="Path_1746" data-name="Path 1746" d="M335.666,150.029a2.032,2.032,0,0,1-.883-.193,2.387,2.387,0,0,1-1.306-1.927,4.967,4.967,0,0,1,.183-1.75c.2-.846.46-1.844.8-2.841a1,1,0,1,1,1.9.653c-.314.914-.554,1.859-.747,2.658a3.294,3.294,0,0,0-.141,1.045.522.522,0,0,0,.157.345c.031,0,.245.068.982-.439,3.431-2.376,6.79-4.941,10-7.62a1.013,1.013,0,1,1,1.285,1.567c-3.249,2.716-6.659,5.317-10.142,7.724A3.807,3.807,0,0,1,335.666,150.029Z" transform="translate(-287.919 -115.068)" fill="#13c693"/>
          <path id="Path_1747" data-name="Path 1747" d="M335.43,150.1a2.329,2.329,0,0,1-.992-.219,2.658,2.658,0,0,1-1.452-2.131,5.223,5.223,0,0,1,.183-1.833c.209-.862.465-1.87.809-2.872a1.248,1.248,0,0,1,.642-.721,1.233,1.233,0,0,1,.961-.063,1.274,1.274,0,0,1,.726.642,1.253,1.253,0,0,1,.057.961c-.313.9-.548,1.838-.742,2.637a3.132,3.132,0,0,0-.136.951.52.52,0,0,0,0,.115,2.91,2.91,0,0,0,.71-.392c3.426-2.371,6.789-4.93,9.975-7.6a1.259,1.259,0,0,1,2.063,1.081,1.232,1.232,0,0,1-.444.851c-3.254,2.726-6.675,5.332-10.163,7.745A4.079,4.079,0,0,1,335.43,150.1Zm-.261-7.39a.789.789,0,0,0-.324.073.742.742,0,0,0-.376.428c-.339.982-.59,1.979-.794,2.82a4.632,4.632,0,0,0-.178,1.656,2.136,2.136,0,0,0,1.159,1.729,1.854,1.854,0,0,0,.773.167,3.656,3.656,0,0,0,1.932-.757c3.473-2.4,6.883-5,10.127-7.714a.742.742,0,0,0,.261-.522.71.71,0,0,0-.172-.522.747.747,0,0,0-.522-.266.763.763,0,0,0-.522.172c-3.207,2.684-6.575,5.223-10.017,7.63-.606.418-1.008.569-1.238.46a.69.69,0,0,1-.3-.522,3.457,3.457,0,0,1,.146-1.133c.193-.81.439-1.76.757-2.684a.747.747,0,0,0-.465-.945.657.657,0,0,0-.245-.094Z" transform="translate(-287.683 -114.851)" fill="#263238"/>
          <path id="Path_1748" data-name="Path 1748" d="M346.238,174.184a.245.245,0,0,1-.146-.047L344,172.669a.266.266,0,0,1-.063-.36.256.256,0,0,1,.36-.063l2.089,1.468a.261.261,0,0,1,.057.36A.256.256,0,0,1,346.238,174.184Z" transform="translate(-292.903 -130.579)" fill="#263238"/>
          <path id="Path_1749" data-name="Path 1749" d="M355.2,169.684a.246.246,0,0,1-.146-.047l-2.8-1.979a.261.261,0,0,1-.057-.36.251.251,0,0,1,.355-.063l2.58,1.823,8.382-13.579a.258.258,0,1,1,.439.272l-8.529,13.8a.261.261,0,0,1-.167.115Z" transform="translate(-296.845 -122.533)" fill="#263238"/>
          <path id="Path_1750" data-name="Path 1750" d="M364.57,132.463a.25.25,0,0,1-.136-.037.261.261,0,0,1-.084-.355l4.361-7.082-17.392-6.847-3.839,5.479a.257.257,0,0,1-.423-.292l3.954-5.651a.261.261,0,0,1,.308-.094l17.867,7.04a.256.256,0,0,1,.146.157.251.251,0,0,1-.026.219l-4.518,7.343a.251.251,0,0,1-.219.12Z" transform="translate(-294.392 -104.48)" fill="#263238"/>
          <path id="Path_1751" data-name="Path 1751" d="M274.939,197.923a.272.272,0,0,1-.225-.125c-.423-.71-3.437-12.952-3.781-14.341a.261.261,0,0,1,.193-.313.251.251,0,0,1,.308.188c1.337,5.432,3.431,13.7,3.724,14.2a.261.261,0,0,1-.089.355A.309.309,0,0,1,274.939,197.923Z" transform="translate(-258.043 -135.804)" fill="#263238"/>
          <path id="Path_1752" data-name="Path 1752" d="M277.752,202.046a.246.246,0,0,1-.225-.136l-3.656-6.9a.258.258,0,1,1,.454-.245l3.656,6.9a.261.261,0,0,1-.11.35A.24.24,0,0,1,277.752,202.046Z" transform="translate(-259.435 -141.296)" fill="#263238"/>
          <path id="Path_1753" data-name="Path 1753" d="M266.746,211.128a.262.262,0,1,1-.031-.522c1.462-.178,2.93-.413,4.366-.7a.266.266,0,0,1,.1.522c-1.447.292-2.93.522-4.4.71Z" transform="translate(-255.913 -148.591)" fill="#263238"/>
          <path id="Path_1754" data-name="Path 1754" d="M274.352,190.035a.277.277,0,0,1-.125-.031.308.308,0,0,1-.157-.272.335.335,0,0,1,.084-.2l.71-6.748a.263.263,0,0,1,.522.057l-.715,6.789v.068a.256.256,0,0,1-.084.251A.3.3,0,0,1,274.352,190.035ZM274.148,189.581Z" transform="translate(-259.545 -135.526)" fill="#263238"/>
          <path id="Path_1755" data-name="Path 1755" d="M314.848,181.236a9.215,9.215,0,0,1-.914,2.705,2.267,2.267,0,0,1-.031.23,5.64,5.64,0,0,1-.209.951,4.444,4.444,0,0,1-1.337,2.141l-.46.36a.136.136,0,0,1-.052.037c-1.081.83-2.721,1.974-3.708,2.664l-.522-.825s-1.415-2.032-1.765-2.726a1.225,1.225,0,0,0,.1-1.6c-.037-.151-.068-.287-.089-.413a.653.653,0,0,1,.037-.5,1.706,1.706,0,0,1,.225-.251h0c.8-.862,3.353-3.275,3.353-3.275a6.422,6.422,0,0,1,.794-.433,1.342,1.342,0,0,1,.627-.162.2.2,0,0,1,.214.172.752.752,0,0,1,0,.24,14.627,14.627,0,0,1-1.018,2.554c0,.12.11.1.131-.1a25.22,25.22,0,0,1,2.314-1.389l.052-.026c1.008-.522,1.974-.9,2.2-.7a.084.084,0,0,1,.031.042.887.887,0,0,1,.042.125A.639.639,0,0,0,314.848,181.236Z" transform="translate(-274.716 -134.373)" fill="#fff"/>
          <path id="Path_1756" data-name="Path 1756" d="M308.016,190.534a.256.256,0,0,1-.209-.11.261.261,0,0,1,.063-.36c1.045-.726,2.69-1.9,3.656-2.611l.063-.047c1.358-.982,1.525-1.525,1.682-2.335l.026-.136c.037-.167.068-.35.115-.522a1.18,1.18,0,0,1,.078-.3,10.637,10.637,0,0,1,.454-1.159,4.042,4.042,0,0,0,.522-1.7.243.243,0,0,0,0-.084.184.184,0,0,1,0-.068h0s-.46-.047-1.88.752a.409.409,0,0,1-.094.042c-1.227.71-2.58,1.661-2.611,1.671a.256.256,0,0,1-.366-.35c.073-.11.141-.225.2-.324a5.1,5.1,0,0,0,.992-2.293c0-.162-.057-.188-.078-.2a.522.522,0,0,0-.261-.047h-.157c-.481.073-1.384,1.045-2.183,1.875a17.579,17.579,0,0,1-1.431,1.431,1.513,1.513,0,0,0-.381.48v.031a1.41,1.41,0,0,0-.151.548,2.607,2.607,0,0,0,0,.439,2.443,2.443,0,0,0,.073.449,2.778,2.778,0,0,1,.073.862,2,2,0,0,1-.193.481l-.026.047a.257.257,0,0,1-.47-.209l.026-.057c.047-.094.136-.287.157-.35a2.682,2.682,0,0,0-.073-.679c-.031-.151-.057-.313-.078-.481a2.69,2.69,0,0,1,0-.522,1.933,1.933,0,0,1,.219-.783h0a2.042,2.042,0,0,1,.491-.611c.433-.381.924-.9,1.4-1.4.977-1.045,1.818-1.927,2.476-2.032h.193a.961.961,0,0,1,.559.11.689.689,0,0,1,.339.627,4.267,4.267,0,0,1-.684,1.922c.5-.329,1.118-.726,1.729-1.071l.052-.026c1.854-1.045,2.319-.909,2.528-.637a.4.4,0,0,1,.073.12.7.7,0,0,1,.047.146,1.115,1.115,0,0,1,.037.193,4.386,4.386,0,0,1-.522,1.953c-.157.371-.324.752-.433,1.107-.026.094-.052.183-.068.266-.042.183-.078.355-.11.522l-.026.136A3.618,3.618,0,0,1,312,187.855a1.177,1.177,0,0,1-.136.089c-.919.674-2.585,1.854-3.614,2.58a.272.272,0,0,1-.235.01Zm6.356-9.505Z" transform="translate(-274.559 -134.244)" fill="#263238"/>
          <path id="Path_1757" data-name="Path 1757" d="M351.547,198.075a.251.251,0,0,1-.214-.12.256.256,0,0,1,.078-.355,15.583,15.583,0,0,0,2.465-1.943.261.261,0,1,1,.36.371,16.016,16.016,0,0,1-2.549,2.006.277.277,0,0,1-.141.042Z" transform="translate(-296.436 -141.738)" fill="#263238"/>
          <path id="Path_1758" data-name="Path 1758" d="M370.472,156.953a.251.251,0,0,1-.251-.2,6.789,6.789,0,0,1,.037-3.134,13.783,13.783,0,0,1-3.619-.178.893.893,0,0,1-.627-.334.7.7,0,0,1,.12-.862,1.379,1.379,0,0,1,.621-.339,19.142,19.142,0,0,1,3.071-.679,2.758,2.758,0,0,1,1.206,0,2.838,2.838,0,0,1,1.535,1.635.258.258,0,0,1-.46.235c-.308-.606-.658-1.212-1.222-1.374a2.319,2.319,0,0,0-.982,0,19.444,19.444,0,0,0-2.987.658,1.045,1.045,0,0,0-.413.209c-.063.068-.094.172-.063.219a.72.72,0,0,0,.287.115,13.328,13.328,0,0,0,3.839.136.261.261,0,0,1,.225.089.266.266,0,0,1,.052.235,6.581,6.581,0,0,0-.12,3.259.256.256,0,0,1-.193.308Z" transform="translate(-303.422 -120.53)" fill="#263238"/>
          <path id="Path_1759" data-name="Path 1759" d="M367.288,151.107a.47.47,0,0,1-.3-.11.564.564,0,0,1-.225-.428.835.835,0,0,1,.266-.616,2.721,2.721,0,0,1,1.133-.653,7.218,7.218,0,0,1,3.823-.277.267.267,0,0,1-.115.522,6.654,6.654,0,0,0-3.541.266,2.193,2.193,0,0,0-.924.522.36.36,0,0,0-.125.235.057.057,0,0,0,.026.047.251.251,0,0,1,.292.2.272.272,0,0,1-.214.3Z" transform="translate(-303.826 -119.442)" fill="#263238"/>
          <path id="Path_1760" data-name="Path 1760" d="M376.316,154.534a.266.266,0,0,1-.162-.057.261.261,0,0,1-.037-.366,5.191,5.191,0,0,0,.778-5.285l-.094-.2a3,3,0,0,1-.3-.877,2.926,2.926,0,0,1,.026-.773,2.278,2.278,0,0,0,0-.778,2.089,2.089,0,0,0-.951-1.013,6.638,6.638,0,0,0-2.919-1.311.663.663,0,0,0-.407.047.314.314,0,0,0-.037.219l1.2.71a1.661,1.661,0,0,1,.778.763,1.681,1.681,0,0,1,.078.632,1.624,1.624,0,0,0,0,.319.259.259,0,0,1-.512.078,3.543,3.543,0,0,1,0-.407,1.3,1.3,0,0,0-.042-.439,1.264,1.264,0,0,0-.564-.522l-1.233-.736a.522.522,0,0,1-.225-.449.742.742,0,0,1,.277-.616,1.123,1.123,0,0,1,.736-.131,7.1,7.1,0,0,1,3.16,1.4,2.512,2.512,0,0,1,1.159,1.3,2.68,2.68,0,0,1,0,.977,2.745,2.745,0,0,0-.026.648,2.61,2.61,0,0,0,.256.731l.094.214a5.745,5.745,0,0,1-.851,5.823A.272.272,0,0,1,376.316,154.534Z" transform="translate(-306.185 -116.784)" fill="#263238"/>
          <path id="Path_1761" data-name="Path 1761" d="M267.75,121.726l2.032-2.486,1.488,1.964a7.74,7.74,0,0,1-3.52.522Z" transform="translate(-256.525 -105.28)" fill="#fff"/>
          <path id="Path_1762" data-name="Path 1762" d="M282.2,153.494,280.55,157.7l6.434,3.233v-4.612l2.559,4.006a30.909,30.909,0,0,0,3.134-5.9l-1.917-2.2s-2.392,3.766-3.839,3.656S282.2,153.494,282.2,153.494Z" transform="translate(-262.64 -121.04)" fill="#fff"/>
          <path id="Path_1763" data-name="Path 1763" d="M286.808,112.256l.58,3.724s1.9.084,1.818,1.41a9.822,9.822,0,0,1-1.4,3.39s.909,5.834-1.906,8.649v2.878s-1.812,3.619-3.708,4.408a16.69,16.69,0,0,1-4.633-2.528s-2.2-7.771-2.951-10.252c0,0-1.389.851-2.282.047s-2.361-2.684-1.666-3.687,2.434-.59,2.434-.59l-1.99-4.3s3.395-4.387,7.865-4.22A39.171,39.171,0,0,1,286.808,112.256Z" transform="translate(-257.827 -101.43)" fill="#fff"/>
          <path id="Path_1764" data-name="Path 1764" d="M276.488,113.48a9.13,9.13,0,0,1,1.264,5.494c-.094,1.076-.381,2.131-.444,3.207a15.259,15.259,0,0,0,.888,5.05c.324,1.081.574,2.512,1.567,3.034.491.261,1.045.068,1.656.48,0,.042.042.167.042.209a30.561,30.561,0,0,1,.068,4.371,3.807,3.807,0,0,1-.841,2.12l-3.342-2.465s-1.462-5.687-2.893-9.86c0,0-2.376.564-3.348-1.316s-.9-2.664.063-2.9a6.32,6.32,0,0,1,2.361.057l-.663-4.538,2.726-2.789Z" transform="translate(-257.795 -102.528)" fill="#13c693"/>
          <path id="Path_1765" data-name="Path 1765" d="M276.488,113.48a9.13,9.13,0,0,1,1.264,5.494c-.094,1.076-.381,2.131-.444,3.207a15.259,15.259,0,0,0,.888,5.05c.324,1.081.574,2.512,1.567,3.034.491.261,1.045.068,1.656.48,0,.042.042.167.042.209a30.561,30.561,0,0,1,.068,4.371,3.807,3.807,0,0,1-.841,2.12l-3.342-2.465s-1.462-5.687-2.893-9.86c0,0-2.376.564-3.348-1.316s-.9-2.664.063-2.9a6.32,6.32,0,0,1,2.361.057l-.663-4.538,2.726-2.789Z" transform="translate(-257.795 -102.528)" fill="#fff" opacity="0.5"/>
          <path id="Path_1766" data-name="Path 1766" d="M272.309,113.549l1.086-.642s-.945-1.87.178-2.752,2.167-2.005,1.363-4.575a6.47,6.47,0,0,1,4.178-.162c2.575.637,9.061,1.337,11.866-1.629s3.055-4.147,1.932-6.152-3.212.883-6.581-.559S280.4,94.428,274.7,98.121s-6.581,6.977-5.458,9.223S271.426,111.543,272.309,113.549Z" transform="translate(-257.036 -94.021)" fill="#263238"/>
          <path id="Path_1767" data-name="Path 1767" d="M268.19,108.3l.716-1.64a11.767,11.767,0,0,1-.272-6.643c1.144-4.434,6.069-6.648,9.035-7.056s5.223,1.008,7.463,2.131l4.115.836A34.4,34.4,0,0,0,268.19,108.3Z" transform="translate(-256.736 -92.693)" fill="#fff"/>
          <path id="Path_1768" data-name="Path 1768" d="M287.379,131.962c-1.88,0-5.05-.736-6.445-1.948l-.042-.047-3-4.3a.261.261,0,0,1,.068-.36.251.251,0,0,1,.355.063l2.982,4.272c1.666,1.415,5.823,2.089,6.972,1.708s2.554-1.347,2.893-5.787a48.107,48.107,0,0,0-.82-10.445.258.258,0,0,1,.507-.1,48.35,48.35,0,0,1,.83,10.571c-.366,4.747-1.932,5.829-3.259,6.267A3.756,3.756,0,0,1,287.379,131.962Z" transform="translate(-261.348 -103.164)" fill="#263238"/>
          <path id="Path_1769" data-name="Path 1769" d="M273.014,132.116a2.313,2.313,0,0,1-1.045-.256,4.309,4.309,0,0,1-1.791-2.418,2.194,2.194,0,0,1,0-1.619c.637-1.165,2.449-.366,2.528-.334a.257.257,0,0,1-.209.47s-1.462-.622-1.865.11a1.64,1.64,0,0,0,.031,1.222,3.87,3.87,0,0,0,1.525,2.089,1.745,1.745,0,0,0,1.677-.031.261.261,0,0,1,.355.078.251.251,0,0,1-.073.355A2.214,2.214,0,0,1,273.014,132.116Z" transform="translate(-257.612 -109.079)" fill="#263238"/>
          <path id="Path_1770" data-name="Path 1770" d="M295.6,127.2a.251.251,0,0,1-.251-.2.256.256,0,0,1,.2-.3,1.3,1.3,0,0,0,.757-.475c.084-.1.162-.266.115-.371a.679.679,0,0,0-.1-.136,5.717,5.717,0,0,1-.522-.632,1.781,1.781,0,0,1-.386-1.175,9.605,9.605,0,0,1,.094-1.734.259.259,0,0,1,.512.073,9.571,9.571,0,0,0-.094,1.64,1.822,1.822,0,0,0,.057.449,1.567,1.567,0,0,0,.24.454,5.186,5.186,0,0,0,.449.564,1.044,1.044,0,0,1,.209.282.888.888,0,0,1-.172.9,1.828,1.828,0,0,1-1.071.669Z" transform="translate(-269.706 -106.572)" fill="#263238"/>
          <path id="Path_1771" data-name="Path 1771" d="M290.6,135.611a3.211,3.211,0,0,1-.48-.037h-.157a4.011,4.011,0,0,1-1.619-.48.261.261,0,0,1-.1-.355.256.256,0,0,1,.35-.1,3.405,3.405,0,0,0,1.4.423h.188a1.536,1.536,0,0,0,.841-.047.266.266,0,0,1,.35.115.261.261,0,0,1-.115.345,1.442,1.442,0,0,1-.663.136Z" transform="translate(-266.303 -112.621)" fill="#263238"/>
          <path id="Path_1772" data-name="Path 1772" d="M285.5,118.838a.251.251,0,0,1-.136-.037.261.261,0,0,1-.084-.355,4.863,4.863,0,0,1,.872-1.123,2.58,2.58,0,0,1,2.131-.58.266.266,0,0,1-.1.522,2.058,2.058,0,0,0-1.692.465,4.18,4.18,0,0,0-.773,1A.266.266,0,0,1,285.5,118.838Z" transform="translate(-264.88 -104.068)" fill="#263238"/>
          <path id="Path_1773" data-name="Path 1773" d="M299.041,118.909a.256.256,0,0,1-.256-.214.444.444,0,0,0-.136-.251,1.092,1.092,0,0,0-.287-.167,2.089,2.089,0,0,0-1.8-.047.258.258,0,1,1-.261-.444,2.538,2.538,0,0,1,2.267,0,1.394,1.394,0,0,1,.433.272.956.956,0,0,1,.287.522.256.256,0,0,1-.209.3Z" transform="translate(-270.106 -104.457)" fill="#263238"/>
          <path id="Path_1774" data-name="Path 1774" d="M289.974,123.728c.037.386-.089.716-.282.731s-.381-.277-.418-.663.089-.715.282-.736S289.937,123.341,289.974,123.728Z" transform="translate(-266.805 -107.104)" fill="#263238"/>
          <path id="Path_1775" data-name="Path 1775" d="M299.139,123.208c.037.386-.089.715-.282.731s-.376-.282-.413-.663.089-.716.282-.736S299.1,122.821,299.139,123.208Z" transform="translate(-271.186 -106.855)" fill="#263238"/>
          <path id="Path_1776" data-name="Path 1776" d="M299.686,149.456a.256.256,0,0,1-.256-.23,17.927,17.927,0,0,1-.151-3.1.251.251,0,0,1,.272-.24.256.256,0,0,1,.24.277,19.125,19.125,0,0,0,.151,3,.261.261,0,0,1-.23.287Z" transform="translate(-271.581 -118.01)" fill="#263238"/>
          <path id="Path_1777" data-name="Path 1777" d="M280.733,145.438a.256.256,0,0,1-.256-.225,34.2,34.2,0,0,0-2-7.411c-.292-.836-.6-1.7-.888-2.585a.266.266,0,0,1,.167-.329.256.256,0,0,1,.324.167c.287.883.59,1.744.883,2.575a34.724,34.724,0,0,1,2.026,7.521.261.261,0,0,1-.225.287Z" transform="translate(-261.22 -112.749)" fill="#263238"/>
          <path id="Path_1778" data-name="Path 1778" d="M267.513,111.4a.193.193,0,0,1-.094,0,.251.251,0,0,1-.157-.3c1.656-7.113,5.792-11.537,12.649-13.521,4.136-1.2,9.448.047,9.672.1a.251.251,0,0,1,.193.266.256.256,0,0,1-.23.24,29.931,29.931,0,0,0-21.815,13.1.25.25,0,0,1-.219.11Zm16.514-13.851a14.525,14.525,0,0,0-3.974.491c-6.184,1.791-10.1,5.625-11.908,11.7a30.751,30.751,0,0,1,19.737-11.887A26.276,26.276,0,0,0,284.028,97.553Z" transform="translate(-256.289 -94.686)" fill="#263238"/>
          <path id="Path_1779" data-name="Path 1779" d="M268.051,123.864a2.089,2.089,0,0,1-.6-.068.258.258,0,1,1,.157-.491,4.635,4.635,0,0,0,2.794-.554.261.261,0,0,1,.2.475A6.46,6.46,0,0,1,268.051,123.864Z" transform="translate(-256.299 -106.953)" fill="#263238"/>
          <path id="Path_1780" data-name="Path 1780" d="M268.518,106.266c-.026-.078-2.543-7.944,3.656-11.761,7.583-4.669,12.957.313,13.01.366l-.355.371c-.209-.193-5.15-4.747-12.388-.3-5.855,3.6-3.457,11.088-3.437,11.161Z" transform="translate(-256.64 -92.51)" fill="#263238"/>
          <path id="Path_1781" data-name="Path 1781" d="M286.668,162.139a.25.25,0,0,1-.1,0c-.225-.094-5.546-2.345-6.612-3.588a.251.251,0,0,1-.042-.272l1.729-3.927a.261.261,0,0,1,.423-.073,11.2,11.2,0,0,0,4.669,2.758.256.256,0,0,1,.193.245V161.9a.266.266,0,0,1-.115.219A.276.276,0,0,1,286.668,162.139Zm-6.2-3.833c1.045,1,4.774,2.669,5.954,3.181v-4.027a11.542,11.542,0,0,1-4.444-2.58Z" transform="translate(-262.324 -121.981)" fill="#263238"/>
          <path id="Path_1782" data-name="Path 1782" d="M295.191,160.083h-.037a.272.272,0,0,1-.183-.12l-2.559-4.006a.277.277,0,0,1-.037-.193.261.261,0,0,1,.115-.162c.031,0,3-1.927,3.7-4.246a.261.261,0,0,1,.454-.078l1.875,2.5a.266.266,0,0,1,.042.209c-.037.167-.951,4.016-3.2,6.032A.24.24,0,0,1,295.191,160.083Zm-2.209-4.178,2.256,3.531a13.5,13.5,0,0,0,2.789-5.442l-1.509-2.016a10.479,10.479,0,0,1-3.536,3.917Z" transform="translate(-268.288 -120.537)" fill="#263238"/>
          <path id="Path_1783" data-name="Path 1783" d="M282.693,105.493a.261.261,0,0,1-.251-.193.256.256,0,0,1,.183-.313,18.373,18.373,0,0,1,5.745-.58c.564.037,1.139.094,1.692.151a15.245,15.245,0,0,0,3.776.094c1.661-.235,3.51-1.253,3.886-3a.261.261,0,0,1,.3-.2.256.256,0,0,1,.2.308c-.428,1.985-2.476,3.134-4.314,3.4a16.008,16.008,0,0,1-3.907-.089c-.548-.057-1.112-.12-1.666-.151a17.81,17.81,0,0,0-5.578.559Z" transform="translate(-263.54 -96.781)" fill="#fff"/>
          <path id="Path_1784" data-name="Path 1784" d="M289.809,102.478a.256.256,0,0,1-.12-.486,11.882,11.882,0,0,1,5.1-1.076h.141a9.893,9.893,0,0,0,2.261-.282,3,3,0,0,0,1.818-1.29.266.266,0,0,1,.355-.094.261.261,0,0,1,.094.355,3.536,3.536,0,0,1-2.126,1.525,10.544,10.544,0,0,1-2.376.3h-.141a11.51,11.51,0,0,0-4.888,1.013A.24.24,0,0,1,289.809,102.478Z" transform="translate(-266.938 -95.714)" fill="#fff"/>
        </g>
      </g>
      <g id="freepik--character-1--inject-1" transform="translate(88.778 137.005)">
        <g id="freepik--character-1--inject-1-2" data-name="freepik--character-1--inject-1" transform="translate(0)">
          <path id="Path_1785" data-name="Path 1785" d="M116.737,298.048c-1.661.663,4.319,10.445,6.309,10.968s8.137-14.78,6.476-15.611-5.975,11.955-6.789,11.955S118.382,297.384,116.737,298.048Z" transform="translate(-116.449 -247.399)" fill="#263238"/>
          <path id="Path_1786" data-name="Path 1786" d="M199.168,288.964l-1.008,6.873s.4,3.724-6.513,5.322c-2.972.689-7.312.214-11.286-.559a91.212,91.212,0,0,1-9.949-2.549l1.081-2.288,1.661-3.52-.057-.444-.146-1.123-2.194.731L153.6,297.08l-1.765-3.839,14.441-8.879-.031-2.376-2.763-.115a13.258,13.258,0,0,1,.9-3.593l1.6-.449s-1.468-15.668-.93-18.06,5.536-5.39,5.536-5.39a8.508,8.508,0,0,0,4.392,4.789l1.285-3.2,1.233,2.549c3.134-1.384,5.787-6.481,5.787-6.481s7.171,1.88,12.362,9.86S199.168,288.964,199.168,288.964Z" transform="translate(-133.352 -227.657)" fill="#13c693"/>
          <path id="Path_1787" data-name="Path 1787" d="M202.8,319.884c3.191,3.63-10.111,1.713-10.649,1.635a7.876,7.876,0,0,1,5.223,7.275,48.451,48.451,0,0,1-9.986-2.131l1.081-2.288,1.6-3.964-.146-1.123L188.6,311.93s9.777,1.191,18.185,2.476l-13.772.742S199.543,316.186,202.8,319.884Z" transform="translate(-150.34 -256.268)" opacity="0.2"/>
          <path id="Path_1788" data-name="Path 1788" d="M186.91,284.628l12.174-2.126a20.69,20.69,0,0,1,1.771-11.385,9.483,9.483,0,0,1,1.666-2.3c.3-.313,1.447-.125,1.248,1.431-.4,3.2-.522,2.752-1,5.917l-1.018,6.4s6.7-1.687,7.6,3.922a.413.413,0,0,1-.58.433c-1.567-.726-5.447-2.429-6.889-2.089a54.171,54.171,0,0,0-7.672.371,53.524,53.524,0,0,1-7.082.522Z" transform="translate(-150.11 -235.609)" opacity="0.2"/>
          <path id="Path_1789" data-name="Path 1789" d="M151.82,321.208l1.77,3.839,19.36-6.4-1.3-7.343-5.39-.721-.031,1.781Z" transform="translate(-133.347 -255.623)" opacity="0.2"/>
          <path id="Path_1790" data-name="Path 1790" d="M140.163,332.38l-.93-.93s-3-.454-4.565.2-6.4,2.5-5.876,2.779a16.117,16.117,0,0,0,3.311.313s-6.043,3.687-5.975,4.178,5.787,0,6.716-.2,8.121-4.272,8.121-4.272Z" transform="translate(-121.073 -265.52)" fill="#fff"/>
          <path id="Path_1791" data-name="Path 1791" d="M164.956,302.3l.8-2.585s-2.69-3.034-4.121-3.243a7.6,7.6,0,0,0-3.249.522s-2.549-1.431-2.93-.731a3.825,3.825,0,0,0,.063,2.183s-1.144,1.9-.376,2.611a2.486,2.486,0,0,1,.8,1.609S161.535,303.957,164.956,302.3Z" transform="translate(-134.81 -248.692)" fill="#fff"/>
          <path id="Path_1792" data-name="Path 1792" d="M155.472,296.882c.669-.747,1.186,1.943,1.713,2.794a4.55,4.55,0,0,0,.94,1.212,4.232,4.232,0,0,0,2.653.679,24.367,24.367,0,0,0,4.267-.34l.324,1.045s-3.233,1.713-9.359.736a4.408,4.408,0,0,0-.8-1.687c-.564-.648.272-2.209.272-2.209S154.872,297.534,155.472,296.882Z" transform="translate(-134.873 -249.017)" fill="#13c693"/>
          <path id="Path_1793" data-name="Path 1793" d="M155.472,296.882c.669-.747,1.186,1.943,1.713,2.794a4.55,4.55,0,0,0,.94,1.212,4.232,4.232,0,0,0,2.653.679,24.367,24.367,0,0,0,4.267-.34l.324,1.045s-3.233,1.713-9.359.736a4.408,4.408,0,0,0-.8-1.687c-.564-.648.272-2.209.272-2.209S154.872,297.534,155.472,296.882Z" transform="translate(-134.873 -249.017)" fill="#fff" opacity="0.5"/>
          <path id="Path_1794" data-name="Path 1794" d="M142.443,276.868c-1.567,2.209-5.071,2.413-7.834.454s-3.557-5.332-2.005-7.542,4.857-2.418,7.641-.46S144,274.638,142.443,276.868Z" transform="translate(-123.792 -235.271)" fill="#fff"/>
          <path id="Path_1795" data-name="Path 1795" d="M134.39,270.27s-.157,5.338,8.325,6.91c0,0,.313,2.2-2.669,1.833a9.626,9.626,0,0,1-6.6-4.659C132.812,272.782,132.609,270.792,134.39,270.27Z" transform="translate(-124.351 -236.366)" fill="#13c693"/>
          <path id="Path_1796" data-name="Path 1796" d="M134.39,270.27s-.157,5.338,8.325,6.91c0,0,.313,2.2-2.669,1.833a9.626,9.626,0,0,1-6.6-4.659C132.812,272.782,132.609,270.792,134.39,270.27Z" transform="translate(-124.351 -236.366)" fill="#fff" opacity="0.4"/>
          <path id="Path_1797" data-name="Path 1797" d="M139.869,277.871h-.345a7.985,7.985,0,0,1-6.748-5.473,3.708,3.708,0,0,1,4.032-4.988,7.98,7.98,0,0,1,6.789,5.473,3.959,3.959,0,0,1-.585,3.656,3.849,3.849,0,0,1-3.144,1.332Zm-3.41-9.96a3.364,3.364,0,0,0-2.711,1.149h0a3.478,3.478,0,0,0-.486,3.191,7.484,7.484,0,0,0,6.267,5.1,3.2,3.2,0,0,0,3.51-4.335,7.468,7.468,0,0,0-6.3-5.092Z" transform="translate(-124.132 -234.978)" fill="#263238"/>
          <path id="Path_1798" data-name="Path 1798" d="M138.391,279.583h-.345a7.985,7.985,0,0,1-6.758-5.468,3.985,3.985,0,0,1,.58-3.656h0c1.567-1.927,4.988-1.744,7.646.4s3.536,5.458,1.969,7.385A3.88,3.88,0,0,1,138.391,279.583Zm-6.121-8.811a3.478,3.478,0,0,0-.486,3.191,7.463,7.463,0,0,0,6.267,5.1,3.484,3.484,0,0,0,3.024-1.139c1.379-1.708.522-4.7-1.912-6.669S133.649,269.06,132.27,270.773Z" transform="translate(-123.438 -235.819)" fill="#263238"/>
          <path id="Path_1799" data-name="Path 1799" d="M156.75,292.825l-3.922-1.123L148.65,287a.677.677,0,0,1,.042-.089,1.838,1.838,0,0,1,.522-.757,1.353,1.353,0,0,1,.4-.209.643.643,0,0,1,.188-.037h.073Z" transform="translate(-131.832 -243.837)" fill="#263238"/>
          <path id="Path_1800" data-name="Path 1800" d="M153.355,325.107a.256.256,0,0,1-.23-.151l-1.776-3.839a.256.256,0,0,1,.1-.324l14.284-8.769-.037-1.593a.256.256,0,0,1,.256-.261.251.251,0,0,1,.261.251l.042,1.739a.266.266,0,0,1-.125.225l-14.216,8.727,1.567,3.421,19.136-6.33a.256.256,0,0,1,.324.167.251.251,0,0,1-.162.324l-19.355,6.4A.214.214,0,0,1,153.355,325.107Z" transform="translate(-133.111 -255.427)" fill="#263238"/>
          <path id="Path_1801" data-name="Path 1801" d="M177.607,279.73a.261.261,0,0,1-.261-.24l-1.013-17.632a.219.219,0,0,1,0-.115,13.579,13.579,0,0,1,5.745-6.325.261.261,0,0,1,.355.094.256.256,0,0,1-.089.35,13.014,13.014,0,0,0-5.5,6.027l1.013,17.569a.256.256,0,0,1-.245.272Z" transform="translate(-145.054 -229.254)" fill="#263238"/>
          <path id="Path_1802" data-name="Path 1802" d="M226.236,299.573h-.042a.256.256,0,0,1-.214-.292l1.629-10.5c0-.141.522-17.141-2-23.779-2.773-7.265-10.414-11.344-13.579-12.764a.257.257,0,0,1,.209-.47c3.217,1.447,11,5.6,13.84,13.057,2.57,6.737,2.053,23.309,2.032,24.024l-1.629,10.524A.256.256,0,0,1,226.236,299.573Z" transform="translate(-162.038 -227.517)" fill="#263238"/>
          <path id="Path_1803" data-name="Path 1803" d="M185.191,291.113a.256.256,0,0,1-.256-.209l-2.089-11.26a.265.265,0,0,1,.522-.094l2.089,11.26a.256.256,0,0,1-.2.3Z" transform="translate(-148.167 -240.695)" fill="#263238"/>
          <path id="Path_1804" data-name="Path 1804" d="M198.743,334.331a.282.282,0,0,1-.188-.073,7.312,7.312,0,0,0-3.969-2.089.266.266,0,0,1-.209-.3.261.261,0,0,1,.3-.209,7.834,7.834,0,0,1,4.251,2.251.251.251,0,0,1,0,.36A.235.235,0,0,1,198.743,334.331Z" transform="translate(-153.676 -265.691)" fill="#263238"/>
          <path id="Path_1805" data-name="Path 1805" d="M215.356,286.664a.256.256,0,0,1-.256-.256,56.644,56.644,0,0,1,1.368-10.4,18.467,18.467,0,0,1,1.217-3.927.256.256,0,0,1,.345-.125.261.261,0,0,1,.125.345,17.757,17.757,0,0,0-1.18,3.813,55.426,55.426,0,0,0-1.358,10.289.266.266,0,0,1-.256.261Z" transform="translate(-163.578 -237.159)" fill="#263238"/>
          <path id="Path_1806" data-name="Path 1806" d="M202.307,301.581c-4.747,0-24.212-3.134-28.443-3.844a.256.256,0,0,1-.214-.251c0-2.726,1.139-3.745,1.191-3.786a.22.22,0,0,1,.136-.063c2.288-.266,4.33-.386,6.309-.522s4.006-.23,6.267-.5c4.277-.522,9.6-1.123,14.039,1.045a.256.256,0,1,1-.225.46c-4.3-2.089-9.542-1.494-13.757-1-2.282.272-4.324.386-6.3.522s-3.954.225-6.189.486a4.779,4.779,0,0,0-.961,3.134c11.114,1.818,27.8,4.293,28.85,3.76.836-.559,3.008-10.226,4.178-16.19a.266.266,0,1,1,.522.1c-.522,2.611-3.134,15.668-4.4,16.514A2.251,2.251,0,0,1,202.307,301.581Z" transform="translate(-143.776 -243.219)" fill="#263238"/>
          <path id="Path_1807" data-name="Path 1807" d="M168.744,300.069a.261.261,0,0,1-.178-.068c-1.243-1.175-3.207-2.862-3.687-2.935a19.2,19.2,0,0,0-3.249.272.251.251,0,0,1-.292-.214.261.261,0,0,1,.219-.293,20.377,20.377,0,0,1,3.395-.272c.815.115,3.447,2.575,3.969,3.066a.261.261,0,0,1,0,.366.267.267,0,0,1-.178.078Z" transform="translate(-137.893 -248.925)" fill="#263238"/>
          <path id="Path_1808" data-name="Path 1808" d="M159.435,303.29c-1.922,0-3.578-.157-3.708-.172a.266.266,0,0,1-.235-.256,1.807,1.807,0,0,0-.663-1.342c-.83-.59-.1-2.428.183-3.055a2.256,2.256,0,0,1-.057-2,.726.726,0,0,1,.444-.449c.825-.3,2.538.59,4.1,1.5l.329.188a.235.235,0,0,1,.167.1.277.277,0,0,1,0,.334c-.151.167-.24.115-.742-.178-.731-.428-2.956-1.723-3.656-1.462a.219.219,0,0,0-.136.136c-.392,1.128.037,1.6.052,1.614a.266.266,0,0,1,.047.292c-.407.862-.82,2.267-.413,2.559a2.214,2.214,0,0,1,.862,1.525c1.128.094,6.424.48,8.518-.569a.261.261,0,0,1,.35.115.256.256,0,0,1-.115.345A14.258,14.258,0,0,1,159.435,303.29Z" transform="translate(-134.6 -248.636)" fill="#263238"/>
          <path id="Path_1809" data-name="Path 1809" d="M216.079,274.349a.261.261,0,0,1-.256-.23,17.613,17.613,0,0,1,0-3.656.262.262,0,1,1,.522.052,17.34,17.34,0,0,0,0,3.531.256.256,0,0,1-.23.282Z" transform="translate(-163.878 -236.345)" fill="#263238"/>
          <path id="Path_1810" data-name="Path 1810" d="M183.028,316.206a.2.2,0,0,1-.094,0l-4.084-1.661a.256.256,0,0,1-.146-.334.261.261,0,0,1,.334-.146l4.105,1.656a.256.256,0,0,1,.146.334A.261.261,0,0,1,183.028,316.206Z" transform="translate(-146.181 -257.28)" fill="#263238"/>
          <path id="Path_1811" data-name="Path 1811" d="M219.241,297.6a.261.261,0,1,1,0-.522,11.491,11.491,0,0,0,3.087-.548.258.258,0,0,1,.157.491,11.908,11.908,0,0,1-3.228.574Z" transform="translate(-165.431 -248.904)" fill="#263238"/>
          <path id="Path_1812" data-name="Path 1812" d="M187.587,326.457h-.094a.261.261,0,0,1-.141-.339l2.5-6.168-1.52-8.356a.251.251,0,0,1,.2-.3.256.256,0,0,1,.3.2l1.53,8.419a.282.282,0,0,1,0,.146l-.057.136-2.481,6.084a.251.251,0,0,1-.24.172Z" transform="translate(-150.312 -255.962)" fill="#263238"/>
          <path id="Path_1813" data-name="Path 1813" d="M199.9,328.518h-.052a24.766,24.766,0,0,0-5-.559,15.378,15.378,0,0,0-2.413.146.256.256,0,0,1-.292-.214.261.261,0,0,1,.219-.292,15.669,15.669,0,0,1,2.491-.151,25.07,25.07,0,0,1,5.108.564.263.263,0,1,1-.057.522Z" transform="translate(-152.607 -263.68)" fill="#263238"/>
          <path id="Path_1814" data-name="Path 1814" d="M127.444,339.261a6.142,6.142,0,0,1-1.515-.125.444.444,0,0,1-.3-.24c-.078-.209-.2-.554,5.223-4.131-.987.057-2.178.042-2.486-.319a.433.433,0,0,1-.089-.4c.131-.47,1.1-.883,3.259-1.718a16.344,16.344,0,0,0,2.716-1.2c1.645-1.18,5.3.1,5.452.157a.256.256,0,1,1-.172.481c-.037,0-3.551-1.243-4.977-.219a15.722,15.722,0,0,1-2.836,1.264,15.622,15.622,0,0,0-2.914,1.337,8.758,8.758,0,0,0,3.008.026.266.266,0,0,1,.272.172.256.256,0,0,1-.1.3,65.6,65.6,0,0,0-5.745,4.042c1.118.193,5.6-.031,6.883-.924a57.832,57.832,0,0,1,7.479-3.844.257.257,0,0,1,.209.47,61.026,61.026,0,0,0-7.39,3.8C132.369,338.932,129.36,339.261,127.444,339.261Z" transform="translate(-120.826 -265.2)" fill="#263238"/>
          <path id="Path_1815" data-name="Path 1815" d="M131.605,344.34a.246.246,0,0,1-.219-.125.256.256,0,0,1,.084-.35l4-2.46a.258.258,0,0,1,.272.439l-4,2.465a.251.251,0,0,1-.136.031Z" transform="translate(-123.567 -270.331)" fill="#263238"/>
          <path id="Path_1816" data-name="Path 1816" d="M176.83,267.79a18.923,18.923,0,0,1,3.494,7.171c.768,3.839,2,10.383,2,10.383l-4.256.313Z" transform="translate(-145.295 -235.181)" opacity="0.2"/>
          <path id="Path_1817" data-name="Path 1817" d="M206.435,412.349s-7.092,7.186-7.98,8.6-1.9,2.272-.214,3.066,6.758.256,8.022-.23c1.64-.622,6.471-6.915,6.471-6.915l-.621-5.322Z" transform="translate(-155.09 -303.86)" fill="#fff"/>
          <path id="Path_1818" data-name="Path 1818" d="M200.754,426.154c-2.449,0-3.865-.648-4.147-1.927-.4-1.8,7.75-9.087,8.685-9.923l.1-.094.136.037.621.183a14.415,14.415,0,0,0,6.09.621h.256v.256c.084,1.227.235,2.063.235,2.089v.084l-.037.073c-.146.3-3.578,7.448-8.085,8.231A23.167,23.167,0,0,1,200.754,426.154Zm4.773-11.359c-3.656,3.264-8.654,8.257-8.419,9.323.334,1.488,3.045,1.906,7.448,1.138,4.016-.7,7.312-7.118,7.672-7.876-.037-.225-.136-.877-.209-1.786a14.821,14.821,0,0,1-6.016-.658Z" transform="translate(-154.736 -305.131)" fill="#263238"/>
          <path id="Path_1819" data-name="Path 1819" d="M202.969,425.953a13.177,13.177,0,0,1-5.291-1.28l-.089-.042.167-.486.136.057c1.567.721,4.6,1.791,7.374.883,2.564-.836,7.113-8.283,7.16-8.356l.439.272c-.188.313-4.7,7.683-7.442,8.581A7.834,7.834,0,0,1,202.969,425.953Z" transform="translate(-155.213 -306.334)" fill="#263238"/>
          <path id="Path_1820" data-name="Path 1820" d="M181.246,366.559s-18.044,14.623-25.466,14.623c0,0-4.037-1.441-5.52-7.2s4.084-14.1,4.084-14.1l14.916-19.9.977-1.337s15.365,5.588,25.523-2.089c0,0,1.045,12.534-1.525,17.757S181.246,366.559,181.246,366.559Z" transform="translate(-132.482 -268.035)" fill="#263238"/>
          <path id="Path_1821" data-name="Path 1821" d="M155.973,383.38a1.88,1.88,0,0,1-.481-.052c-2.956-.778-5.353-5.291-5.776-8.184s2.872-11.547,6.789-16.519c4-5.066,12.816-16.4,12.905-16.514l.407.319c-.089.115-8.9,11.448-12.905,16.514-4.136,5.223-7.051,13.631-6.69,16.128.392,2.684,2.684,7.045,5.4,7.756a1.437,1.437,0,0,0,.386.042c3.484,0,17.543-7.636,22.865-13.057l.366.36C174.112,375.394,159.906,383.38,155.973,383.38Z" transform="translate(-132.324 -270.686)" fill="#263238"/>
          <path id="Path_1822" data-name="Path 1822" d="M175.685,374.426a.251.251,0,0,1-.193-.089.256.256,0,0,1,0-.36l17.788-15.668a21.937,21.937,0,0,0-3.275-6.3.258.258,0,1,1,.418-.3,22.38,22.38,0,0,1,3.4,6.612.266.266,0,0,1-.078.272l-17.914,15.793A.256.256,0,0,1,175.685,374.426Z" transform="translate(-144.62 -275.218)" fill="#fff"/>
          <path id="Path_1823" data-name="Path 1823" d="M219.7,365.6c.966-3.656,7.448-24.254,7.515-27.931.068-3.98-2.893-12.905-6.549-15.407s-8.461.585-9.443,2.888c-1.76,4.142.386,45.265.386,45.265l-.381.334a23.941,23.941,0,0,0,8.043.642,18.733,18.733,0,0,1,.428-5.792Z" transform="translate(-161.396 -260.758)" fill="#263238"/>
          <path id="Path_1824" data-name="Path 1824" d="M210.684,356.274a.256.256,0,0,1-.256-.23c-.094-1-2.22-24.369,0-29.007a.261.261,0,0,1,.345-.12.256.256,0,0,1,.12.345c-2.157,4.512,0,28.49.047,28.725a.251.251,0,0,1-.23.282Z" transform="translate(-160.864 -263.416)" fill="#fff"/>
          <path id="Path_1825" data-name="Path 1825" d="M241.883,349.287h0a.266.266,0,0,1-.245-.272,19.9,19.9,0,0,0-.721-4.894l-.063-.256a.261.261,0,0,1,.193-.313.251.251,0,0,1,.308.193l.063.256a20.468,20.468,0,0,1,.736,5.035.261.261,0,0,1-.272.251Z" transform="translate(-175.878 -271.371)" fill="#fff"/>
          <path id="Path_1826" data-name="Path 1826" d="M237.135,333.888a.256.256,0,0,1-.245-.178,33.829,33.829,0,0,0-3.134-6.972.261.261,0,0,1,.084-.355.256.256,0,0,1,.355.078,34.938,34.938,0,0,1,3.191,7.092.261.261,0,0,1-.167.324A.2.2,0,0,1,237.135,333.888Z" transform="translate(-172.472 -263.153)" fill="#fff"/>
          <path id="Path_1827" data-name="Path 1827" d="M192.848,233.49l2.314,1.468s-2.789,4.7-5.787,6.481l-1.217-2.314-1.3,2.961-2.9-2.5-1.52-2.554.386-1.781a19.914,19.914,0,0,1-4.262-7.589,33.757,33.757,0,0,1-1.849-7.949s7.891-4.434,9.672-3.275a26.378,26.378,0,0,1,4.256,4.178l2.784-.465s1.781,5.17-.695,6.178Z" transform="translate(-145.238 -210.558)" fill="#fff"/>
          <path id="Path_1828" data-name="Path 1828" d="M186.129,218.524a4.321,4.321,0,0,0-3.907,1.311c-1.06.966-1.891,2.183-3.029,3.06a72.065,72.065,0,0,0,3.6,9.291,5.552,5.552,0,0,0,1.494,2.167,3.959,3.959,0,0,0,4.178.031,10.242,10.242,0,0,0,3.191-2.611s-2.173,7.421-3.739,7.312l-2.951-2.173a25.752,25.752,0,0,1-3.17-2.2c-1.1-.977-3.358-6.789-3.964-8.294l-1.65-6.267,8.476-3.473Z" transform="translate(-144.984 -210.764)" fill="#13c693"/>
          <path id="Path_1829" data-name="Path 1829" d="M186.129,218.524a4.321,4.321,0,0,0-3.907,1.311c-1.06.966-1.891,2.183-3.029,3.06a72.065,72.065,0,0,0,3.6,9.291,5.552,5.552,0,0,0,1.494,2.167,3.959,3.959,0,0,0,4.178.031,10.242,10.242,0,0,0,3.191-2.611s-2.173,7.421-3.739,7.312l-2.951-2.173a25.752,25.752,0,0,1-3.17-2.2c-1.1-.977-3.358-6.789-3.964-8.294l-1.65-6.267,8.476-3.473Z" transform="translate(-144.984 -210.764)" fill="#fff" opacity="0.5"/>
          <path id="Path_1830" data-name="Path 1830" d="M204.632,230.276a2.793,2.793,0,0,1-.825-.131.251.251,0,0,1-.167-.319.256.256,0,0,1,.319-.172,1.818,1.818,0,0,0,1.436-.078,2.575,2.575,0,0,0,1.1-1.619,4.507,4.507,0,0,0-.371-3.416.71.71,0,0,0-.585-.319c-.846.037-1.488,1.964-1.645,2.611a.251.251,0,0,1-.308.193.256.256,0,0,1-.193-.308c.073-.3.736-2.977,2.126-3.029a1.191,1.191,0,0,1,1.008.522,4.885,4.885,0,0,1,.465,3.87,3.04,3.04,0,0,1-1.353,1.927A2.089,2.089,0,0,1,204.632,230.276Z" transform="translate(-157.982 -214.113)" fill="#263238"/>
          <path id="Path_1831" data-name="Path 1831" d="M191.466,244.022h-.225a.261.261,0,1,1,0-.522,2.6,2.6,0,0,0,2.58-1.123.258.258,0,1,1,.465.225A2.9,2.9,0,0,1,191.466,244.022Z" transform="translate(-152.055 -222.97)" fill="#263238"/>
          <path id="Path_1832" data-name="Path 1832" d="M187.642,236.313a2.653,2.653,0,0,1-1.426-.413,1.07,1.07,0,0,1-.413-.413,1.269,1.269,0,0,1,0-.888,6.628,6.628,0,0,0,.245-2.2,2.679,2.679,0,0,0-.888-1.849.256.256,0,0,1-.042-.36.266.266,0,0,1,.366-.042,3.186,3.186,0,0,1,1.076,2.2,7.275,7.275,0,0,1-.256,2.371.914.914,0,0,0-.026.522.658.658,0,0,0,.225.209,2.178,2.178,0,0,0,1.567.292.251.251,0,0,1,.3.2.256.256,0,0,1-.2.3A2.481,2.481,0,0,1,187.642,236.313Z" transform="translate(-149.228 -217.173)" fill="#263238"/>
          <path id="Path_1833" data-name="Path 1833" d="M192.538,227.3a.267.267,0,0,1-.146-.047,3.969,3.969,0,0,0-3.186-.522.251.251,0,0,1-.313-.183.256.256,0,0,1,.183-.313,4.476,4.476,0,0,1,3.609.611.261.261,0,0,1-.146.475Z" transform="translate(-151.053 -215.262)" fill="#263238"/>
          <path id="Path_1834" data-name="Path 1834" d="M178.2,230.406a.245.245,0,0,1-.131-.037.256.256,0,0,1-.1-.355A2.193,2.193,0,0,1,179.353,229a2.167,2.167,0,0,1,1.7.3.256.256,0,0,1-.282.428,1.676,1.676,0,0,0-2.355.554A.256.256,0,0,1,178.2,230.406Z" transform="translate(-145.823 -216.619)" fill="#263238"/>
          <path id="Path_1835" data-name="Path 1835" d="M191.721,232.034c.136.381.423.632.637.554s.287-.449.151-.83-.418-.632-.632-.559S191.59,231.648,191.721,232.034Z" transform="translate(-152.377 -217.694)" fill="#263238"/>
          <path id="Path_1836" data-name="Path 1836" d="M183.055,234.455c.136.392.423.642.642.569s.292-.46.157-.846-.423-.642-.648-.569S182.919,234.068,183.055,234.455Z" transform="translate(-148.235 -218.845)" fill="#263238"/>
          <path id="Path_1837" data-name="Path 1837" d="M185.006,240.166c-1.389,0-3.175-.731-5.254-4.7-2.235-4.251-3.656-11.135-3.656-11.208a.261.261,0,0,1,.2-.3.256.256,0,0,1,.3.2c0,.068,1.41,6.883,3.609,11.067s3.938,4.528,5.223,4.392,5.014-2.5,6.032-4.565l.846-4.967a.256.256,0,0,1,.3-.209.251.251,0,0,1,.209.3l-.851,5a.172.172,0,0,1,0,.068c-1.045,2.147-4.946,4.7-6.46,4.883A4.569,4.569,0,0,1,185.006,240.166Z" transform="translate(-144.942 -214.237)" fill="#263238"/>
          <path id="Path_1838" data-name="Path 1838" d="M206.992,242.8a.256.256,0,0,1-.256-.235,30.592,30.592,0,0,1,.209-7.254.264.264,0,0,1,.522.084,29.768,29.768,0,0,0-.209,7.124.256.256,0,0,1-.23.282Z" transform="translate(-159.523 -219.556)" fill="#263238"/>
          <path id="Path_1839" data-name="Path 1839" d="M199.431,257.244,198,254.262l.178-.131c1.948-1.421,4.617-5.3,4.643-5.338l.141-.2,2.705,1.713-.078.2a14.02,14.02,0,0,1-5.907,6.612Zm-.794-2.825,1.018,2.089a13.7,13.7,0,0,0,5.358-6.011l-1.927-1.222A28.137,28.137,0,0,1,198.637,254.418Z" transform="translate(-155.408 -226.008)" fill="#263238"/>
          <path id="Path_1840" data-name="Path 1840" d="M192.033,259.58l-.261-.151c-.136-.078-3.363-2-4.5-4.92v-.057l.162-2.371.522.037-.157,2.256a10.936,10.936,0,0,0,4.006,4.45l1.045-2.664a8.364,8.364,0,0,1-3.165-2.747l.413-.319c1.744,2.277,3.134,2.664,3.134,2.664l.282.078Z" transform="translate(-150.282 -227.676)" fill="#263238"/>
          <path id="Path_1841" data-name="Path 1841" d="M187.506,217.8c-.141.465-.888.4-1.332.6a4.4,4.4,0,0,0-.742-3.045c-.434-.522-1.718-.209-2.319-.642s-.36-1.118-.715-1.457c-.522-.48-2.481-.214-3.066,0a10.01,10.01,0,0,0-2.126,1.243c-1.645,1.044-4.288,1.854-6.178,1.044-2.329-1.013-2.22-4.794.272-5.5,1.53-.439,3.405-.172,4.815-.987,1.734-1,8.565-6.544,12.634-1.807a9.923,9.923,0,0,1,1.854,9.923S189.24,212.271,187.506,217.8Z" transform="translate(-141.723 -205.352)" fill="#263238"/>
          <path id="Path_1842" data-name="Path 1842" d="M171.881,218.941a.261.261,0,1,1,0-.522c1.844-.115,3.442-1.253,4.988-2.355.522-.371,1.045-.757,1.609-1.1a15.275,15.275,0,0,1,3.134-1.509,8.147,8.147,0,0,1,2.721-.522h0a5.855,5.855,0,0,1,5.27,3.525.256.256,0,0,1-.136.339.266.266,0,0,1-.339-.141,5.332,5.332,0,0,0-4.773-3.217,7.28,7.28,0,0,0-2.564.522,14.9,14.9,0,0,0-3.034,1.462c-.522.334-1.045.715-1.567,1.081-1.609,1.144-3.264,2.329-5.259,2.455Z" transform="translate(-142.806 -208.972)" fill="#fff"/>
          <path id="Path_1843" data-name="Path 1843" d="M176.143,214.2a3.448,3.448,0,0,1-.888-.11.261.261,0,0,1-.183-.319.256.256,0,0,1,.313-.183c1.431.381,2.946-.444,4.283-1.175a14.63,14.63,0,0,1,6.168-2.089,6.144,6.144,0,0,1,5.708,2.794.266.266,0,0,1-.1.355.261.261,0,0,1-.35-.1,5.652,5.652,0,0,0-5.223-2.533,13.757,13.757,0,0,0-5.9,2.005A8.609,8.609,0,0,1,176.143,214.2Z" transform="translate(-144.451 -207.723)" fill="#fff"/>
        </g>
      </g>
    </g>
    <g id="Group_35" data-name="Group 35" transform="translate(0 77)">
      <circle id="Ellipse_25" data-name="Ellipse 25" cx="25" cy="25" r="25" transform="translate(93 556)" fill="#13c693"/>
      <text id="_4" data-name="4" transform="translate(110 590)" fill="#fff" font-size="25" font-family="Poppins-ExtraBold, Poppins" font-weight="800"><tspan x="0" y="0">4</tspan></text>
    </g>
  </g>
</svg>
