<svg xmlns="http://www.w3.org/2000/svg" width="275" height="249.264" viewBox="0 0 275 249.264">
  <g id="Group_96" data-name="Group 96" transform="translate(-1343.5 -3493.49)">
    <g id="freepik--Floor--inject-33" transform="translate(1368.5 3612.146)">
      <path id="Path_2195" data-name="Path 2195" d="M69.016,299.991c48.815,25.5,127.964,25.5,176.778,0s48.815-66.848,0-92.355-127.941-25.5-176.778,0S20.224,274.49,69.016,299.991Z" transform="translate(-32.405 -188.509)" fill="#f5f5f5"/>
    </g>
    <g id="freepik--filing-cabinets--inject-33" transform="translate(1375.636 3589.531)">
      <path id="Path_2196" data-name="Path 2196" d="M61.058,279.124,45.19,269.965V235.93l15.868,9.165Z" transform="translate(-45.19 -186.848)" fill="#e0e0e0"/>
      <path id="Path_2197" data-name="Path 2197" d="M73.62,241.988,96.291,228.9v34.03L73.62,276.018Z" transform="translate(-57.752 -183.741)" fill="#ebebeb"/>
      <path id="Path_2198" data-name="Path 2198" d="M83.729,221.645,61.058,234.733,45.19,225.568,67.861,212.48Z" transform="translate(-45.19 -176.486)" fill="#f5f5f5"/>
      <path id="Path_2199" data-name="Path 2199" d="M77.686,246.4,95.819,235.93l.419.24v12.608L78.1,259.249l-.419-.24Z" transform="translate(-59.546 -186.848)" fill="#e0e0e0"/>
      <path id="Path_2200" data-name="Path 2200" d="M78.43,246.836,96.569,236.36v12.608L78.43,259.439Z" transform="translate(-59.878 -187.038)" fill="#f5f5f5"/>
      <path id="Path_2201" data-name="Path 2201" d="M90.6,250.092l3.086-1.78c.4-.234.72-.128.72.234a1.446,1.446,0,0,1-.72,1.072L90.6,251.4c-.4.234-.726.128-.726-.234A1.44,1.44,0,0,1,90.6,250.092Z" transform="translate(-64.933 -192.263)" fill="#e0e0e0"/>
      <path id="Path_2202" data-name="Path 2202" d="M76.94,274.981,95.074,264.51v12.608l.419.24L77.353,287.829l-.413-.24Z" transform="translate(-59.219 -199.476)" fill="#e0e0e0"/>
      <path id="Path_2203" data-name="Path 2203" d="M77.68,275.411,95.819,264.94v12.608L77.68,288.019Z" transform="translate(-59.546 -199.666)" fill="#f5f5f5"/>
      <path id="Path_2204" data-name="Path 2204" d="M89.868,278.676l3.114-1.775c.4-.234.726-.128.726.234a1.44,1.44,0,0,1-.726,1.072l-3.086,1.78c-.4.234-.726.128-.726-.234A1.44,1.44,0,0,1,89.868,278.676Z" transform="translate(-64.623 -204.896)" fill="#e0e0e0"/>
      <path id="Path_2205" data-name="Path 2205" d="M61.058,214.634,45.19,205.47V171.44L61.058,180.6Z" transform="translate(-45.19 -158.352)" fill="#e0e0e0"/>
      <path id="Path_2206" data-name="Path 2206" d="M73.62,177.488,96.291,164.4v34.035L73.62,211.523Z" transform="translate(-57.752 -155.241)" fill="#ebebeb"/>
      <path id="Path_2207" data-name="Path 2207" d="M83.729,157.149,61.058,170.237,45.19,161.078,67.861,147.99Z" transform="translate(-45.19 -147.99)" fill="#f5f5f5"/>
      <path id="Path_2208" data-name="Path 2208" d="M77.68,181.911,95.819,171.44l.419.24v12.608L78.1,194.759l-.419-.246Z" transform="translate(-59.546 -158.352)" fill="#e0e0e0"/>
      <path id="Path_2209" data-name="Path 2209" d="M90.6,185.595l3.081-1.78c.4-.229.726-.123.726.24a1.451,1.451,0,0,1-.726,1.072l-3.081,1.78c-.4.229-.726.128-.726-.234a1.457,1.457,0,0,1,.726-1.077Z" transform="translate(-64.933 -163.766)" fill="#e0e0e0"/>
      <path id="Path_2210" data-name="Path 2210" d="M76.94,210.491,95.074,200.02v12.6l.419.24L77.353,223.333l-.413-.24Z" transform="translate(-59.219 -170.98)" fill="#e0e0e0"/>
      <path id="Path_2211" data-name="Path 2211" d="M77.68,210.921,95.819,200.45v12.6L77.68,223.523Z" transform="translate(-59.546 -171.17)" fill="#f5f5f5"/>
      <path id="Path_2212" data-name="Path 2212" d="M89.846,214.175l3.114-1.78c.4-.229.726-.123.726.24a1.473,1.473,0,0,1-.726,1.072l-3.114,1.764c-.4.229-.726.123-.726-.234a1.457,1.457,0,0,1,.726-1.06Z" transform="translate(-64.601 -176.395)" fill="#e0e0e0"/>
      <path id="Path_2213" data-name="Path 2213" d="M77.68,181.911,95.819,171.44v12.6L77.68,194.513Z" transform="translate(-59.546 -158.352)" fill="#e0e0e0"/>
      <path id="Path_2214" data-name="Path 2214" d="M118.569,178.062l-9.929-5.732v11.107l9.929,5.726Z" transform="translate(-73.226 -158.745)" fill="#e0e0e0"/>
      <path id="Path_2215" data-name="Path 2215" d="M89.87,197.344V181.633l3.89-2.255.642.949,11.336-6.547v14.4Z" transform="translate(-64.933 -159.386)" fill="#ebebeb"/>
      <path id="Path_2216" data-name="Path 2216" d="M89.87,197.866,91,184.119l15.868-9.159L105.738,188.7Z" transform="translate(-64.933 -159.907)" fill="#f5f5f5"/>
      <path id="Path_2217" data-name="Path 2217" d="M87.081,197.405l-8.651-5v11.107l8.651,4.99Z" transform="translate(-59.878 -167.618)" fill="#ebebeb"/>
      <path id="Path_2218" data-name="Path 2218" d="M93.93,191.291l18.139-10.471v12.6L93.93,203.893Z" transform="translate(-66.726 -162.496)" fill="#f5f5f5"/>
      <path id="Path_2219" data-name="Path 2219" d="M106.1,194.545l3.081-1.78c.4-.229.726-.123.726.24a1.457,1.457,0,0,1-.726,1.072l-3.081,1.78c-.4.229-.726.123-.726-.234a1.457,1.457,0,0,1,.726-1.077Z" transform="translate(-71.781 -167.721)" fill="#e0e0e0"/>
      <path id="Path_2220" data-name="Path 2220" d="M93.453,199.306l-.6-.346v12.6l.6.346Z" transform="translate(-66.249 -170.512)" fill="#e0e0e0"/>
      <path id="Path_2221" data-name="Path 2221" d="M92.85,190.666l18.134-10.476.608.352L93.453,191.012Z" transform="translate(-66.249 -162.218)" fill="#ebebeb"/>
      <path id="Path_2222" data-name="Path 2222" d="M396.933,242.184,381.06,233.02V198.99l15.873,9.159Z" transform="translate(-193.599 -170.525)" fill="#e0e0e0"/>
      <path id="Path_2223" data-name="Path 2223" d="M409.5,205.038l22.671-13.088v34.035L409.5,239.073Z" transform="translate(-206.166 -167.414)" fill="#ebebeb"/>
      <path id="Path_2224" data-name="Path 2224" d="M419.6,184.695l-22.671,13.088-15.873-9.159,22.677-13.094Z" transform="translate(-193.599 -160.159)" fill="#f5f5f5"/>
      <path id="Path_2225" data-name="Path 2225" d="M413.56,209.461,431.7,198.99l.419.24-.006,12.6L413.979,222.3l-.419-.24Z" transform="translate(-207.96 -170.525)" fill="#e0e0e0"/>
      <path id="Path_2226" data-name="Path 2226" d="M414.31,209.891l18.139-10.471-.006,12.6L414.31,222.493Z" transform="translate(-208.291 -170.715)" fill="#f5f5f5"/>
      <path id="Path_2227" data-name="Path 2227" d="M426.476,213.145l3.081-1.78c.4-.229.726-.123.726.234a1.456,1.456,0,0,1-.726,1.077l-3.081,1.78c-.4.229-.726.123-.726-.234A1.457,1.457,0,0,1,426.476,213.145Z" transform="translate(-213.346 -175.939)" fill="#e0e0e0"/>
      <path id="Path_2228" data-name="Path 2228" d="M412.81,238.036l18.139-10.476v12.608l.419.24-18.139,10.471-.419-.24Z" transform="translate(-207.628 -183.149)" fill="#e0e0e0"/>
      <path id="Path_2229" data-name="Path 2229" d="M413.56,238.471,431.7,228v12.6L413.56,251.073Z" transform="translate(-207.96 -183.344)" fill="#f5f5f5"/>
      <path id="Path_2230" data-name="Path 2230" d="M425.726,241.725l3.086-1.78c.4-.229.72-.123.72.234a1.468,1.468,0,0,1-.72,1.077l-3.086,1.78c-.4.229-.726.123-.726-.24A1.457,1.457,0,0,1,425.726,241.725Z" transform="translate(-213.015 -188.568)" fill="#e0e0e0"/>
    </g>
    <g id="freepik--Plants--inject-33" transform="translate(1408.689 3659.353)">
      <path id="Path_2231" data-name="Path 2231" d="M129.517,317.941s.061-8.852-5.52-15.488c-4.939-5.877-7.568-9.605-6.011-11.325s4.906-2.132,9.421,2.623,4.867,17.927,4.242,20.908Z" transform="translate(-110.212 -280.534)" fill="#13c693"/>
      <path id="Path_2232" data-name="Path 2232" d="M129.517,317.941s.061-8.852-5.52-15.488c-4.939-5.877-7.568-9.605-6.011-11.325s4.906-2.132,9.421,2.623,4.867,17.927,4.242,20.908Z" transform="translate(-110.212 -280.534)" opacity="0.2"/>
      <path id="Path_2233" data-name="Path 2233" d="M132.632,309.519a.279.279,0,0,1-.273-.218,27.8,27.8,0,0,0-9.784-16.387.279.279,0,0,1-.05-.391.285.285,0,0,1,.4-.05,28.342,28.342,0,0,1,9.985,16.711.273.273,0,0,1-.212.329Z" transform="translate(-112.389 -281.629)" fill="#fff"/>
      <path id="Path_2234" data-name="Path 2234" d="M123.5,329.782l-2.272,1.312a4.108,4.108,0,0,0-3.059-2.618c-2.484-.558-5.062-.463-6.8-2.618s.38-4.5,0-6.084-.625-2.043-3.74-3.628-4.342-4.214-2-5.994,6.139-.474,8.439,1.116a13.033,13.033,0,0,0,6.268,2.048c2.283.285,6,1.552,5.431,6.854A41.782,41.782,0,0,1,123.5,329.782Z" transform="translate(-104.411 -289.088)" fill="#13c693"/>
      <path id="Path_2235" data-name="Path 2235" d="M122.779,332.528a.28.28,0,0,1-.084-.547c.2-.061,5.023-1.591,7.072.05a.279.279,0,0,1-.346.435c-1.808-1.451-6.508.034-6.558.05Z" transform="translate(-112.404 -298.799)" fill="#fff"/>
      <path id="Path_2236" data-name="Path 2236" d="M126.4,330.854a.273.273,0,0,1-.273-.246c-1.245-11.754-15.4-17.33-15.544-17.386a.279.279,0,0,1-.162-.363.285.285,0,0,1,.357-.162c.151.061,14.623,5.754,15.9,17.86a.279.279,0,0,1-.246.307Z" transform="translate(-107.06 -290.584)" fill="#fff"/>
      <path id="Path_2237" data-name="Path 2237" d="M376.719,306.064c.061-.2,2.456-12.519,0-21.259-2.233-8.015-5.146-10.973-9.3-11.626s-5.955,2.339-3.751,6.391,7.512,9.427,8.813,18.48c.558,3.728.982,6.966.982,6.966Z" transform="translate(-218.55 -273.089)" fill="#13c693"/>
      <path id="Path_2238" data-name="Path 2238" d="M376.719,306.064c.061-.2,2.456-12.519,0-21.259-2.233-8.015-5.146-10.973-9.3-11.626s-5.955,2.339-3.751,6.391,7.512,9.427,8.813,18.48c.558,3.728.982,6.966.982,6.966Z" transform="translate(-218.55 -273.089)" opacity="0.2"/>
      <path id="Path_2239" data-name="Path 2239" d="M378.229,300.447h0a.279.279,0,0,1-.262-.3c.558-9.979-2.7-18.887-8.545-23.258a.279.279,0,0,1-.056-.391.285.285,0,0,1,.391-.056c5.989,4.465,9.349,13.574,8.763,23.738A.279.279,0,0,1,378.229,300.447Z" transform="translate(-221.461 -274.549)" fill="#fff"/>
      <path id="Path_2240" data-name="Path 2240" d="M392.288,316.688c-.318-2.294,1-5.732,4.13-6.547s4.526-2.612,3.4-4.577-.865-3.767,1.976-4.582,5.33-2.233,3.695-5.235c-1.189-2.171-1.451-3.578,1.462-7.853,2.417-3.55.441-5.632-2.584-5.241s-4.895,4-6.787,4.6-2.327-2.612-4.822-1.172-2.344,5.129-2.422,7.7-.246,3.154-2.5,2.841-4.465.056-4.415,5.509c.039,4.677,2.534,10.471,2.534,10.471Z" transform="translate(-227.695 -277.294)" fill="#13c693"/>
      <path id="Path_2241" data-name="Path 2241" d="M392,314.7h-.028a.285.285,0,0,1-.251-.313c1.574-14.059,13.641-25.92,16.789-28.325a.281.281,0,1,1,.34.447c-3.109,2.372-15.019,14.076-16.571,27.94A.285.285,0,0,1,392,314.7Z" transform="translate(-231.362 -278.797)" fill="#fff"/>
      <path id="Path_2242" data-name="Path 2242" d="M401.86,309.218a.285.285,0,0,1-.262-.179.29.29,0,0,1,.167-.363,21.857,21.857,0,0,1,9.818-.848.279.279,0,0,1,.229.318.29.29,0,0,1-.318.234,21.787,21.787,0,0,0-9.533.82A.318.318,0,0,1,401.86,309.218Z" transform="translate(-235.721 -288.344)" fill="#fff"/>
      <path id="Path_2243" data-name="Path 2243" d="M391.822,319.26a.279.279,0,0,1-.207-.095,16.453,16.453,0,0,1-3.678-7.63.279.279,0,1,1,.553-.084,16.13,16.13,0,0,0,3.544,7.339.285.285,0,0,1-.212.469Z" transform="translate(-229.69 -289.935)" fill="#fff"/>
    </g>
    <g id="freepik--folder-2--inject-33" transform="translate(1427.782 3570.47)">
      <path id="Path_2244" data-name="Path 2244" d="M138.62,157.034v86.388l88.42-51.047-.006-78.535L161.291,151.8l-2.272-6.547Z" transform="translate(-138.62 -113.84)" fill="#13c693"/>
      <path id="Path_2245" data-name="Path 2245" d="M138.62,157.034v86.388l88.42-51.047-.006-78.535L161.291,151.8l-2.272-6.547Z" transform="translate(-138.62 -113.84)" opacity="0.7"/>
      <path id="Path_2246" data-name="Path 2246" d="M138.62,243.422l4.532-78.535,88.42-51.047-4.532,78.535Z" transform="translate(-138.62 -113.84)" fill="#e0e0e0"/>
      <path id="Path_2247" data-name="Path 2247" d="M138.62,244.456l6.8-77.224,88.42-51.053-6.8,77.229Z" transform="translate(-138.62 -114.874)" fill="#13c693"/>
      <path id="Path_2248" data-name="Path 2248" d="M138.62,244.456l6.8-77.224,88.42-51.053-6.8,77.229Z" transform="translate(-138.62 -114.874)" opacity="0.7"/>
    </g>
    <g id="freepik--folder-1--inject-33" transform="translate(1441.384 3578.323)">
      <path id="Path_2249" data-name="Path 2249" d="M162.99,171.1V257.5l88.42-51.053V127.91l-65.748,37.959-2.266-6.547Z" transform="translate(-162.99 -127.91)" fill="#13c693"/>
      <path id="Path_2250" data-name="Path 2250" d="M162.99,171.1V257.5l88.42-51.053V127.91l-65.748,37.959-2.266-6.547Z" transform="translate(-162.99 -127.91)" opacity="0.5"/>
      <path id="Path_2251" data-name="Path 2251" d="M162.99,257.5l4.532-78.541,88.42-51.047-4.532,78.535Z" transform="translate(-162.99 -127.91)" fill="#e0e0e0"/>
      <path id="Path_2252" data-name="Path 2252" d="M162.99,258.532l6.8-77.229,88.42-51.053-6.8,77.229Z" transform="translate(-162.99 -128.944)" fill="#13c693"/>
      <path id="Path_2253" data-name="Path 2253" d="M162.99,258.532l6.8-77.229,88.42-51.053-6.8,77.229Z" transform="translate(-162.99 -128.944)" opacity="0.5"/>
    </g>
    <g id="freepik--Documents--inject-33" transform="translate(1457.252 3543.49)">
      <path id="Path_2254" data-name="Path 2254" d="M267.457,375.608c-15.873-9.165-30.6-19.127-37.317-30.815L250.568,333Z" transform="translate(-208.529 -183.699)" fill="#e0e0e0"/>
      <path id="Path_2255" data-name="Path 2255" d="M191.42,187.524v86.388l88.42-51.047V144.33l-65.748,37.959-2.266-6.547Z" transform="translate(-191.42 -100.332)" fill="#13c693"/>
      <path id="Path_2256" data-name="Path 2256" d="M191.42,187.524v86.388l88.42-51.047V144.33l-65.748,37.959-2.266-6.547Z" transform="translate(-191.42 -100.332)" opacity="0.2"/>
      <path id="Path_2257" data-name="Path 2257" d="M236.857,178.466c-.223,0-.257-.257-.257-.407V104.385a1.853,1.853,0,0,1,.826-1.429l63.817-36.837a.592.592,0,0,1,.29-.089c.223,0,.257.257.257.407v73.674a1.859,1.859,0,0,1-.826,1.434l-63.817,36.837a.608.608,0,0,1-.29.084Z" transform="translate(-211.383 -65.734)" fill="#fff"/>
      <path id="Path_2258" data-name="Path 2258" d="M301.283,66.052a.558.558,0,0,1,0,.123v73.674a1.6,1.6,0,0,1-.687,1.194L236.78,177.88l-.112.05a.342.342,0,0,1,0-.123V104.134a1.6,1.6,0,0,1,.687-1.189l63.817-36.837a.313.313,0,0,1,.117-.05m.034-.558a.871.871,0,0,0-.43.128l-63.817,36.837a2.149,2.149,0,0,0-.966,1.674v73.674c0,.435.218.687.558.687a.86.86,0,0,0,.43-.128l63.817-36.837a2.127,2.127,0,0,0,.966-1.674V66.186c0-.435-.218-.692-.558-.687Z" transform="translate(-211.167 -65.5)" fill="#13c693"/>
      <path id="Path_2259" data-name="Path 2259" d="M301.283,66.052a.558.558,0,0,1,0,.123v73.674a1.6,1.6,0,0,1-.687,1.194L236.78,177.88l-.112.05a.342.342,0,0,1,0-.123V104.134a1.6,1.6,0,0,1,.687-1.189l63.817-36.837a.313.313,0,0,1,.117-.05m.034-.558a.871.871,0,0,0-.43.128l-63.817,36.837a2.149,2.149,0,0,0-.966,1.674v73.674c0,.435.218.687.558.687a.86.86,0,0,0,.43-.128l63.817-36.837a2.127,2.127,0,0,0,.966-1.674V66.186c0-.435-.218-.692-.558-.687Z" transform="translate(-211.167 -65.5)" fill="#fff" opacity="0.7"/>
      <path id="Path_2260" data-name="Path 2260" d="M248.29,129.4l22.671-13.088v26.177L248.29,155.575Z" transform="translate(-216.549 -87.951)" fill="#13c693"/>
      <path id="Path_2261" data-name="Path 2261" d="M248.29,129.4l22.671-13.088v26.177L248.29,155.575Z" transform="translate(-216.549 -87.951)" fill="#fff" opacity="0.8"/>
      <path id="Path_2262" data-name="Path 2262" d="M270.262,128v7.87l-.714.4V133.86c0-1.328-1.077-1.78-2.417-1.01l-9.605,5.553a5.005,5.005,0,0,0-2.417,3.8v2.406l-.709.424v-7.853Z" transform="translate(-219.249 -93.116)" fill="#fff"/>
      <path id="Path_2263" data-name="Path 2263" d="M267.687,152.677c-1.161.67-2.1-.033-2.1-1.58V138.5l-2.919,1.585v12.7a4.993,4.993,0,0,1-2.1,4L258.45,158v.837l11.336-6.547v-.832Z" transform="translate(-221.038 -97.756)" fill="#fff"/>
      <path id="Path_2264" data-name="Path 2264" d="M297,102.012c0,.726.653.932,1.451.474l22.057-12.753a2.913,2.913,0,0,0,1.451-2.149c0-.72-.653-.932-1.451-.469L298.468,99.841A2.9,2.9,0,0,0,297,102.012Z" transform="translate(-238.072 -74.943)" fill="#455a64"/>
      <path id="Path_2265" data-name="Path 2265" d="M297,116.034c0,.726.653.938,1.451.474l22.041-12.725a2.914,2.914,0,0,0,1.451-2.149c0-.72-.653-.932-1.451-.469l-22.041,12.725A2.914,2.914,0,0,0,297,116.034Z" transform="translate(-238.072 -81.151)" fill="#455a64"/>
      <path id="Path_2266" data-name="Path 2266" d="M297,130.135c0,.726.653.938,1.451.474l22.041-12.725a2.913,2.913,0,0,0,1.451-2.143c0-.726-.653-.938-1.451-.474l-22.041,12.725A2.914,2.914,0,0,0,297,130.135Z" transform="translate(-238.072 -87.381)" fill="#455a64"/>
      <path id="Path_2267" data-name="Path 2267" d="M297,144.2c0,.726.653.938,1.451.474l22.041-12.725a2.914,2.914,0,0,0,1.451-2.143c0-.726-.653-.938-1.451-.474l-22.041,12.725A2.913,2.913,0,0,0,297,144.2Z" transform="translate(-238.072 -93.598)" fill="#455a64"/>
      <path id="Path_2268" data-name="Path 2268" d="M248.29,173.966c0,.726.647.938,1.451.474l49.244-28.465a2.9,2.9,0,0,0,1.451-2.143c0-.726-.653-.932-1.451-.474l-49.244,28.465A2.9,2.9,0,0,0,248.29,173.966Z" transform="translate(-216.549 -99.795)" fill="#455a64"/>
      <path id="Path_2269" data-name="Path 2269" d="M248.29,188.06c0,.726.647.938,1.451.474L298.985,160.1a2.913,2.913,0,0,0,1.451-2.149c0-.72-.653-.932-1.451-.469l-49.244,28.431A2.9,2.9,0,0,0,248.29,188.06Z" transform="translate(-216.549 -106.037)" fill="#455a64"/>
      <path id="Path_2270" data-name="Path 2270" d="M248.29,202.136c0,.72.647.932,1.451.469l49.244-28.431a2.913,2.913,0,0,0,1.451-2.149c0-.72-.653-.932-1.451-.469l-49.244,28.431A2.9,2.9,0,0,0,248.29,202.136Z" transform="translate(-216.549 -112.254)" fill="#455a64"/>
      <path id="Path_2271" data-name="Path 2271" d="M191.42,281.163l15.868-69.371,88.42-51.053L279.84,230.116Z" transform="translate(-191.42 -107.583)" fill="#13c693"/>
      <path id="Path_2272" data-name="Path 2272" d="M230.18,252.617v51.454l20.405-11.782V240.84Z" transform="translate(-208.547 -142.976)" fill="#13c693"/>
      <path id="Path_2273" data-name="Path 2273" d="M230.18,252.617v51.454l20.405-11.782V240.84Z" transform="translate(-208.547 -142.976)" opacity="0.2"/>
      <path id="Path_2274" data-name="Path 2274" d="M268.556,315.069c-1.736-1.295-18.469-14.082-26.975-32.372-9.053-19.445-9.042-42.128-9.042-50.662v-.268L293.2,196.75c0,8.612,0,31.328,9.092,50.841,8.311,17.86,24.4,30.485,26.952,32.417Z" transform="translate(-209.589 -123.495)" fill="#fff"/>
      <path id="Path_2275" data-name="Path 2275" d="M292.68,196.877c0,8.975.173,31.256,9.12,50.478C309.832,264.6,325.1,277,328.5,279.62l-60.167,34.738c-2.35-1.769-18.452-14.344-26.735-32.132-9.042-19.39-9.042-42.028-9.042-50.55v-.106l60.1-34.7m.558-.966L232,231.252c0,8.032-.167,31.367,9.07,51.209,9.092,19.473,27.209,32.567,27.209,32.567l61.233-35.352s-18.139-13.094-27.2-32.567c-9.243-19.842-9.07-43.177-9.07-51.209Z" transform="translate(-209.351 -123.119)" fill="#13c693"/>
      <path id="Path_2276" data-name="Path 2276" d="M292.68,196.877c0,8.975.173,31.256,9.12,50.478C309.832,264.6,325.1,277,328.5,279.62l-60.167,34.738c-2.35-1.769-18.452-14.344-26.735-32.132-9.042-19.39-9.042-42.028-9.042-50.55v-.106l60.1-34.7m.558-.966L232,231.252c0,8.032-.167,31.367,9.07,51.209,9.092,19.473,27.209,32.567,27.209,32.567l61.233-35.352s-18.139-13.094-27.2-32.567c-9.243-19.842-9.07-43.177-9.07-51.209Z" transform="translate(-209.351 -123.119)" fill="#fff" opacity="0.7"/>
      <path id="Path_2277" data-name="Path 2277" d="M312.873,216.954l-19.356,11.163a2.746,2.746,0,0,0-1.406,2.115c.028.709.7.91,1.5.447l19.362-11.163a2.746,2.746,0,0,0,1.4-2.087C314.341,216.691,313.676,216.49,312.873,216.954Z" transform="translate(-235.911 -132.312)" fill="#455a64"/>
      <path id="Path_2278" data-name="Path 2278" d="M313.657,230.6,294.3,241.766a2.578,2.578,0,0,0-1.351,2.087c.061.687.765.871,1.563.407L313.874,233.1a2.545,2.545,0,0,0,1.334-2.082C315.153,230.325,314.461,230.157,313.657,230.6Z" transform="translate(-236.283 -138.344)" fill="#455a64"/>
      <path id="Path_2279" data-name="Path 2279" d="M315.087,243.865l-19.362,11.163a2.4,2.4,0,0,0-1.284,2.048c.095.664.826.837,1.63.374l19.362-11.163a2.361,2.361,0,0,0,1.267-2.043C316.6,243.581,315.886,243.4,315.087,243.865Z" transform="translate(-236.937 -144.199)" fill="#455a64"/>
      <path id="Path_2280" data-name="Path 2280" d="M317.213,256.727,297.851,267.89a2.216,2.216,0,0,0-1.217,2.015c.134.647.893.793,1.674.329l19.356-11.163a2.186,2.186,0,0,0,1.206-2.009C318.736,256.415,318.039,256.264,317.213,256.727Z" transform="translate(-237.902 -149.878)" fill="#455a64"/>
      <path id="Path_2281" data-name="Path 2281" d="M320.094,269.161l-19.362,11.163a1.956,1.956,0,0,0-1.116,1.965c.2.62.966.759,1.764.3l19.362-11.163a1.96,1.96,0,0,0,1.116-1.965C321.668,268.832,320.892,268.7,320.094,269.161Z" transform="translate(-239.209 -155.369)" fill="#455a64"/>
      <path id="Path_2282" data-name="Path 2282" d="M301.76,281.142l-47.185,27.243c-.8.463-1.284,1.323-1.066,1.92s1.049.709,1.847.246l47.185-27.243a1.816,1.816,0,0,0,1.049-1.92C303.373,280.785,302.53,280.679,301.76,281.142Z" transform="translate(-218.832 -160.657)" fill="#455a64"/>
      <path id="Path_2283" data-name="Path 2283" d="M306.264,292.587l-47.179,27.243c-.8.463-1.245,1.3-.977,1.87s1.116.659,1.931.2l47.185-27.243c.8-.463,1.233-1.3.966-1.87S307.068,292.129,306.264,292.587Z" transform="translate(-220.852 -165.711)" fill="#455a64"/>
      <path id="Path_2284" data-name="Path 2284" d="M311.86,303.486l-47.185,27.243c-.8.463-1.2,1.278-.882,1.82s1.228.6,2.032.134l47.151-27.243c.8-.458,1.183-1.267.865-1.808S312.641,303.023,311.86,303.486Z" transform="translate(-223.35 -170.521)" fill="#455a64"/>
      <path id="Path_2285" data-name="Path 2285" d="M318.375,313.794,271.2,341.031c-.8.463-1.161,1.261-.8,1.769a1.673,1.673,0,0,0,2.121.089L319.7,315.647c.8-.463,1.15-1.25.787-1.764A1.658,1.658,0,0,0,318.375,313.794Z" transform="translate(-226.255 -175.069)" fill="#455a64"/>
      <path id="Path_2286" data-name="Path 2286" d="M325.792,323.588l-47.185,27.237c-.8.463-1.116,1.239-.714,1.725a1.833,1.833,0,0,0,2.193.045l47.185-27.254c.8-.463,1.116-1.228.7-1.713A1.794,1.794,0,0,0,325.792,323.588Z" transform="translate(-229.552 -179.388)" fill="#455a64"/>
      <path id="Path_2287" data-name="Path 2287" d="M333.972,332.924,286.8,360.161c-.8.463-1.116,1.222-.647,1.674a2.014,2.014,0,0,0,2.26,0L335.6,334.593c.8-.463,1.083-1.211.636-1.674A2.01,2.01,0,0,0,333.972,332.924Z" transform="translate(-233.184 -183.511)" fill="#455a64"/>
      <path id="Path_2288" data-name="Path 2288" d="M343,341.846l-47.185,27.237c-.8.463-1.06,1.206-.558,1.647a2.17,2.17,0,0,0,2.333-.039l47.146-27.243c.8-.463,1.049-1.189.558-1.635A2.091,2.091,0,0,0,343,341.846Z" transform="translate(-237.189 -187.449)" fill="#455a64"/>
      <path id="Path_2289" data-name="Path 2289" d="M264.438,244.44,242.18,257.277a129.858,129.858,0,0,0,4.538,31.412l22.264-12.837A129.657,129.657,0,0,1,264.438,244.44Z" transform="translate(-213.849 -144.567)" fill="#13c693"/>
      <path id="Path_2290" data-name="Path 2290" d="M264.438,244.44,242.18,257.277a129.858,129.858,0,0,0,4.538,31.412l22.264-12.837A129.657,129.657,0,0,1,264.438,244.44Z" transform="translate(-213.849 -144.567)" fill="#fff" opacity="0.8"/>
      <path id="Path_2291" data-name="Path 2291" d="M251.255,262.024a3.678,3.678,0,0,0-1.083-2.824l-7.993,4.61c.067,2.132.179,4.515.374,7.083a5.241,5.241,0,0,0,3.02-.558C248.716,268.895,251.255,265.161,251.255,262.024Z" transform="translate(-213.849 -151.089)" fill="#13c693"/>
      <path id="Path_2292" data-name="Path 2292" d="M251.255,262.024a3.678,3.678,0,0,0-1.083-2.824l-7.993,4.61c.067,2.132.179,4.515.374,7.083a5.241,5.241,0,0,0,3.02-.558C248.716,268.895,251.255,265.161,251.255,262.024Z" transform="translate(-213.849 -151.089)" fill="#fff" opacity="0.6"/>
      <path id="Path_2293" data-name="Path 2293" d="M273.85,278.632h0c-1.485-1.87-4.5-7.646-5.793-10.164a.558.558,0,0,0-1.033.095,61.257,61.257,0,0,0-2.411,14.651,21.209,21.209,0,0,1-4.727-5.258.5.5,0,0,0-.887.156,54.74,54.74,0,0,0-1.211,18.591h0l17.955-10.37C274.994,283.745,274.375,281.166,273.85,278.632Z" transform="translate(-220.61 -155.05)" fill="#13c693"/>
      <path id="Path_2294" data-name="Path 2294" d="M273.85,278.632h0c-1.485-1.87-4.5-7.646-5.793-10.164a.558.558,0,0,0-1.033.095,61.257,61.257,0,0,0-2.411,14.651,21.209,21.209,0,0,1-4.727-5.258.5.5,0,0,0-.887.156,54.74,54.74,0,0,0-1.211,18.591h0l17.955-10.37C274.994,283.745,274.375,281.166,273.85,278.632Z" transform="translate(-220.61 -155.05)" fill="#fff" opacity="0.6"/>
    </g>
    <circle id="Ellipse_25" data-name="Ellipse 25" cx="25" cy="25" r="25" transform="translate(1343.5 3493.49)" fill="#13c693"/>
    <text id="_6" data-name="6" transform="translate(1360.5 3527.49)" fill="#fff" font-size="25" font-family="Poppins-ExtraBold, Poppins" font-weight="800"><tspan x="0" y="0">6</tspan></text>
  </g>
</svg>
