<svg xmlns="http://www.w3.org/2000/svg" width="300" height="253.28" viewBox="0 0 300 253.28">
  <g id="Group_38" data-name="Group 38" transform="translate(-93 -257)">
    <g id="Events-rafiki" transform="translate(143 269)">
      <g id="freepik--background-complete--inject-3" transform="translate(0 55)">
        <rect id="Rectangle_123" data-name="Rectangle 123" width="250" height="0.125" transform="translate(0 163.7)" fill="#ebebeb"/>
        <rect id="Rectangle_124" data-name="Rectangle 124" width="43.45" height="0.125" transform="translate(181.5 171.745)" fill="#ebebeb"/>
        <rect id="Rectangle_125" data-name="Rectangle 125" width="4.345" height="0.125" transform="translate(178.83 167.105)" fill="#ebebeb"/>
        <rect id="Rectangle_126" data-name="Rectangle 126" width="9.595" height="0.125" transform="translate(140.06 171.25)" fill="#ebebeb"/>
        <rect id="Rectangle_127" data-name="Rectangle 127" width="10.8" height="0.125" transform="translate(26.23 167.945)" fill="#ebebeb"/>
        <rect id="Rectangle_128" data-name="Rectangle 128" width="13.965" height="0.125" transform="translate(41.48 167.945)" fill="#ebebeb"/>
        <rect id="Rectangle_129" data-name="Rectangle 129" width="23.42" height="0.125" transform="translate(103.835 169.995)" fill="#ebebeb"/>
        <path id="Path_1027" data-name="Path 1027" d="M137.6,196.4H41.06a2.855,2.855,0,0,1-2.85-2.855V57.83A2.855,2.855,0,0,1,41.06,55H137.6a2.855,2.855,0,0,1,2.855,2.855v135.69A2.855,2.855,0,0,1,137.6,196.4ZM41.06,55.1a2.73,2.73,0,0,0-2.725,2.73V193.545a2.73,2.73,0,0,0,2.725,2.73H137.6a2.735,2.735,0,0,0,2.73-2.73V57.83a2.735,2.735,0,0,0-2.73-2.73Z" transform="translate(-19.105 -55)" fill="#ebebeb"/>
        <path id="Path_1028" data-name="Path 1028" d="M353.9,196.4h-96.55a2.86,2.86,0,0,1-2.855-2.855V57.83A2.86,2.86,0,0,1,257.355,55H353.9a2.855,2.855,0,0,1,2.845,2.83V193.545A2.855,2.855,0,0,1,353.9,196.4ZM257.355,55.1a2.735,2.735,0,0,0-2.73,2.73V193.545a2.735,2.735,0,0,0,2.73,2.73H353.9a2.735,2.735,0,0,0,2.73-2.73V57.83a2.735,2.735,0,0,0-2.73-2.73Z" transform="translate(-127.25 -55)" fill="#ebebeb"/>
        <rect id="Rectangle_130" data-name="Rectangle 130" width="77.315" height="110.565" transform="translate(27.005 8.97)" fill="#e6e6e6"/>
        <rect id="Rectangle_131" data-name="Rectangle 131" width="78.55" height="110.565" transform="translate(28.09 8.97)" fill="#f0f0f0"/>
        <rect id="Rectangle_132" data-name="Rectangle 132" width="77.315" height="2.025" transform="translate(27.005 119.535)" fill="#e6e6e6"/>
        <rect id="Rectangle_133" data-name="Rectangle 133" width="78.55" height="2.025" transform="translate(29.325 119.535)" fill="#f0f0f0"/>
        <rect id="Rectangle_134" data-name="Rectangle 134" width="104.07" height="72.055" transform="translate(103.395 12.215) rotate(90)" fill="#fafafa"/>
        <path id="Path_1029" data-name="Path 1029" d="M129.26,183.505,146.74,79.44h9L138.26,183.505Z" transform="translate(-64.63 -67.22)" fill="#fff"/>
        <path id="Path_1030" data-name="Path 1030" d="M83.84,183.505,101.32,79.44h9L92.84,183.505Z" transform="translate(-41.92 -67.22)" fill="#fff"/>
        <path id="Path_1031" data-name="Path 1031" d="M65.435,133.135c-.135,0-.245-.165-.245-.37V83.535c0-.205.11-.365.245-.365s.25.16.25.365v49.23C65.685,132.97,65.6,133.135,65.435,133.135Z" transform="translate(-32.595 -69.085)" fill="#f0f0f0"/>
        <path id="Path_1032" data-name="Path 1032" d="M151.13,183.505,168.61,79.44h3.505l-17.48,104.065Z" transform="translate(-75.565 -67.22)" fill="#fff"/>
        <rect id="Rectangle_135" data-name="Rectangle 135" width="104.07" height="0.41" transform="translate(103.395 12.22) rotate(90)" fill="#e6e6e6"/>
        <path id="Path_1033" data-name="Path 1033" d="M137.205,90.085H59.89l-.3-8.125H136.9Z" transform="translate(-29.795 -68.48)" fill="#e0e0e0" opacity="0.5"/>
        <path id="Path_1034" data-name="Path 1034" d="M137.205,116.79H59.89l-.3-8.12H136.9Z" transform="translate(-29.795 -81.835)" fill="#e0e0e0" opacity="0.5"/>
        <path id="Path_1035" data-name="Path 1035" d="M137.205,143.5H59.89l-.3-8.12H136.9Z" transform="translate(-29.795 -95.19)" fill="#e0e0e0" opacity="0.5"/>
        <path id="Path_1036" data-name="Path 1036" d="M137.205,170.205H59.89l-.3-8.125H136.9Z" transform="translate(-29.795 -108.54)" fill="#e0e0e0" opacity="0.5"/>
        <path id="Path_1037" data-name="Path 1037" d="M137.205,196.91H59.89l-.3-8.12H136.9Z" transform="translate(-29.795 -121.895)" fill="#e0e0e0" opacity="0.5"/>
        <path id="Path_1038" data-name="Path 1038" d="M137.205,223.62H59.89l-.3-8.12H136.9Z" transform="translate(-29.795 -135.25)" fill="#e0e0e0" opacity="0.5"/>
        <path id="Path_1039" data-name="Path 1039" d="M137.205,103.435H59.89l-.3-8.125H136.9Z" transform="translate(-29.795 -75.155)" fill="#e0e0e0" opacity="0.5"/>
        <path id="Path_1040" data-name="Path 1040" d="M137.205,130.145H59.89l-.3-8.125H136.9Z" transform="translate(-29.795 -88.51)" fill="#e0e0e0" opacity="0.5"/>
        <path id="Path_1041" data-name="Path 1041" d="M137.205,156.85H59.89l-.3-8.12H136.9Z" transform="translate(-29.795 -101.865)" fill="#e0e0e0" opacity="0.5"/>
        <path id="Path_1042" data-name="Path 1042" d="M137.205,183.56H59.89l-.3-8.12H136.9Z" transform="translate(-29.795 -115.22)" fill="#e0e0e0" opacity="0.5"/>
        <path id="Path_1043" data-name="Path 1043" d="M137.205,210.265H59.89l-.3-8.125H136.9Z" transform="translate(-29.795 -128.57)" fill="#e0e0e0" opacity="0.5"/>
        <path id="Path_1044" data-name="Path 1044" d="M137.205,236.975H59.89l-.3-8.125H136.9Z" transform="translate(-29.795 -141.925)" fill="#e0e0e0" opacity="0.5"/>
        <rect id="Rectangle_136" data-name="Rectangle 136" width="15.41" height="77.225" transform="translate(133.125 84.775)" fill="#f0f0f0"/>
        <rect id="Rectangle_137" data-name="Rectangle 137" width="75.99" height="1.7" transform="translate(136.085 162)" fill="#f0f0f0"/>
        <rect id="Rectangle_138" data-name="Rectangle 138" width="66.495" height="77.225" transform="translate(215.025 162) rotate(180)" fill="#f5f5f5"/>
        <path id="Path_1045" data-name="Path 1045" d="M361.72,295.92h-51.2a1.84,1.84,0,0,1-1.835-1.835v-11.95a1.84,1.84,0,0,1,1.835-1.84h8.465a1.855,1.855,0,0,1,1.635,1.035,1.91,1.91,0,0,0,1.685,1h27.645a1.905,1.905,0,0,0,1.345-.56,2.06,2.06,0,0,0,.36-.5,1.815,1.815,0,0,1,1.62-1h8.45a1.84,1.84,0,0,1,1.84,1.84v11.975a1.84,1.84,0,0,1-1.84,1.835Zm-51.2-15.12a1.34,1.34,0,0,0-1.335,1.34v11.945a1.34,1.34,0,0,0,1.335,1.335h51.2a1.34,1.34,0,0,0,1.34-1.335v-11.95a1.34,1.34,0,0,0-1.34-1.34h-8.45a1.32,1.32,0,0,0-1.175.71,2.415,2.415,0,0,1-.455.625,2.39,2.39,0,0,1-1.7.7H322.3a2.41,2.41,0,0,1-2.125-1.27,1.37,1.37,0,0,0-1.2-.77Z" transform="translate(-154.34 -167.635)" fill="#ebebeb"/>
        <path id="Path_1046" data-name="Path 1046" d="M361.72,337.655h-51.2a1.84,1.84,0,0,1-1.835-1.835V323.875a1.84,1.84,0,0,1,1.835-1.84h8.465a1.855,1.855,0,0,1,1.635,1.035,1.91,1.91,0,0,0,1.685,1h27.645a1.865,1.865,0,0,0,1.34-.56,1.95,1.95,0,0,0,.365-.5,1.815,1.815,0,0,1,1.62-1h8.45a1.84,1.84,0,0,1,1.84,1.84V335.8a1.84,1.84,0,0,1-1.84,1.86Zm-51.2-15.12a1.34,1.34,0,0,0-1.335,1.34V335.82a1.34,1.34,0,0,0,1.335,1.335h51.2a1.34,1.34,0,0,0,1.34-1.335V323.875a1.34,1.34,0,0,0-1.34-1.34h-8.45a1.32,1.32,0,0,0-1.175.71,2.415,2.415,0,0,1-.455.625,2.36,2.36,0,0,1-1.695.705H322.3a2.41,2.41,0,0,1-2.125-1.27,1.37,1.37,0,0,0-1.2-.77Z" transform="translate(-154.34 -188.505)" fill="#ebebeb"/>
        <path id="Path_1047" data-name="Path 1047" d="M363.56,367.44H308.68V363h54.88Zm-54.38-.5h53.88V363.5H309.18Z" transform="translate(-154.34 -209)" fill="#ebebeb"/>
        <path id="Path_1048" data-name="Path 1048" d="M361.72,254.2h-51.2a1.84,1.84,0,0,1-1.835-1.835V240.42a1.84,1.84,0,0,1,1.835-1.84h8.465a1.855,1.855,0,0,1,1.635,1.03,1.905,1.905,0,0,0,1.685,1h27.645a1.9,1.9,0,0,0,1.345-.56,2.061,2.061,0,0,0,.36-.5,1.815,1.815,0,0,1,1.62-1h8.45a1.84,1.84,0,0,1,1.84,1.84v11.945a1.84,1.84,0,0,1-1.84,1.865Zm-51.2-15.12a1.34,1.34,0,0,0-1.335,1.34v11.945a1.34,1.34,0,0,0,1.335,1.335h51.2a1.34,1.34,0,0,0,1.34-1.335V240.42a1.34,1.34,0,0,0-1.34-1.34h-8.45a1.32,1.32,0,0,0-1.175.71,2.415,2.415,0,0,1-.455.625,2.38,2.38,0,0,1-1.7.705H322.3a2.415,2.415,0,0,1-2.125-1.27,1.37,1.37,0,0,0-1.2-.77Z" transform="translate(-154.34 -146.775)" fill="#ebebeb"/>
        <rect id="Rectangle_139" data-name="Rectangle 139" width="68.55" height="1.245" transform="translate(148.535 83.53)" fill="#f0f0f0"/>
        <rect id="Rectangle_140" data-name="Rectangle 140" width="17.56" height="1.245" transform="translate(148.535 84.775) rotate(180)" fill="#e6e6e6"/>
        <rect id="Rectangle_141" data-name="Rectangle 141" width="58.815" height="58.375" transform="translate(143.345 11.635)" fill="#e6e6e6"/>
        <rect id="Rectangle_142" data-name="Rectangle 142" width="61.39" height="58.375" transform="translate(143.945 11.635)" fill="#f0f0f0"/>
        <rect id="Rectangle_143" data-name="Rectangle 143" width="52.71" height="55.72" transform="translate(202.5 14.47) rotate(90)" fill="#fff"/>
        <path id="Path_1049" data-name="Path 1049" d="M327.58,136.65a21.7,21.7,0,1,1,21.7-21.7,21.7,21.7,0,0,1-21.7,21.7Zm0-43.025a21.325,21.325,0,1,0,21.325,21.325A21.325,21.325,0,0,0,327.58,93.625Z" transform="translate(-152.94 -74.125)" fill="#f5f5f5"/>
      </g>
      <g id="freepik--Shadow--inject-3" transform="translate(28.055 229.96)">
        <ellipse id="freepik--path--inject-3" cx="96.945" cy="5.66" rx="96.945" ry="5.66" fill="#f5f5f5"/>
      </g>
      <g id="freepik--event-calendar--inject-3" transform="translate(33.89 125.69)">
        <path id="Path_1050" data-name="Path 1050" d="M67.78,283.4H190.225l8.8-76.175H76.585Z" transform="translate(-67.78 -201.805)" fill="#13c693"/>
        <path id="Path_1051" data-name="Path 1051" d="M67.78,283.4H190.225l8.8-76.175H76.585Z" transform="translate(-67.78 -201.805)" fill="#fff" opacity="0.4"/>
        <path id="Path_1052" data-name="Path 1052" d="M223.08,286.26H100.635L85.39,207.23H207.83Z" transform="translate(-76.585 -201.805)" fill="#13c693"/>
        <path id="Path_1053" data-name="Path 1053" d="M223.08,286.26H100.635L85.39,207.23H207.83Z" transform="translate(-76.585 -201.805)" fill="#fff" opacity="0.6"/>
        <path id="Path_1054" data-name="Path 1054" d="M224.37,292.955H109.665L97.35,229.1H212.055Z" transform="translate(-82.565 -212.74)" fill="#fff"/>
        <g id="Group_6" data-name="Group 6" transform="translate(21.72 19.845)" opacity="0.5">
          <path id="Path_1055" data-name="Path 1055" d="M125.53,248.07H113.535l-2.315-12h12Z" transform="translate(-111.22 -236.07)" fill="#13c693"/>
          <path id="Path_1056" data-name="Path 1056" d="M305.9,248.07h-12l-2.31-12h11.995Z" transform="translate(-201.405 -236.07)" fill="#13c693"/>
          <path id="Path_1057" data-name="Path 1057" d="M275.83,248.07h-12l-2.315-12h12Z" transform="translate(-186.37 -236.07)" fill="#13c693"/>
          <path id="Path_1058" data-name="Path 1058" d="M245.77,248.07H233.775l-2.315-12h12Z" transform="translate(-171.34 -236.07)" fill="#13c693"/>
          <path id="Path_1059" data-name="Path 1059" d="M215.71,248.07H203.715l-2.315-12h11.995Z" transform="translate(-156.31 -236.07)" fill="#13c693"/>
          <path id="Path_1060" data-name="Path 1060" d="M185.65,248.07H173.655l-2.315-12h11.995Z" transform="translate(-141.28 -236.07)" fill="#13c693"/>
          <path id="Path_1061" data-name="Path 1061" d="M155.59,248.07H143.6l-2.315-12h11.995Z" transform="translate(-126.25 -236.07)" fill="#13c693"/>
          <path id="Path_1062" data-name="Path 1062" d="M131.3,277.995h-12L116.99,266h12Z" transform="translate(-114.105 -251.035)" fill="#13c693" opacity="0.5"/>
          <path id="Path_1063" data-name="Path 1063" d="M311.67,277.995H299.675L297.36,266h11.995Z" transform="translate(-204.29 -251.035)" fill="#13c693"/>
          <path id="Path_1064" data-name="Path 1064" d="M281.61,277.995H269.615L267.3,266h11.995Z" transform="translate(-189.26 -251.035)" fill="#13c693" opacity="0.5"/>
          <path id="Path_1065" data-name="Path 1065" d="M251.55,277.995h-12L237.24,266h12Z" transform="translate(-174.23 -251.035)" fill="#13c693"/>
          <path id="Path_1066" data-name="Path 1066" d="M221.48,277.995H209.485L207.17,266h12Z" transform="translate(-159.195 -251.035)" fill="#13c693"/>
          <path id="Path_1067" data-name="Path 1067" d="M191.42,277.995H179.425L177.11,266h12Z" transform="translate(-144.165 -251.035)" fill="#13c693"/>
          <path id="Path_1068" data-name="Path 1068" d="M161.36,277.995h-12L147.05,266h11.995Z" transform="translate(-129.135 -251.035)" fill="#13c693"/>
          <path id="Path_1069" data-name="Path 1069" d="M137.07,307.915h-12L122.76,295.92h12Z" transform="translate(-116.99 -265.995)" fill="#13c693"/>
          <path id="Path_1070" data-name="Path 1070" d="M317.44,307.915H305.445L303.13,295.92h11.995Z" transform="translate(-207.175 -265.995)" fill="#13c693"/>
          <path id="Path_1071" data-name="Path 1071" d="M287.38,307.915H275.385L273.07,295.92h11.995Z" transform="translate(-192.145 -265.995)" fill="#13c693"/>
          <path id="Path_1072" data-name="Path 1072" d="M257.32,307.915h-12L243.01,295.92h12Z" transform="translate(-177.115 -265.995)" fill="#13c693"/>
          <path id="Path_1073" data-name="Path 1073" d="M227.26,307.915h-12l-2.31-11.995h12Z" transform="translate(-162.085 -265.995)" fill="#13c693"/>
          <path id="Path_1074" data-name="Path 1074" d="M197.19,307.915H185.2L182.88,295.92h12Z" transform="translate(-147.05 -265.995)" fill="#13c693"/>
          <path id="Path_1075" data-name="Path 1075" d="M167.13,307.915H155.135L152.82,295.92h11.995Z" transform="translate(-132.02 -265.995)" fill="#13c693"/>
          <path id="Path_1076" data-name="Path 1076" d="M142.84,337.84H130.845l-2.315-12h12Z" transform="translate(-119.875 -280.955)" fill="#13c693"/>
          <path id="Path_1077" data-name="Path 1077" d="M323.21,337.84H311.215l-2.315-12h12Z" transform="translate(-210.06 -280.955)" fill="#13c693"/>
          <path id="Path_1078" data-name="Path 1078" d="M293.15,337.84H281.155l-2.315-12h11.995Z" transform="translate(-195.03 -280.955)" fill="#13c693"/>
          <path id="Path_1079" data-name="Path 1079" d="M263.09,337.84H251.1l-2.315-12h11.995Z" transform="translate(-180 -280.955)" fill="#13c693"/>
          <path id="Path_1080" data-name="Path 1080" d="M233.03,337.84H221.035l-2.315-12h11.995Z" transform="translate(-164.97 -280.955)" fill="#13c693"/>
          <path id="Path_1081" data-name="Path 1081" d="M202.97,337.84h-12l-2.31-12h11.995Z" transform="translate(-149.94 -280.955)" fill="#13c693"/>
          <path id="Path_1082" data-name="Path 1082" d="M172.91,337.84h-12l-2.31-12H170.6Z" transform="translate(-134.91 -280.955)" fill="#13c693" opacity="0.5"/>
        </g>
        <path id="Path_1083" data-name="Path 1083" d="M110.975,207.23l-.155-.8c1.415,0,2.205-2.12,1.72-4.63s-2.09-4.635-3.5-4.635-2.205,2.125-1.725,4.635h-.79c-.59-3.045.45-5.425,2.36-5.425s3.87,2.38,4.455,5.425S112.885,207.23,110.975,207.23Z" transform="translate(-87.07 -196.38)" fill="#263238"/>
        <path id="Path_1084" data-name="Path 1084" d="M134.655,207.23l-.155-.8c1.415,0,2.2-2.12,1.72-4.63s-2.09-4.635-3.5-4.635-2.205,2.125-1.725,4.635h-.79c-.59-3.045.45-5.425,2.36-5.425s3.87,2.38,4.455,5.425S136.565,207.23,134.655,207.23Z" transform="translate(-98.91 -196.38)" fill="#263238"/>
        <path id="Path_1085" data-name="Path 1085" d="M158.335,207.23l-.155-.8c1.415,0,2.2-2.12,1.72-4.63s-2.09-4.635-3.5-4.635-2.21,2.125-1.725,4.635h-.84c-.59-3.045.45-5.425,2.36-5.425s3.87,2.38,4.455,5.425S160.22,207.23,158.335,207.23Z" transform="translate(-110.725 -196.38)" fill="#263238"/>
        <path id="Path_1086" data-name="Path 1086" d="M182.012,207.23l-.15-.8c1.415,0,2.205-2.12,1.72-4.63s-2.09-4.635-3.5-4.635-2.2,2.125-1.72,4.635h-.795c-.585-3.045.455-5.425,2.365-5.425s3.865,2.38,4.455,5.425S183.927,207.23,182.012,207.23Z" transform="translate(-122.592 -196.38)" fill="#263238"/>
        <path id="Path_1087" data-name="Path 1087" d="M205.692,207.23l-.15-.8c1.415,0,2.2-2.12,1.72-4.63s-2.09-4.635-3.5-4.635-2.205,2.125-1.72,4.635h-.8c-.585-3.045.455-5.425,2.365-5.425s3.865,2.38,4.455,5.425S207.607,207.23,205.692,207.23Z" transform="translate(-134.432 -196.38)" fill="#263238"/>
        <path id="Path_1088" data-name="Path 1088" d="M229.392,207.23l-.15-.8c1.415,0,2.205-2.12,1.72-4.63s-2.09-4.635-3.5-4.635-2.205,2.125-1.72,4.635h-.795c-.585-3.045.45-5.425,2.365-5.425s3.865,2.38,4.455,5.425S231.3,207.23,229.392,207.23Z" transform="translate(-146.282 -196.38)" fill="#263238"/>
        <path id="Path_1089" data-name="Path 1089" d="M253.052,207.23l-.15-.8c1.415,0,2.205-2.12,1.72-4.63s-2.09-4.635-3.5-4.635-2.205,2.125-1.72,4.635h-.795c-.585-3.045.45-5.425,2.365-5.425s3.865,2.38,4.455,5.425S254.967,207.23,253.052,207.23Z" transform="translate(-158.112 -196.38)" fill="#263238"/>
        <path id="Path_1090" data-name="Path 1090" d="M276.732,207.23l-.15-.8c1.415,0,2.205-2.12,1.72-4.63s-2.09-4.635-3.5-4.635-2.205,2.125-1.72,4.635h-.795c-.585-3.045.45-5.425,2.365-5.425s3.865,2.38,4.455,5.425S278.642,207.23,276.732,207.23Z" transform="translate(-169.952 -196.38)" fill="#263238"/>
        <path id="Path_1091" data-name="Path 1091" d="M300.392,207.23l-.15-.8c1.415,0,2.2-2.12,1.72-4.63s-2.09-4.635-3.5-4.635-2.2,2.125-1.72,4.635h-.8c-.585-3.045.45-5.425,2.365-5.425s3.865,2.38,4.45,5.425S302.312,207.23,300.392,207.23Z" transform="translate(-181.782 -196.38)" fill="#263238"/>
        <path id="Path_1092" data-name="Path 1092" d="M158.315,244.7h-42.06l-2.315-12H156Z" transform="translate(-90.86 -214.54)" fill="#13c693"/>
        <path id="Path_1093" data-name="Path 1093" d="M224.23,274.62h-12l-2.31-12h12Z" transform="translate(-138.85 -229.5)" fill="#13c693"/>
        <path id="Path_1094" data-name="Path 1094" d="M308.535,307.165l-.65-.565a19.8,19.8,0,0,0-4.415-2.925l.415-1.225a21.589,21.589,0,0,1,4.17,2.645,27.415,27.415,0,0,1,8.5-8.1l.895,1.22a26.3,26.3,0,0,0-8.53,8.355Z" transform="translate(-185.625 -246.685)" fill="#13c693"/>
        <path id="Path_1095" data-name="Path 1095" d="M222.68,266.59H221.6l-1.815,3.285L216.7,266.59H215.62l3.76,4.015-2.215,4.01h1.09l1.81-3.28,3.075,3.28h1.09l-3.765-4.01Z" transform="translate(-141.7 -231.485)" fill="#fff"/>
        <path id="Path_1096" data-name="Path 1096" d="M262.86,323.265l2,10.4h-10.4l-2-10.4h10.4m.645-.8h-12l2.315,12h12l-2.31-12Z" transform="translate(-159.645 -259.425)" fill="#13c693"/>
        <path id="Path_1097" data-name="Path 1097" d="M184.89,304.545H157.865L155.55,292.55h27.025Z" transform="translate(-111.665 -244.465)" fill="#263238"/>
        <path id="Path_1098" data-name="Path 1098" d="M172.333,299.814a1.845,1.845,0,0,1-1.86,2.3,2.925,2.925,0,0,1-2.75-2.3,1.85,1.85,0,0,1,1.86-2.305,2.93,2.93,0,0,1,2.75,2.3Z" transform="translate(-117.723 -246.944)" fill="#fff"/>
        <path id="Path_1099" data-name="Path 1099" d="M171.951,306.48a2.66,2.66,0,0,1-2.24,1.105,4,4,0,0,1-2.66-1.1,2.4,2.4,0,0,0-1.22,2.54h8.32A3.855,3.855,0,0,0,171.951,306.48Z" transform="translate(-116.786 -251.43)" fill="#fff"/>
        <path id="Path_1100" data-name="Path 1100" d="M195.765,301.725h-9.2l-.255-1.325h9.2Z" transform="translate(-127.045 -248.39)" fill="#fff"/>
        <path id="Path_1101" data-name="Path 1101" d="M193.775,307.355h-6.12l-.255-1.325h6.12Z" transform="translate(-127.59 -251.205)" fill="#fff"/>
        <path id="Path_1102" data-name="Path 1102" d="M283.088,234.17c2.37,0,5.725.345,8.26,2a4,4,0,0,1,1.855,2.5,6.144,6.144,0,0,1-1.755,5.275,12.386,12.386,0,0,1-8,3.23c-.38.03-.77.045-1.155.045a18.76,18.76,0,0,1-6.85-1.36c-2.145-.855-4.42-2-5.06-4.23a3.66,3.66,0,0,1,.395-3.1,4.715,4.715,0,0,1,1.465-1.43,19.41,19.41,0,0,1,9.18-2.875c.555-.035,1.115-.055,1.665-.055m-.15-.77a15.772,15.772,0,0,0-1.71.06,20.08,20.08,0,0,0-9.5,2.97,5.325,5.325,0,0,0-1.645,1.61,4.365,4.365,0,0,0-.455,3.665c.75,2.59,3.315,3.935,5.645,4.86a19.5,19.5,0,0,0,7.165,1.42c.4,0,.8,0,1.205-.04a13.207,13.207,0,0,0,8.41-3.41c2.08-2.1,3.405-6.555-.37-9a16.444,16.444,0,0,0-8.75-2.135Z" transform="translate(-168.598 -214.89)" fill="#263238"/>
      </g>
      <g id="freepik--Character--inject-3" transform="translate(156.337 83.021)">
        <path id="Path_1103" data-name="Path 1103" d="M385.275,399.79l3.58-.95-1.745-8.42-3.58.955Z" transform="translate(-348.102 -250.731)" fill="#b55b52"/>
        <path id="Path_1104" data-name="Path 1104" d="M390.261,405.891l-3.955,1.3a.265.265,0,0,0-.185.325l.84,3.2a.655.655,0,0,0,.82.425c1.37-.5,2-.775,3.74-1.345,1.07-.355,3.66-1.15,5.135-1.635s.96-1.93.29-1.86a13.1,13.1,0,0,1-6-.385A1.025,1.025,0,0,0,390.261,405.891Z" transform="translate(-349.393 -258.442)" fill="#263238"/>
        <path id="Path_1105" data-name="Path 1105" d="M383.53,391.375l3.58-.955.9,4.34-3.585.955Z" transform="translate(-348.102 -250.731)" opacity="0.2"/>
        <path id="Path_1106" data-name="Path 1106" d="M351.955,220.72s5,30.175,6.5,40.7c1.625,11.525,7.71,46.2,7.71,46.2l-6,2.27s-9.575-34.085-12.22-45.29c-2.875-12.165-9.2-43.875-9.2-43.875Z" transform="translate(-325.707 -165.881)" fill="#263238"/>
        <path id="Path_1107" data-name="Path 1107" d="M346.155,242.781c2.56,6.4,2.85,17.265,1.81,21.72-1.57-7.315-3.37-16.065-4.755-22.87C343.705,239.886,344.6,238.891,346.155,242.781Z" transform="translate(-327.942 -175.568)" opacity="0.3"/>
        <path id="Path_1108" data-name="Path 1108" d="M379.525,395.81l6.965-2.09-.2-2.85L378,393.295Z" transform="translate(-345.337 -250.956)" fill="#263238"/>
        <path id="Path_1109" data-name="Path 1109" d="M396.212,405.295a4.756,4.756,0,0,1-1,.18.088.088,0,0,1-.085-.135c.085-.115.86-1.125,1.345-1.1a.33.33,0,0,1,.265.17.47.47,0,0,1,.045.5A1,1,0,0,1,396.212,405.295Zm-.8,0c.675-.085,1.13-.255,1.24-.47a.32.32,0,0,0-.035-.315.16.16,0,0,0-.13-.085c-.26-.025-.75.465-1.075.86Z" transform="translate(-353.894 -257.641)" fill="#13c693"/>
        <path id="Path_1110" data-name="Path 1110" d="M395.022,404.907a.055.055,0,0,1-.04,0,.085.085,0,0,1-.065-.05c0-.045-.43-1.03-.19-1.5a.455.455,0,0,1,.31-.23.33.33,0,0,1,.38.155,1.9,1.9,0,0,1-.355,1.585C395.047,404.9,395.037,404.907,395.022,404.907Zm0-1.585a.275.275,0,0,0-.15.13,1.92,1.92,0,0,0,.135,1.2,1.725,1.725,0,0,0,.25-1.265c-.025-.045-.07-.095-.2-.07Z" transform="translate(-353.664 -257.078)" fill="#13c693"/>
        <path id="Path_1111" data-name="Path 1111" d="M357.535,156.868c.145.235.345.565.53.85l.57.9c.4.6.785,1.19,1.2,1.775.815,1.165,1.675,2.295,2.565,3.37a30,30,0,0,0,2.81,2.965,15.1,15.1,0,0,0,3,2.18l-.79-.225a8.146,8.146,0,0,0,2.355.135c.43-.04.87-.1,1.32-.175s.9-.19,1.365-.315a24.065,24.065,0,0,0,2.785-.945c.465-.19.93-.385,1.395-.6s.94-.445,1.345-.635l.135-.065a1.621,1.621,0,0,1,1.87,2.585c-.455.47-.855.845-1.3,1.24s-.9.745-1.375,1.1a21.822,21.822,0,0,1-3.06,1.87,16.771,16.771,0,0,1-3.545,1.3,15.654,15.654,0,0,1-2,.325,12.592,12.592,0,0,1-2.125,0,2.091,2.091,0,0,1-.585-.145l-.2-.085a19.189,19.189,0,0,1-4.585-2.805,30.323,30.323,0,0,1-3.665-3.5,42.6,42.6,0,0,1-3.07-3.82q-.705-1-1.36-2c-.215-.345-.43-.685-.64-1.04s-.4-.685-.63-1.115a3.247,3.247,0,1,1,5.645-3.21Z" transform="translate(-332.047 -133.094)" fill="#263238"/>
        <path id="Path_1112" data-name="Path 1112" d="M363.2,173.549c-1.95-4-5.275-3.77-6.615-2.535l.38.555a42.635,42.635,0,0,0,2.93,3.7,33.116,33.116,0,0,0,3.46,3.385c.39.32.795.635,1.2.935a16,16,0,0,0-1.36-6.04Z" transform="translate(-334.627 -140.631)" opacity="0.3"/>
        <path id="Path_1113" data-name="Path 1113" d="M406.082,173.915l2.5-2.085,1.5,3.235s-3.725,2.665-4.58,1.725l-.1-1.205A1.965,1.965,0,0,1,406.082,173.915Z" transform="translate(-359.034 -141.436)" fill="#b55b52"/>
        <path id="Path_1114" data-name="Path 1114" d="M415.1,172.21l.785,2.5-2.64.325-1.49-3.235Z" transform="translate(-362.212 -141.421)" fill="#b55b52"/>
        <path id="Path_1115" data-name="Path 1115" d="M324.38,400.335h3.705l.48-8.585H324.86Z" transform="translate(-318.527 -251.396)" fill="#b55b52"/>
        <path id="Path_1116" data-name="Path 1116" d="M327.535,408.06H323.37a.265.265,0,0,0-.275.255l-.205,3.295a.66.66,0,0,0,.65.66c1.45-.025,2.145-.11,3.975-.11,1.125,0,4.23.115,5.785.115s1.5-1.54.855-1.68a15.693,15.693,0,0,1-6-2.3A1,1,0,0,0,327.535,408.06Z" transform="translate(-317.782 -259.551)" fill="#263238"/>
        <path id="Path_1117" data-name="Path 1117" d="M325.09,391.76h3.7l-.25,4.425h-3.7Z" transform="translate(-318.757 -251.401)" opacity="0.2"/>
        <path id="Path_1118" data-name="Path 1118" d="M336.27,220.72s-.32,32.205-.92,42.82c-.66,11.62-6.71,46.055-6.71,46.055h-6.79s2.96-33.5,2.55-45c-.445-12.5-.715-43.875-.715-43.875Z" transform="translate(-317.262 -165.881)" fill="#263238"/>
        <path id="Path_1119" data-name="Path 1119" d="M320.41,395.9h8.28l.4-2.575-9.035.4Z" transform="translate(-316.367 -252.181)" fill="#263238"/>
        <path id="Path_1120" data-name="Path 1120" d="M333.731,408.416a4.753,4.753,0,0,1-1-.13.085.085,0,0,1-.03-.155c.12-.085,1.165-.8,1.62-.62a.32.32,0,0,1,.2.24.5.5,0,0,1-.105.47A1,1,0,0,1,333.731,408.416Zm-.75-.255c.665.13,1.155.11,1.325-.06a.31.31,0,0,0,.065-.31.15.15,0,0,0-.1-.12C334.031,407.576,333.411,407.886,332.981,408.161Z" transform="translate(-322.668 -259.262)" fill="#13c693"/>
        <path id="Path_1121" data-name="Path 1121" d="M332.776,407.426a.055.055,0,0,1-.04,0,.08.08,0,0,1-.045-.07c0-.045-.09-1.11.285-1.47a.445.445,0,0,1,.365-.12.335.335,0,0,1,.315.26c.085.4-.47,1.18-.835,1.4a.075.075,0,0,1-.045,0Zm.5-1.5a.265.265,0,0,0-.185.075,1.91,1.91,0,0,0-.245,1.175c.325-.27.69-.86.635-1.125,0-.05-.04-.11-.165-.125Z" transform="translate(-322.678 -258.403)" fill="#13c693"/>
        <path id="Path_1122" data-name="Path 1122" d="M341.87,157.395a3.605,3.605,0,0,0-2.735-2.5,22.5,22.5,0,0,0-2.775-.475,73.947,73.947,0,0,0-8.425,0c-1.47.07-2.97.25-4.165.425h-.045a2.365,2.365,0,0,0-2,2.75,116.424,116.424,0,0,1,1.845,15.055c.29,7.335-.105,13.1.035,14.865H343.43C344.634,169.61,343.079,161.475,341.87,157.395Z" transform="translate(-317.182 -132.671)" fill="#e6e6e6"/>
        <path id="Path_1123" data-name="Path 1123" d="M327.9,153.88c1.56,6.33,3,22.37,2.975,34.91h-8.38c-.15-1.87.27-7.94-.035-15.675a123.861,123.861,0,0,0-1.925-15.845,2.5,2.5,0,0,1,2.09-2.9h.045c1.26-.185,2.84-.375,4.39-.45Z" transform="translate(-316.585 -132.461)" fill="#263238"/>
        <path id="Path_1124" data-name="Path 1124" d="M357.09,157.425a4.2,4.2,0,0,0-3-2.835,37.389,37.389,0,0,0-4-.41c1.585,5.5,4.7,22.255,3.77,34.76h5.29C360.4,170.175,358.27,160.855,357.09,157.425Z" transform="translate(-331.382 -132.611)" fill="#263238"/>
        <path id="Path_1125" data-name="Path 1125" d="M381.705,184.32,342.26,201.2l-4.74-11.02,39.45-16.88Z" transform="translate(-325.097 -142.171)" fill="#13c693"/>
        <path id="Path_1126" data-name="Path 1126" d="M354.885,206.752a2.305,2.305,0,1,1-1.264-1.233A2.305,2.305,0,0,1,354.885,206.752Z" transform="translate(-331.568 -158.199)" fill="#fff"/>
        <path id="Path_1127" data-name="Path 1127" d="M356.052,212.05a3.28,3.28,0,0,1-4.5,1.93,3,3,0,0,0-.57,3l7.65-3.27A3,3,0,0,0,356.052,212.05Z" transform="translate(-331.739 -161.546)" fill="#fff"/>
        <path id="Path_1128" data-name="Path 1128" d="M391.1,184.26l-23.055,9.865-.52-1.22,23.055-9.865Z" transform="translate(-340.097 -147.041)" fill="#fff"/>
        <path id="Path_1129" data-name="Path 1129" d="M390.49,191.85l-20.225,8.655-.525-1.22,20.225-8.655Z" transform="translate(-341.207 -150.836)" fill="#fff"/>
        <path id="Path_1130" data-name="Path 1130" d="M325.445,168.469c-.14-4.205-3.245-5.81-4.12-4.68a1.213,1.213,0,0,0-.1.145c.545,3.24,1.21,7.7,1.5,12.1C324.2,175.179,325.575,172.464,325.445,168.469Z" transform="translate(-316.947 -137.24)" opacity="0.3"/>
        <path id="Path_1131" data-name="Path 1131" d="M341.885,145.1c-2.45-.58-2.88-2.1-2.715-3.76a9.958,9.958,0,0,1,.2-1.24l-3.07-2.55-2.255-1.87c.625,2.715,1.33,7.66-.5,9.47,0,0,1.5,2.5,5.715,2.28C342.77,147.235,341.885,145.1,341.885,145.1Z" transform="translate(-323.107 -123.361)" fill="#b55b52"/>
        <path id="Path_1132" data-name="Path 1132" d="M336.7,158.37a5.945,5.945,0,0,1,1.38-2.22,12.74,12.74,0,0,1-5-3.06l-1.285.5S332.245,156.855,336.7,158.37Z" transform="translate(-322.232 -132.066)" fill="#fff"/>
        <path id="Path_1133" data-name="Path 1133" d="M346.41,158.015a6.205,6.205,0,0,0-2.05-1.66c1.235-.35,1.715-2.855,1.715-2.855l1.2.25S349.505,157.015,346.41,158.015Z" transform="translate(-328.517 -132.271)" fill="#fff"/>
        <path id="Path_1134" data-name="Path 1134" d="M342.1,141.97a9.957,9.957,0,0,0-.195,1.24,3.909,3.909,0,0,1-2.835-2.62,5.329,5.329,0,0,1-.04-1.17Z" transform="translate(-325.847 -125.231)" opacity="0.2"/>
        <path id="Path_1135" data-name="Path 1135" d="M347.316,117.819c1.545-.28,3.345,1.34,2.5,4.63S344.956,118.244,347.316,117.819Z" transform="translate(-329.628 -114.415)" fill="#263238"/>
        <path id="Path_1136" data-name="Path 1136" d="M332.549,121.9c.785,3.6,1.06,5.75,3.19,7.4a4.8,4.8,0,0,0,7.755-3.455c.28-3.355-1.045-8.685-4.84-9.705a4.85,4.85,0,0,0-6.105,5.765Z" transform="translate(-322.547 -113.489)" fill="#b55b52"/>
        <path id="Path_1137" data-name="Path 1137" d="M330.418,123.361a13.343,13.343,0,0,0,.57-6.175c1.725-.055,5.35-.375,6.86-2.055,2.32-2.58-.74-5.63-4.59-3.2-2.5,1.565-7.9,1.255-7,3C323.628,117.826,326.583,121.1,330.418,123.361Z" transform="translate(-318.965 -111.043)" fill="#263238"/>
        <path id="Path_1138" data-name="Path 1138" d="M326.8,115.881a.125.125,0,0,1-.095-.045c-.32-.395-.42-.725-.31-1,.265-.66,1.64-.84,3.225-1.04,1.5-.19,3.16-.4,3.69-1.08a.13.13,0,0,1,.175,0,.12.12,0,0,1,0,.175c-.6.755-2.25.965-3.85,1.17-1.385.18-2.815.36-3,.89-.075.19,0,.445.265.76a.125.125,0,0,1,0,.175A.15.15,0,0,1,326.8,115.881Z" transform="translate(-319.514 -111.862)" fill="#263238"/>
        <path id="Path_1139" data-name="Path 1139" d="M331.267,131.666a3.46,3.46,0,0,0,1.84,1.425c.965.29,1.3-.6.9-1.54-.355-.85-1.285-2.025-2.19-1.9S330.722,130.821,331.267,131.666Z" transform="translate(-321.82 -120.342)" fill="#b55b52"/>
        <path id="Path_1140" data-name="Path 1140" d="M342.99,128.015c.045.295.24.5.435.5s.31-.28.265-.575-.24-.5-.435-.5S342.945,127.72,342.99,128.015Z" transform="translate(-327.827 -119.241)" fill="#263238"/>
        <path id="Path_1141" data-name="Path 1141" d="M349.7,127.21c.045.295.24.5.435.5s.315-.285.265-.58-.24-.5-.43-.5S349.656,126.915,349.7,127.21Z" transform="translate(-331.183 -118.836)" fill="#263238"/>
        <path id="Path_1142" data-name="Path 1142" d="M348.68,128.34a11.23,11.23,0,0,0,1.81,2.36,1.7,1.7,0,0,1-1.38.43Z" transform="translate(-330.677 -119.691)" fill="#a02724"/>
        <path id="Path_1143" data-name="Path 1143" d="M345.473,134.9a2.56,2.56,0,0,1-1.865-.77.087.087,0,1,1,.13-.115,2.5,2.5,0,0,0,2.06.69.086.086,0,1,1,.025.17A2.878,2.878,0,0,1,345.473,134.9Z" transform="translate(-328.13 -122.512)" fill="#263238"/>
        <path id="Path_1144" data-name="Path 1144" d="M340.636,125.53a.2.2,0,0,1-.085-.025.175.175,0,0,1-.065-.24,1.68,1.68,0,0,1,1.31-.885.175.175,0,1,1,.02.35,1.33,1.33,0,0,0-1.025.71A.175.175,0,0,1,340.636,125.53Z" transform="translate(-326.568 -117.711)" fill="#263238"/>
        <path id="Path_1145" data-name="Path 1145" d="M351.29,124.05a.17.17,0,0,1-.145-.08,1.47,1.47,0,0,0-1.11-.67.175.175,0,0,1,0-.35h0a1.82,1.82,0,0,1,1.4.825.18.18,0,0,1-.05.245.175.175,0,0,1-.095.03Z" transform="translate(-331.267 -116.996)" fill="#263238"/>
        <path id="Path_1146" data-name="Path 1146" d="M321.627,160.6h0l-.035.055-.085.14-.18.315c-.125.225-.245.455-.365.695-.23.5-.455,1-.655,1.5a21.714,21.714,0,0,0-.95,3.22,24.1,24.1,0,0,0-.4,6.885,9.223,9.223,0,0,0,.2,1.44,7.806,7.806,0,0,0,.475,1.4,16.4,16.4,0,0,0,1.7,2.91,41.362,41.362,0,0,0,4.88,5.5l.07.07a1.62,1.62,0,0,1-1.865,2.6,26.281,26.281,0,0,1-3.59-2.215,27.5,27.5,0,0,1-3.255-2.76,18.749,18.749,0,0,1-2.8-3.555,12.388,12.388,0,0,1-1.075-2.225,13.41,13.41,0,0,1-.6-2.415,25.586,25.586,0,0,1-.4-4.385,24.61,24.61,0,0,1,.335-4.445,23.6,23.6,0,0,1,1.165-4.37,20.7,20.7,0,0,1,.925-2.115c.18-.35.365-.695.575-1.04.1-.175.215-.35.33-.53l.185-.27.25-.345a3.25,3.25,0,0,1,5.185,3.915Z" transform="translate(-312.674 -133.242)" fill="#263238"/>
        <path id="Path_1147" data-name="Path 1147" d="M338.486,213.83l2.065-.11-2.395,4s-3.34-.425-3-2.13l.465-.5a4.26,4.26,0,0,1,2.865-1.26Z" transform="translate(-323.903 -162.381)" fill="#b55b52"/>
        <path id="Path_1148" data-name="Path 1148" d="M345.715,215.155l-1.8,4.25-2.735-1.67,2.4-4.015Z" transform="translate(-326.927 -162.381)" fill="#b55b52"/>
      </g>
    </g>
    <g id="Group_32" data-name="Group 32" transform="translate(0 -299)">
      <circle id="Ellipse_25" data-name="Ellipse 25" cx="25" cy="25" r="25" transform="translate(93 556)" fill="#13c693"/>
      <text id="_1" data-name="1" transform="translate(113 590)" fill="#fff" font-size="25" font-family="Poppins-ExtraBold, Poppins" font-weight="800"><tspan x="0" y="0">1</tspan></text>
    </g>
  </g>
</svg>
