<svg xmlns="http://www.w3.org/2000/svg" xmlns:xlink="http://www.w3.org/1999/xlink" width="300" height="253.28" viewBox="0 0 300 253.28">
  <defs>
    <clipPath id="clip-path">
      <rect id="Rectangle_254" data-name="Rectangle 254" width="150.745" height="104.005" transform="translate(3.466) rotate(1.91)" fill="none"/>
    </clipPath>
  </defs>
  <g id="Group_40" data-name="Group 40" transform="translate(-1477 -257)">
    <g id="Creation-rafiki" transform="translate(1527 269)">
      <g id="freepik--background-complete--inject-67" transform="translate(0 55)">
        <rect id="Rectangle_211" data-name="Rectangle 211" width="250" height="0.125" transform="translate(0 163.7)" fill="#ebebeb"/>
        <path id="Path_1563" data-name="Path 1563" d="M137.6,196.4H41.06a2.855,2.855,0,0,1-2.85-2.855V57.83A2.855,2.855,0,0,1,41.06,55H137.6a2.855,2.855,0,0,1,2.855,2.855v135.69A2.855,2.855,0,0,1,137.6,196.4ZM41.06,55.1a2.73,2.73,0,0,0-2.725,2.73V193.545a2.73,2.73,0,0,0,2.725,2.73H137.6a2.735,2.735,0,0,0,2.73-2.73V57.83a2.735,2.735,0,0,0-2.73-2.73Z" transform="translate(-19.105 -55)" fill="#ebebeb"/>
        <path id="Path_1564" data-name="Path 1564" d="M353.9,196.4h-96.55a2.86,2.86,0,0,1-2.855-2.855V57.83A2.86,2.86,0,0,1,257.355,55H353.9a2.855,2.855,0,0,1,2.845,2.83V193.545A2.855,2.855,0,0,1,353.9,196.4ZM257.355,55.1a2.735,2.735,0,0,0-2.73,2.73V193.545a2.735,2.735,0,0,0,2.73,2.73H353.9a2.735,2.735,0,0,0,2.73-2.73V57.83a2.735,2.735,0,0,0-2.73-2.73Z" transform="translate(-127.25 -55)" fill="#ebebeb"/>
        <rect id="Rectangle_212" data-name="Rectangle 212" width="13" height="0.125" transform="translate(211.95 171.745)" fill="#ebebeb"/>
        <rect id="Rectangle_213" data-name="Rectangle 213" width="22.515" height="0.125" transform="translate(155.5 173.105)" fill="#ebebeb"/>
        <rect id="Rectangle_214" data-name="Rectangle 214" width="30.395" height="0.125" transform="translate(181.055 167.105)" fill="#ebebeb"/>
        <rect id="Rectangle_215" data-name="Rectangle 215" width="9.615" height="0.125" transform="translate(26.23 167.945)" fill="#ebebeb"/>
        <rect id="Rectangle_216" data-name="Rectangle 216" width="27.645" height="0.125" transform="translate(40.3 167.945)" fill="#ebebeb"/>
        <rect id="Rectangle_217" data-name="Rectangle 217" width="37.235" height="0.125" transform="translate(84.835 170.055)" fill="#ebebeb"/>
        <rect id="Rectangle_218" data-name="Rectangle 218" width="5.47" height="21.19" transform="translate(49.61 107.67)" fill="#e6e6e6"/>
        <path id="Path_1565" data-name="Path 1565" d="M140.395,287.92H100.77l-2.74-24.8h39.625Z" transform="translate(-49.015 -159.06)" fill="#f0f0f0"/>
        <path id="Path_1566" data-name="Path 1566" d="M143.725,287.92H103.5l-2.74-24.8h40.225Z" transform="translate(-50.38 -159.06)" fill="#f5f5f5"/>
        <path id="Path_1567" data-name="Path 1567" d="M106.64,287.915l-2.31-20.895h37.085l2.31,20.895Z" transform="translate(-52.165 -161.01)" fill="#fff"/>
        <path id="Path_1568" data-name="Path 1568" d="M121.253,287.915l-.09-.85c-.58-5.24,2.69-9.915,6.945-9.915h0l.09.85C128.778,283.245,125.508,287.915,121.253,287.915Z" transform="translate(-60.548 -166.075)" fill="#f5f5f5"/>
        <path id="Path_1569" data-name="Path 1569" d="M137.468,287.915l-.1-.85c-.58-5.24,2.695-9.915,6.945-9.915h0l.1.85C144.993,283.245,141.718,287.915,137.468,287.915Z" transform="translate(-68.653 -166.075)" fill="#f5f5f5"/>
        <path id="Path_1570" data-name="Path 1570" d="M153.688,287.915l-.1-.85c-.58-5.24,2.695-9.915,6.945-9.915h0l.1.85C161.213,283.245,157.938,287.915,153.688,287.915Z" transform="translate(-76.763 -166.075)" fill="#f5f5f5"/>
        <rect id="Rectangle_219" data-name="Rectangle 219" width="23.475" height="34.84" transform="translate(96.505 128.86)" fill="#e6e6e6"/>
        <path id="Path_1571" data-name="Path 1571" d="M232.76,375.68h2.36v-6.72h-4.84Z" transform="translate(-115.14 -211.98)" fill="#f0f0f0"/>
        <rect id="Rectangle_220" data-name="Rectangle 220" width="23.475" height="34.84" transform="translate(30.71 128.86)" fill="#e6e6e6"/>
        <rect id="Rectangle_221" data-name="Rectangle 221" width="67.855" height="30.72" transform="translate(52.125 128.86)" fill="#f0f0f0"/>
        <path id="Path_1572" data-name="Path 1572" d="M106.61,375.68h-2.36v-6.72h4.835Z" transform="translate(-52.125 -211.98)" fill="#f0f0f0"/>
        <rect id="Rectangle_222" data-name="Rectangle 222" width="64.19" height="12.395" transform="translate(53.955 130.78)" fill="#e6e6e6"/>
        <path id="Path_1573" data-name="Path 1573" d="M162.274,320.039h-8.565a13.536,13.536,0,0,1-9.831-4.231H172.1A13.55,13.55,0,0,1,162.274,320.039Z" transform="translate(-71.939 -185.404)" fill="#f0f0f0"/>
        <rect id="Rectangle_223" data-name="Rectangle 223" width="64.19" height="12.395" transform="translate(53.955 145.18)" fill="#e6e6e6"/>
        <path id="Path_1574" data-name="Path 1574" d="M162.274,348.829h-8.565a13.536,13.536,0,0,1-9.831-4.231H172.1A13.55,13.55,0,0,1,162.274,348.829Z" transform="translate(-71.939 -199.799)" fill="#f0f0f0"/>
        <path id="Path_1575" data-name="Path 1575" d="M356.2,283.215h29.94l1.82-20.965H358.02Z" transform="translate(-178.1 -158.625)" fill="#e6e6e6"/>
        <path id="Path_1576" data-name="Path 1576" d="M353.1,283.215h29.94l1.82-20.965H354.92Z" transform="translate(-176.55 -158.625)" fill="#f0f0f0"/>
        <path id="Path_1577" data-name="Path 1577" d="M383.865,283.215l.995-11.965H363.925l-.995,11.965Z" transform="translate(-181.465 -163.125)" fill="#fff"/>
        <rect id="Rectangle_224" data-name="Rectangle 224" width="3.515" height="39.105" transform="translate(166.135 163.7) rotate(180)" fill="#e6e6e6"/>
        <rect id="Rectangle_225" data-name="Rectangle 225" width="2.44" height="39.105" transform="translate(163.95 163.7) rotate(180)" fill="#f0f0f0"/>
        <rect id="Rectangle_226" data-name="Rectangle 226" width="34.005" height="4.315" transform="translate(161.515 124.59)" fill="#f0f0f0"/>
        <rect id="Rectangle_227" data-name="Rectangle 227" width="3.515" height="34.79" transform="translate(197.825 163.7) rotate(180)" fill="#e6e6e6"/>
        <rect id="Rectangle_228" data-name="Rectangle 228" width="2.44" height="34.79" transform="translate(195.645 163.7) rotate(180)" fill="#f0f0f0"/>
        <rect id="Rectangle_229" data-name="Rectangle 229" width="3.515" height="34.79" transform="translate(222.835 163.7) rotate(180)" fill="#e6e6e6"/>
        <rect id="Rectangle_230" data-name="Rectangle 230" width="2.44" height="34.79" transform="translate(220.655 163.7) rotate(180)" fill="#f0f0f0"/>
        <rect id="Rectangle_231" data-name="Rectangle 231" width="3.515" height="34.79" transform="translate(188.365 163.7) rotate(180)" fill="#e6e6e6"/>
        <rect id="Rectangle_232" data-name="Rectangle 232" width="2.44" height="34.79" transform="translate(186.185 163.7) rotate(180)" fill="#f0f0f0"/>
        <rect id="Rectangle_233" data-name="Rectangle 233" width="27.315" height="4.315" transform="translate(222.835 128.91) rotate(180)" fill="#e6e6e6"/>
        <path id="Path_1578" data-name="Path 1578" d="M263.65,356.13v1.485h-.95l-.785,11.65h-11.57l-.785-11.65h-.95V356.13Z" transform="translate(-124.305 -205.565)" fill="#e6e6e6"/>
        <path id="Path_1579" data-name="Path 1579" d="M233.94,284.88c-.95-6.94-10.315-8.92-22.2-9.175-11.305-.24-14.93-4.245-14.93-4.245s.035,16.2,16.33,22.07C228.615,299.1,234.9,291.83,233.94,284.88Z" transform="translate(-98.405 -163.23)" fill="#e6e6e6"/>
        <path id="Path_1580" data-name="Path 1580" d="M259.493,321.67c.2-2.855,4.755-8.1,15.715-5.715,7.93,1.72,10.875-2.385,10.875-2.385s-.735,11.6-12.655,15.08C262.108,331.965,259.143,326.69,259.493,321.67Z" transform="translate(-129.733 -184.285)" fill="#e6e6e6"/>
        <path id="Path_1581" data-name="Path 1581" d="M261.406,329.9a.44.44,0,0,0,.325-.15c.795-.94.145-3.19-.755-6.3-1.155-4-2.6-8.965-1.375-12.575a50.547,50.547,0,0,1,2.355-5.57c1.725-3.64,3.21-6.785,1.97-10.065a.425.425,0,1,0-.79.3c1.11,2.945-.235,5.8-1.94,9.4A51.39,51.39,0,0,0,258.8,310.6c-1.3,3.86.175,9,1.36,13.08.7,2.425,1.425,4.93.925,5.525a.425.425,0,0,0,.32.7Z" transform="translate(-129.146 -174.957)" fill="#e6e6e6"/>
        <rect id="Rectangle_234" data-name="Rectangle 234" width="48.54" height="87.295" transform="translate(167.84 3.025)" fill="#e6e6e6"/>
        <rect id="Rectangle_235" data-name="Rectangle 235" width="48.54" height="87.295" transform="translate(169.915 3.025)" fill="#f5f5f5"/>
        <rect id="Rectangle_236" data-name="Rectangle 236" width="80.42" height="41.1" transform="translate(214.735 6.46) rotate(90)" fill="#fff"/>
        <rect id="Rectangle_237" data-name="Rectangle 237" width="80.42" height="1.565" transform="translate(214.73 6.46) rotate(90)" fill="#e6e6e6"/>
        <rect id="Rectangle_238" data-name="Rectangle 238" width="45.46" height="12.59" transform="translate(171.45 53.215)" fill="#f5f5f5"/>
        <rect id="Rectangle_239" data-name="Rectangle 239" width="48.54" height="87.295" transform="translate(97.75 3.025)" fill="#e6e6e6"/>
        <rect id="Rectangle_240" data-name="Rectangle 240" width="48.54" height="87.295" transform="translate(99.82 3.025)" fill="#f5f5f5"/>
        <rect id="Rectangle_241" data-name="Rectangle 241" width="80.42" height="41.1" transform="translate(144.64 6.46) rotate(90)" fill="#fff"/>
        <rect id="Rectangle_242" data-name="Rectangle 242" width="80.42" height="1.565" transform="translate(144.635 6.46) rotate(90)" fill="#e6e6e6"/>
        <rect id="Rectangle_243" data-name="Rectangle 243" width="45.46" height="12.59" transform="translate(101.36 53.215)" fill="#f5f5f5"/>
        <rect id="Rectangle_244" data-name="Rectangle 244" width="48.54" height="87.295" transform="translate(27.66 3.025)" fill="#e6e6e6"/>
        <rect id="Rectangle_245" data-name="Rectangle 245" width="48.54" height="87.295" transform="translate(29.73 3.025)" fill="#f5f5f5"/>
        <rect id="Rectangle_246" data-name="Rectangle 246" width="80.42" height="41.1" transform="translate(74.55 6.46) rotate(90)" fill="#fff"/>
        <rect id="Rectangle_247" data-name="Rectangle 247" width="80.42" height="1.565" transform="translate(74.545 6.46) rotate(90)" fill="#e6e6e6"/>
        <rect id="Rectangle_248" data-name="Rectangle 248" width="45.46" height="12.59" transform="translate(31.27 53.215)" fill="#f5f5f5"/>
      </g>
      <g id="freepik--Shadow--inject-67" transform="translate(28.055 229.96)">
        <ellipse id="freepik--path--inject-67" cx="96.945" cy="5.66" rx="96.945" ry="5.66" fill="#f5f5f5"/>
      </g>
      <g id="freepik--Painting--inject-67" transform="translate(43.12 59.778)">
        <rect id="Rectangle_249" data-name="Rectangle 249" width="157.555" height="112.445" transform="translate(5.249 5.062) rotate(1.77)" fill="#13c693"/>
        <rect id="Rectangle_250" data-name="Rectangle 250" width="157.555" height="112.445" transform="translate(3.473 3.178) rotate(1.77)" fill="#13c693"/>
        <rect id="Rectangle_251" data-name="Rectangle 251" width="157.555" height="112.445" transform="translate(3.473 3.178) rotate(1.77)" fill="#fff" opacity="0.8"/>
        <rect id="Rectangle_252" data-name="Rectangle 252" width="150.745" height="104.005" transform="translate(8.512 7.468) rotate(2.56)" fill="#13c693" opacity="0.2"/>
        <path id="Path_1582" data-name="Path 1582" d="M350.483,87.018a4.365,4.365,0,0,1-2.95-7.575l15-13.74a4.362,4.362,0,0,1,5.9,6.43l-15,13.74A4.345,4.345,0,0,1,350.483,87.018Zm15-21.955a3.82,3.82,0,0,0-2.6,1l-15,13.74a3.875,3.875,0,0,0-.24,5.455h0a3.865,3.865,0,0,0,5.455.235l14.965-13.715a3.855,3.855,0,0,0-2.44-6.7Z" transform="translate(-216.183 -64.557)" fill="#13c693"/>
        <rect id="Rectangle_253" data-name="Rectangle 253" width="150.745" height="104.005" transform="translate(6.363 7.523) rotate(1.91)" fill="#fff"/>
        <path id="Path_1583" data-name="Path 1583" d="M364.812,133.646h-.06a5.53,5.53,0,0,0-10.105-2.38,4.16,4.16,0,0,0-1.255-.225,4.305,4.305,0,0,0-4.15,5.85l18.585.57a2.749,2.749,0,0,0,.065-.54,3.18,3.18,0,0,0-3.08-3.275Z" transform="translate(-217.598 -96.669)" fill="#13c693" opacity="0.3"/>
        <path id="Path_1584" data-name="Path 1584" d="M299.812,108.975a7.285,7.285,0,0,0-7.62-5.375,8.455,8.455,0,0,0-13.155,1.22,6.585,6.585,0,0,0-8.71,6.035,6.4,6.4,0,0,0,.18,1.73l32.21,1a4.85,4.85,0,0,0-2.9-4.61Z" transform="translate(-178.282 -82.783)" fill="#13c693" opacity="0.3"/>
        <g id="Group_15" data-name="Group 15" transform="translate(2.897 7.523)" clip-path="url(#clip-path)">
          <path id="Path_1585" data-name="Path 1585" d="M224.762,155.343c-22.63-.53-5.58-20.675-28.85-32.24-12.95-6.435-2.915-24.955-14.24-35.565s-47.4-13.08-42.635-39.4c4.605-25.52-83.895-16.765-96.08,17.205-12.5,34.955,21.65,66.67,44.45,65.295,42.425-2.55,25.735,25.185,56.795,24.55,55.09-1.13,44.81,23.895,62.46,22.94,10.615,7.165,13,2.085,19.27-6.725S224.762,155.343,224.762,155.343Z" transform="translate(-66.16 -56.495)" fill="#13c693"/>
          <path id="Path_1586" data-name="Path 1586" d="M118.058,226.51c-12.85-.4-24.11-13.75-23.67-28.035,3-7.5,14.25-6.2,32.53-11.73,12.245-3.705,26.375-6.115,32.92-6.215h.35c4.125.13,7.81,3.325,10.38,9,1.175,2.6,3.575,9.055.435,12.855-3.295,4-15.5,15.305-33.715,26.055-4.285,2.525-15.5-1.825-19.235-1.94Z" transform="translate(-93.205 -130.066)" fill="#fff"/>
          <path id="Path_1587" data-name="Path 1587" d="M196.367,187.177c-10.66-.32-37.79,5.355-36.6,16.5.715,6.715,5.7,18.95,15.575,13.9,17.5-8.97,24.28-13.205,27.2-16.74C204.367,198.657,199.947,187.282,196.367,187.177Z" transform="translate(-125.884 -133.384)" fill="#13c693"/>
          <path id="Path_1588" data-name="Path 1588" d="M233.5,227.048c4.1-2.07,5.6-4.94,4.575-5.265C236.82,221.383,231.335,228.138,233.5,227.048Z" transform="translate(-162.517 -150.684)" fill="#13c693"/>
          <path id="Path_1589" data-name="Path 1589" d="M221.625,232.982c-9.5,8.23-21.95,12.69-24.24,16.33s3.755,3.945,10.15-.5c4.275-2.965,12.715-10.77,15.41-14.5C223.65,233.342,222.275,232.4,221.625,232.982Z" transform="translate(-144.462 -156.203)" fill="#fff"/>
        </g>
        <path id="Path_1590" data-name="Path 1590" d="M352.479,87.02a2.36,2.36,0,0,1-1.595-4.1l15-13.74a2.369,2.369,0,0,1,3.2,3.5l-15,13.735a2.36,2.36,0,0,1-1.6.6Zm15-17.96a1.855,1.855,0,0,0-1.255.5l-15,13.72a1.86,1.86,0,1,0,2.5,2.745l15-13.74a1.86,1.86,0,0,0-1.26-3.235Z" transform="translate(-218.18 -66.559)" fill="#13c693"/>
        <path id="Path_1591" data-name="Path 1591" d="M260.4,127.86c-3,.4-3.425.775-4,3.765-.4-3-.775-3.425-3.765-4,3-.395,3.425-.78,4-3.765C257.025,126.87,257.41,127.28,260.4,127.86Z" transform="translate(-169.435 -94.208)" fill="#fff"/>
        <path id="Path_1592" data-name="Path 1592" d="M142.2,97.365c-1.93.255-2.19.5-2.565,2.41-.25-1.93-.5-2.19-2.41-2.565,1.935-.25,2.2-.5,2.565-2.41C140.05,96.735,140.295,97,142.2,97.365Z" transform="translate(-111.735 -79.678)" fill="#fff"/>
        <path id="Path_1593" data-name="Path 1593" d="M274.35,200.18c-1.93.255-2.19.5-2.56,2.41-.255-1.93-.5-2.19-2.41-2.56,1.93-.255,2.19-.5,2.56-2.41C272.19,199.55,272.44,199.81,274.35,200.18Z" transform="translate(-177.81 -131.088)" fill="#fff"/>
        <path id="Path_1594" data-name="Path 1594" d="M317.67,203.25c-.94.125-1.07.245-1.25,1.18-.125-.945-.245-1.07-1.18-1.255.945-.12,1.075-.24,1.255-1.175C316.62,202.945,316.735,203.07,317.67,203.25Z" transform="translate(-200.74 -133.278)" fill="#fff"/>
        <path id="Path_1595" data-name="Path 1595" d="M259.09,251.365c-.945.12-1.07.24-1.255,1.175-.12-.945-.24-1.07-1.175-1.25.945-.125,1.07-.245,1.25-1.18C258.035,251.055,258.155,251.18,259.09,251.365Z" transform="translate(-171.45 -157.333)" fill="#fff"/>
        <path id="Path_1596" data-name="Path 1596" d="M128.26,148.855c-.94.125-1.07.245-1.25,1.18-.125-.945-.245-1.075-1.18-1.255.945-.125,1.075-.245,1.255-1.18C127.21,148.545,127.325,148.675,128.26,148.855Z" transform="translate(-106.035 -106.078)" fill="#fff"/>
        <path id="Path_1597" data-name="Path 1597" d="M256.825,167.115c-.945.12-1.075.24-1.255,1.175-.125-.94-.245-1.07-1.18-1.25.945-.125,1.075-.245,1.255-1.18C255.77,166.8,255.89,166.93,256.825,167.115Z" transform="translate(-170.315 -115.208)" fill="#fff"/>
        <path id="Path_1598" data-name="Path 1598" d="M162.15,128.825c-1.635.21-1.855.42-2.17,2.04-.215-1.635-.42-1.86-2.04-2.17,1.635-.215,1.855-.425,2.17-2.045C160.325,128.275,160.53,128.5,162.15,128.825Z" transform="translate(-122.09 -95.603)" fill="#fff"/>
        <path id="Path_1599" data-name="Path 1599" d="M295.875,166.48c-1.635.215-1.855.42-2.17,2.04-.215-1.635-.425-1.855-2.045-2.17,1.64-.215,1.86-.42,2.175-2.04C294.045,165.945,294.255,166.155,295.875,166.48Z" transform="translate(-188.95 -114.433)" fill="#fff"/>
        <path id="Path_1600" data-name="Path 1600" d="M208.475,104.9s.555,9.825-1.525,26.8c-8.54-1.085-26-2.37-26-2.37l1.425-6.795Z" transform="translate(-133.595 -84.728)" opacity="0.2"/>
        <path id="Path_1601" data-name="Path 1601" d="M205.435,127.115,180,124.45a220.279,220.279,0,0,0,2.83-27l25.445,2.665a158.055,158.055,0,0,1-2.84,27Z" transform="translate(-133.12 -81.003)" fill="#fff"/>
        <g id="Group_16" data-name="Group 16" transform="translate(53.169 23.807)" opacity="0.5">
          <path id="Path_1602" data-name="Path 1602" d="M200.064,128.231a11.393,11.393,0,0,1-1.89-.16,6.77,6.77,0,0,1-4.67-2.935c-1.275-2.05-1.05-4.83-.415-6.755a8.185,8.185,0,0,1,3.92-4.745,10.205,10.205,0,0,1,7.09-1.3.415.415,0,0,1,.32.5.41.41,0,0,1-.5.315,9.4,9.4,0,0,0-6.5,1.21,7.42,7.42,0,0,0-3.545,4.285c-.575,1.75-.79,4.26.33,6.065a6.035,6.035,0,0,0,4.115,2.56,9.91,9.91,0,0,0,6.765-1.2,7.33,7.33,0,0,0,3.19-5.45,6.17,6.17,0,0,0-1.715-5.16,5.115,5.115,0,0,0-5.86-.83.41.41,0,0,1-.56-.15.415.415,0,0,1,.15-.565,5.96,5.96,0,0,1,6.835.95,6.97,6.97,0,0,1,1.97,5.835,8.165,8.165,0,0,1-3.575,6.065,10.39,10.39,0,0,1-5.455,1.465Z" transform="translate(-192.579 -112.172)" fill="#13c693"/>
          <path id="Path_1603" data-name="Path 1603" d="M203.985,139.752a.41.41,0,0,1-.185-.78l.4-.2c-1,.28-2.05.53-3.085.735a.412.412,0,1,1-.155-.81,65.286,65.286,0,0,0,7.73-2.175.41.41,0,0,1,.5.235.405.405,0,0,1-.04.385l.835-.315a.41.41,0,1,1,.3.765c-2.03.78-4.115,1.5-6.185,2.14A.386.386,0,0,1,203.985,139.752Z" transform="translate(-196.605 -124.337)" fill="#13c693"/>
          <path id="Path_1604" data-name="Path 1604" d="M198.266,135.418a.41.41,0,0,1-.14-.8l11.795-4.185a.42.42,0,0,1,.5.23.415.415,0,0,1-.2.53c-1.185.57-2.4,1.155-3.655,1.62-.44.165-.88.31-1.325.46h0a33.635,33.635,0,0,0,4.715-1.57.41.41,0,1,1,.315.755,33.82,33.82,0,0,1-8.6,2.34.4.4,0,0,1-.44-.265.335.335,0,0,1-.03-.14l-2.825,1A.325.325,0,0,1,198.266,135.418Z" transform="translate(-195.21 -121.294)" fill="#13c693"/>
          <path id="Path_1605" data-name="Path 1605" d="M194.835,132.364a.41.41,0,0,1-.41-.37.415.415,0,0,1,.37-.45,15.845,15.845,0,0,0,3.81-1c1.31-.475,2.635-.95,3.965-1.445l-8.43,2.135a.41.41,0,1,1-.2-.795l14.575-3.695a.41.41,0,0,1,.265.775c-3.25,1.4-6.63,2.62-9.9,3.795a16.105,16.105,0,0,1-4,1.07Z" transform="translate(-193.1 -119.45)" fill="#13c693"/>
          <path id="Path_1606" data-name="Path 1606" d="M193.732,128.084a.411.411,0,1,1-.055-.82,14.17,14.17,0,0,0,3.71-1.27l.465-.21a55.5,55.5,0,0,1,9.6-3.25.405.405,0,0,1,.5.275.41.41,0,0,1-.24.5l-2.5,1q1.5-.5,3-1.035a.41.41,0,0,1,.53.24.415.415,0,0,1-.24.53,56.06,56.06,0,0,1-8.29,2.43.415.415,0,0,1-.5-.275.4.4,0,0,1,.045-.345c-.535.215-1.065.44-1.585.675l-.46.205a14.745,14.745,0,0,1-3.935,1.335Z" transform="translate(-192.936 -117.345)" fill="#13c693"/>
          <path id="Path_1607" data-name="Path 1607" d="M193.866,124.575a.41.41,0,0,1-.4-.32.4.4,0,0,1,.295-.5,12.5,12.5,0,0,0,2.205-.89l.245-.115a58.614,58.614,0,0,1,9.86-3.645.405.405,0,0,1,.5.29.41.41,0,0,1-.285.5,57.19,57.19,0,0,0-6.23,2.07l1.22-.4c2-.65,4.03-1.32,6.1-1.845a.41.41,0,1,1,.2.795c-2.035.5-4.07,1.19-6.04,1.835a78.724,78.724,0,0,1-7.58,2.2Z" transform="translate(-193.015 -115.631)" fill="#13c693"/>
          <path id="Path_1608" data-name="Path 1608" d="M197.546,120.2a.415.415,0,0,1-.395-.29.41.41,0,0,1,.215-.5q2.14-1.03,4.33-2l-.185.04a36.448,36.448,0,0,1-4.18,1.37.415.415,0,0,1-.5-.255.42.42,0,0,1,.21-.5,19.381,19.381,0,0,1,3.95-1.33.41.41,0,0,1,.25-.69l2.1-.26a.415.415,0,0,1,.445.295.42.42,0,0,1,0,.175l.85-.09a.42.42,0,0,1,.44.31.415.415,0,0,1-.24.5c-1.1.46-2.2.94-3.3,1.43l1.13-.365a34.5,34.5,0,0,1,5-1.355.415.415,0,0,1,.135.815,33.4,33.4,0,0,0-4.86,1.32,32.5,32.5,0,0,1-5.35,1.41Z" transform="translate(-194.695 -113.978)" fill="#13c693"/>
        </g>
        <path id="Path_1609" data-name="Path 1609" d="M191.264,128.426a1.45,1.45,0,0,1-1.12-.39,1.51,1.51,0,0,1,.17-1.935.37.37,0,0,1,.5-.06.365.365,0,0,1,.055.5c-.245.31-.39.795-.205,1,.08.085.365.265,1.305.08a20.08,20.08,0,0,0,4.59-1.57c4.55-2.125,8.585-5.425,10.54-8.615a4.075,4.075,0,0,0,.74-2.11.345.345,0,0,0-.025-.13.345.345,0,0,1-.275-.415.36.36,0,0,1,.435-.28.765.765,0,0,1,.59.815,4.725,4.725,0,0,1-.845,2.5c-2,3.305-6.185,6.71-10.855,8.89a20.865,20.865,0,0,1-4.755,1.625A4.331,4.331,0,0,1,191.264,128.426Z" transform="translate(-138.05 -89.524)" fill="#13c693"/>
      </g>
      <g id="freepik--character-2--inject-67" transform="translate(146.325 103.301)">
        <path id="Path_1610" data-name="Path 1610" d="M326.555,393.29l6.86,1.525-2.62,7.41-5.735-1.27Z" transform="translate(-308.855 -272.446)" fill="#ffc3bd"/>
        <path id="Path_1611" data-name="Path 1611" d="M327.22,393.29l6.86,1.53-1.47,4.145-6.23-1.38Z" transform="translate(-309.515 -272.446)" opacity="0.2"/>
        <path id="Path_1612" data-name="Path 1612" d="M343.075,306.12c2.885-9.9,10.075-20.23,6.1-29.66l-19.825-.06s-1.6,21.545-2.09,30.7c-.5,9.5-1.555,30.585-1.555,30.585l7.825,1.7S341.11,323.635,343.075,306.12Z" transform="translate(-309.18 -214.001)" fill="#13c693"/>
        <path id="Path_1613" data-name="Path 1613" d="M343.075,306.12c2.885-9.9,10.075-20.23,6.1-29.66l-19.825-.06s-1.6,21.545-2.09,30.7c-.5,9.5-1.555,30.585-1.555,30.585l7.825,1.7S341.11,323.635,343.075,306.12Z" transform="translate(-309.18 -214.001)" opacity="0.2"/>
        <path id="Path_1614" data-name="Path 1614" d="M367.31,294.607c-.97,5.265-3.62,10.655-5.62,15.975C359.315,300.512,359.61,288.7,367.31,294.607Z" transform="translate(-326.515 -222.313)" opacity="0.2"/>
        <path id="Path_1615" data-name="Path 1615" d="M314.552,406.728a4.675,4.675,0,0,0,4.06-.475,1,1,0,0,1,.86,0c1.145.5,4.215,1.645,6.2,1.4a.265.265,0,0,1,.3.325,19.105,19.105,0,0,0-.575,3.2l-1.815-.385-.235-.645-.96.395a44,44,0,0,1-8.8-2.3A1.327,1.327,0,0,1,314.552,406.728Z" transform="translate(-303.103 -278.879)" fill="#263238"/>
        <path id="Path_1616" data-name="Path 1616" d="M386.15,395.9l6.54.065.29,7.71-5.465-.04Z" transform="translate(-339.4 -273.751)" fill="#ffc3bd"/>
        <path id="Path_1617" data-name="Path 1617" d="M386.16,395.91l6.54.06.16,4.32-5.94-.05Z" transform="translate(-339.405 -273.756)" opacity="0.2"/>
        <path id="Path_1618" data-name="Path 1618" d="M377.12,306.445c.525-9.9,2.065-25.035-1.25-29.585l-20.37-.46s4.84,22,6.955,31.135c2.2,9.5,8.41,31.62,8.41,31.62h7.07S379.775,317.74,377.12,306.445Z" transform="translate(-324.075 -214.001)" fill="#13c693"/>
        <path id="Path_1619" data-name="Path 1619" d="M377.12,306.445c.525-9.9,2.065-25.035-1.25-29.585l-20.37-.46s4.84,22,6.955,31.135c2.2,9.5,8.41,31.62,8.41,31.62h7.07S379.775,317.74,377.12,306.445Z" transform="translate(-324.075 -214.001)" opacity="0.2"/>
        <path id="Path_1620" data-name="Path 1620" d="M328.773,211.484l-.23.675-.215.59c-.145.385-.3.76-.46,1.13-.31.75-.67,1.5-1.04,2.2a30.284,30.284,0,0,1-2.615,4.2c-.5.675-1.04,1.345-1.63,2a23.638,23.638,0,0,1-1.93,1.87,17.845,17.845,0,0,1-2.28,1.67,16.2,16.2,0,0,1-2.7,1.31l-.39.145a2.885,2.885,0,0,1-1.1.185,17.374,17.374,0,0,1-3.715-.5,19.079,19.079,0,0,1-3.375-1.175,20.06,20.06,0,0,1-3-1.71c-.47-.32-.92-.67-1.36-1.03-.22-.185-.435-.375-.65-.57l-.665-.655a2.32,2.32,0,0,1,1.82-4l.855.08a4.334,4.334,0,0,1,.6.135l.65.16c.43.11.87.2,1.3.29.87.175,1.72.32,2.555.41a20.386,20.386,0,0,0,2.425.135,15.707,15.707,0,0,0,2.225-.185l-1.5.325a9.4,9.4,0,0,0,2.12-1.72,19.271,19.271,0,0,0,2-2.61,34.8,34.8,0,0,0,1.775-3.135c.275-.55.53-1.115.79-1.67l.365-.84.31-.74.135-.34a4.765,4.765,0,0,1,8.9,3.37Z" transform="translate(-296.673 -178.41)" fill="#ffc3bd"/>
        <path id="Path_1621" data-name="Path 1621" d="M300.6,234.17l.95-2.59c-.03-2.89-3.72-2.21-3.72-2.21l-2.77-.615a1.46,1.46,0,0,0-1.595,1l-.675,1.8a1.525,1.525,0,0,0,.73,2l2.445.835a3.085,3.085,0,0,0,1.46.175Z" transform="translate(-292.651 -190.172)" fill="#ffc3bd"/>
        <path id="Path_1622" data-name="Path 1622" d="M342.49,196.355c-4.085,1.7-7.68,9.11-7.68,9.11.19,1.79,4.3,6.78,7.935,8.065a9.991,9.991,0,0,0,4.605-5.04C349.645,203.5,346.82,194.56,342.49,196.355Z" transform="translate(-313.73 -173.862)" fill="#263238"/>
        <path id="Path_1623" data-name="Path 1623" d="M342.711,195.179a82.284,82.284,0,0,1,18.17.285,6.13,6.13,0,0,1,5.1,7.3c-2.825,14.23.14,30.19-1.69,33.37,0,0-21,.275-32.755-.535-3.22-15.445,3.11-24.9,6.29-36.96C338.376,196.584,340.591,195.4,342.711,195.179Z" transform="translate(-311.652 -173.206)" fill="#263238"/>
        <path id="Path_1624" data-name="Path 1624" d="M400.585,272.01l-4.41,7.445-3.925.47,6.85-11.585Z" transform="translate(-342.45 -209.971)" fill="#13c693"/>
        <path id="Path_1625" data-name="Path 1625" d="M400.585,272.01l-4.41,7.445-3.925.47,6.85-11.585Z" transform="translate(-342.45 -209.971)" fill="#fff" opacity="0.5"/>
        <path id="Path_1626" data-name="Path 1626" d="M325.889,206.987a18.91,18.91,0,0,1,8.89,12.635,12.415,12.415,0,0,0,5.77,8.425l1.24.73-8.41,14.21-1.24-.73a12.415,12.415,0,0,0-10.15-1,18.92,18.92,0,1,1,3.895-34.265Z" transform="translate(-294.965 -177.964)" fill="#13c693"/>
        <path id="Path_1627" data-name="Path 1627" d="M325.889,206.987a18.91,18.91,0,0,1,8.89,12.635,12.415,12.415,0,0,0,5.77,8.425l1.24.73-8.41,14.21-1.24-.73a12.415,12.415,0,0,0-10.15-1,18.92,18.92,0,1,1,3.895-34.265Z" transform="translate(-294.965 -177.964)" fill="#fff" opacity="0.5"/>
        <circle id="Ellipse_21" data-name="Ellipse 21" cx="12.015" cy="12.015" r="12.015" transform="translate(10.93 50.584) rotate(-49.51)" fill="#fff" opacity="0.4"/>
        <path id="Path_1628" data-name="Path 1628" d="M360.13,265.954l-14.87-5.14a.465.465,0,0,1-.285-.59h0a.46.46,0,0,1,.59-.29l14.87,5.14Z" transform="translate(-318.8 -205.755)" fill="#13c693"/>
        <path id="Path_1629" data-name="Path 1629" d="M368.349,252.142l-.625.69-11.66-10.555a.465.465,0,0,1-.035-.66h0a.46.46,0,0,1,.655-.03Z" transform="translate(-324.28 -196.534)" fill="#13c693"/>
        <path id="Path_1630" data-name="Path 1630" d="M357.025,249.9l-3.86-.115,1.955,3.335-5.26.965-.17-.92,3.955-.72L351.51,248.8l4.21.12-1.265-3.81.88-.295Z" transform="translate(-321.17 -198.211)" fill="#13c693"/>
        <path id="Path_1631" data-name="Path 1631" d="M381.1,253a2.1,2.1,0,0,1,.74,2.87l-1.085,1.84a1.775,1.775,0,0,1-.19.44l-6.255,10.615a2.1,2.1,0,1,1-3.635-2.09v-.04l1.085-1.835a1.751,1.751,0,0,1,.17-.4v-.045l6.26-10.615a2.09,2.09,0,0,1,2.91-.74Z" transform="translate(-331.521 -202.145)" fill="#13c693"/>
        <path id="Path_1632" data-name="Path 1632" d="M387.978,258.343a2,2,0,0,1,.81,2.74l-1,1.705a1.47,1.47,0,0,1-.175.41l-5.835,9.865a2.1,2.1,0,0,1-3.635-2.085v-.04l1-1.7a2.045,2.045,0,0,1,.155-.375v-.04l5.835-9.86a2.035,2.035,0,0,1,2.845-.615Z" transform="translate(-335.303 -204.804)" fill="#13c693"/>
        <path id="Path_1633" data-name="Path 1633" d="M394.781,263.706a1.95,1.95,0,0,1,.885,2.6l-.94,1.58a1.385,1.385,0,0,1-.155.38l-5.39,9.11a2,2,0,0,1-2.735.5,1.965,1.965,0,0,1-.9-2.575v-.035l.94-1.575a1.285,1.285,0,0,1,.14-.345v-.035l5.425-9.135A2,2,0,0,1,394.781,263.706Z" transform="translate(-339.006 -207.482)" fill="#13c693"/>
        <path id="Path_1634" data-name="Path 1634" d="M393.295,280.81l-.985-.575,7.185-12.195.98.575Z" transform="translate(-342.48 -209.821)" fill="#13c693"/>
        <rect id="Rectangle_255" data-name="Rectangle 255" width="16.52" height="1.14" transform="translate(37.931 64.747) rotate(-59.73)" fill="#13c693"/>
        <g id="Group_17" data-name="Group 17" transform="translate(4.659 37.302)" opacity="0.4">
          <path id="Path_1635" data-name="Path 1635" d="M307.19,246.928a6.74,6.74,0,0,0,2.41,1.665h.03a1.235,1.235,0,0,0,1.28-2,13.035,13.035,0,0,1-2.645-10.99c.68-2.92,2.375-6.05-.255-8.6a3.3,3.3,0,0,0-1.755-.785h-.04C300.77,225.743,300.015,240.1,307.19,246.928Z" transform="translate(-301.969 -226.207)" fill="#fff"/>
        </g>
        <path id="Path_1636" data-name="Path 1636" d="M313.322,218.74a2.87,2.87,0,0,0,2.84.76,3.7,3.7,0,0,0,1.785-1.625,2.969,2.969,0,0,0,.56-2.4,2.639,2.639,0,0,0-2.46-1.545C312.872,213.69,310.657,216.165,313.322,218.74Z" transform="translate(-302.392 -182.756)" fill="#fff" opacity="0.4"/>
        <path id="Path_1637" data-name="Path 1637" d="M394.932,206.74c.815,1.23,1.5,2.42,2.215,3.665s1.365,2.5,2,3.8,1.23,2.63,1.78,4.075c.27.73.55,1.47.78,2.32.115.43.23.875.33,1.4l.07.4c.025.14.045.315.06.47a8.4,8.4,0,0,1,.055,1.13v.17a2.46,2.46,0,0,1,0,.27,14.151,14.151,0,0,1-1.73,4.74,25.375,25.375,0,0,1-2.4,3.5,34.5,34.5,0,0,1-2.7,2.935,30.348,30.348,0,0,1-3,2.58,2.41,2.41,0,0,1-3.565-3.06l.06-.11,1.655-3.12c.545-1.04,1.065-2.07,1.53-3.1.23-.5.46-1,.66-1.5s.365-1,.5-1.45a6.875,6.875,0,0,0,.42-2.28v.44c-.03.055,0,.165-.035.11a.19.19,0,0,1-.025-.04l-.04-.1c-.05-.135-.14-.345-.235-.565-.205-.45-.44-1-.705-1.5s-.565-1.08-.87-1.635-.61-1.115-.93-1.68l-1.965-3.4c-.66-1.13-1.35-2.3-1.97-3.4l-.03-.055a4.774,4.774,0,1,1,8.135-5Z" transform="translate(-339.393 -178.041)" fill="#ffc3bd"/>
        <path id="Path_1638" data-name="Path 1638" d="M389.893,197.76c4.035,1.815,7.41,9.155,7.41,9.155-.395,2.55-6.115,8.025-9.1,9.05,0,0-2.5-2.19-3.66-7.31C383.208,202.77,387.7,198.235,389.893,197.76Z" transform="translate(-338.474 -174.681)" fill="#263238"/>
        <path id="Path_1639" data-name="Path 1639" d="M359.994,190.665a3.885,3.885,0,0,1,1.835-1.735,3.55,3.55,0,0,0,.06-2.39l8.955-2.85c-.725,2.96-1.29,5.3-.19,6.735-1.76,1.075-5,3-8.5,2.9S359.419,191.91,359.994,190.665Z" transform="translate(-326.074 -167.646)" fill="#ffc3bd"/>
        <path id="Path_1640" data-name="Path 1640" d="M364.405,189.605l6.72-.4c-2.1,2.245-5.285,3.09-6.735,2.175a3.56,3.56,0,0,0,.015-1.78Z" transform="translate(-328.52 -170.406)" opacity="0.2"/>
        <path id="Path_1641" data-name="Path 1641" d="M364.39,201.79l1.45-1.21,1.955,1A3.212,3.212,0,0,1,364.39,201.79Z" transform="translate(-328.52 -176.091)" fill="#263238"/>
        <path id="Path_1642" data-name="Path 1642" d="M364.39,201.79l1.45-1.21,1.955,1A3.212,3.212,0,0,1,364.39,201.79Z" transform="translate(-328.52 -176.091)" opacity="0.3"/>
        <path id="Path_1643" data-name="Path 1643" d="M362.554,161.624c-2.45,1.325-1.62,5.465,1.24,5S365,160.294,362.554,161.624Z" transform="translate(-326.88 -156.516)" fill="#263238"/>
        <path id="Path_1644" data-name="Path 1644" d="M372.517,167.62c-.76,3.925-1.365,6.58-4.045,8.035-5.315,2.89-8,.5-8.5-3.56-.465-3.635.86-9.445,5.22-10.62S373.277,163.7,372.517,167.62Z" transform="translate(-326.267 -156.421)" fill="#ffc3bd"/>
        <path id="Path_1645" data-name="Path 1645" d="M372.84,166.081a3.3,3.3,0,0,1-.425.055,1.555,1.555,0,0,1-1.29-2.55c.465-.55.83-1.2.605-1.755-1.21-.24-2.25-1.37-1.665-3.585-2.7.195-7.4-.06-8.035-3.32-.55-2.82,3.595-4.165,6.555-2.765,2,.96,3.44,2.335,3.5,3.11,1.34-.33,3.62,1.245,2.895,3.86C377.49,160.331,376.815,164.8,372.84,166.081Z" transform="translate(-327.316 -151.603)" fill="#263238"/>
        <path id="Path_1646" data-name="Path 1646" d="M372.57,173.973a2,2,0,0,1,1.5.085A3.88,3.88,0,0,1,372.57,173.973Z" transform="translate(-332.61 -162.734)" opacity="0.2"/>
        <path id="Path_1647" data-name="Path 1647" d="M372.58,174.788a1.635,1.635,0,0,1,1.3.42A3.225,3.225,0,0,1,372.58,174.788Z" transform="translate(-332.615 -163.189)" opacity="0.2"/>
        <path id="Path_1648" data-name="Path 1648" d="M365.21,166.427a18.149,18.149,0,0,1,3.785.08C366.885,166.537,365.21,166.427,365.21,166.427Z" transform="translate(-328.93 -158.983)" opacity="0.2"/>
        <path id="Path_1649" data-name="Path 1649" d="M364.11,167.27a18.308,18.308,0,0,1,4.27.6A34.882,34.882,0,0,1,364.11,167.27Z" transform="translate(-328.38 -159.436)" opacity="0.2"/>
        <path id="Path_1650" data-name="Path 1650" d="M383.257,179.844a4.065,4.065,0,0,1-2.72,1.5c-1.425.15-1.74-1-1.27-2.275.425-1.14,1.85-2.625,3.185-2.21A1.847,1.847,0,0,1,383.257,179.844Z" transform="translate(-335.857 -164.195)" fill="#ffc3bd"/>
        <path id="Path_1651" data-name="Path 1651" d="M369.25,173.513c-.04.35-.255.61-.5.58s-.38-.325-.345-.675.25-.605.5-.58S369.285,173.168,369.25,173.513Z" transform="translate(-330.525 -162.22)" fill="#263238"/>
        <path id="Path_1652" data-name="Path 1652" d="M362.053,172.933c-.035.35-.25.61-.5.58s-.38-.325-.34-.675.25-.6.475-.58S362.1,172.588,362.053,172.933Z" transform="translate(-326.928 -161.93)" fill="#263238"/>
        <path id="Path_1653" data-name="Path 1653" d="M363.51,174.33l-.41,2.9a3.23,3.23,0,0,1-1.025-.11.38.38,0,0,1-.115-.665,6.765,6.765,0,0,0,1.55-2.13Z" transform="translate(-327.23 -162.966)" fill="#ed847e"/>
        <path id="Path_1654" data-name="Path 1654" d="M372.145,171.09a.18.18,0,0,0,.1-.03.2.2,0,0,0,.055-.285,2.065,2.065,0,0,0-1.615-.965.205.205,0,0,0-.2.2.22.22,0,0,0,.21.21h0a1.635,1.635,0,0,1,1.27.775.2.2,0,0,0,.185.09Z" transform="translate(-331.565 -160.706)" fill="#263238"/>
        <path id="Path_1655" data-name="Path 1655" d="M360.072,170.444a.19.19,0,0,0,.18-.075,1.61,1.61,0,0,1,1.33-.64.2.2,0,0,0,.22-.185.21.21,0,0,0-.185-.225,2.035,2.035,0,0,0-1.69.8.21.21,0,0,0,.035.29A.185.185,0,0,0,360.072,170.444Z" transform="translate(-326.268 -160.46)" fill="#263238"/>
        <path id="Path_1656" data-name="Path 1656" d="M374.115,193.33s-3.065,3.42-6.825,3.6a11.38,11.38,0,0,1,3.77,3.265,7.211,7.211,0,0,0,4.875-5.97A3.4,3.4,0,0,0,374.115,193.33Z" transform="translate(-329.97 -172.466)" fill="#fff"/>
        <path id="Path_1657" data-name="Path 1657" d="M360.645,201.525,359,200.05l-2.1.625A3.423,3.423,0,0,0,360.645,201.525Z" transform="translate(-324.775 -175.826)" fill="#263238"/>
        <path id="Path_1658" data-name="Path 1658" d="M360.645,201.525,359,200.05l-2.1.625A3.423,3.423,0,0,0,360.645,201.525Z" transform="translate(-324.775 -175.826)" opacity="0.3"/>
        <path id="Path_1659" data-name="Path 1659" d="M359.28,194.152a6.793,6.793,0,0,0-1.535,2.915,9.674,9.674,0,0,0-3.345,2.88,8.634,8.634,0,0,1,3.18-5.475A2.97,2.97,0,0,1,359.28,194.152Z" transform="translate(-323.525 -172.869)" fill="#fff"/>
        <path id="Path_1660" data-name="Path 1660" d="M390.514,412.635h-1.42l-.385-.575-.75.58h-8.58a3.865,3.865,0,0,1,.37-1.965s2.565-.23,3.55-1.5a.315.315,0,0,1,.315-.13c.855.18,4.25.82,6.12.15a.31.31,0,0,1,.42.28A20.427,20.427,0,0,0,390.514,412.635Z" transform="translate(-336.009 -280.321)" fill="#263238"/>
        <path id="Path_1661" data-name="Path 1661" d="M363,182.44a25.651,25.651,0,0,1,4.535-.315c-.33.71-1.19,1.245-2.905,1.295A1.5,1.5,0,0,1,363,182.44Z" transform="translate(-327.825 -166.861)" fill="#fff"/>
        <path id="Path_1662" data-name="Path 1662" d="M388.531,264.48l2.5,1.19c2,2.1-1.145,4.2-1.145,4.2l-1.1,1.62a1.46,1.46,0,0,1-1.85.385l-1.74-.82a1.5,1.5,0,0,1-.865-1.935l.715-1.555a3,3,0,0,1,.925-1.14Z" transform="translate(-338.442 -208.041)" fill="#ffc3bd"/>
      </g>
      <g id="freepik--character-1--inject-67" transform="translate(45.685 111.875)">
        <path id="Path_1663" data-name="Path 1663" d="M148.92,193c.455,2.335.915,6.61-.72,8.17a17.315,17.315,0,0,1,8,4.425c1.64-3.045-.755-4.425-.755-4.425-2.605-.62-2.535-2.555-2.08-4.365Z" transform="translate(-119.785 -180.875)" fill="#7f3e3b"/>
        <path id="Path_1664" data-name="Path 1664" d="M154.423,209.4c-.55-2.365,1.13-2.735-1.645-3.855-2.175-.88-6.315-.91-7.305-.135-.55.43.17,1.88.17,1.88Z" transform="translate(-118.318 -186.801)" fill="#13c693"/>
        <path id="Path_1665" data-name="Path 1665" d="M133.42,214.81c-.31.24-.7.57-1.045.86s-.715.62-1.06.935c-.69.645-1.37,1.295-2,2a19.535,19.535,0,0,0-3.19,4.275,8.343,8.343,0,0,0-.5,1.11l-.05.135v.07h0c.025-.07,0-.045,0-.07v-.03h0a4,4,0,0,0,0,.475,27,27,0,0,0,.28,2.765c.275,1.935.6,3.93.855,5.92h0a1.21,1.21,0,0,1-2.295.675,46.439,46.439,0,0,1-2.295-5.735,23.156,23.156,0,0,1-.795-3.185,7.389,7.389,0,0,1-.085-1.035,3.815,3.815,0,0,1,.085-.83.355.355,0,0,1,.04-.16l.03-.11.06-.225a13.208,13.208,0,0,1,.605-1.705,21.689,21.689,0,0,1,3.705-5.615c.73-.81,1.5-1.585,2.275-2.31.4-.365.8-.72,1.21-1.065s.815-.665,1.315-1.03a2.415,2.415,0,0,1,2.925,3.84Z" transform="translate(-106.305 -189.616)" fill="#7f3e3b"/>
        <path id="Path_1666" data-name="Path 1666" d="M127.18,254.21l.965,3.545,2.96-1.81a21.561,21.561,0,0,0-2.205-2.815Z" transform="translate(-109.275 -210.94)" fill="#7f3e3b"/>
        <path id="Path_1667" data-name="Path 1667" d="M131.025,261.67l1.18-1a.79.79,0,0,0,.24-.86l-.375-1.07-2.96,1.81.795,1a.785.785,0,0,0,1.12.12Z" transform="translate(-110.24 -213.745)" fill="#7f3e3b"/>
        <path id="Path_1668" data-name="Path 1668" d="M110.261,232.175a.33.33,0,0,1-.165-.615l57.71-32.28a.325.325,0,0,1,.36,0l5.535,4.21,1.225-.69-6.255-11.18a.33.33,0,0,1,.125-.45.335.335,0,0,1,.45.13l6.415,11.47a.35.35,0,0,1,.03.245.335.335,0,0,1-.16.2l-1.7.95a.325.325,0,0,1-.36-.025l-5.505-4.18-57.5,32.175a.4.4,0,0,1-.205.04Z" transform="translate(-100.651 -179.941)" fill="#263238"/>
        <rect id="Rectangle_256" data-name="Rectangle 256" width="11.72" height="2.72" rx="1.36" transform="translate(69.834 11.502) rotate(60.78)" fill="#fff"/>
        <path id="Path_1669" data-name="Path 1669" d="M137.421,208.73c-3.25.5-4.58,2.255-6.765,4.885-.14,1.8,3.365,6.915,3.365,6.915S144.586,209.03,137.421,208.73Z" transform="translate(-111.011 -188.74)" fill="#263238"/>
        <path id="Path_1670" data-name="Path 1670" d="M156.87,214.24c-.065,1.57,2.415,5.2-.645,7.3-.36,3.175-.815,6.3-1.66,11.5h-16c1.705-5.75.5-9.63-1.6-19.76a4.04,4.04,0,0,1,3.55-4.845c.64-.06,1.315-.115,2-.15a50.866,50.866,0,0,1,7.255,0c.785.075,1.595.17,2.365.28A5.5,5.5,0,0,1,156.87,214.24Z" transform="translate(-114.125 -188.456)" fill="#263238"/>
        <path id="Path_1671" data-name="Path 1671" d="M196.46,225.96l.14-3.39,3.115,1.53a21.3,21.3,0,0,1-1.94,3Z" transform="translate(-143.915 -195.66)" fill="#7f3e3b"/>
        <path id="Path_1672" data-name="Path 1672" d="M198.545,219.858l1.27.875a.8.8,0,0,1,.315.835l-.275,1.1-3.115-1.53.7-1.07a.785.785,0,0,1,1.105-.21Z" transform="translate(-144.055 -194.234)" fill="#7f3e3b"/>
        <path id="Path_1673" data-name="Path 1673" d="M169.472,214.355c.35,1.08.735,2.265,1.155,3.385s.845,2.26,1.3,3.37.955,2.185,1.47,3.245a33.505,33.505,0,0,0,1.71,3l-1.625-.895a.85.85,0,0,0,.5-.05,3.59,3.59,0,0,0,.89-.445,12.41,12.41,0,0,0,1.97-1.665c.645-.65,1.275-1.37,1.885-2.11s1.215-1.53,1.78-2.285l.03-.04a1.2,1.2,0,0,1,2.09,1.15,27.823,27.823,0,0,1-1.31,2.88,24.118,24.118,0,0,1-1.685,2.735,14.209,14.209,0,0,1-2.31,2.56,8.21,8.21,0,0,1-1.68,1.1,5.275,5.275,0,0,1-2.435.525,2.055,2.055,0,0,1-1.555-.8l-.07-.1a31.376,31.376,0,0,1-2.24-3.38c-.655-1.15-1.255-2.325-1.8-3.5s-1.035-2.39-1.5-3.605a38.988,38.988,0,0,1-1.225-3.74,2.415,2.415,0,0,1,4.625-1.385Z" transform="translate(-128.052 -190.7)" fill="#7f3e3b"/>
        <path id="Path_1674" data-name="Path 1674" d="M166.792,209.467c2,.925,3.945,2.75,4.745,7.07-.5,1.72-5.91,4.59-5.91,4.59S160.012,207.132,166.792,209.467Z" transform="translate(-127.407 -188.978)" fill="#263238"/>
        <path id="Path_1675" data-name="Path 1675" d="M166.938,185.58c0,.315.205.56.415.55s.355-.285.335-.6-.205-.56-.41-.55S166.918,185.26,166.938,185.58Z" transform="translate(-129.153 -176.865)" fill="#263238"/>
        <path id="Path_1676" data-name="Path 1676" d="M167.44,184.73l.745-.27S167.835,185.1,167.44,184.73Z" transform="translate(-129.405 -176.605)" fill="#263238"/>
        <path id="Path_1677" data-name="Path 1677" d="M167.25,186.81a8.554,8.554,0,0,0,1.255,1.95,1.355,1.355,0,0,1-1.115.285Z" transform="translate(-129.31 -177.78)" fill="#630f0f"/>
        <path id="Path_1678" data-name="Path 1678" d="M166.431,181.985a.19.19,0,0,0,.055-.34,1.865,1.865,0,0,0-1.695-.18.187.187,0,1,0,.155.34,1.5,1.5,0,0,1,1.34.155A.185.185,0,0,0,166.431,181.985Z" transform="translate(-128.026 -175.045)" fill="#263238"/>
        <path id="Path_1679" data-name="Path 1679" d="M145.835,179.392c.5,3.87.61,5.5,2.665,7.4,3.09,2.815,7.65,1.37,8.31-2.57.6-3.545-.3-9.285-4.135-10.6A5.221,5.221,0,0,0,145.835,179.392Z" transform="translate(-118.58 -171.037)" fill="#7f3e3b"/>
        <path id="Path_1680" data-name="Path 1680" d="M137.231,172.6a3.864,3.864,0,0,0-.755,3.17c.155.9-1.045.955-1.36,2.465-.28,1.335.9,2.345-.1,2.855a1.885,1.885,0,0,0-.605,2.66c.615.865.315,2.185,1.415,2.835,1.73,1,4.54-.54,6.79-.855s5.59,2.145,7.46-1.085c1.545-2.665-2.185-5.5-1.5-7.06a4.638,4.638,0,0,0,.25-3.785c1.085.145,1.58-.22,1.825-1.535.22-1.22-1.9-4.25-5.74-3.35-1.835.43-2.54,1.065-4,.865S136.791,170.435,137.231,172.6Z" transform="translate(-112.736 -168.751)" fill="#263238"/>
        <path id="Path_1681" data-name="Path 1681" d="M158.965,257.94s.03,20.93-1.56,34.225c-.25,12.5-1.67,41.62-1.67,41.62h-3.15s-4.89-24.835-3.35-39.615c-6.41-21.11-2.2-36.23-2.2-36.23Z" transform="translate(-118.525 -213.345)" fill="#7f3e3b"/>
        <path id="Path_1682" data-name="Path 1682" d="M162.11,404.48c.915.935,1.845,3.735,4.91,4.66,2,.6,1.195,1.22-1.81,1.22-3.465,0-4.425-.74-5.6-.74s-1.85-1.53-1.045-4A6.8,6.8,0,0,0,162.11,404.48Z" transform="translate(-124.795 -286.615)" fill="#263238"/>
        <path id="Path_1683" data-name="Path 1683" d="M158.363,409a16.185,16.185,0,0,0,.055,3.64h1.5l1.1-2.41Z" transform="translate(-124.828 -288.875)" fill="#263238"/>
        <path id="Path_1684" data-name="Path 1684" d="M129.5,257.935s-6.535,24.415-10.24,35.775c-3.9,11.935-21.28,33.735-21.62,34.575l-2.535-1s10.165-23.825,16-33.59c1.33-29.205,6.585-35.765,6.585-35.765Z" transform="translate(-93.24 -213.34)" fill="#7f3e3b"/>
        <path id="Path_1685" data-name="Path 1685" d="M98.069,394.655c.115,1.35.21,3.835,1.5,5.3s.29,1.63-2.09.12c-1.6-1.025-2.535-2.11-3.5-2.59s-1.15-2.27.63-4.17a8.445,8.445,0,0,0,3.46,1.345Z" transform="translate(-92.314 -281.03)" fill="#263238"/>
        <path id="Path_1686" data-name="Path 1686" d="M92.87,395.28a20.594,20.594,0,0,0-1.5,3.19l1.385.67,1.93-1.72Z" transform="translate(-91.37 -282.016)" fill="#263238"/>
        <g id="Group_18" data-name="Group 18" transform="translate(17.92 75.59)" opacity="0.2">
          <path id="Path_1687" data-name="Path 1687" d="M160.56,333.735c-.04,1.41-.085,2.91-.145,4.475a48.831,48.831,0,0,1-8.185-2.4c.025-1.345.095-2.65.205-3.885a41.815,41.815,0,0,0,8.125,1.815Z" transform="translate(-139.72 -325.925)"/>
          <path id="Path_1688" data-name="Path 1688" d="M127.43,319.93q-.12,1.84-.22,3.82c1.625,1,4.055,2.365,7,3.795.43-1,.8-1.94,1.09-2.835.1-.29.19-.585.285-.89a79.216,79.216,0,0,1-8.155-3.89Z" transform="translate(-127.21 -319.93)"/>
        </g>
        <path id="Path_1689" data-name="Path 1689" d="M148.57,257.352s.36,16.42-.87,41.125c-11.57-.88-22.81-8.205-22.81-8.205s.335-26.07,7.7-32.92C136.755,256.242,148.49,256.977,148.57,257.352Z" transform="translate(-108.13 -212.758)" fill="#13c693"/>
        <path id="Path_1690" data-name="Path 1690" d="M148.57,257.352s.36,16.42-.87,41.125c-11.57-.88-22.81-8.205-22.81-8.205s.335-26.07,7.7-32.92C136.755,256.242,148.49,256.977,148.57,257.352Z" transform="translate(-108.13 -212.758)" fill="#fff" opacity="0.2"/>
        <path id="Path_1691" data-name="Path 1691" d="M141.78,275c4.61,4,8.135,4.56,8.135,4.56A8.3,8.3,0,0,1,141.78,275Z" transform="translate(-116.575 -221.875)" fill="#13c693" opacity="0.9"/>
      </g>
    </g>
    <g id="Group_34" data-name="Group 34" transform="translate(1384 -299)">
      <circle id="Ellipse_25" data-name="Ellipse 25" cx="25" cy="25" r="25" transform="translate(93 556)" fill="#13c693"/>
      <text id="_3" data-name="3" transform="translate(111 590)" fill="#fff" font-size="25" font-family="Poppins-ExtraBold, Poppins" font-weight="800"><tspan x="0" y="0">3</tspan></text>
    </g>
  </g>
</svg>
