<svg xmlns="http://www.w3.org/2000/svg" width="800" height="708.979" viewBox="0 0 800 708.979">
  <g id="Group_95" data-name="Group 95" transform="translate(-97 -940)">
    <g id="freepik--background-complete--inject-42" transform="translate(142.149 940)">
      <path id="Path_766" data-name="Path 766" d="M72.614,228.42a65.517,65.517,0,0,1-.224,8.448c.121-1.879.138-3.759.172-5.621Z" transform="translate(-23.763 82.473)" fill="#ebebeb"/>
      <path id="Path_767" data-name="Path 767" d="M114.555,455.425c-.4.81.948,1.466,1.379.707a179.311,179.311,0,0,0,22.931-67.983,94.275,94.275,0,0,0,20-35.5h.1c11.259-1.6,23.155-4.569,29.5-14.862,5.9-9.586,6.9-23.224,7.9-34.086l.19-.19a.466.466,0,0,0-.6-.69,160.64,160.64,0,0,0-24.138,22.241c-6.276,7.31-8.621,15.724-12.069,24.362a176.5,176.5,0,0,0,6.19-48.121.552.552,0,0,0,.155-.6l-.155-.5v-.672c7.328-7.9,13.431-13.914,14.052-25.086.759-13.793-5.345-24.759-10.81-36.914a.6.6,0,0,0-1.086,0c-4.5,9.552-10.121,19.724-10.9,30.431-.845,11.345,3.448,22.759,7.569,33.138a.638.638,0,0,0,.293.31c-3,30.19-9.724,58.121-25.862,83.9,5.172-45.017-5.845-91.155-24.483-133.948v-.086c26.448-9.931,19.328-35.534,15.862-57.81a9.931,9.931,0,0,0-.172-1.155h0c0-.121,0-.155-.172-.1s-13.948,18.431-16.741,28.69c-2.241,8.379-1.241,17.569-.621,26.362-3.724-8.31-7.724-16.5-11.966-24.5V221.27a.19.19,0,0,0,.1-.31v-.121c.328-9.776.638-19.535-3.448-28.707-4.707-10.586-13.638-19.276-21.983-27.1,0-.138-.569.086-.552.121-1.172,11.052-3.448,24.707,1.379,35.224,4.431,9.69,15.19,15.086,22.983,21.621l.19.1c14.6,35.138,30.1,70.155,35.862,107.879a172.568,172.568,0,0,1-43-39.948c6.621-6.172,11.086-13.052,10.552-22.414a60.845,60.845,0,0,0-13.793-34.672h0a.448.448,0,0,0-.293-.155.6.6,0,0,0-.724.81c-7.9,17.241-7.793,32.052-1.828,48.276a266.689,266.689,0,0,1-17.483-29.19c5.172-19.328-12.207-29.517-23.879-42.19-.328-.362-1,0-.741.483.1.172.224.328.328.483C42.4,231.58,50.262,247.3,68.71,256.7a1.033,1.033,0,0,0,.379.1,146.655,146.655,0,0,0,30.6,46.776,42.761,42.761,0,0,0-14.741-6.9c-10.483-2.448-19.517,1.965-29.31,5.069a.569.569,0,0,0-.259,0h-.155a.828.828,0,0,0-.121,1.552h.086c14.966,9.776,35.741,22.9,51.724,7.534l1.069.655a184.125,184.125,0,0,0,27.259,21.034,1.155,1.155,0,0,0,.5.172c.465,3.31.879,6.638,1.172,10a202.707,202.707,0,0,1-9.741,81.345C114.193,405.891,105.089,388.3,100.4,366.1c4.672-18.052-5.379-31.793-17.81-44.517h0a.448.448,0,0,0-.828.172c-1.724,8.621-4.448,19.828-1.293,28.345s11.362,14.035,18.776,18.241h.172a127.1,127.1,0,0,0,8.241,28.793,48.689,48.689,0,0,0-16.069-16.224c-8.431-4.9-16.81-4.638-26.293-3.914-.759,0,11.655,33.345,43.414,23.552l1.052,1.276A101.119,101.119,0,0,0,126.3,426.77a245.229,245.229,0,0,1-11.741,28.655Zm-6.707-55.931c-8.759.155-18.052.845-25.862-3.983-7.172-4.448-10.121-10.345-15.362-17.034,9.552.534,17.241-.655,26.19,5.4C99.037,387.925,103.313,393.822,107.848,399.494Zm-8.81-33.328c-7.828-4.483-15.362-10.759-16.966-19.914-1.345-7.69.207-15.517.534-23.345,4.293,5.621,8.621,11.345,12.328,17.241,5.414,8.621,5.172,16,4.483,25.276a.586.586,0,0,0-.379.655ZM67.3,253.322a47.862,47.862,0,0,1-16.534-15.793c-4.759-7.914-4.034-16.155-5.431-24.81,3.448,5.017,8,8.724,12.345,13.035C65.624,233.563,69.055,242.322,67.3,253.322Zm24.845,34-.328.379A139.517,139.517,0,0,1,87.3,262.029c-.5-8.379,1.276-16.535,1.724-24.828a168.465,168.465,0,0,1,3.448,25.31c.19,3.724.552,7.776.69,11.845,0-3.948,0-7.9-.138-11.845a128.328,128.328,0,0,0-4-26.81,2.8,2.8,0,0,0,0-.379c2.828,9.621,8.483,18.138,9.207,28.379a38.862,38.862,0,0,1-5.879,23.207,32.9,32.9,0,0,0,.448-4.086A32.466,32.466,0,0,1,92.141,287.322Zm-3.448-51.431a4.094,4.094,0,0,0,0,.448,122.655,122.655,0,0,0-1.9,26.431,149.289,149.289,0,0,0,4.724,25.207l-.207.241c-3.448-9.81-8-19.586-7.362-30.241C84.382,250.546,86.968,243.2,88.693,235.891Zm5.345,49.052a37.569,37.569,0,0,0,4.793-19.379c-.19-10.672-5.724-19.517-9.172-29.31,3.862,7.345,7.569,14.207,9.586,22.534C102.055,270.322,100.072,277.2,94.037,284.942Zm11.4,25.241c-7.586,4.017-14.966,6.69-23.931,5.069s-16.259-7.4-23.6-12.31c8.862-2.052,16.983-6.138,26.379-3.966C92.417,300.908,98.606,305.891,105.434,310.184Zm-6.9-97.5a128.345,128.345,0,0,0-21.569-45.535c6.9,7.483,13.31,14.776,17.569,24.241,3.19,7.069,3.276,14.155,3.966,21.293Zm.259,5.569a360.8,360.8,0,0,0-22-50.465,145.914,145.914,0,0,1,22.241,48.6c.121.845.259,1.724.414,2.552Zm-17-23.414c-3.534-8.914-4.155-18.966-5.828-28.293a466.567,466.567,0,0,1,22.638,51.483C92.3,210.822,85.244,203.718,81.8,194.839ZM98.589,218.7c-7.138-5.759-15.776-11.017-19.534-19.621-3.948-9.086-3.448-23.172-3.448-33.121,1.276,9.862,2.207,20.69,6.069,29.862,3.569,8.655,10.552,15.9,16.879,22.879Zm18.483,10.672h0c1.552-12.5,8.328-22.414,12.759-33.845a99.327,99.327,0,0,1-3.712,26.915c-2.547,9.257-7.34,17.6-11.219,26.344a160.718,160.718,0,0,1,1.724-16.724h-.1a100.638,100.638,0,0,0-2.069,15.741c-.241-9.466-.414-20.276,2.4-28.965,3.052-9.414,8.724-16.534,12.983-24.948v.431c-5.4,10.948-11.465,22.862-12.793,35.052ZM130.4,199.494c.655,8.862,1.466,17.914-.638,26.534a47.19,47.19,0,0,1-14.9,23.81,137.741,137.741,0,0,0,11.759-27.276,110.154,110.154,0,0,0,2.672-14C129.675,205.563,130.175,202.477,130.4,199.494Zm-15.621,51.138v-.586a45.724,45.724,0,0,0,14.776-22.052,55.052,55.052,0,0,0,2.034-19.259,83.448,83.448,0,0,1,.776,12.069c-.293,13.6-6.483,22.483-17.586,29.741Zm50.828,48.5c-3.31-10.138-7.259-21.948-5.9-32.483.552-4.379,8.466-25.862,9.034-26.19,0,0,8.9,21.207,8.741,32.034-.19,11.672-7.328,17.017-11.879,26.552Zm-5.741,51.724c4.69-8.31,6.776-17.241,13.259-24.793,6.9-7.9,14.845-14.638,22.517-21.672-2.172,8.862-3.034,18.207-6.293,26.741-5.086,13.293-16.759,16.983-29.483,19.69Z" transform="translate(-44.186 36.537)" fill="#ebebeb"/>
      <path id="Path_768" data-name="Path 768" d="M66.159,231.944c.259.621.534,1.259.793,1.9,0,.172.345.121.293,0s-.241-.707-.345-1.052l.534.552a13.832,13.832,0,0,0,.259,1.724h.121a9.58,9.58,0,0,0-.241-1.569l.724.759c-.259-.293-.534-.569-.793-.845-2.379-15.207-11.069-27.948-21.172-39.276-.259-.414-.5-.862-.776-1.276h-.121a.155.155,0,0,0-.259,0l-.293-.328c-.086,0-.224,0-.155.121l.534.776a101.932,101.932,0,0,0,7.707,22.19C56.28,221.927,61.228,226.84,66.159,231.944ZM46.607,195.064c6.448,12.241,13.983,23.914,19.448,36.655-4.793-5.052-9.483-10.19-12.621-16.466a119.743,119.743,0,0,1-7.517-21.121Zm20.241,37.483c-2.1-6.483-5.69-12.379-8.983-18.276-3.121-5.586-6.19-11.207-9.4-16.741,3.69,4.776,7.638,9.362,10.948,14.431a54.655,54.655,0,0,1,8,21.172Z" transform="translate(-43.808 56.484)" fill="#ebebeb"/>
      <path id="Path_769" data-name="Path 769" d="M51.178,246.637l2.017-.448c3.241,2.862,7.828,4.69,11.672,6.414a46.823,46.823,0,0,0,12.207,3.776,41.38,41.38,0,0,0,23.31-3.448l.966.431v-.138h0V253.1l-.586-.19-.172-.1,1.138-.534h0l-1.207.534a75.86,75.86,0,0,0-24.138-8.793c-7.862-1.155-15.741.138-23.448,1.724l-.379-.259h0l.259.224h-.328l-1.379.31C50.833,246.309,51.023,246.688,51.178,246.637Zm47.707,5.707a132.759,132.759,0,0,0-43.741-6.552A62.189,62.189,0,0,1,76.4,244.533C84.212,245.706,91.661,249.137,98.885,252.344Zm-45.4-6.207h.19a149.775,149.775,0,0,1,46.552,6.9h.1C84.385,259.826,67.505,255.585,53.488,246.137Z" transform="translate(-39.275 93.446)" fill="#ebebeb"/>
      <path id="Path_770" data-name="Path 770" d="M82.7,301.278c0,.224.345.224.362,0s0-.724,0-1.069l.9.931a.138.138,0,0,0,.19-.19l-1.086-1.19c.276-15.241-6.052-28.759-14.931-40.741-.414-.862-.845-1.724-1.293-2.569h-.1c.207.5.431.983.638,1.483l-.552-.741v-.138l-.259-.328c0-.086-.172,0-.138.086a4.482,4.482,0,0,0,.4.552c0,8.052.155,16.241,3.017,23.862,2.638,7.017,7.6,12.9,12.724,18.293v.414c0,.138.121,0,.121,0v-.224h0C82.7,300.295,82.715,300.778,82.7,301.278Zm0-1.948-.207-.207a88.413,88.413,0,0,0-5.586-18.19h0a99.829,99.829,0,0,1,5.483,18.035c-5.172-5.759-10.155-11.655-12.6-19.241-2.293-7.1-2.552-14.707-2.914-22.121l.966,1.414c2.328,5.414,4.828,10.759,6.9,16.259h0c-1.862-4.948-3.707-9.879-5.914-14.638a79.931,79.931,0,0,1,9.914,17.448A65.172,65.172,0,0,1,82.7,299.329Z" transform="translate(-28.088 102.771)" fill="#ebebeb"/>
      <path id="Path_771" data-name="Path 771" d="M57.207,289.4l.569.121c10.155,11.965,26.069,21.034,42.034,20.552v-.121c-8.81-1-16.569-2.569-24.466-6.9a66.192,66.192,0,0,1-17.138-13.534l1.052.19a185.159,185.159,0,0,1,38.224,18.759l.759.724h0l-.466-.483c.414.276.828.517,1.241.81,0,0,.155,0,0-.121-.759-.6-1.552-1.172-2.345-1.724-5.069-5.172-10.345-10.121-17.241-13.138a80.639,80.639,0,0,0-21.19-5.414l-.845-.259-.517-.569c-.086,0-.224,0-.138.155a1.932,1.932,0,0,0,.293.345.121.121,0,0,0,0,.224C57.052,289.093,57.035,289.369,57.207,289.4Zm5,.931a74.236,74.236,0,0,1,17.052,4.69c6.31,2.81,11.535,7.345,16.569,12.069a130,130,0,0,0-33.552-16.759Z" transform="translate(-35.115 125.835)" fill="#ebebeb"/>
      <path id="Path_772" data-name="Path 772" d="M114.569,268.719a3.445,3.445,0,0,1,0-.4.207.207,0,0,0,.155-.121c4.379-8.621,8.362-18.965,8.9-28.69a59.191,59.191,0,0,0-1.569-14.448,148.485,148.485,0,0,0-4.121-17.086.241.241,0,0,0-.465.121c.19.9.379,1.81.586,2.707,0,9.793.31,19.6-.638,29.31-.879,9.155-2.5,18.19-2.966,27.4l-.155.379a.241.241,0,0,0,.121.345v.431C114.414,268.805,114.569,268.822,114.569,268.719Zm.1-1.586c.552-9.034,2.362-17.948,3.207-26.948a201.586,201.586,0,0,0,.328-28.862c2.052,8.776,4.759,17.655,4.724,26.672C122.88,247.96,118.621,258.133,114.673,267.133Z" transform="translate(6.558 67.554)" fill="#ebebeb"/>
      <path id="Path_773" data-name="Path 773" d="M115.65,265.845c-.4-9.828-4.224-18.845-3.345-28.81a79.415,79.415,0,0,1,5.914-24.845h.121a83.069,83.069,0,0,0-5.69,26.9c-.448,9.069,2.879,17.69,3.207,26.707a.107.107,0,0,1-.207.052Z" transform="translate(5.046 70.721)" fill="#ebebeb"/>
      <path id="Path_774" data-name="Path 774" d="M109.621,292.7a16.089,16.089,0,0,0,2.017-.241c0,.086,0,.19.19.121l.328-.207h.448c0,.086-.121.172-.172.276s.172.362.328.172.259-.362.4-.552a43.621,43.621,0,0,0,25.517-16.362c6.569-8.621,7.259-20.259,10.534-30.224a.19.19,0,0,0-.345-.155c-.31.69-.586,1.379-.862,2.086.121-.431.276-.845.4-1.276,0,0-.086-.1-.121,0-4.121,9.19-8.224,18.086-14.5,26.069a94.359,94.359,0,0,1-19.328,18.1c5.172-7.345,9.621-15.207,15.414-22.241,6.086-7.379,12.293-14.638,18.4-22l-.1-.1c-7.017,7.138-13.224,15.224-19.569,22.983-5.69,6.9-10.086,14.707-15.172,22.086l-.759.552c-1,.172-2.017.328-3.017.414C109.242,292.118,109.225,292.721,109.621,292.7Zm4.19-1.4c14.086-9.276,27.052-24.138,32.983-40.121-2.086,7.207-2.793,14.879-6.707,21.414a42.293,42.293,0,0,1-26.4,18.879Z" transform="translate(2.988 94.793)" fill="#ebebeb"/>
      <path id="Path_775" data-name="Path 775" d="M69,316.61s1,8.983,2.4,21.741c3.293,30.069,8.845,81.035,8.845,84.172h49.879c0-3.1,5.517-54.1,8.81-84.172,1.379-12.759,2.379-21.741,2.379-21.741Z" transform="translate(-26.218 146.335)" fill="#dbdbdb"/>
      <path id="Path_776" data-name="Path 776" d="M69,316.61s1,8.983,2.4,21.741H139c1.379-12.759,2.379-21.741,2.379-21.741Z" transform="translate(-26.218 146.335)" fill="#c7c7c7"/>
      <rect id="Rectangle_104" data-name="Rectangle 104" width="81.431" height="15.862" transform="translate(119.713 475.221) rotate(180)" fill="#dbdbdb"/>
      <circle id="Ellipse_8" data-name="Ellipse 8" cx="56.552" cy="56.552" r="56.552" transform="translate(170.437 18.514)" fill="#ebebeb"/>
      <circle id="Ellipse_9" data-name="Ellipse 9" cx="53.966" cy="53.966" r="53.966" transform="translate(153.247 76.319) rotate(-45)" fill="#dbdbdb"/>
      <circle id="Ellipse_10" data-name="Ellipse 10" cx="50.552" cy="50.552" r="50.552" transform="translate(163.721 48.489) rotate(-22.08)" fill="#fff"/>
      <rect id="Rectangle_105" data-name="Rectangle 105" width="1.293" height="7.655" transform="translate(228.937 29.445)" fill="#ebebeb"/>
      <rect id="Rectangle_106" data-name="Rectangle 106" width="1.293" height="7.655" transform="matrix(0.866, -0.5, 0.5, 0.866, 205.571, 36.067)" fill="#ebebeb"/>
      <rect id="Rectangle_107" data-name="Rectangle 107" width="1.293" height="7.655" transform="matrix(0.5, -0.866, 0.866, 0.5, 188.625, 53.422)" fill="#ebebeb"/>
      <rect id="Rectangle_108" data-name="Rectangle 108" width="7.655" height="1.293" transform="translate(182.696 75.687)" fill="#ebebeb"/>
      <rect id="Rectangle_109" data-name="Rectangle 109" width="7.682" height="1.298" transform="translate(189.689 99.95) rotate(-29.887)" fill="#ebebeb"/>
      <rect id="Rectangle_110" data-name="Rectangle 110" width="7.655" height="1.293" transform="translate(205.575 116.642) rotate(-60.03)" fill="#ebebeb"/>
      <rect id="Rectangle_111" data-name="Rectangle 111" width="1.293" height="7.655" transform="translate(228.937 115.549)" fill="#ebebeb"/>
      <rect id="Rectangle_112" data-name="Rectangle 112" width="1.293" height="7.655" transform="translate(248.626 110.652) rotate(-30)" fill="#ebebeb"/>
      <rect id="Rectangle_113" data-name="Rectangle 113" width="1.293" height="7.655" transform="translate(263.221 96.506) rotate(-60)" fill="#ebebeb"/>
      <rect id="Rectangle_114" data-name="Rectangle 114" width="7.672" height="1.293" transform="translate(268.799 75.687)" fill="#ebebeb"/>
      <rect id="Rectangle_115" data-name="Rectangle 115" width="7.682" height="1.298" transform="translate(264.588 56.719) rotate(-29.887)" fill="#ebebeb"/>
      <rect id="Rectangle_116" data-name="Rectangle 116" width="7.655" height="1.293" transform="translate(248.638 42.061) rotate(-60.03)" fill="#ebebeb"/>
      <rect id="Rectangle_117" data-name="Rectangle 117" width="48.914" height="1.293" transform="translate(214.902 103.7) rotate(-63.04)" fill="#ebebeb"/>
      <rect id="Rectangle_118" data-name="Rectangle 118" width="1.724" height="48.172" transform="translate(225.294 59.279) rotate(-11.32)" fill="#dbdbdb"/>
      <g id="freepik--xsrjP0--inject-42" transform="translate(425.523 38.299)">
        <path id="Path_777" data-name="Path 777" d="M308.965,128.565c-1.431-.9-2.69-2.224-4.6-2.034-.741,0-.586-.534-.586-.931V103.875c0-.517,0-.948.6-1.241,5.534-2.793,7.931-8.276,11.31-12.966a21.656,21.656,0,0,0,4-16.448c-.224-1.724.535-2.362,2-2.707a3.621,3.621,0,0,1,4.121,1.31,28.622,28.622,0,0,1,3.155,9.483c.328,2.741-.655,5.414-1,8.138-.259,1.983-.707,3.948-1.086,5.966.483.345,1.034.155,1.569.172h18.345c2.569,0,3.828.741,4.19,2.448a4.9,4.9,0,0,1-2.655,5.31c-.465.224-1.293,0-1.345.741s.793.655,1.224.948c2.207,1.517,1.724,4.638-.776,6.448-.6.448-1.724.241-1.828,1.138s1.1.724,1.6,1.224c1.724,1.724.9,5.069-1.724,6.4a11.409,11.409,0,0,0-1.069.414c-.31.207-.6.431,0,.845,2.655,1.9,2.6,4.534,0,6.448l-.793.569a5.069,5.069,0,0,1-3.224.707H311.5A3.448,3.448,0,0,1,308.965,128.565Z" transform="translate(-281.741 -70.315)" fill="#dbdbdb" fill-rule="evenodd"/>
        <path id="Path_778" data-name="Path 778" d="M291.007,103.063V89.27c0-.931.086-1.4,1.241-1.379q8.414.1,16.81,0c1.1,0,1.276.379,1.276,1.345v27.776c0,1.172-.31,1.5-1.5,1.483h-16.31c-1.362,0-1.535-.448-1.535-1.724C291.007,112.218,291.007,107.666,291.007,103.063Z" transform="translate(-290.99 -57.589)" fill="#dbdbdb" fill-rule="evenodd"/>
      </g>
      <path id="Path_779" data-name="Path 779" d="M396.482,181.34l3.345,6.81,7.517,1.086-5.431,5.31,1.276,7.466-6.707-3.535-6.724,3.535,1.293-7.466-5.431-5.31,7.5-1.086Z" transform="translate(203.058 48.381)" fill="#c7c7c7"/>
      <path id="Path_780" data-name="Path 780" d="M89.4,159.56l3.362,6.81,7.5,1.086-5.431,5.293,1.276,7.483L89.4,176.7l-6.724,3.534,1.293-7.483-5.431-5.293,7.5-1.086Z" transform="translate(-19.31 32.609)" fill="#c7c7c7"/>
      <path id="Path_781" data-name="Path 781" d="M425.6,161.08l2.086,4.207,4.638.672-3.362,3.276.793,4.621-4.155-2.19-4.138,2.19.793-4.621-3.362-3.276,4.638-.672Z" transform="translate(227.151 33.71)" fill="#c7c7c7"/>
      <path id="Path_782" data-name="Path 782" d="M131.137,140.72l2.069,4.207,4.655.672-3.362,3.276.793,4.621-4.155-2.19-4.155,2.19.793-4.621L124.43,145.6l4.638-.672Z" transform="translate(13.921 18.967)" fill="#c7c7c7"/>
      <path id="Path_783" data-name="Path 783" d="M412.7,140.34l1.276,2.586,2.879.414-2.069,2.034.483,2.845-2.569-1.345-2.569,1.345.5-2.845-2.069-2.034,2.862-.414Z" transform="translate(219.67 18.691)" fill="#c7c7c7"/>
      <path id="Path_784" data-name="Path 784" d="M105.455,97.15l1.276,2.6,2.862.414-2.069,2.034.483,2.845-2.552-1.345-2.569,1.345.483-2.845-2.069-2.034,2.862-.414Z" transform="translate(-2.828 -12.584)" fill="#c7c7c7"/>
      <path id="Path_785" data-name="Path 785" d="M332.11,240.76V477.381h143.1V240.76ZM462.2,390.088H345.11v-61.6H462.2Zm0-76.276H345.11v-61.6H462.2Z" transform="translate(164.31 91.409)" fill="#ebebeb"/>
      <rect id="Rectangle_119" data-name="Rectangle 119" width="57.207" height="236.655" transform="translate(639.489 332.169)" fill="#dbdbdb"/>
      <rect id="Rectangle_120" data-name="Rectangle 120" width="27.828" height="61.603" transform="translate(509.42 343.6)" fill="#dbdbdb"/>
      <path id="Path_786" data-name="Path 786" d="M457.656,395.316H339.57V334.85H457.656Zm-116.362-1.724H455.932V336.574H341.294Z" transform="translate(169.712 159.543)" fill="#dbdbdb"/>
      <rect id="Rectangle_121" data-name="Rectangle 121" width="23.103" height="11.69" transform="translate(551.885 511.773)" fill="#dbdbdb"/>
      <path id="Path_787" data-name="Path 787" d="M392.578,356.6H367.75V344.94h24.828Zm-23.1-1.724h21.379v-8.207H369.474Z" transform="translate(190.118 166.85)" fill="#dbdbdb"/>
      <rect id="Rectangle_122" data-name="Rectangle 122" width="27.828" height="61.603" transform="translate(509.42 419.893)" fill="#dbdbdb"/>
    </g>
    <g id="freepik--Shadows--inject-42" transform="translate(99.741 1571.945)">
      <ellipse id="Ellipse_11" data-name="Ellipse 11" cx="201.586" cy="31.862" rx="201.586" ry="31.862" transform="translate(182.431)" fill="#ebebeb"/>
      <ellipse id="Ellipse_12" data-name="Ellipse 12" cx="188.345" cy="29.759" rx="188.345" ry="29.759" transform="translate(0 17.517)" fill="#ebebeb"/>
      <ellipse id="Ellipse_13" data-name="Ellipse 13" cx="188.345" cy="29.759" rx="188.345" ry="29.759" transform="translate(417.828 17.517)" fill="#ebebeb"/>
    </g>
    <g id="freepik--Floor--inject-42" transform="translate(97 1507.997)">
      <path id="Path_788" data-name="Path 788" d="M18,378.4l100-.431,100-.138,200-.293,200,.276,100,.155,100,.431-100,.414-100,.155-200,.293-200-.293-100-.155Z" transform="translate(-18 -377.54)" fill="#263238"/>
    </g>
    <g id="freepik--character-2--inject-42" transform="translate(359.769 991.804)">
      <path id="Path_789" data-name="Path 789" d="M299.107,293.405c2.276,6.6-.207,17.241,4.983,17.017,4.621-.155,5.621-7.638,5.621-7.638s1.6,8.793,6.517,7.224,4.362-10,4.362-10,1,7.379,5.793,5.466,5.638-9.172,5.638-9.172,1.724,1.914,4.517-.966c3.983-4.121,2.293-16.4-.121-22.6s-15.793-27.121-17.9-30.293l-39.931,15.1s-.81,13-.414,19.638,7.759,28.155,13.224,26.69,0-16.569-.535-20.569.31-4.793,1.948-3.172C293.883,281.233,298.107,290.543,299.107,293.405Z" transform="translate(-92.445 40.822)" fill="#ad6359"/>
      <path id="Path_790" data-name="Path 790" d="M298.815,287.588c.655-10.517-.862-15.241-5.845-24.362-.1-.172.138-.362.259-.172,5.69,8.465,8.465,14.121,6.086,24.6C299.212,288.157,298.781,288.088,298.815,287.588Z" transform="translate(-81.67 55.691)" fill="#263238"/>
      <path id="Path_791" data-name="Path 791" d="M305.329,287.145c-.259-11-1.879-16.138-6.379-26.069,0-.138.155-.259.241-.121,5.172,9.362,7.879,15.069,6.69,26.086C305.829,287.542,305.347,287.645,305.329,287.145Z" transform="translate(-77.322 54.185)" fill="#263238"/>
      <path id="Path_792" data-name="Path 792" d="M312.74,284.434c-1.017-10.621-2.552-16.328-8.155-25.4a.191.191,0,1,1,.31-.224c6.638,8.621,8.621,15.793,8.172,25.569C313.034,285.055,312.809,285.055,312.74,284.434Z" transform="translate(-73.268 52.621)" fill="#263238"/>
      <path id="Path_793" data-name="Path 793" d="M266.175,171.582c26.914,33.31,63.345,114.948,67.707,126.569,2.966,7.9-38.414,24.5-39.655,18.828-1.552-7.241-28.6-97.414-34.965-131.034C255.8,167.289,260.606,164.7,266.175,171.582Z" transform="translate(-106.909 -13.01)" fill="#ad6359"/>
      <path id="Path_794" data-name="Path 794" d="M259.22,194.938c4.431,30.776,30.879,116.155,30.879,116.155l31.362-11.931,15.828-6.034s-44.828-85.259-63.672-113.5c-1.466-2.172-2.81-4.052-4.052-5.621C257.668,158.869,255.806,171.231,259.22,194.938Z" transform="translate(-107.195 -13.538)" fill="#455a64"/>
      <path id="Path_795" data-name="Path 795" d="M294.971,238.005a13.053,13.053,0,0,1,0-6.655A13.053,13.053,0,0,1,294.971,238.005Z" transform="translate(-80.516 32.791)" fill="#fff"/>
      <path id="Path_796" data-name="Path 796" d="M261.932,175.572a11.723,11.723,0,0,1-.431-3.345,11.6,11.6,0,0,1,.431-3.328,13.127,13.127,0,0,1,0,6.672Z" transform="translate(-104.442 -12.431)" fill="#fff"/>
      <path id="Path_797" data-name="Path 797" d="M282.1,225.511a13.051,13.051,0,0,1,6.655,0A13.053,13.053,0,0,1,282.1,225.511Z" transform="translate(-89.524 28.251)" fill="#fff"/>
      <path id="Path_798" data-name="Path 798" d="M272.66,200.811a13.12,13.12,0,0,1,6.672,0,11.1,11.1,0,0,1-3.328.431A11.724,11.724,0,0,1,272.66,200.811Z" transform="translate(-96.36 10.364)" fill="#fff"/>
      <path id="Path_799" data-name="Path 799" d="M289.307,216.777a12.065,12.065,0,0,1-2.655-2.052,11.5,11.5,0,0,1-2.052-2.655A13.189,13.189,0,0,1,289.307,216.777Z" transform="translate(-87.714 18.83)" fill="#fff"/>
      <path id="Path_800" data-name="Path 800" d="M270.157,186.447A12.067,12.067,0,0,1,267.5,184.4a11.5,11.5,0,0,1-2.052-2.655,11.5,11.5,0,0,1,2.655,2.052A12.068,12.068,0,0,1,270.157,186.447Z" transform="translate(-101.581 -3.133)" fill="#fff"/>
      <path id="Path_801" data-name="Path 801" d="M275.9,236.357a13.069,13.069,0,0,1-4.724-4.707,11.6,11.6,0,0,1,2.672,2.052,12.536,12.536,0,0,1,2.052,2.655Z" transform="translate(-97.431 33.008)" fill="#fff"/>
      <path id="Path_802" data-name="Path 802" d="M276.584,214a12.638,12.638,0,0,1-2.052,2.672,12.067,12.067,0,0,1-2.672,2.052A12.932,12.932,0,0,1,276.584,214Z" transform="translate(-96.939 20.227)" fill="#fff"/>
      <path id="Path_803" data-name="Path 803" d="M288.6,241a13.069,13.069,0,0,1-4.707,4.724,11.708,11.708,0,0,1,2.052-2.672A12.071,12.071,0,0,1,288.6,241Z" transform="translate(-88.228 39.779)" fill="#fff"/>
      <path id="Path_804" data-name="Path 804" d="M268.787,191.32a13.19,13.19,0,0,1-4.707,4.707,13.189,13.189,0,0,1,4.707-4.707Z" transform="translate(-102.573 3.804)" fill="#fff"/>
      <path id="Path_805" data-name="Path 805" d="M275.522,252.337c18.621-8.776,39.5-15.155,43.1-16.534a.145.145,0,0,1,.086.276c-3.569,1.172-26.638,11.052-43.1,16.552C275.418,252.7,275.349,252.423,275.522,252.337Z" transform="translate(-94.359 36.011)" fill="#263238"/>
      <path id="Path_806" data-name="Path 806" d="M318.41,300.26,290.1,311.036s-26.448-85.379-30.879-116.155c-2.241-15.517-2.207-26.207,1.431-27.431Z" transform="translate(-107.196 -13.481)" fill="#263238"/>
      <path id="Path_807" data-name="Path 807" d="M245.56,381.23v63.655c0,12.155.1,22.828.69,28.328a.225.225,0,0,0,0,.1,8.62,8.62,0,0,0,.879,3.759h0c3.6,2.483,100.81,5.81,104.241,4.776s.776-10.879-2.9-14.017-40.328-21.052-40.328-21.052l-.621-63.586Z" transform="translate(-115.984 141.325)" fill="#dd6a57"/>
      <path id="Path_808" data-name="Path 808" d="M245.57,410.57v13.069c0,12.155.1,22.828.69,28.328a.224.224,0,0,0,0,.1,16.4,16.4,0,0,0,.879,3.759h0c3.6,2.483,100.81,5.81,104.241,4.776s.776-10.879-2.9-14.017-40.328-21.052-40.328-21.052l.172-13.259Z" transform="translate(-115.977 162.571)" fill="#455a64"/>
      <path id="Path_809" data-name="Path 809" d="M351.506,455.409c-3.448,1.035-100.621-2.293-104.241-4.776-1.4-.914-1.724-15.1-1.724-32.259v-.534l62.724,1.431v1.069s36.638,17.914,40.328,21.052S354.954,454.409,351.506,455.409Z" transform="translate(-115.998 167.835)" fill="#455a64"/>
      <path id="Path_810" data-name="Path 810" d="M347.945,438.708c-16.379-.966-82.5-3.31-98.741-3.017-.138,0-.138.086,0,.1,16.207,1.31,82.345,3.1,98.741,3.172C348.272,438.966,348.29,438.725,347.945,438.708Z" transform="translate(-113.42 180.743)" fill="#263238"/>
      <path id="Path_811" data-name="Path 811" d="M293.182,419.789c-6.4-1.431-14.31-.707-19.4,3.707-.207.172,0,.448.259.4a89.657,89.657,0,0,1,19.035-3.259.426.426,0,1,0,.1-.845Z" transform="translate(-95.606 168.766)" fill="#263238"/>
      <path id="Path_812" data-name="Path 812" d="M295.806,421.494c-6.414-1.414-14.328-.69-19.414,3.724-.19.172,0,.448.259.4a89.532,89.532,0,0,1,19.1-3.293.415.415,0,1,0,.052-.828Z" transform="translate(-93.713 170.009)" fill="#263238"/>
      <path id="Path_813" data-name="Path 813" d="M298.446,423.214c-6.4-1.414-14.328-.69-19.414,3.724-.19.172,0,.448.276.4a89.185,89.185,0,0,1,19.086-3.293.415.415,0,1,0,.052-.827Z" transform="translate(-91.801 171.254)" fill="#263238"/>
      <path id="Path_814" data-name="Path 814" d="M242.33,260.672l2.431,190.121,1.431,112.069,68.034-1.345-13.31-304.638L300.244,222H242.8Z" transform="translate(-118.323 26.02)" fill="#dbdbdb"/>
      <path id="Path_815" data-name="Path 815" d="M308.637,412.41c-10.621-.086-7.586-.207-18.207-.19-5.172,0-39.362.138-44.207,1a.1.1,0,0,0,0,.207c4.862.759,39.017,0,44.207,0,10.621-.241,7.569-.293,18.19-.638a.19.19,0,0,0,.017-.379Z" transform="translate(-115.578 163.765)" fill="#263238"/>
      <path id="Path_816" data-name="Path 816" d="M264.872,251.283a.112.112,0,0,1,.224,0c0,17.776.552,35.569.983,53.345s.948,35.569,1.431,53.362c.965,35.534,2.4,71.069,3.707,106.6q1.1,29.9,2.759,59.776c0,.121-.19.121-.207,0-2.569-35.5-5.052-71-6.448-106.569s-2.431-71.086-2.6-106.655C264.631,291.2,264.907,271.249,264.872,251.283Z" transform="translate(-102.124 47.151)" fill="#263238"/>
      <path id="Path_817" data-name="Path 817" d="M242.33,260.672l2.431,190.121L290.364,222H242.8Z" transform="translate(-118.323 26.02)" fill="#263238"/>
      <path id="Path_818" data-name="Path 818" d="M286.387,383s-8.121,60.638-8.121,60.672c0,12.172-.362,22.828-1.017,28.345a.19.19,0,0,1,0,.086,8.62,8.62,0,0,1-.914,3.742v.086c-3.638,2.431-100.879,4.638-104.293,3.569s-.655-10.879,3.052-13.983,40.569-20.586,40.569-20.586L225.87,381.4Z" transform="translate(-170.345 141.448)" fill="#dd6a57"/>
      <path id="Path_819" data-name="Path 819" d="M279.315,410c-.638,7.6-1.069,12.983-1.069,13.017,0,12.172-.362,22.828-1.017,28.345a.19.19,0,0,1,0,.086,16.327,16.327,0,0,1-.914,3.741v.086c-3.638,2.431-100.879,4.638-104.293,3.569s-.655-10.879,3.052-13.983,40.569-20.586,40.569-20.586l1.207-13.414Z" transform="translate(-170.36 162.158)" fill="#455a64"/>
      <path id="Path_820" data-name="Path 820" d="M171.982,453.572c3.448,1.069,100.638-1.138,104.293-3.569,1.4-.914,1.9-15.086,2.017-32.259v-.535l-62.741.724V419s-36.845,17.483-40.569,20.586S168.551,452.52,171.982,453.572Z" transform="translate(-170.406 167.379)" fill="#455a64"/>
      <path id="Path_821" data-name="Path 821" d="M172.02,436.925c16.379-.776,82.517-2.345,98.759-1.879.138,0,.138.1,0,.1C254.554,436.27,188.4,437.322,172,437.2,171.675,437.184,171.675,436.942,172.02,436.925Z" transform="translate(-169.426 180.233)" fill="#263238"/>
      <path id="Path_822" data-name="Path 822" d="M192.714,418.078c6.431-1.345,14.345-.534,19.379,3.948.19.172,0,.448-.276.379a90.5,90.5,0,0,0-19.052-3.448.44.44,0,1,1-.052-.879Z" transform="translate(-154.552 167.581)" fill="#263238"/>
      <path id="Path_823" data-name="Path 823" d="M190.054,419.772c6.431-1.362,14.328-.552,19.362,3.931.207.19,0,.448-.259.4a90.5,90.5,0,0,0-19.052-3.448.44.44,0,0,1-.052-.879Z" transform="translate(-156.478 168.8)" fill="#263238"/>
      <path id="Path_824" data-name="Path 824" d="M187.4,421.462c6.414-1.362,14.328-.552,19.362,3.931.19.172,0,.448-.259.4a90.464,90.464,0,0,0-19.069-3.448.44.44,0,1,1-.035-.879Z" transform="translate(-158.408 170.023)" fill="#263238"/>
      <path id="Path_825" data-name="Path 825" d="M329.136,222h0c-.241,1.19-4.259,19.828-8.431,35.845-3.035,11.69-6.138,21.983-7.931,23.034s-11.9,5.569-15.207,6.9l-15.086,144.4-20.241,129.9-67.879-3.552L248.791,222Z" transform="translate(-153.06 26.02)" fill="#dbdbdb"/>
      <path id="Path_826" data-name="Path 826" d="M259.748,413.256c-10.6-.69-7.552-.638-18.155-1.207-5.172-.276-39.293-2.086-44.19-1.5a.1.1,0,1,0,0,.207c4.81,1.034,38.948,2.241,44.138,2.414,10.621.379,7.586.155,18.19.4a.155.155,0,1,0,.017-.31Z" transform="translate(-150.931 162.471)" fill="#263238"/>
      <path id="Path_827" data-name="Path 827" d="M212.927,489.341q2.483-13.914,5.017-27.828,5.172-27.845,10.345-55.655,10.448-55.69,20.69-111.414c3.828-21,3.724-18.965,7.052-40.1,0-.138.259-.121.241,0-3.207,18.724-1.724,14.621-4.707,33.379s-6.172,37.121-9.5,55.638c-6.672,37.207-13.672,74.345-20.69,111.483q-2.966,15.621-6.035,31.207c-2.069,10.621-4.431,21.155-6.621,31.741,0,.241-.414.207-.379,0C209.755,508.306,211.2,498.806,212.927,489.341Z" transform="translate(-142.937 49.369)" fill="#263238"/>
      <path id="Path_828" data-name="Path 828" d="M221.7,264.832c1.724-.448,3.672-.6,5.483-.879,1.466-.241,2.931-.5,4.379-.81a19.225,19.225,0,0,0,7.707-3.241,18.345,18.345,0,0,0,5-7.776c.724-1.724,1.466-3.448,2.224-5.052.362-.81.724-1.621,1.1-2.431a28.006,28.006,0,0,0,1.379-2.914c0-.155.276,0,.207,0-.276.672-.4,1.414-.6,2.1s-.483,1.724-.741,2.448c-.448,1.466-.9,2.914-1.362,4.362a34.641,34.641,0,0,1-3.1,7.638c-2.672,4.276-7.466,5.983-12.259,6.586-1.362.172-2.759.276-4.138.362a31.036,31.036,0,0,1-5.172,0C221.489,265.281,221.4,264.9,221.7,264.832Z" transform="translate(-133.395 40.257)" fill="#263238"/>
      <path id="Path_829" data-name="Path 829" d="M274.681,254.647a128.225,128.225,0,0,0-20.345,9.466.228.228,0,1,0,.19.414c6.9-2.931,13.793-5.759,20.517-9.069a.448.448,0,0,0-.362-.81Z" transform="translate(-109.725 49.649)" fill="#263238"/>
      <path id="Path_830" data-name="Path 830" d="M273.146,227.5c0-.241-.431-.293-.431,0a227.808,227.808,0,0,1-1.151,22.835c-.315,3.579-3.16,23.079-9.28,21.665-1.017-.241-1.534-1.241-1.724-2.793a25.362,25.362,0,0,1,.81-5.983c.69-4.086,1.224-8.172,1.586-12.31a110.954,110.954,0,0,0-.259-23.069.207.207,0,0,0-.4,0,209.262,209.262,0,0,1-1.862,31.862c-.759,5.069-3.31,12.707,1.983,13.5s8.914-12.069,9.569-15.517A116.5,116.5,0,0,0,273.146,227.5Z" transform="translate(-106.139 29.861)" fill="#263238"/>
      <path id="Path_831" data-name="Path 831" d="M261.889,253.661a32.984,32.984,0,0,0-1.379,4.052,9.19,9.19,0,0,0-.569,3.328c0,.207.31.224.414,0a11.4,11.4,0,0,0,1.414-3.086c.466-1.241.948-2.483,1.379-3.741a.69.69,0,0,0-1.259-.552Z" transform="translate(-105.571 48.687)" fill="#263238"/>
      <path id="Path_832" data-name="Path 832" d="M220.5,296.688c.241.259,102.379-2.966,103.276-4.034,1.241-1.534-20.69-102.966-37.931-124.448-4.345-5.362-18.966-6.9-24.707-.862-16.638,17.241-19.638,29.621-23.621,41.121-2.948,8.5-6.293,22.948-9.224,37.724C223.4,270.533,219.624,295.757,220.5,296.688Z" transform="translate(-134.221 -16.375)" fill="#455a64"/>
      <path id="Path_833" data-name="Path 833" d="M262.272,229.515a11.6,11.6,0,0,1-.431-3.328,11.035,11.035,0,0,1,.431-3.328,13.052,13.052,0,0,1,0,6.655Z" transform="translate(-104.196 26.643)" fill="#fff"/>
      <path id="Path_834" data-name="Path 834" d="M255.381,202.4a13.126,13.126,0,0,1,0-6.672,11.725,11.725,0,0,1,.431,3.345A11.6,11.6,0,0,1,255.381,202.4Z" transform="translate(-109.184 6.997)" fill="#fff"/>
      <path id="Path_835" data-name="Path 835" d="M236.792,191.672a11.6,11.6,0,0,1-.431-3.328,11.722,11.722,0,0,1,.431-3.345,11.725,11.725,0,0,1,.431,3.345A12.258,12.258,0,0,1,236.792,191.672Z" transform="translate(-122.647 -0.773)" fill="#fff"/>
      <path id="Path_836" data-name="Path 836" d="M237.041,224.245a13.052,13.052,0,0,1,0-6.655,11.6,11.6,0,0,1,.431,3.328,12.261,12.261,0,0,1-.431,3.328Z" transform="translate(-122.465 22.827)" fill="#fff"/>
      <path id="Path_837" data-name="Path 837" d="M247.75,216.391a13.052,13.052,0,0,1,6.655,0A13.051,13.051,0,0,1,247.75,216.391Z" transform="translate(-114.398 21.646)" fill="#fff"/>
      <path id="Path_838" data-name="Path 838" d="M234,200.361a13.12,13.12,0,0,1,6.672,0,13.121,13.121,0,0,1-6.672,0Z" transform="translate(-124.355 10.038)" fill="#fff"/>
      <path id="Path_839" data-name="Path 839" d="M253.27,182.182a11.6,11.6,0,0,1,3.328-.431,10.966,10.966,0,0,1,3.328.431,13.052,13.052,0,0,1-6.655,0Z" transform="translate(-110.401 -3.128)" fill="#fff"/>
      <path id="Path_840" data-name="Path 840" d="M232.53,233.711a13.121,13.121,0,0,1,6.672,0,13.121,13.121,0,0,1-6.672,0Z" transform="translate(-125.419 34.188)" fill="#fff"/>
      <path id="Path_841" data-name="Path 841" d="M259.12,236.831a13.126,13.126,0,0,1,6.672,0,11.6,11.6,0,0,1-3.328.431A11.725,11.725,0,0,1,259.12,236.831Z" transform="translate(-106.165 36.448)" fill="#fff"/>
      <path id="Path_842" data-name="Path 842" d="M253.034,235.507a11.707,11.707,0,0,1-2.672-2.052,12.07,12.07,0,0,1-2.052-2.655,11.6,11.6,0,0,1,2.672,2.052,12.535,12.535,0,0,1,2.052,2.655Z" transform="translate(-113.992 32.393)" fill="#fff"/>
      <path id="Path_843" data-name="Path 843" d="M232.894,213.977a13.069,13.069,0,0,1-4.724-4.707,11.708,11.708,0,0,1,2.672,2.052A12.07,12.07,0,0,1,232.894,213.977Z" transform="translate(-128.577 16.802)" fill="#fff"/>
      <path id="Path_844" data-name="Path 844" d="M265.087,211.654a13.069,13.069,0,0,1-4.707-4.724,12.069,12.069,0,0,1,2.655,2.052,11.6,11.6,0,0,1,2.052,2.672Z" transform="translate(-105.252 15.107)" fill="#fff"/>
      <path id="Path_845" data-name="Path 845" d="M249.734,192.247a13.069,13.069,0,0,1-4.724-4.707,11.6,11.6,0,0,1,2.672,2.052,12.536,12.536,0,0,1,2.052,2.655Z" transform="translate(-116.382 1.066)" fill="#fff"/>
      <path id="Path_846" data-name="Path 846" d="M275.9,236.357a13.069,13.069,0,0,1-4.724-4.707,11.6,11.6,0,0,1,2.672,2.052,12.536,12.536,0,0,1,2.052,2.655Z" transform="translate(-97.431 33.008)" fill="#fff"/>
      <path id="Path_847" data-name="Path 847" d="M276.584,214a12.638,12.638,0,0,1-2.052,2.672,12.067,12.067,0,0,1-2.672,2.052A12.932,12.932,0,0,1,276.584,214Z" transform="translate(-96.939 20.227)" fill="#fff"/>
      <path id="Path_848" data-name="Path 848" d="M247.977,206.16a13.19,13.19,0,0,1-4.707,4.707,11.5,11.5,0,0,1,2.052-2.655,12.07,12.07,0,0,1,2.655-2.052Z" transform="translate(-117.642 14.55)" fill="#fff"/>
      <path id="Path_849" data-name="Path 849" d="M227.907,224.94a13.19,13.19,0,0,1-4.707,4.707,13.19,13.19,0,0,1,4.707-4.707Z" transform="translate(-132.176 28.149)" fill="#fff"/>
      <path id="Path_850" data-name="Path 850" d="M268.787,191.32a13.19,13.19,0,0,1-4.707,4.707,13.189,13.189,0,0,1,4.707-4.707Z" transform="translate(-102.573 3.804)" fill="#fff"/>
      <path id="Path_851" data-name="Path 851" d="M246.607,175.38a12.067,12.067,0,0,1-2.052,2.672A12.537,12.537,0,0,1,241.9,180.1a11.706,11.706,0,0,1,2.052-2.672A12.068,12.068,0,0,1,246.607,175.38Z" transform="translate(-118.634 -7.739)" fill="#fff"/>
      <path id="Path_852" data-name="Path 852" d="M263.8,188.318c-4.224.828-14.276-5.81-18.741-12.069a110.185,110.185,0,0,1-.362-11.259c-.1-3.621-.31-7.621-.776-11.276,0-.759,2.638.31,2.638.31l4.862.552,16.086,1.862a58.709,58.709,0,0,0-.466,14.276,7.777,7.777,0,0,0,.345,1.483s0,.155,0,.241C268.2,175.3,270.42,187.007,263.8,188.318Z" transform="translate(-117.171 -23.625)" fill="#ad6359"/>
      <path id="Path_853" data-name="Path 853" d="M266.835,171.761V172a14.676,14.676,0,0,1-2.345.414c-15.517,1.569-19.81-17.776-19.81-17.776l6.121-.5L266.887,156a58.7,58.7,0,0,0-.466,14.276,7.773,7.773,0,0,0,.414,1.483Z" transform="translate(-116.621 -23.12)" fill="#263238"/>
      <path id="Path_854" data-name="Path 854" d="M241.758,141.3c-2.483,8.19,1.9,31.81,7.724,37.069,8.466,7.621,22.276,8.31,28.724-1.845,6.276-9.845,0-40.517-6.483-45.293C262.12,124.2,245.413,129.214,241.758,141.3Z" transform="translate(-119.251 -42.038)" fill="#ad6359"/>
      <path id="Path_855" data-name="Path 855" d="M253.86,143.11s-.1.1,0,.172c.414,1.569.6,3.448-.69,4.276v.086C254.791,147.007,254.5,144.524,253.86,143.11Z" transform="translate(-110.473 -31.107)" fill="#263238"/>
      <path id="Path_856" data-name="Path 856" d="M253.188,142.346c-2.586.379-1.638,5.517.759,5.172S255.36,142.035,253.188,142.346Z" transform="translate(-111.577 -31.67)" fill="#263238"/>
      <path id="Path_857" data-name="Path 857" d="M259,141.91s.138,0,.138.121c.241,1.6.793,3.448,2.328,3.655v.086C259.672,145.858,259,143.479,259,141.91Z" transform="translate(-106.251 -31.976)" fill="#263238"/>
      <path id="Path_858" data-name="Path 858" d="M260.107,140.826c2.535-.672,3.672,4.414,1.345,5.034S258,141.377,260.107,140.826Z" transform="translate(-106.255 -32.805)" fill="#263238"/>
      <path id="Path_859" data-name="Path 859" d="M251.786,142.914c.672-.31,1.241-.707,1.862-1.069a3.789,3.789,0,0,0,1.724-1.466,1.086,1.086,0,0,0-.414-1.276,2.776,2.776,0,0,0-2.776.224,4,4,0,0,0-1.948,2.138,1.172,1.172,0,0,0,1.552,1.448Z" transform="translate(-112.64 -34.204)" fill="#263238"/>
      <path id="Path_860" data-name="Path 860" d="M262.381,140.758c-.724,0-1.414-.086-2.138-.138a3.448,3.448,0,0,1-2.1-.621,1.121,1.121,0,0,1-.19-1.345,2.741,2.741,0,0,1,2.586-1,3.9,3.9,0,0,1,2.69,1.069,1.172,1.172,0,0,1-.845,2.034Z" transform="translate(-107.115 -35.083)" fill="#263238"/>
      <path id="Path_861" data-name="Path 861" d="M254.368,151.837c.448.31.914.759,1.5.69a4.345,4.345,0,0,0,1.638-.707h.086a2.172,2.172,0,0,1-1.862,1.224,1.724,1.724,0,0,1-1.5-1.172S254.3,151.8,254.368,151.837Z" transform="translate(-109.706 -24.8)" fill="#263238"/>
      <path id="Path_862" data-name="Path 862" d="M254.777,156.682a5.534,5.534,0,0,0,4.069,1.724,6.38,6.38,0,0,0,1.966-.276,1.257,1.257,0,0,0,.362-.1l.345-.121a.379.379,0,0,0,.241-.414h0a.5.5,0,0,0,0-.155h0V157.2c-.19-1.224-.655-3.069-.655-3.069.483.138,2.966.741,2.81.121a84.139,84.139,0,0,0-5.172-16.017.155.155,0,1,0-.293.1c1.052,5.086,2.983,9.948,4.121,15.034a9.551,9.551,0,0,0-2.707-.293c-.155,0,.965,3.535,1,4.1h0a7.6,7.6,0,0,1-5.914-.707C254.777,156.44,254.674,156.578,254.777,156.682Z" transform="translate(-109.339 -34.713)" fill="#263238"/>
      <path id="Path_863" data-name="Path 863" d="M260.061,149.887a6.449,6.449,0,0,1-2.19,2.466,2.862,2.862,0,0,1-1.724.448c-1.328-.1-1.586-1.259-1.534-2.31a6.672,6.672,0,0,1,.293-1.621A8.5,8.5,0,0,0,260.061,149.887Z" transform="translate(-109.433 -26.936)" fill="#263238"/>
      <path id="Path_864" data-name="Path 864" d="M247.081,161.152c5.448-.879,4.966-10.931,4.966-10.931s9.121-2.983,9.379-10.241c0,0,9.776,4.293,16.362.672s3.9-11.276,2.862-12.845-4.431,2.155-4.431,2.155-1.121-4.4-2.4-4.655-2.138,2.621-2.138,2.621a58.707,58.707,0,0,0-17.586-.121c-8.138,1.5-10.9,10.345-10.9,10.345s-4.224,1.6-5.172,4.879S243.615,161.7,247.081,161.152Z" transform="translate(-121.505 -44.011)" fill="#263238"/>
      <path id="Path_865" data-name="Path 865" d="M244.926,145.38c7.379-.155,11.448-5.724,11.414-12.81h.138c.793,6.5-4.121,14.621-11.569,13.155a.173.173,0,1,1,.017-.345Z" transform="translate(-116.574 -38.739)" fill="#263238"/>
      <path id="Path_866" data-name="Path 866" d="M243.743,132.67s.138.086,0,.138c-1.879,1.241-4.086,2.31-5.172,4.379-1.379,2.5-.552,5.362.483,7.793,1.6,3.776,4.431,8.621,8.293,10.345.224.1,0,.431-.172.345-4.586-1.828-8.069-8.069-9.362-12.6C236.364,137.963,239.14,134.515,243.743,132.67Z" transform="translate(-121.874 -38.667)" fill="#263238"/>
      <path id="Path_867" data-name="Path 867" d="M256.506,139.774a10.776,10.776,0,0,0,11.017-1.9c3.448-3.259,1.914-7.517-.31-10.914-.1-.172.121-.4.276-.241,2.741,2.862,3.69,7.724,1,10.966s-8.362,4.138-12.207,2.569C255.92,140.118,256.2,139.636,256.506,139.774Z" transform="translate(-108.344 -43.012)" fill="#263238"/>
      <path id="Path_868" data-name="Path 868" d="M248.687,149.354s-5.5-7.517-8.931-5.534.845,12.966,4.948,14.379a4.138,4.138,0,0,0,5.5-2.345Z" transform="translate(-121.094 -30.834)" fill="#ad6359"/>
      <path id="Path_869" data-name="Path 869" d="M240.016,145.48s-.086.1,0,.121a10.517,10.517,0,0,1,5.569,6.414,2.276,2.276,0,0,0-3.448-.534c-.086,0,0,.155,0,.138a2.552,2.552,0,0,1,2.828.828,13.566,13.566,0,0,1,1.4,2.241c.138.241.586.1.483-.19h0C246.913,150.79,243.913,145.773,240.016,145.48Z" transform="translate(-120.026 -29.391)" fill="#263238"/>
      <path id="Path_870" data-name="Path 870" d="M269.206,165.759l-4.138,14.31-18.845-15.69-4.293,6.069s19.517,25.983,19.483,24.724l4.483-12.431,9.017,7.431-2.741-20.69Z" transform="translate(-118.612 -15.705)" fill="#ebebeb"/>
      <path id="Path_871" data-name="Path 871" d="M274.263,177.693c-.569-3.448-1.052-6.9-1.724-10.19,0-.121-.224-.155-.224,0-.362,3.362,1.879,16.328,2.172,19.466h0c-.379-.328-8.31-6.5-8.379-6.379-1.034,2-4.328,11.052-4.534,11.862-3.086-4.121-16.052-20.31-19.6-24.138-.1-.1-.276,0-.19.138,2.793,4.414,19.6,25.862,19.793,25.724a130.589,130.589,0,0,0,4.672-13.138c1.379,1.4,9.483,8.448,9.448,7.931A106.621,106.621,0,0,0,274.263,177.693Z" transform="translate(-118.738 -13.518)" fill="#263238"/>
      <path id="Path_872" data-name="Path 872" d="M245.758,226.462c-8.328-8.621-27.259-40.638-26.845-59.483.31-14.707,7.81-55.293,12.4-65.655,2.069-4.707,33.328,15.621,33.569,21.121s-12.069,39.845-13.517,48.414c-.69,4.052,1.914,24.879,8.052,43.845C264.947,231.79,255.93,236.928,245.758,226.462Z" transform="translate(-135.285 -61.873)" fill="#ad6359"/>
      <path id="Path_873" data-name="Path 873" d="M224.77,126.169c.914-4.5,6.9-24.707,9.9-29.948s12.483-19.741,16.724-17.914,1.724,6.31,1.724,6.31,5-5.483,9.1-3.241,0,9.069,0,9.069,5.552-5.172,9.483-2.724-1.293,8.621-1.293,8.621,4.862-5.034,7.224-1.586c2.845,4.155-7.138,12.431-9.948,18.465-.638,1.379-10.948,28.724-10.948,28.724Z" transform="translate(-131.039 -78.148)" fill="#ad6359"/>
      <path id="Path_874" data-name="Path 874" d="M256.9,88.585c-7.328,6.1-9.483,10.052-12.379,18.966,0,.172-.328.138-.276,0,2.034-9.017,4.017-14.345,12.379-19.293C257.018,87.913,257.242,88.292,256.9,88.585Z" transform="translate(-116.942 -70.927)" fill="#263238"/>
      <path id="Path_875" data-name="Path 875" d="M252.531,85.208c-7.052,7-9.431,11.259-13.138,20.4,0,.121-.276,0-.241-.086,2.9-9.259,5-14.534,12.966-20.69C252.479,84.552,252.858,84.811,252.531,85.208Z" transform="translate(-120.627 -73.394)" fill="#263238"/>
      <path id="Path_876" data-name="Path 876" d="M246.17,82.293c-6.345,7.293-9.138,11.845-11.6,21.172,0,.224-.4.155-.345,0a32,32,0,0,1,11.69-21.379C246.377,81.741,246.567,81.845,246.17,82.293Z" transform="translate(-124.198 -75.445)" fill="#263238"/>
      <path id="Path_877" data-name="Path 877" d="M251.617,135.768s9.052-8.293,11.759-12.931,6.379-25.69,1.879-26.741c-5.81-1.362-10.345,10.345-11.793,16.4,0,0-13.431-3.155-18.5,4.552S251.617,135.768,251.617,135.768Z" transform="translate(-124.214 -65.231)" fill="#ad6359"/>
      <path id="Path_878" data-name="Path 878" d="M263.337,96.181c-6.19,2.586-7.6,10.621-9.448,16.379a.552.552,0,0,1-.862.293c-5.707-.948-14.052-.621-18.328,3.776a.155.155,0,0,1-.224-.19c3.948-5.31,12.069-6.31,18.31-4.862,1.724-5.931,3.586-13.931,10.534-15.517C263.354,96.112,263.371,96.163,263.337,96.181Z" transform="translate(-124.019 -65.178)" fill="#263238"/>
      <path id="Path_879" data-name="Path 879" d="M224.152,109.44l39.879,20.69s-10.345,28.81-11.207,34.172,8.845,43.345,10.19,51.4-18.965,36.207-20.569,22.052-23.069-56.6-24.138-71.034S224.152,109.44,224.152,109.44Z" transform="translate(-135.8 -55.489)" fill="#455a64"/>
      <path id="Path_880" data-name="Path 880" d="M236.182,153.6a11.69,11.69,0,0,1-.431-3.328,11.155,11.155,0,0,1,.431-3.345,12.378,12.378,0,0,1,.431,3.345,13.067,13.067,0,0,1-.431,3.326Z" transform="translate(-123.089 -28.341)" fill="#fff"/>
      <path id="Path_881" data-name="Path 881" d="M229.721,126.8a13.052,13.052,0,0,1,0-6.655,13.052,13.052,0,0,1,0,6.655Z" transform="translate(-127.766 -47.74)" fill="#fff"/>
      <path id="Path_882" data-name="Path 882" d="M238.22,160.011a13.052,13.052,0,0,1,6.655,0,13.052,13.052,0,0,1-6.655,0Z" transform="translate(-121.299 -19.181)" fill="#fff"/>
      <path id="Path_883" data-name="Path 883" d="M232.48,134.962a12.382,12.382,0,0,1,3.345-.431,11.6,11.6,0,0,1,3.328.431,11.6,11.6,0,0,1-3.328.431,11.724,11.724,0,0,1-3.345-.431Z" transform="translate(-125.456 -37.321)" fill="#fff"/>
      <path id="Path_884" data-name="Path 884" d="M238.554,172.807a13.068,13.068,0,0,1-4.724-4.707,11.705,11.705,0,0,1,2.672,2.052,12.067,12.067,0,0,1,2.052,2.655Z" transform="translate(-124.478 -13.011)" fill="#fff"/>
      <path id="Path_885" data-name="Path 885" d="M230.214,147.767a13.069,13.069,0,0,1-4.724-4.707,11.6,11.6,0,0,1,2.672,2.052,12.534,12.534,0,0,1,2.052,2.655Z" transform="translate(-130.517 -31.143)" fill="#fff"/>
      <path id="Path_886" data-name="Path 886" d="M246.607,175.38a12.067,12.067,0,0,1-2.052,2.672A12.537,12.537,0,0,1,241.9,180.1a11.706,11.706,0,0,1,2.052-2.672A12.068,12.068,0,0,1,246.607,175.38Z" transform="translate(-118.634 -7.739)" fill="#fff"/>
      <path id="Path_887" data-name="Path 887" d="M231.567,157.36a11.5,11.5,0,0,1-2.052,2.655,12.07,12.07,0,0,1-2.655,2.052,13.189,13.189,0,0,1,4.707-4.707Z" transform="translate(-129.525 -20.788)" fill="#fff"/>
      <path id="Path_888" data-name="Path 888" d="M245.047,123.56a13.19,13.19,0,0,1-4.707,4.707,13.189,13.189,0,0,1,4.707-4.707Z" transform="translate(-119.764 -45.264)" fill="#fff"/>
      <path id="Path_889" data-name="Path 889" d="M256.564,131.572A358.157,358.157,0,0,0,222.426,115.4c-.138,0-.224.155-.086.207,2.845,1.172,21.069,10.69,34.138,16.207C256.632,131.952,256.7,131.659,256.564,131.572Z" transform="translate(-132.849 -51.173)" fill="#263238"/>
    </g>
    <g id="freepik--character-3--inject-42" transform="translate(502.172 1015.012)">
      <path id="Path_890" data-name="Path 890" d="M288.882,482.755c3.362,1.121,99.5.845,103.155-1.483,1.4-.862,2.172-14.879,2.621-31.828.1-3.655.172-7.414.241-11.276,0-4.552.138-9.155.155-13.621.121-20.069-.155-37.759-.155-37.759H332.313v51.379l.31,11.276s-36.741,16.586-40.483,19.569S285.537,481.669,288.882,482.755Z" transform="translate(-228.088 122.144)" fill="#dd6a57"/>
      <path id="Path_891" data-name="Path 891" d="M288.878,466.9c3.362,1.121,99.5.845,103.155-1.483,1.4-.862,2.172-14.879,2.621-31.828.1-3.655.172-7.414.241-11.276,0-4.552.138-9.155.155-13.621H332.344v13.621l.31,11.276s-36.741,16.586-40.483,19.569S285.533,465.811,288.878,466.9Z" transform="translate(-228.085 138.002)" fill="#fff"/>
      <path id="Path_892" data-name="Path 892" d="M288.71,461.375c2.19.724,43.1.862,72.948.241,6.9-.138,13.207-.328,18.31-.552,7-.328,11.707-.707,12.483-1.19,1.724-1.086,2.5-21.655,2.879-43.345h-62.9l.328,11.345S295.8,444.53,292.037,447.53,285.348,460.237,288.71,461.375Z" transform="translate(-228.209 143.679)" fill="#13c693"/>
      <path id="Path_893" data-name="Path 893" d="M289,440.472c16.207-.431,81.6-.707,97.655,0,.121,0,.121.1,0,.1-16.052.793-81.448.534-97.655.086C288.654,440.73,288.654,440.489,289,440.472Z" transform="translate(-227.119 160.703)" fill="#263238"/>
      <path id="Path_894" data-name="Path 894" d="M312.445,421.2c6.362-1.207,14.172-.241,19.052,4.276.19.19,0,.448-.259.379a89.444,89.444,0,0,0-18.776-3.845.414.414,0,0,1-.017-.81Z" transform="translate(-210.186 146.716)" fill="#263238"/>
      <path id="Path_895" data-name="Path 895" d="M309.772,422.841c6.379-1.207,14.172-.259,19.069,4.276.19.172,0,.448-.276.379a89.065,89.065,0,0,0-18.759-3.845.414.414,0,0,1-.034-.81Z" transform="translate(-212.117 147.903)" fill="#263238"/>
      <path id="Path_896" data-name="Path 896" d="M307.167,424.461c6.362-1.207,14.172-.259,18.966,4.276.19.172,0,.431-.259.379a90.583,90.583,0,0,0-18.707-3.862.4.4,0,1,1,0-.793Z" transform="translate(-214.063 149.076)" fill="#263238"/>
      <path id="Path_897" data-name="Path 897" d="M304.442,426.07c6.379-1.207,14.172-.241,19.069,4.276.19.19,0,.448-.276.379a89.073,89.073,0,0,0-18.759-3.845.414.414,0,0,1-.034-.81Z" transform="translate(-215.976 150.243)" fill="#263238"/>
      <path id="Path_898" data-name="Path 898" d="M308.743,422.391c4.534,3.448,10.345,4.914,15.672,6.9a.793.793,0,0,0,1-.793.172.172,0,0,0,.155-.224,34.137,34.137,0,0,0-9.862-14.586c-2.672-2.224-7.345-3.776-9.845-.31S306.1,420.357,308.743,422.391Zm-1.638-5.172c-1.138-7,6.379-3.345,8.293-1.621a37.533,37.533,0,0,1,3.448,3.638,98.446,98.446,0,0,1,5.948,8.4c-2.535-1.121-5.172-2-7.707-3.017-3.121-1.155-9.345-3.517-9.983-7.345Z" transform="translate(-215.432 139.922)" fill="#263238"/>
      <path id="Path_899" data-name="Path 899" d="M338.788,416.786c-1.552-3.966-6.465-3.638-9.6-2.155a34.156,34.156,0,0,0-13.172,11.724.172.172,0,0,0,.086.259c-.1.483.19,1.086.759,1.035,5.586-.569,11.638-.465,16.879-2.724C336.788,423.544,340.254,420.544,338.788,416.786Zm-13.638,8.207c-2.741.345-5.483.552-8.224,1a99.362,99.362,0,0,1,7.862-6.638,36.79,36.79,0,0,1,4.19-2.69c2.276-1.19,10.465-2.845,7.621,3.638-1.621,3.569-8.19,4.328-11.448,4.69Z" transform="translate(-207.391 141.562)" fill="#263238"/>
      <path id="Path_900" data-name="Path 900" d="M399.573,232.11s-16.914,167.241-17.328,169.414c0,.276-.172,3.448-.328,8.741-.914,28.793-3.172,118.586-3.172,118.586H309.78s4.5-106.345,7.086-131.155C320.159,366.041,341,232.179,341,232.179Z" transform="translate(-211.883 10.134)" fill="#455a64"/>
      <path id="Path_901" data-name="Path 901" d="M348.76,404.962q3.207-54.4,9.6-108.483c2.414-20.328,5.345-40.586,8.241-60.845,0-.172.293-.172.276,0-5.345,36.069-9.121,72.414-12.379,108.621s-5.534,72.6-7.017,108.966c-.845,20.69-1.483,41.224-2.138,61.845a.4.4,0,0,1-.776,0C345.622,478.393,346.673,441.652,348.76,404.962Z" transform="translate(-186.69 12.592)" fill="#263238"/>
      <path id="Path_902" data-name="Path 902" d="M312.349,398.1c1.724-.224,3.759-.155,5.6-.224s4.138-.086,6.207-.172q6-.207,12.069-.31,12.069-.207,24.138.172l6.655.224c2.362.1,4.724.31,7.086.293a.121.121,0,1,1,0,.224c-4.069,0-8.172.345-12.224.5s-8,.207-11.983.259c-8.052.121-16.138,0-24.138-.259l-6.655-.172-3.534-.155c-1.052,0-2.1,0-3.155-.1C312.142,398.356,312.159,398.132,312.349,398.1Z" transform="translate(-210.125 129.767)" fill="#263238"/>
      <path id="Path_903" data-name="Path 903" d="M382.94,232.11s-16.914,167.241-17.328,169.414c0,.276-.172,3.448-.328,8.741L332.75,232.11Z" transform="translate(-195.25 10.134)" fill="#263238"/>
      <path id="Path_904" data-name="Path 904" d="M457.94,469.865c2.966-1.966,62.155-77.707,62.586-82.017.172-1.724-10.345-10.9-23.4-21.724-2.81-2.362-5.638-4.9-8.724-7.172-3.862-2.879-7.776-5.707-11.586-8.379-16.483-11.69-30.793-20.862-30.793-20.862L408.44,377.52l29.31,21.69,12.069,8.9,9.069,6.724s-9.69,39.138-9.655,43.914S454.992,471.779,457.94,469.865Z" transform="translate(-140.44 80.81)" fill="#dd6a57"/>
      <path id="Path_905" data-name="Path 905" d="M445.637,461.1c2.966-1.966,62.155-77.707,62.586-82.017.172-1.724-10.345-10.9-23.4-21.724-2.81-2.362-5.638-4.9-8.724-7.172-3.862-2.879-7.776-5.707-11.586-8.379-11.655,14.672-28.534,35.621-39.086,48.638l12.069,8.9,9.069,6.724s-9.69,39.138-9.655,43.914S442.689,463.017,445.637,461.1Z" transform="translate(-128.137 89.572)" fill="#fff"/>
      <path id="Path_906" data-name="Path 906" d="M440.81,458c2.966-1.966,62.5-78.138,62.931-82.483.207-2-15.517-15.328-32.293-29.052L432.569,395.9l9.121,6.759S432,442.022,432,446.832,437.828,459.97,440.81,458Z" transform="translate(-123.379 92.946)" fill="#13c693"/>
      <path id="Path_907" data-name="Path 907" d="M435.864,441.376c9.672-13.017,49.879-64.586,60.431-76.707.086-.1.155,0,0,0-9.293,13.1-49.914,64.345-60.345,76.81C435.864,441.807,435.675,441.652,435.864,441.376Z" transform="translate(-120.64 106.092)" fill="#263238"/>
      <path id="Path_908" data-name="Path 908" d="M435.177,384c2.983-5.759,8.621-11.293,15.138-12.345a.248.248,0,0,1,.138.448,88.777,88.777,0,0,0-14.621,12.379.414.414,0,0,1-.655-.483Z" transform="translate(-121.108 111.187)" fill="#263238"/>
      <path id="Path_909" data-name="Path 909" d="M434.792,387.1c3-5.759,8.621-11.31,15.155-12.345a.244.244,0,0,1,.121.448,89.255,89.255,0,0,0-14.621,12.362.414.414,0,0,1-.655-.466Z" transform="translate(-121.378 113.432)" fill="#263238"/>
      <path id="Path_910" data-name="Path 910" d="M434.444,390.185c2.983-5.759,8.621-11.293,15.138-12.345a.248.248,0,0,1,.138.448,89.659,89.659,0,0,0-14.638,12.379.4.4,0,0,1-.638-.483Z" transform="translate(-121.668 115.663)" fill="#263238"/>
      <path id="Path_911" data-name="Path 911" d="M434.017,393.278c2.983-5.741,8.621-11.293,15.138-12.328a.247.247,0,0,1,.138.448,89.254,89.254,0,0,0-14.621,12.362.414.414,0,0,1-.655-.483Z" transform="translate(-121.948 117.915)" fill="#263238"/>
      <path id="Path_912" data-name="Path 912" d="M433.2,385.7c5.552-1.379,10.345-5.172,15.069-8.069a.793.793,0,0,0,0-1.293.172.172,0,0,0-.086-.259,34.086,34.086,0,0,0-17.552-1.259c-3.448.724-7.5,3.448-6.328,7.552S429.979,386.523,433.2,385.7Zm-5.035-1.879c-6.207-3.448,1.31-7.069,3.845-7.5a36.623,36.623,0,0,1,4.965-.414,101.884,101.884,0,0,1,10.259.5c-2.431,1.31-4.741,2.81-7.121,4.207C437.272,382.265,431.583,385.713,428.169,383.816Z" transform="translate(-129.1 113.031)" fill="#263238"/>
      <path id="Path_913" data-name="Path 913" d="M444.734,362.184c-4.086-1.224-6.9,2.828-7.638,6.224a33.966,33.966,0,0,0,1.017,17.569c0,.138.155.138.259.086a.776.776,0,0,0,1.276,0c3.017-4.741,6.9-9.431,8.293-14.948C448.8,367.925,448.6,363.356,444.734,362.184Zm-1.983,15.793c-1.431,2.379-2.965,4.655-4.293,7.069a102.131,102.131,0,0,1-.379-10.345,36.724,36.724,0,0,1,.5-4.948c.465-2.517,4.224-9.983,7.552-3.741C447.976,369.529,444.441,375.167,442.752,377.977Z" transform="translate(-120.2 104.164)" fill="#263238"/>
      <path id="Path_914" data-name="Path 914" d="M327.34,233.236s5.379,25.1,22.241,37.379c0,0,43.379,113.879,52.5,125.862,15.1,19.862,88.172,70.983,88.172,70.983l43.1-54.948s-70.69-45.5-76.345-52.655c-3.776-4.741-33.879-77.862-33.517-80.466,4.138-30.914-10.6-50.121-10.6-50.121Z" transform="translate(-199.167 8.077)" fill="#455a64"/>
      <path id="Path_915" data-name="Path 915" d="M374.1,232.077a73.589,73.589,0,0,1,7.259,18.966,60.028,60.028,0,0,1,1.362,10.241c.207,3.672,0,7.362,0,11.052a40.365,40.365,0,0,0,1.724,11.1c1.035,3.448,2.293,6.9,3.448,10.345q3.724,10.586,7.845,21.017,8.224,20.69,17.879,40.931a31.329,31.329,0,0,0,5.5,8.621,52.14,52.14,0,0,0,8.621,6.414q9.517,6.483,19.052,12.966l38.293,26.052v.086c.431.293,0,1-.4.707-12.828-8.707-20.931-14.259-33.759-22.966l-19.431-13.19c-3.069-2.086-6.19-4.1-9.19-6.259a24.43,24.43,0,0,1-6.672-6.9,85.264,85.264,0,0,1-4.69-9.19q-2.431-5.173-4.759-10.345-4.6-9.759-8.793-20.1T389.305,300.7q-1.931-5.31-3.776-10.655a78.267,78.267,0,0,1-3.1-10.345c-1.431-7.241-.155-14.672-.845-21.983a67.037,67.037,0,0,0-5.172-20.534,53.345,53.345,0,0,0-2.517-4.948C373.771,232.077,374.1,231.974,374.1,232.077Z" transform="translate(-165.477 10.08)" fill="#263238"/>
      <path id="Path_916" data-name="Path 916" d="M360.44,233.273a23.086,23.086,0,0,0,8.448,12.069,28.6,28.6,0,0,0,15.328,5.259.741.741,0,0,1,0,1.483c-11.259,0-22.621-7.138-24.276-18.793C359.94,233.066,360.371,233.014,360.44,233.273Z" transform="translate(-175.56 10.85)" fill="#263238"/>
      <path id="Path_917" data-name="Path 917" d="M334.1,248.813a63.049,63.049,0,0,1,11.621,6.172c3.862,2.4,7.431,5.172,11.155,7.776.155.1,0,.328-.121.241-3.914-2.259-7.983-4.207-11.862-6.534a73.294,73.294,0,0,1-10.965-7.345C333.774,249.02,333.9,248.761,334.1,248.813Z" transform="translate(-194.447 22.224)" fill="#263238"/>
      <path id="Path_918" data-name="Path 918" d="M333.176,235.249c.6,2.569,1.345,5.172,2.035,7.672s1.138,4.862,1.879,7.224a12.621,12.621,0,0,0,3.69,5.966c.983.845,2.069,1.569,3.121,2.345l1.724,1.207c-.086-.328-.155-.69-.241-1.035-.224-.983-.431-1.948-.638-2.931-.465-2.172-.914-4.345-1.362-6.534-.845-4.276-1.724-8.621-2.741-12.845a.138.138,0,1,1,.259,0c1.259,4.172,2.638,8.31,3.776,12.534.552,2.069,2.655,12.328,2.776,13.052s.207,1.517.259,2.276a8.618,8.618,0,0,1,.1,2.31.19.19,0,0,1-.345,0h0a9.535,9.535,0,0,1-.759-2.207c-.224-.724-.414-1.466-.586-2.224l-.155-.81c-1.052-.569-2.034-1.345-3.017-2s-2.138-1.362-3.138-2.138a11.673,11.673,0,0,1-3.983-5.621,41.618,41.618,0,0,1-1.552-7.379c-.465-2.914-.845-5.862-1.379-8.759C332.883,235.163,333.073,235.077,333.176,235.249Z" transform="translate(-195.142 12.34)" fill="#263238"/>
      <path id="Path_919" data-name="Path 919" d="M417.853,382.015c.931-1.569,2.224-3.069,3.31-4.534s2.5-3.31,3.724-4.983q3.534-4.845,7.19-9.6c4.9-6.4,9.948-12.707,15.138-18.862l4.31-5.069c1.535-1.724,3.172-3.448,4.638-5.379.1-.138.259,0,.155.138-2.534,3.172-4.793,6.621-7.19,9.9s-4.793,6.4-7.224,9.569c-4.914,6.379-9.983,12.672-15.207,18.81-1.448,1.724-2.845,3.448-4.276,5.172-.759.9-1.552,1.724-2.31,2.672a19.959,19.959,0,0,1-2.052,2.414.159.159,0,1,1-.207-.241Z" transform="translate(-133.663 83.574)" fill="#263238"/>
      <path id="Path_920" data-name="Path 920" d="M305.942,221.613a.793.793,0,0,0,.724.776l3.172-.224c1.862-8.259,4.121-14.948,3.638-12.4a43.743,43.743,0,0,0-.517,12.172l6.259-.552c.741-14.207,2.621-24.931,2.81-21.741.776,12.914,2,16.931,3.362,21.207,15.086-1.362,34.845-3.448,49.1-5.172.707-7.9,1.138-16.4,1.448-15.862,2.465,4.069,3.776,10.345,4.414,15.1,4.534-.6,8.138-1.172,10.345-1.724,0,0,.276-6.6.172-8.741a48.1,48.1,0,0,0-3.638-15.862,81.792,81.792,0,0,0-8.431-14.052v-.1h0a46.4,46.4,0,0,1-5.017-9.466h0a48.649,48.649,0,0,1-2.121-7.517c-1.81-9.379-7.793-16.862-16.4-18.207-17.6-13.621-32.483-4.759-35.724,8.052-.328,1.241-.6,2.672-.845,4.207h0c-.948,5.69-1.5,13-2.155,18.672h0a55.189,55.189,0,0,1-1.086,6.6C312.632,187.285,304.27,194.165,305.942,221.613Z" transform="translate(-214.821 -62.058)" fill="#263238"/>
      <path id="Path_921" data-name="Path 921" d="M336.908,137.561a17.569,17.569,0,0,1,11.4,13.052,48.947,48.947,0,0,0,3.621,11.448,41.879,41.879,0,0,0,7.534,9.483,31.275,31.275,0,0,1,9.224,15.983,56.136,56.136,0,0,1,.759,21.69h0a59.5,59.5,0,0,0-2.034-22.414c-2.1-7.328-6.638-11.5-11.379-16.621a32.035,32.035,0,0,1-7.828-14.465c-.828-3.448-1.224-6.9-2.9-9.966a19.379,19.379,0,0,0-8.621-7.379C336.166,138.079,336.477,137.389,336.908,137.561Z" transform="translate(-192.597 -58.352)" fill="#263238"/>
      <path id="Path_922" data-name="Path 922" d="M309.045,180.78c3.19-5.914,6.621-11.052,8.052-18.017,1.31-6.362,1.724-12.948,3.035-19.293,0-.1.172-.086.155,0-1.9,11.224-1.19,22.172-6.569,32.138-2.914,5.4-5.879,10.448-7.466,16.672a56.312,56.312,0,0,0-1.259,19.983c0,.241-.276.276-.31,0A46.552,46.552,0,0,1,309.045,180.78Z" transform="translate(-216.32 -54.105)" fill="#263238"/>
      <path id="Path_923" data-name="Path 923" d="M383.285,228.716c-17.759,3.138-77.69-15.81-88.914-28.121-16.707-18.293-29.4-50.965-33-63.259-1.569-5.362,33.741-21.5,36.207-16.086,5.379,11.6,20.69,47.586,23.672,50.966s32.759,24.017,50,33.155C394.509,217.664,392.268,227.129,383.285,228.716Z" transform="translate(-246.975 -70.937)" fill="#dd6a57"/>
      <path id="Path_924" data-name="Path 924" d="M305.861,149.421c-.276-2.655-8.483-22.535-13.034-28.9a75.861,75.861,0,0,0-17.034-17.9C265.31,94.8,257.31,90.352,255.241,91.921c-3.828,2.9-1.552,7.6,8.948,15.655s9.086,15.862,7.672,21.31a82.24,82.24,0,0,0-.224,40.776S306.965,159.68,305.861,149.421Z" transform="translate(-252.637 -91.609)" fill="#dd6a57"/>
      <path id="Path_925" data-name="Path 925" d="M272.793,119.448c-1.276,5.672-8.328-15.517-14.69-17.241s-5.845,4.914-3.448,10.741c8.465,20.172,4.741,32.966,14.69,44.552S272.793,119.448,272.793,119.448Z" transform="translate(-253 -84.135)" fill="#dd6a57"/>
      <path id="Path_926" data-name="Path 926" d="M262.9,148.79c.759-.638,40.224-23.5,40.224-23.5s14.655,37.362,17.655,41.828,46.138,32,61.052,40.707c15.948,9.328,11.19,23.069-16.9,17.517s-60.155-16.362-70.81-25.638C283.762,190.721,262.9,148.79,262.9,148.79Z" transform="translate(-245.831 -67.218)" fill="#13c693"/>
      <path id="Path_927" data-name="Path 927" d="M266.413,149.8c16.224-7.586,32.138-18.034,35.035-19.655.138-.086,0-.293-.138-.207-2.759,1.724-22.224,11.707-35.052,19.638a.138.138,0,0,0,.155.224Z" transform="translate(-243.43 -63.867)" fill="#263238"/>
      <path id="Path_928" data-name="Path 928" d="M325.479,247.714l2.931,48.69s77.259-14.828,96.1-20.138c0,0-33.914-85.138-59.1-103.207-12.6-9.035-24.5-5.69-30.569,3.707-1.552,2.379-18.414,37.931-18.431,50.138C316.427,237.7,325.479,247.714,325.479,247.714Z" transform="translate(-207.082 -36.47)" fill="#13c693"/>
      <path id="Path_929" data-name="Path 929" d="M345.76,182.466c-.379,1.534-7.879,11.483-14.948,11.069-2.31-.138-2.1-12.724-2.1-12.724l-.19-.948L325.76,166.81l15.431-9.621,2.224-1.19s.517,3.621,1.121,8.138a1.676,1.676,0,0,0,.086.638l.1.741c.1.672.19,1.362.276,2.052s.138,1.034.172,1.586.121,1.086.19,1.638a87.924,87.924,0,0,1,.4,11.672Z" transform="translate(-200.311 -44.98)" fill="#dd6a57"/>
      <path id="Path_930" data-name="Path 930" d="M344.536,164.052a26.776,26.776,0,0,1-16.017,15.81L325.76,166.81l15.431-9.621,2.224-1.19S343.932,159.534,344.536,164.052Z" transform="translate(-200.311 -44.98)" fill="#263238"/>
      <path id="Path_931" data-name="Path 931" d="M314.719,164.695c.879,23.414,15,25.534,20.052,25.345,4.569-.19,20.155-1.362,21.707-24.741s-9.6-30.362-20.121-30.517S313.856,141.3,314.719,164.695Z" transform="translate(-208.339 -60.347)" fill="#dd6a57"/>
      <path id="Path_932" data-name="Path 932" d="M316.978,149.421a16.084,16.084,0,0,0,1.569-.4,2.6,2.6,0,0,0,1.517-.707.81.81,0,0,0,0-1.017,2.086,2.086,0,0,0-2.052-.414,3.017,3.017,0,0,0-1.862,1.155.9.9,0,0,0,.827,1.379Z" transform="translate(-207.374 -51.66)" fill="#263238"/>
      <path id="Path_933" data-name="Path 933" d="M326.892,149.052a13,13,0,0,1-1.6-.276,2.586,2.586,0,0,1-1.569-.586.862.862,0,0,1,0-1.017,2.052,2.052,0,0,1,2.017-.552,2.948,2.948,0,0,1,1.948,1,.879.879,0,0,1-.793,1.431Z" transform="translate(-201.909 -51.825)" fill="#263238"/>
      <path id="Path_934" data-name="Path 934" d="M323.838,151.52a.135.135,0,0,1,.138.138c0,1.6.207,3.448,1.724,3.948v.086C323.855,155.468,323.562,153.037,323.838,151.52Z" transform="translate(-201.768 -48.224)" fill="#263238"/>
      <path id="Path_935" data-name="Path 935" d="M325.244,150.553c2.552-.241,2.828,4.914.448,5.172S323.089,150.743,325.244,150.553Z" transform="translate(-201.761 -48.93)" fill="#263238"/>
      <path id="Path_936" data-name="Path 936" d="M325.335,150.786c.466.276.931.759,1.483.793s1.069-.534,1.448-1.069h.1c0,.983-.276,2.017-1.31,2.207s-1.724-.655-2-1.621C324.973,150.958,325.146,150.682,325.335,150.786Z" transform="translate(-200.835 -48.956)" fill="#263238"/>
      <path id="Path_937" data-name="Path 937" d="M319.1,151.62s-.121,0-.1.155c.138,1.586,0,3.448-1.362,4.052v.086C319.389,155.568,319.492,153.1,319.1,151.62Z" transform="translate(-206.199 -48.152)" fill="#263238"/>
      <path id="Path_938" data-name="Path 938" d="M318.4,150.71c-2.569,0-2.465,5.172-.086,5.172S320.553,150.744,318.4,150.71Z" transform="translate(-207.018 -48.811)" fill="#263238"/>
      <path id="Path_939" data-name="Path 939" d="M318.108,151.007c-.4.276-.793.793-1.276.828s-.983-.5-1.362-1.034h0c0,.983.328,2,1.276,2.172s1.483-.707,1.724-1.724C318.384,151.145,318.246,150.886,318.108,151.007Z" transform="translate(-207.763 -48.746)" fill="#263238"/>
      <path id="Path_940" data-name="Path 940" d="M325.516,158.884c-.345.414-.672.965-1.241,1.069a4.259,4.259,0,0,1-1.724-.224,2.138,2.138,0,0,0,2.1.655,1.724,1.724,0,0,0,1.1-1.517C325.688,158.85,325.567,158.833,325.516,158.884Z" transform="translate(-202.636 -42.916)" fill="#263238"/>
      <path id="Path_941" data-name="Path 941" d="M321.386,162.251q-.18,1.718-.19,3.448c0,.1.276.138.655.155h0a5.345,5.345,0,0,0,5.172-2.207.121.121,0,0,0-.172-.155,8.034,8.034,0,0,1-4.828,1.6c-.086-.31.534-4.086.362-4.1a10.032,10.032,0,0,0-2.517.69c.328-5,1.465-9.914,1.724-14.9a.155.155,0,0,0-.31,0,81.327,81.327,0,0,0-2.552,15.948C318.662,163.389,320.92,162.458,321.386,162.251Z" transform="translate(-205.403 -51.765)" fill="#263238"/>
      <path id="Path_942" data-name="Path 942" d="M320.54,158.061a6.431,6.431,0,0,0,2.465,2.172,2.879,2.879,0,0,0,1.724.241c1.31-.259,1.414-1.431,1.259-2.448a6.9,6.9,0,0,0-.483-1.586A8.483,8.483,0,0,1,320.54,158.061Z" transform="translate(-204.091 -44.662)" fill="#263238"/>
      <path id="Path_943" data-name="Path 943" d="M322,159.567a2.879,2.879,0,0,0,1.724.241c1.31-.259,1.414-1.431,1.259-2.448A3.017,3.017,0,0,0,322,159.567Z" transform="translate(-203.034 -43.996)" fill="#ff9bbc"/>
      <path id="Path_944" data-name="Path 944" d="M356.057,166.715c-5.672.31-6.034-8.621-6.034-8.621s-6.466-.276-7.414-10.638a15.689,15.689,0,0,1-11.448,8.086c-1.845.362,4.121-4.707,4.121-4.707s-7.086,7.052-20.965,5.172c-.983-.138-.707-16.086,9.862-21.535s21.534-1.724,28.517,4.759c0,0,8.069,3.293,9.31,10.724S358.246,166.595,356.057,166.715Z" transform="translate(-208.867 -62.471)" fill="#263238"/>
      <path id="Path_945" data-name="Path 945" d="M337.017,156.41s4.172-7.9,7.69-6.5,1.017,12.4-2.672,14.31a3.948,3.948,0,0,1-5.534-1.448Z" transform="translate(-192.534 -49.51)" fill="#dd6a57"/>
      <path id="Path_946" data-name="Path 946" d="M343.034,151.66s.086,0,0,.1a9.948,9.948,0,0,0-4.362,6.9,2.19,2.19,0,0,1,3.172-1v.155a2.431,2.431,0,0,0-2.552,1.172,12.073,12.073,0,0,0-1,2.31c-.1.259-.552.172-.5-.1h0C337.276,157.643,339.362,152.47,343.034,151.66Z" transform="translate(-191.655 -48.123)" fill="#263238"/>
      <path id="Path_947" data-name="Path 947" d="M362.257,180.78c29.741,31.328,54.172,96.552,39.862,102.6-13.069,5.586-54.5.414-71.534-3.638-5-1.207,5.172-39.966,10.431-38.69,6.465,1.534,23,3.914,23.672,3.862,1.431-.1-13.793-43.465-18.69-60.1C339.171,161.625,351.1,169.021,362.257,180.78Z" transform="translate(-197.791 -35.087)" fill="#dd6a57"/>
      <path id="Path_948" data-name="Path 948" d="M308.016,207.924a6.138,6.138,0,0,0,.517,6.9,9.052,9.052,0,0,0-4.345,4.379c-1.431,3.448,3.448,7.207,3.448,7.207a11.225,11.225,0,0,0-3.862,5.362c-1.017,3.448,3.31,7.914,3.31,7.914a9.879,9.879,0,0,0-.431,6.9c2.069,5.948,11.483,8.086,17.448,9.517s24.138-.138,27.707-.086l9.362-38.138S336.258,203.907,329,203.235C322.913,202.666,310.62,203.907,308.016,207.924Z" transform="translate(-216.344 -10.87)" fill="#dd6a57"/>
      <path id="Path_949" data-name="Path 949" d="M306.768,209.789c6.638-.948,13.19.1,19.793.793a.121.121,0,0,1,0,.224c-6.569-.759-13.19-.207-19.759-.707a.156.156,0,0,1-.035-.31Z" transform="translate(-214.165 -6.303)" fill="#263238"/>
      <path id="Path_950" data-name="Path 950" d="M306.132,216.408a17.6,17.6,0,0,1,4.552.379c1.6.259,3.207.534,4.793.828,3.19.6,6.362,1.276,9.5,2.052.155,0,.138.241,0,.224q-4.759-.914-9.569-1.6l-4.793-.655a21,21,0,0,1-4.517-.776.241.241,0,0,1,.034-.448Z" transform="translate(-214.649 -1.25)" fill="#263238"/>
      <path id="Path_951" data-name="Path 951" d="M305.682,224.393a11.845,11.845,0,0,1,4.086.569l4.345.879c2.9.569,5.793,1.155,8.707,1.621.155,0,.121.259,0,.241-2.965-.483-5.948-.9-8.9-1.4l-4.362-.741a11.535,11.535,0,0,1-3.9-1.035S305.63,224.393,305.682,224.393Z" transform="translate(-214.871 4.54)" fill="#263238"/>
      <path id="Path_952" data-name="Path 952" d="M359.3,244.106c2.052-1.724-14.19-42.569-18.621-61.155s4.155-17.552,17.759-2.586c14.586,16.034,38.828,51.5,44.345,88.034,1.724,11.414,4.052,19.552-22.414,19.086a300.646,300.646,0,0,1-45.81-4l5.759-41.724S358.715,244.606,359.3,244.106Z" transform="translate(-193.939 -35.517)" fill="#13c693"/>
      <path id="Path_953" data-name="Path 953" d="M340.109,251.029c3.448-16.517,4.414-34.379,4.828-37.483a.121.121,0,0,0-.241,0c-.241,3.052-3.638,23.345-4.845,37.466C339.85,251.167,340.109,251.184,340.109,251.029Z" transform="translate(-190.108 -3.388)" fill="#263238"/>
      <path id="Path_954" data-name="Path 954" d="M376.966,232.384a34.479,34.479,0,0,0-4.983-1.017l-4.638-.845-2.017-.362h.19l2.69-.379c.9-.138,1.724-.328,2.707-.414.138,0,.138-.241,0-.224-.9.121-1.724.121-2.69.172l-2.81.19-2.448.259c-1.5-.241-3-.483-4.5-.69-.655-2.965-1.724-5.9-2.6-8.793s-1.931-6.034-2.966-9.034-2.086-5.862-3.224-8.759c-.569-1.448-3.6-10.345-4.6-12.69,0-.155-.241,0-.207.086.586,2.345,3.69,11.5,4.138,12.983.328,1.086.672,2.172,1.017,3.241l-.138-.155-1.81-2.414c-1.207-1.638-2.414-3.293-3.448-5.034,0-.155-.31,0-.224.138,1,1.828,1.948,3.655,3,5.431.535.9,1.086,1.724,1.724,2.621a13.256,13.256,0,0,0,1.862,2.414h0c.276.879.534,1.724.828,2.655.931,2.966,1.879,5.931,2.793,8.9s1.586,5.517,2.552,8.19c-3.086-.414-6.155-.776-9.241-1.155l-4.724-.552c-1.724-.19-3.448-.19-5.172-.483-.155,0-.207.207,0,.224,1.724.19,3.345.707,5,1l4.655.81c3.276.552,6.569,1.138,9.862,1.724s6.517.862,9.776,1.241l4.914.552a34.1,34.1,0,0,0,4.776.4Z" transform="translate(-191.534 -20.554)" fill="#263238"/>
      <path id="Path_955" data-name="Path 955" d="M386.564,239.468c-14.224-.5-39.828-2.448-51.724-4.034a.121.121,0,1,0,0,.224,204.139,204.139,0,0,0,51.724,4.362.276.276,0,1,0,0-.552Z" transform="translate(-193.856 12.534)" fill="#263238"/>
      <path id="Path_956" data-name="Path 956" d="M370.774,211.738c-.776-1.724-1.6-3.448-2.4-5.172-.931-2-1.017-1.724-.172.517s1.569,4.19,2.379,6.276c1.586,4.155,9.81,29.31,8.9,38.207a.1.1,0,0,0,.207,0C381.808,239.686,373.653,218.238,370.774,211.738Z" transform="translate(-169.998 -9.339)" fill="#263238"/>
    </g>
    <g id="freepik--character-1--inject-42" transform="translate(109.607 1020.535)">
      <path id="Path_957" data-name="Path 957" d="M210.323,145.07c19.552,18.966,23.534,67.776-.569,100.6-20.414,27.793-67.81,33.086-88.19,16.517-21.6-17.6-18.431-46.121-2.638-60,16.293-14.31,35.845-10.466,45.724-23.224,4.724-6.1,6.483-18.965,13.069-28.362C185.15,140.156,200.323,135.328,210.323,145.07Z" transform="translate(33.277 -62.246)" fill="#263238"/>
      <path id="Path_958" data-name="Path 958" d="M163.974,149.5c2.172-.81,4.224-12.914-3.724-18.672s-18.138.828-13.793,10.741C149.094,147.832,159.4,151.211,163.974,149.5Z" transform="translate(61.66 -70.283)" fill="#263238"/>
      <path id="Path_959" data-name="Path 959" d="M173.349,151.11a83.535,83.535,0,0,1-5.362,12.845,32.88,32.88,0,0,1-8.879,10.862,21.4,21.4,0,0,1-6.448,3.034c-2.241.724-4.483,1.328-6.707,1.948a135.672,135.672,0,0,0-13.155,4.172,53.448,53.448,0,0,0-12.069,6.276A33.155,33.155,0,0,0,106.936,212.9a58.622,58.622,0,0,0-.4,13.793,54.446,54.446,0,0,1-.431-13.914,34.689,34.689,0,0,1,4.241-13.345,32.965,32.965,0,0,1,9.431-10.448,55.448,55.448,0,0,1,12.414-6.621,132.4,132.4,0,0,1,13.362-4.086c2.241-.6,4.465-1.19,6.655-1.862a22.861,22.861,0,0,0,6.138-2.707,31.517,31.517,0,0,0,8.9-10.19,95.336,95.336,0,0,0,6.1-12.414Z" transform="translate(33.009 -54.045)" fill="#263238"/>
      <path id="Path_960" data-name="Path 960" d="M174.563,145.31a97.224,97.224,0,0,1,12.983,26.81,80.139,80.139,0,0,1,3.448,29.707,62.465,62.465,0,0,1-3.052,14.741c-.362,1.207-.845,2.362-1.31,3.534a34.135,34.135,0,0,1-1.5,3.448c-.586,1.1-1.086,2.276-1.724,3.448l-1.948,3.224a77.328,77.328,0,0,1-20.69,21.362c1.845-1.724,3.793-3.19,5.569-4.914s3.6-3.448,5.172-5.31a71.708,71.708,0,0,0,8.81-11.828,63.5,63.5,0,0,0,9-27.862A81.155,81.155,0,0,0,186.27,172.5a109.277,109.277,0,0,0-4.948-13.966A103.8,103.8,0,0,0,174.563,145.31Z" transform="translate(72.778 -58.245)" fill="#263238"/>
      <path id="Path_961" data-name="Path 961" d="M150.21,129.52a13.621,13.621,0,0,0-4.586,7.655,8.19,8.19,0,0,0,2.414,7.793,16.448,16.448,0,0,0,7.914,3.879,26.5,26.5,0,0,0,4.535.552,12.431,12.431,0,0,0,4.569-.5,11.173,11.173,0,0,1-4.535,1.345,20.414,20.414,0,0,1-4.81,0,15.948,15.948,0,0,1-8.862-3.931,9.052,9.052,0,0,1-2.517-9.345A11.9,11.9,0,0,1,150.21,129.52Z" transform="translate(60.579 -69.679)" fill="#263238"/>
      <path id="Path_962" data-name="Path 962" d="M190.145,179.214c-6.121,40.224-41.6,122.121-46.966,132.638-3.638,7.138-41.776-11.259-38.569-15.724,4.086-5.741,45.086-77.69,64.638-103.724C180.041,178.042,191.4,170.9,190.145,179.214Z" transform="translate(31.972 -36.252)" fill="#f7a9a0"/>
      <path id="Path_963" data-name="Path 963" d="M111.653,244.88c-4.448,5.862-11.414,22.6-13.017,28.19s-5.017,22.017-.776,23.741,5.534-3.069,5.534-3.069-.345,7.155,3.983,8.448,6.259-6.138,6.259-6.138.172,7.379,4.586,8.345,5.172-6.9,5.172-6.9-.155,6.759,3.81,6.034c4.793-.879,3.655-13.362,5.879-19.4.517-1.379,12.224-27.052,12.224-27.052Z" transform="translate(25.74 13.858)" fill="#f7a9a0"/>
      <path id="Path_964" data-name="Path 964" d="M111.823,284.609c-.81-9.172.431-13.328,4.586-21.4,0-.155-.138-.31-.241-.155-4.776,7.517-7.086,12.517-4.793,21.621C111.5,285.126,111.858,285.057,111.823,284.609Z" transform="translate(36.362 26.974)" fill="#263238"/>
      <path id="Path_965" data-name="Path 965" d="M106.084,284.37c0-9.621,1.293-14.138,5.017-22.914,0-.121-.138-.224-.207-.1-4.379,8.293-6.569,13.328-5.293,22.931C105.653,284.715,106.084,284.8,106.084,284.37Z" transform="translate(32.567 25.747)" fill="#263238"/>
      <path id="Path_966" data-name="Path 966" d="M100.063,282.172c.655-9.31,1.879-14.328,6.586-22.414a.172.172,0,0,0-.276-.19,30.931,30.931,0,0,0-6.6,22.517C99.822,282.758,100.011,282.758,100.063,282.172Z" transform="translate(28.485 24.463)" fill="#263238"/>
      <path id="Path_967" data-name="Path 967" d="M138.978,251.415s-.517,11.535-1.879,16.552-13.241,21.862-17.034,19.5c-4.879-3.052,0-14.138,3.207-19.241,0,0-11.31-7.052-9.465-15.776S138.978,251.415,138.978,251.415Z" transform="translate(38.622 16.323)" fill="#f7a9a0"/>
      <path id="Path_968" data-name="Path 968" d="M119.207,284.42c-2.448-6,2.1-12.448,4.776-17.638a.534.534,0,0,0-.379-.793c-4.534-3.276-10-9.207-9.9-15.121a.138.138,0,0,0-.276,0c-.966,6.31,3.931,12.586,9.138,15.862-2.828,5.276-7.1,11.931-3.448,17.724C119.173,284.471,119.225,284.454,119.207,284.42Z" transform="translate(38.409 18.094)" fill="#263238"/>
      <path id="Path_969" data-name="Path 969" d="M127.19,224.833s5.793,2.983,12.517,6.534c8.793,4.6,19.19,10.155,20.293,11.1,0,0,11.259-36.293,13.793-52.517s.19-19.4-11.638-9.621c-5.707,4.741-14.052,15.276-21.138,24.914C133.38,215.557,127.19,224.833,127.19,224.833Z" transform="translate(48.461 -36.888)" fill="#13c693"/>
      <path id="Path_970" data-name="Path 970" d="M127.19,224.833s5.793,2.983,12.517,6.534c8.793,4.6,19.19,10.155,20.293,11.1,0,0,11.259-36.293,13.793-52.517s.19-19.4-11.638-9.621c-5.707,4.741-14.052,15.276-21.138,24.914C133.38,215.557,127.19,224.833,127.19,224.833Z" transform="translate(48.461 -36.888)" fill="#13c693"/>
      <path id="Path_971" data-name="Path 971" d="M173.773,189.953c-2.5,16.224-13.793,52.517-13.793,52.517-1.1-.948-11.5-6.5-20.293-11.1l-4.862-2.552c-4.431-2.328-7.655-3.983-7.655-3.983s6.19-9.276,13.793-19.586c7.086-9.638,15.431-20.172,21.138-24.914l1.241-1C174.118,170.8,176.187,174.315,173.773,189.953Z" transform="translate(48.447 -36.888)" fill="#13c693"/>
      <path id="Path_972" data-name="Path 972" d="M173.773,189.953c-2.5,16.224-13.793,52.517-13.793,52.517-1.1-.948-11.5-6.5-20.293-11.1l-4.862-2.552c-4.431-2.328-7.655-3.983-7.655-3.983s6.19-9.276,13.793-19.586c7.086-9.638,15.431-20.172,21.138-24.914l1.241-1C174.118,170.8,176.187,174.315,173.773,189.953Z" transform="translate(48.447 -36.888)" fill="#13c693"/>
      <path id="Path_973" data-name="Path 973" d="M170.558,189.953c-2.5,16.224-13.793,52.517-13.793,52.517-1.1-.948-11.5-6.5-20.293-11.1l-4.862-2.552c6.983-12.293,20.069-34.9,28.517-49.483C170.9,170.8,172.972,174.315,170.558,189.953Z" transform="translate(51.662 -36.888)" fill="#263238"/>
      <path id="Path_974" data-name="Path 974" d="M159.6,215.665a314.155,314.155,0,0,0-29.707-15.034c-.121,0-.19.138,0,.19,2.465,1.1,18.31,9.9,29.69,15.052C159.631,215.923,159.717,215.733,159.6,215.665Z" transform="translate(50.331 -18.185)" fill="#263238"/>
      <path id="Path_975" data-name="Path 975" d="M154.73,184.014c.259,1.552,6.983,11.983,14.034,12.069,2.293,0,3-12.483,3-12.483l.276-.914,3.69-12.776-14.6-10.69-2.121-1.431s-.776,3.569-1.724,8a4.582,4.582,0,0,1-.121.638c-.035.224-.121.483-.172.724-.138.655-.293,1.345-.431,2.017s-.207,1.017-.293,1.552-.19,1.069-.293,1.621A85.008,85.008,0,0,0,154.73,184.014Z" transform="translate(68.404 -49.207)" fill="#f7a9a0"/>
      <path id="Path_976" data-name="Path 976" d="M156.22,165.77a26.69,26.69,0,0,0,14.741,16.9l3.69-12.776-14.6-10.69-2.121-1.431S157.151,161.339,156.22,165.77Z" transform="translate(69.483 -49.222)" fill="#263238"/>
      <path id="Path_977" data-name="Path 977" d="M194.664,161.893c5.414,22.672-7.448,28.69-12.465,29.638-4.483.862-19.69,4.086-27.414-17.914s1.1-31.69,11.121-34.638S189.25,139.2,194.664,161.893Z" transform="translate(66.315 -63.5)" fill="#f7a9a0"/>
      <path id="Path_978" data-name="Path 978" d="M176.822,150.118H175.2a2.672,2.672,0,0,1-1.621-.379.81.81,0,0,1-.155-1,2.017,2.017,0,0,1,1.914-.81,2.983,2.983,0,0,1,2.052.741.9.9,0,0,1-.569,1.448Z" transform="translate(81.864 -56.363)" fill="#263238"/>
      <path id="Path_979" data-name="Path 979" d="M167.291,152.28a14.241,14.241,0,0,0,1.5-.586,2.569,2.569,0,0,0,1.414-.9.845.845,0,0,0-.172-1,2.069,2.069,0,0,0-2.069-.138,3.1,3.1,0,0,0-1.724,1.362.9.9,0,0,0,1.052,1.259Z" transform="translate(76.671 -55.249)" fill="#263238"/>
      <path id="Path_980" data-name="Path 980" d="M169.675,154.05s-.1,0,0,.155c.345,1.552.483,3.448-.845,4.172v.086C170.451,157.895,170.244,155.464,169.675,154.05Z" transform="translate(78.614 -51.916)" fill="#263238"/>
      <path id="Path_981" data-name="Path 981" d="M168.986,153.263c-2.535.276-1.724,5.345.586,5.172S171.124,153.022,168.986,153.263Z" transform="translate(77.597 -52.491)" fill="#263238"/>
      <path id="Path_982" data-name="Path 982" d="M169.04,153.517c-.4.345-.759.914-1.293,1.052s-1.138-.31-1.621-.759h-.086c.138.983.655,1.914,1.724,1.914s1.517-.983,1.621-1.983C169.419,153.621,169.2,153.379,169.04,153.517Z" transform="translate(76.594 -52.331)" fill="#263238"/>
      <path id="Path_983" data-name="Path 983" d="M174.143,152.81s.138,0,.138.121c.172,1.569.638,3.448,2.138,3.672v.086C174.643,156.689,174.057,154.327,174.143,152.81Z" transform="translate(82.456 -52.813)" fill="#263238"/>
      <path id="Path_984" data-name="Path 984" d="M175.322,151.758c2.5-.552,3.448,4.483,1.1,5S173.219,152.206,175.322,151.758Z" transform="translate(82.45 -53.606)" fill="#263238"/>
      <path id="Path_985" data-name="Path 985" d="M175.55,152.124c.448.19.931.6,1.414.552s.879-.69,1.121-1.276h.1a2.044,2.044,0,0,1-.828,2.379c-.828.362-1.586-.4-2-1.31C175.291,152.434,175.377,152.038,175.55,152.124Z" transform="translate(83.326 -53.835)" fill="#263238"/>
      <path id="Path_986" data-name="Path 986" d="M170.418,161.088c.414.328.845.81,1.431.793a4.4,4.4,0,0,0,1.724-.569h0a2.121,2.121,0,0,1-1.914,1.069,1.724,1.724,0,0,1-1.379-1.276A.109.109,0,0,1,170.418,161.088Z" transform="translate(79.664 -46.833)" fill="#263238"/>
      <path id="Path_987" data-name="Path 987" d="M175.807,163.526a33.545,33.545,0,0,1,.879,3.448c0,.1-.241.19-.621.276h0a5.31,5.31,0,0,1-5.414-1.121.121.121,0,0,1,.138-.19,8.121,8.121,0,0,0,5.017.6c0-.328-1.345-3.879-1.172-3.931a9.81,9.81,0,0,1,2.6.172c-1.328-4.81-3.448-9.379-4.655-14.172,0-.172.207-.276.276-.121a81.464,81.464,0,0,1,5.672,15.052C178.687,164.113,176.273,163.647,175.807,163.526Z" transform="translate(79.913 -55.995)" fill="#263238"/>
      <path id="Path_988" data-name="Path 988" d="M175.921,159.1a6.483,6.483,0,0,1-1.948,2.638,2.862,2.862,0,0,1-1.724.586c-1.328,0-1.724-1.1-1.724-2.138a6.308,6.308,0,0,1,.138-1.724A8.362,8.362,0,0,0,175.921,159.1Z" transform="translate(79.834 -48.722)" fill="#263238"/>
      <path id="Path_989" data-name="Path 989" d="M173.968,161.05a2.862,2.862,0,0,1-1.724.586c-1.328,0-1.724-1.1-1.724-2.138A3.052,3.052,0,0,1,173.968,161.05Z" transform="translate(79.838 -48.036)" fill="#ff9bbc"/>
      <path id="Path_990" data-name="Path 990" d="M157.052,174.122c2.5-.5,8.1-8.379,6.569-20.586,0,0,.621,11.052,0,12.776s3.121-4.431,2.034-14.293a40.5,40.5,0,0,0,10.828,3.81c4.81.638,7.655.19,7.931-.19s-6.9-1.569-9-3.448c0,0,13.155,3.983,18.965,3.621.672,0-.465-13.69-10.069-18.19s-22.672,3.672-25.862,7.81c0,0-4.31,1.259-8.172,8.431S154.363,174.673,157.052,174.122Z" transform="translate(64.426 -64.763)" fill="#263238"/>
      <path id="Path_991" data-name="Path 991" d="M160.191,160.839s-6.1-6.465-9.1-4.172,2.345,12.069,6.4,13A3.948,3.948,0,0,0,162.4,166.8Z" transform="translate(65.132 -50.377)" fill="#f7a9a0"/>
      <path id="Path_992" data-name="Path 992" d="M151.69,158.081v.1a9.983,9.983,0,0,1,6.017,5.414,2.19,2.19,0,0,0-3.31-.121l.086.138a2.448,2.448,0,0,1,2.776.448,10.793,10.793,0,0,1,1.569,1.948c.172.224.586,0,.448-.241h0C158.811,162.271,155.431,157.943,151.69,158.081Z" transform="translate(66.203 -48.999)" fill="#263238"/>
      <path id="Path_993" data-name="Path 993" d="M92.971,494.982c.672-.328,95.19-46.914,110.828-76.224,27.948-52.414,37.672-119.414,41.19-135.155a231.914,231.914,0,0,0,14.638-56.483H183.454s-19.983,38.224-9.672,65.224c.931,2.483-16.948,87.328-25.69,97.379C138.368,400.879,63.8,438.31,62.54,438.948Z" transform="translate(1.646 0.997)" fill="#37474f"/>
      <path id="Path_994" data-name="Path 994" d="M216.31,232.782c-3.759,19.241-8.034,38.4-12.345,57.517s-8.845,37.931-13.621,56.776q-3.621,14.276-7.448,28.466c-2.328,8.621-4.6,17.448-10.466,24.4s-13.345,11.724-20.517,16.69c-7.586,5.172-15.379,10.19-23.31,14.9-16,9.517-32.5,18.155-49.069,26.621l-6.086,3.086c-.448.224,0,.9.414.672,16.793-8.345,33.552-16.862,49.793-26.241q12.19-7.017,23.931-14.724c3.845-2.534,7.638-5.172,11.4-7.828a119.4,119.4,0,0,0,10.19-7.931,40.726,40.726,0,0,0,8.1-9.741,55.742,55.742,0,0,0,4.9-11.983c2.776-9.155,5.086-18.483,7.483-27.741q7.448-28.707,13.793-57.655c4.293-19.293,8.276-38.655,11.741-58.121.431-2.362.845-4.724,1.293-7.086C216.586,232.678,216.328,232.61,216.31,232.782Z" transform="translate(9.41 5.025)" fill="#263238"/>
      <path id="Path_995" data-name="Path 995" d="M206.192,227.131a231.916,231.916,0,0,1-14.638,56.483c-.362,1.586-.776,3.69-1.259,6.259-.121.621-.241,1.259-.379,1.914s-.328,1.724-.517,2.707-.328,1.724-.5,2.655l-.362,1.845c-.224,1.224-.483,2.517-.741,3.845-.1.534-.207,1.086-.328,1.621-.19,1.017-.414,2.069-.621,3.138-.879,4.31-1.862,9.017-2.966,14.035-.483,2.121-.983,4.328-1.517,6.569s-1.069,4.534-1.724,6.9c-.241,1-.5,2-.759,3-1.31,5.172-2.776,10.672-4.379,16.207-.345,1.224-.707,2.448-1.069,3.69q-2.448,8.19-5.31,16.621c-.483,1.4-.983,2.793-1.466,4.207q-1.5,4.19-3.121,8.414l-28.207-160.1C154.727,227.1,206.209,227.1,206.192,227.131Z" transform="translate(55.08 0.986)" fill="#263238"/>
      <path id="Path_996" data-name="Path 996" d="M62.893,367.778c-3.448,1.724-6.724,3.586-9.931,5.345l-5.828,3.224c-12.069,6.724-21.172,12.207-21.293,13.621-.4,4.31,43.19,89.983,45.707,92.483s9.741-4.552,10.741-9.241c.569-2.845,0-18.845-.448-30.948-.345-7.776-.638-13.948-.638-13.948l10.172-4.862,46.4-22.086-29.31-57.224S84.876,355.968,62.893,367.778Z" transform="translate(-24.931 85.736)" fill="#fff"/>
      <path id="Path_997" data-name="Path 997" d="M127.55,409.089C126.377,407.5,95.6,346.71,95.6,346.71S27.119,382.227,25.36,387.658,71.05,482.589,73.05,483.5s9.862-5.172,12.172-14.431c1.724-6.724-.466-40.069-.466-40.069Z" transform="translate(-25.312 87.597)" fill="#13c693"/>
      <path id="Path_998" data-name="Path 998" d="M65.76,403.273c-.155-6.448-2.707-13.793-8.138-17.638-.207-.138-.414.155-.31.345a89.827,89.827,0,0,1,7.672,17.431.4.4,0,0,0,.776-.138Z" transform="translate(-2.16 115.758)" fill="#455a64"/>
      <path id="Path_999" data-name="Path 999" d="M68.487,401.883c-.155-6.448-2.724-13.793-8.155-17.638-.207-.138-.414.155-.31.345a87.792,87.792,0,0,1,7.672,17.431.414.414,0,0,0,.793-.138Z" transform="translate(-0.198 114.752)" fill="#455a64"/>
      <path id="Path_1000" data-name="Path 1000" d="M71.19,400.493c-.155-6.448-2.724-13.793-8.138-17.638-.207-.138-.414.155-.31.345A88.737,88.737,0,0,1,70.4,400.631a.414.414,0,0,0,.793-.138Z" transform="translate(1.772 113.745)" fill="#455a64"/>
      <path id="Path_1001" data-name="Path 1001" d="M73.917,399.106c-.172-6.448-2.724-13.793-8.155-17.638-.207-.155-.414.155-.31.345a89.826,89.826,0,0,1,7.672,17.431.414.414,0,0,0,.793-.138Z" transform="translate(3.734 112.736)" fill="#455a64"/>
      <path id="Path_1002" data-name="Path 1002" d="M76.623,397.716c-.155-6.448-2.724-13.793-8.138-17.638-.224-.155-.431.155-.31.345a88.742,88.742,0,0,1,7.655,17.431.414.414,0,0,0,.793-.138Z" transform="translate(5.7 111.729)" fill="#455a64"/>
      <path id="Path_1003" data-name="Path 1003" d="M163.489,295.319s6.517,61.793,9.552,92.9c.776,7.741,1.293,13.6,1.483,16.1,0,1,.1,17.138.138,38.259v104.19h62.81v-9.138c0-5.293.19-12.621.31-21.155,0-4.379.121-9.052.19-13.948.483-38.034.879-89.121-.207-104.172-.138-1.724-.259-3.534-.379-5.379-2.828-42.6-4.4-104.621-25.293-165.914H132.61s.69,36,17.069,62.069a135.417,135.417,0,0,1,13.81,6.19Z" transform="translate(52.386 0.954)" fill="#37474f"/>
      <path id="Path_1004" data-name="Path 1004" d="M195.353,414.654c-.31-19.862-1.121-39.655-2.672-59.517s-3.931-39.1-7.1-58.517A484.483,484.483,0,0,0,172.9,238.741c-.69-2.379-1.4-4.759-2.121-7.121a.259.259,0,0,0-.5.138c5.086,18.966,9.465,38.224,12.793,57.655s5.517,39.207,7.172,58.931,2.586,39.655,3.086,59.466.534,39.655.345,59.465-.966,39.655-1.017,59.414v7.448c0,.172.259.155.259,0,.362-9.931.948-19.862,1.276-29.81s.621-19.914.862-29.879C195.439,454.517,195.663,434.586,195.353,414.654Z" transform="translate(79.66 4.118)" fill="#263238"/>
      <path id="Path_1005" data-name="Path 1005" d="M167.059,274.11c-3.914-2.138-7.931-4.069-12.069-5.828s-8.328-3.345-12.414-5.172c-.155,0-.293.155-.138.241,4.034,2.069,7.983,4.293,12.069,6.259a97.792,97.792,0,0,0,12.362,4.948A.245.245,0,0,0,167.059,274.11Z" transform="translate(59.454 27.059)" fill="#263238"/>
      <path id="Path_1006" data-name="Path 1006" d="M157.215,438.262c0,3.828.138,7.621.241,11.276,0,2.276.138,4.5.207,6.638.465,13.793,1.224,24.414,2.414,25.172,3.655,2.31,99.776,2.6,103.138,1.5s.414-10.776-3.31-13.793c-2.259-1.81-16.724-8.621-27.724-13.707h0c-7.069-3.259-12.707-5.793-12.707-5.793l.31-11.276,1.5-51.379H156.939S156.8,413.331,157.215,438.262Z" transform="translate(69.988 116.7)" fill="#fff"/>
      <path id="Path_1007" data-name="Path 1007" d="M225.816,394.92c-1.948.328-70.086,0-70.086,0s.379,77.138,4.414,81.172,105.328,2.638,107.035,1.293-.121-11.155-7.293-17.431c-5.172-4.552-35.862-17.845-35.862-17.845Z" transform="translate(69.128 122.508)" fill="#13c693"/>
      <path id="Path_1008" data-name="Path 1008" d="M205.894,421.9c-5.81-2.81-13.552-3.9-19.414-.793-.224.121,0,.431.155.431A88.961,88.961,0,0,1,205.6,422.66a.407.407,0,0,0,.293-.759Z" transform="translate(91.327 140.113)" fill="#455a64"/>
      <path id="Path_1009" data-name="Path 1009" d="M205.894,418.851c-5.81-2.81-13.552-3.9-19.414-.793-.224.121,0,.431.155.431A88.965,88.965,0,0,1,205.6,419.61a.407.407,0,1,0,.293-.759Z" transform="translate(91.327 137.904)" fill="#455a64"/>
      <path id="Path_1010" data-name="Path 1010" d="M205.894,415.8c-5.81-2.81-13.552-3.9-19.414-.793-.224.121,0,.431.155.431A88.959,88.959,0,0,1,205.6,416.56a.407.407,0,0,0,.293-.759Z" transform="translate(91.327 135.695)" fill="#455a64"/>
      <path id="Path_1011" data-name="Path 1011" d="M205.894,412.751c-5.81-2.81-13.552-3.9-19.414-.793-.224.121,0,.431.155.431A88.969,88.969,0,0,1,205.6,413.51a.407.407,0,0,0,.293-.759Z" transform="translate(91.327 133.487)" fill="#455a64"/>
      <path id="Path_1012" data-name="Path 1012" d="M205.894,409.7c-5.81-2.81-13.552-3.9-19.414-.793-.224.121,0,.431.155.431A88.969,88.969,0,0,1,205.6,410.46a.407.407,0,0,0,.293-.759Z" transform="translate(91.327 131.278)" fill="#455a64"/>
      <path id="Path_1013" data-name="Path 1013" d="M220.1,245.7l7.017,48.276s-83.155,1.155-102.69-.207c0,0,20.414-90.259,41.379-113.052,10.517-11.414,22.845-10.552,30.707-2.586,1.983,2.017,25.707,33.379,28.207,45.362C226.947,234.066,220.1,245.7,220.1,245.7Z" transform="translate(46.462 -38.811)" fill="#13c693"/>
      <path id="Path_1014" data-name="Path 1014" d="M159.54,226.595c11.793,1.724,80.9-2.362,93.1-16.707,14.828-17.362,32.759-51.448,37.293-62.379,2.966-7.259-31.345-25.862-33.276-18.966-3.017,10.793-29.707,51.569-31.776,55.172S192.126,197.87,174.247,206.8C158.212,214.8,151.23,225.336,159.54,226.595Z" transform="translate(69.335 -71.477)" fill="#f7a9a0"/>
      <path id="Path_1015" data-name="Path 1015" d="M214.16,153.429s3.9-14.345,6.9-23.6c1.724-5.172,5.328-13.793,8.293-16.983C233.781,108,255.384,90.6,259.712,95.757,263.643,100.412,243.177,113,243.177,113s19.534-14.534,23.207-8.052-21.328,17.638-21.328,17.638,20.414-14.483,23.155-7.19c2.069,5.5-20.017,16.879-20.017,16.879s17.621-12.328,20-6.759c2.638,6.155-17.1,17.931-17.1,17.931,3.672,15.19-.793,23.914-4.707,29.741C245.419,174.584,214.16,153.429,214.16,153.429Z" transform="translate(111.439 -94.812)" fill="#f7a9a0"/>
      <path id="Path_1016" data-name="Path 1016" d="M226.878,113.866c2.241-1.724,4.483-3.621,6.9-5.172s4.828-3.086,7.345-4.448A48.981,48.981,0,0,1,251.464,99.9a106.246,106.246,0,0,0-17.241,9.466c-2.379,1.569-4.828,3.034-7.207,4.621C226.878,114.038,226.827,113.952,226.878,113.866Z" transform="translate(120.635 -91.128)" fill="#263238"/>
      <path id="Path_1017" data-name="Path 1017" d="M230.106,118.115c2.948-2.172,5.793-4.414,8.845-6.448s6.086-3.672,9.241-5.483c.259-.138.241,0,0,.19-3.086,1.931-5.793,3.948-8.845,5.914s-6.207,3.828-9.19,5.9C230.106,118.218,230.071,118.149,230.106,118.115Z" transform="translate(122.976 -86.618)" fill="#263238"/>
      <path id="Path_1018" data-name="Path 1018" d="M232.115,121.632a82.191,82.191,0,0,1,14.293-8.828c.241-.121.207.1,0,.259-4.81,2.845-8.621,5.034-14.138,8.724C232.149,121.787,231.959,121.787,232.115,121.632Z" transform="translate(124.399 -81.808)" fill="#263238"/>
      <path id="Path_1019" data-name="Path 1019" d="M208.909,162.12,225.7,198.448s-41.586,11.138-61.517,8.466c-14.4-1.931-13.914-13.379,5.931-25.19C185.788,172.4,208.909,162.12,208.909,162.12Z" transform="translate(68.018 -46.072)" fill="#13c693"/>
      <path id="Path_1020" data-name="Path 1020" d="M197.574,197.253A335.5,335.5,0,0,0,182.695,164.3c0-.138-.259,0-.19.1,1.345,2.6,8.741,20.845,14.845,32.948C197.419,197.494,197.626,197.391,197.574,197.253Z" transform="translate(88.508 -44.532)" fill="#263238"/>
      <path id="Path_1021" data-name="Path 1021" d="M183.137,187.431c-6.517.948-12.741,3.448-18.966,5.448a.138.138,0,0,0,.086.259c2.4-.69,4.845-1.31,7.293-1.948-1.121.672-2.207,1.4-3.328,2.052-.155,0,0,.31.138.224,1.724-.983,3.448-1.724,5.172-2.81a79.307,79.307,0,0,0,9.638-3.086S183.24,187.413,183.137,187.431Z" transform="translate(75.187 -27.744)" fill="#263238"/>
    </g>
    <g id="freepik--speech-bubble--inject-42" transform="translate(649.862 1038.908)">
      <path id="Path_1022" data-name="Path 1022" d="M343.68,143.926a20.914,20.914,0,0,1-3.586-11.569c0-14.638,16.086-26.517,35.931-26.517s35.9,11.879,35.9,26.517-16.069,26.534-35.9,26.534a43.1,43.1,0,0,1-24.776-7.345L338.87,154.7Z" transform="translate(-338.508 -105.2)" fill="#fff"/>
      <path id="Path_1023" data-name="Path 1023" d="M343.832,144.2a20.431,20.431,0,0,1-.966-22.241,28.467,28.467,0,0,1,7.914-8.621,38.12,38.12,0,0,1,10.465-5.379,48.95,48.95,0,0,1,11.552-2.362,49.863,49.863,0,0,1,11.776.569A39.1,39.1,0,0,1,405.643,116.4a25.137,25.137,0,0,1,6.328,10.121,20.5,20.5,0,0,1,.1,11.965A24.845,24.845,0,0,1,405.9,148.7a34.847,34.847,0,0,1-9.672,6.9,46.155,46.155,0,0,1-23.034,4.207,42.655,42.655,0,0,1-22.017-7.535h.31l-12.414,2.948-.414.1.172-.379Zm0,0-4.621,10.862-.241-.293,12.328-3.328h.172l.155.121a42.275,42.275,0,0,0,21.655,6.9,48.844,48.844,0,0,0,11.431-.81,41.377,41.377,0,0,0,10.845-3.448,33.382,33.382,0,0,0,9.207-6.586,23.175,23.175,0,0,0,5.707-9.569,18.965,18.965,0,0,0-.138-11,23.465,23.465,0,0,0-5.862-9.448,37.517,37.517,0,0,0-20.155-9.914,47.759,47.759,0,0,0-22.69,1.448A32.5,32.5,0,0,0,343.5,122.419a20.551,20.551,0,0,0-3.035,10.914A21.207,21.207,0,0,0,343.832,144.2Z" transform="translate(-338.66 -105.469)" fill="#263238"/>
      <path id="Path_1024" data-name="Path 1024" d="M367.91,122.784a3.724,3.724,0,1,0,3.724-3.724A3.724,3.724,0,0,0,367.91,122.784Z" transform="translate(-317.479 -95.627)" fill="#263238"/>
      <path id="Path_1025" data-name="Path 1025" d="M358.25,122.784a3.724,3.724,0,1,0,1.1-2.64A3.741,3.741,0,0,0,358.25,122.784Z" transform="translate(-324.474 -95.627)" fill="#263238"/>
      <path id="Path_1026" data-name="Path 1026" d="M348.6,122.784a3.724,3.724,0,1,0,3.724-3.724A3.724,3.724,0,0,0,348.6,122.784Z" transform="translate(-331.462 -95.627)" fill="#263238"/>
    </g>
  </g>
</svg>
