<svg xmlns="http://www.w3.org/2000/svg" width="50" height="50" viewBox="0 0 50 50">
  <path id="icons8-instagram_2_" data-name="icons8-instagram (2)" d="M17.579,3A14.6,14.6,0,0,0,3,17.587V38.421A14.6,14.6,0,0,0,17.587,53H38.421A14.6,14.6,0,0,0,53,38.412V17.579A14.6,14.6,0,0,0,38.412,3Zm25,8.333A2.083,2.083,0,1,1,40.5,13.417,2.084,2.084,0,0,1,42.583,11.333ZM28,15.5A12.5,12.5,0,1,1,15.5,28,12.513,12.513,0,0,1,28,15.5Zm0,4.167A8.333,8.333,0,1,0,36.333,28,8.333,8.333,0,0,0,28,19.667Z" transform="translate(-3 -3)" fill="#13c693"/>
</svg>
