<svg xmlns="http://www.w3.org/2000/svg" xmlns:xlink="http://www.w3.org/1999/xlink" width="150" height="120.445" viewBox="0 0 150 120.445">
  <defs>
    <clipPath id="clip-path">
      <path id="Path_2890" data-name="Path 2890" d="M202.935,230.556a5.744,5.744,0,0,0-1.43-.158c-.66.068-.526.5-1.336.51-.991,0-2.921-.789-3.915-.326-2.487,1.131-2.905,1.241-3.268,1.738-.957,1.315.047,9.113.584,11.393.429,1.817.384,6.534,1.17,7.281,1.465,1.383,3.513,1.154,5.49.789,1.714-.329,4.575-.77,5.206-2.4a13.4,13.4,0,0,0,.018-2.629c-.158-4.267.1-6.723.021-9.466l1.6-.649S205.186,231.187,202.935,230.556Z" transform="translate(-192.589 -230.397)" fill="#13c693" stroke="#263238" stroke-miterlimit="10" stroke-width="1"/>
    </clipPath>
    <clipPath id="clip-path-2">
      <path id="Path_2905" data-name="Path 2905" d="M181,244.576a22.322,22.322,0,0,0,4.578,1.709,6.756,6.756,0,0,1,1.228-2.59,5.373,5.373,0,0,0,1.162-3.876,3.6,3.6,0,0,0-1.8-2.629C183.132,235.547,181.284,242.238,181,244.576Z" transform="translate(-181 -236.933)" fill="#13c693" stroke="#263238" stroke-miterlimit="10" stroke-width="1"/>
    </clipPath>
  </defs>
  <g id="Load_more-bro" data-name="Load more-bro" transform="translate(-64.729 -21.92)">
    <g id="freepik--background-simple--inject-5" transform="translate(64.729 28.395)">
      <path id="Path_2792" data-name="Path 2792" d="M95.974,49.133a47.667,47.667,0,0,0-19.7,8.558c-5.806,4.257-10.425,10.554-11.364,17.682-.965,7.362,1.993,14.674,5.784,21.035s8.522,12.2,11.661,18.918c2.763,5.911,4.283,12.455,8.006,17.814,5.067,7.3,13.751,11.5,22.546,12.742s17.758-.184,26.393-2.269a183.513,183.513,0,0,0,51.119-21.127c7.186-4.312,14.269-9.266,18.889-16.257a33.392,33.392,0,0,0,4.188-27.2,33.058,33.058,0,0,0-13.717-18.513C196.976,58.725,168.906,36.2,95.974,49.133Z" transform="translate(-64.729 -45.146)" fill="#13c693"/>
      <path id="Path_2793" data-name="Path 2793" d="M95.974,49.133a47.667,47.667,0,0,0-19.7,8.558c-5.806,4.257-10.425,10.554-11.364,17.682-.965,7.362,1.993,14.674,5.784,21.035s8.522,12.2,11.661,18.918c2.763,5.911,4.283,12.455,8.006,17.814,5.067,7.3,13.751,11.5,22.546,12.742s17.758-.184,26.393-2.269a183.513,183.513,0,0,0,51.119-21.127c7.186-4.312,14.269-9.266,18.889-16.257a33.392,33.392,0,0,0,4.188-27.2,33.058,33.058,0,0,0-13.717-18.513C196.976,58.725,168.906,36.2,95.974,49.133Z" transform="translate(-64.729 -45.146)" fill="#fff" opacity="0.7"/>
    </g>
    <g id="freepik--Page--inject-5" transform="translate(90.176 22.42)">
      <rect id="Rectangle_361" data-name="Rectangle 361" width="101.166" height="75.548" transform="translate(0 0)" fill="#fff" stroke="#263238" stroke-linecap="round" stroke-linejoin="round" stroke-width="1"/>
      <path id="Path_2794" data-name="Path 2794" d="M222.255,49.22l-1.625,1.112,1.693,1.028" transform="translate(-205.085 -42.173)" fill="none" stroke="#263238" stroke-linecap="round" stroke-linejoin="round" stroke-width="1"/>
      <line id="Line_7" data-name="Line 7" x2="2.503" transform="translate(15.545 8.159)" fill="none" stroke="#263238" stroke-linecap="round" stroke-linejoin="round" stroke-width="1"/>
      <path id="Path_2795" data-name="Path 2795" d="M245.3,51.36l1.628-1.115-1.7-1.025" transform="translate(-223.217 -42.173)" fill="none" stroke="#263238" stroke-linecap="round" stroke-linejoin="round" stroke-width="1"/>
      <line id="Line_8" data-name="Line 8" x1="2.503" transform="translate(21.205 8.072)" fill="none" stroke="#263238" stroke-linecap="round" stroke-linejoin="round" stroke-width="1"/>
      <path id="Path_2796" data-name="Path 2796" d="M265.449,51.572a1.4,1.4,0,1,1,1.394-1.4" transform="translate(-237.089 -41.849)" fill="none" stroke="#263238" stroke-linecap="round" stroke-linejoin="round" stroke-width="1"/>
      <path id="Path_2797" data-name="Path 2797" d="M271.39,52.081l.862.247.365-.668" transform="translate(-242.499 -43.972)" fill="none" stroke="#263238" stroke-linecap="round" stroke-linejoin="round" stroke-width="1"/>
      <path id="Path_2798" data-name="Path 2798" d="M433.07,50.654a1.052,1.052,0,1,1,0-1.475A1.052,1.052,0,0,1,433.07,50.654Z" transform="translate(-360.34 -41.912)" fill="none" stroke="#263238" stroke-linecap="round" stroke-linejoin="round" stroke-width="1"/>
      <line id="Line_9" data-name="Line 9" x2="0.981" y2="0.981" transform="translate(72.729 8.742)" fill="none" stroke="#263238" stroke-linecap="round" stroke-linejoin="round" stroke-width="1"/>
      <path id="Path_2799" data-name="Path 2799" d="M322.613,50.423H291.781a1.6,1.6,0,0,1-1.6-1.6h0a1.6,1.6,0,0,1,1.6-1.6h30.831a1.6,1.6,0,0,1,1.6,1.6h0A1.6,1.6,0,0,1,322.613,50.423Z" transform="translate(-256.349 -40.699)" fill="none" stroke="#263238" stroke-linecap="round" stroke-linejoin="round" stroke-width="1"/>
      <rect id="Rectangle_362" data-name="Rectangle 362" width="101.166" height="4.249" transform="translate(0 0)" fill="#263238"/>
      <path id="Path_2800" data-name="Path 2800" d="M173.375,26.793A1.273,1.273,0,1,1,172.1,25.52,1.273,1.273,0,0,1,173.375,26.793Z" transform="translate(-168.379 -24.705)" fill="#fff"/>
      <path id="Path_2801" data-name="Path 2801" d="M188.2,26.793a1.273,1.273,0,1,1-1.273-1.273A1.273,1.273,0,0,1,188.2,26.793Z" transform="translate(-179.303 -24.705)" fill="#fff"/>
      <path id="Path_2802" data-name="Path 2802" d="M203.015,26.793a1.27,1.27,0,1,1-.371-.9A1.273,1.273,0,0,1,203.015,26.793Z" transform="translate(-190.226 -24.705)" fill="#fff"/>
    </g>
    <g id="freepik--Plant--inject-5" transform="translate(179.465 89.702)">
      <path id="Path_2803" data-name="Path 2803" d="M532.834,342.935S532,319.271,524.42,310.87a101.606,101.606,0,0,1,6.755,32.341Z" transform="translate(-518.288 -302.309)" fill="#13c693"/>
      <path id="Path_2804" data-name="Path 2804" d="M532.834,342.935S532,319.271,524.42,310.87a101.606,101.606,0,0,1,6.755,32.341Z" transform="translate(-518.288 -302.309)" opacity="0.1"/>
      <path id="Path_2805" data-name="Path 2805" d="M558.588,345.107c.029.047-.231.294.628.334,2.117.092,5.861-.039,7.273-1.961,2.014-2.742-2.629-2.5-2.161-4.018s5.424-.263,6.4-2.424-2.642-1.748-2.472-2.861,3.962.342,5.222-1.951-2.061-1.073-1.522-2.022,4.762-4.9,3.058-5.784-5.669,3.234-6.976,3.681-1.6-3.615-3.313-2.264-.613,7.473-2.614,8.227c-1.491.56-.673-1.63-2.511-1.551C557.108,332.612,556.261,341.189,558.588,345.107Z" transform="translate(-542.465 -312.204)" fill="#13c693"/>
      <g id="Group_79" data-name="Group 79" transform="translate(14.756 12.091)" opacity="0.1">
        <path id="Path_2806" data-name="Path 2806" d="M558.588,345.107c.029.047-.231.294.628.334,2.117.092,5.861-.039,7.273-1.961,2.014-2.742-2.629-2.5-2.161-4.018s5.424-.263,6.4-2.424-2.642-1.748-2.472-2.861,3.962.342,5.222-1.951-2.061-1.073-1.522-2.022,4.762-4.9,3.058-5.784-5.669,3.234-6.976,3.681-1.6-3.615-3.313-2.264-.613,7.473-2.614,8.227c-1.491.56-.673-1.63-2.511-1.551C557.108,332.612,556.261,341.189,558.588,345.107Z" transform="translate(-557.221 -324.294)"/>
      </g>
      <path id="Path_2807" data-name="Path 2807" d="M566.335,355.59s-8.222,5.614-10.015,19.935" transform="translate(-541.801 -335.271)" fill="none" stroke="#263238" stroke-linecap="round" stroke-linejoin="round" stroke-width="0.75"/>
      <path id="Path_2808" data-name="Path 2808" d="M590.22,361.7a6.717,6.717,0,0,0-3.2-.034" transform="translate(-564.429 -339.63)" fill="none" stroke="#263238" stroke-linecap="round" stroke-linejoin="round" stroke-width="0.75"/>
      <path id="Path_2809" data-name="Path 2809" d="M583.708,339.76a13.737,13.737,0,0,0-2.469,7.6" transform="translate(-560.168 -323.603)" fill="none" stroke="#263238" stroke-linecap="round" stroke-linejoin="round" stroke-width="0.75"/>
      <path id="Path_2810" data-name="Path 2810" d="M571.92,379.535a4.238,4.238,0,0,1,4.138-.815" transform="translate(-553.299 -352.141)" fill="none" stroke="#263238" stroke-linecap="round" stroke-linejoin="round" stroke-width="0.75"/>
      <path id="Path_2811" data-name="Path 2811" d="M565.4,377.409a10.328,10.328,0,0,1-.418-5.259" transform="translate(-548.078 -347.477)" fill="none" stroke="#263238" stroke-linecap="round" stroke-linejoin="round" stroke-width="0.75"/>
      <path id="Path_2812" data-name="Path 2812" d="M551,328.05s.954-27.2,9.686-36.86a116.831,116.831,0,0,0-7.764,37.176Z" transform="translate(-537.88 -287.803)" fill="#13c693"/>
      <path id="Path_2813" data-name="Path 2813" d="M551,328.05s.954-27.2,9.686-36.86a116.831,116.831,0,0,0-7.764,37.176Z" transform="translate(-537.88 -287.803)" fill="#fff" opacity="0.2"/>
      <path id="Path_2814" data-name="Path 2814" d="M539.651,318.7s1.551-28.617-6.671-40.386a129.185,129.185,0,0,1,4.63,40.344Z" transform="translate(-524.598 -278.31)" fill="#13c693"/>
      <path id="Path_2815" data-name="Path 2815" d="M513.926,355.618a9.091,9.091,0,0,1-5.884-3.155c-1.167-1.578,2.148-.6,1.806-1.859s-4.454-.329-5.211-2.124,2.206-1.383,2.088-2.3-3.189-.731-4.175-2.629,1.717-.839,1.294-1.63-3.82-4.131-2.4-4.827,4.593,2.774,5.656,3.155,1.315-2.009,2.7-.862.347,6.153,1.977,6.813c1.215.494.7-1.8,2.1-1.22C516.324,345.995,514.633,355.6,513.926,355.618Z" transform="translate(-501.1 -321.568)" fill="#13c693"/>
      <g id="Group_80" data-name="Group 80" transform="translate(0 15.431)" opacity="0.3">
        <path id="Path_2816" data-name="Path 2816" d="M513.926,355.618a9.091,9.091,0,0,1-5.884-3.155c-1.167-1.578,2.148-.6,1.806-1.859s-4.454-.329-5.211-2.124,2.206-1.383,2.088-2.3-3.189-.731-4.175-2.629,1.717-.839,1.294-1.63-3.82-4.131-2.4-4.827,4.593,2.774,5.656,3.155,1.315-2.009,2.7-.862.347,6.153,1.977,6.813c1.215.494.7-1.8,2.1-1.22C516.324,345.995,514.633,355.6,513.926,355.618Z" transform="translate(-501.1 -337)" fill="#fff"/>
      </g>
      <path id="Path_2817" data-name="Path 2817" d="M517.91,351.56s8.677,8.519,9.184,21.25" transform="translate(-513.49 -332.3)" fill="none" stroke="#263238" stroke-linecap="round" stroke-linejoin="round" stroke-width="0.75"/>
      <path id="Path_2818" data-name="Path 2818" d="M517.1,366.569a9.1,9.1,0,0,1,3.655.726h0" transform="translate(-512.893 -343.362)" fill="none" stroke="#263238" stroke-linecap="round" stroke-linejoin="round" stroke-width="0.75"/>
      <path id="Path_2819" data-name="Path 2819" d="M529.5,349.41a12.008,12.008,0,0,1,1.6,6.86" transform="translate(-522.033 -330.716)" fill="none" stroke="#263238" stroke-linecap="round" stroke-linejoin="round" stroke-width="0.75"/>
      <path id="Path_2820" data-name="Path 2820" d="M530.294,380.8a3.849,3.849,0,0,0-3.584-.894" transform="translate(-519.976 -353.102)" fill="none" stroke="#263238" stroke-linecap="round" stroke-linejoin="round" stroke-width="0.75"/>
      <path id="Path_2821" data-name="Path 2821" d="M546.35,384.187a9.155,9.155,0,0,0,.768-4.607" transform="translate(-534.452 -352.953)" fill="none" stroke="#263238" stroke-linecap="round" stroke-linejoin="round" stroke-width="0.75"/>
      <path id="Path_2822" data-name="Path 2822" d="M529,438.9a6.826,6.826,0,0,0,13.62,0c0-1.977-2.167-3.747-4.057-4.914h-5.519C531.156,435.157,529,436.927,529,438.9Z" transform="translate(-521.664 -393.057)" fill="#263238"/>
      <line id="Line_10" data-name="Line 10" x1="1.188" transform="translate(8.845 46.11)" fill="none" stroke="#bfbfbf" stroke-linecap="round" stroke-linejoin="round" stroke-width="1"/>
      <line id="Line_11" data-name="Line 11" x1="8.214" transform="translate(11.332 46.11)" fill="none" stroke="#bfbfbf" stroke-linecap="round" stroke-linejoin="round" stroke-width="1"/>
    </g>
    <g id="freepik--load-more--inject-5" transform="translate(130.134 85.011)">
      <rect id="Rectangle_363" data-name="Rectangle 363" width="22.449" height="8.764" fill="#13c693" stroke="#263238" stroke-miterlimit="10" stroke-width="1"/>
      <path id="Path_2823" data-name="Path 2823" d="M331.68,275.331V272.66h.3v2.4h.763v.263Z" transform="translate(-326.895 -269.455)" fill="#263238"/>
      <path id="Path_2824" data-name="Path 2824" d="M336.49,273.223c0-.408.2-.673.61-.673s.615.263.615.673v1.383c0,.4-.2.673-.615.673s-.61-.263-.61-.673Zm.292,1.4c0,.245.105.384.318.384s.318-.139.318-.384v-1.415c0-.239-.1-.384-.318-.384s-.318.145-.318.384Z" transform="translate(-330.44 -269.374)" fill="#263238"/>
      <path id="Path_2825" data-name="Path 2825" d="M342.328,274.766l-.105.526h-.263l.513-2.671h.431l.51,2.671h-.3l-.1-.526Zm.037-.263h.6l-.3-1.543Z" transform="translate(-334.472 -269.425)" fill="#263238"/>
      <path id="Path_2826" data-name="Path 2826" d="M348.966,272.66c.418,0,.607.25.607.663v1.349c0,.41-.189.66-.607.66h-.626V272.66Zm0,2.4c.213,0,.316-.134.316-.379v-1.372c0-.245-.1-.379-.321-.379h-.321v2.13Z" transform="translate(-339.174 -269.455)" fill="#263238"/>
      <path id="Path_2827" data-name="Path 2827" d="M357.311,275.329h-.287l-.442-2.127v2.13h-.263V272.66h.418l.439,2.135.423-2.135h.415v2.671h-.281v-2.148Z" transform="translate(-345.056 -269.455)" fill="#263238"/>
      <path id="Path_2828" data-name="Path 2828" d="M363.86,273.223c0-.408.2-.673.61-.673s.615.263.615.673v1.383c0,.4-.2.673-.615.673s-.61-.263-.61-.673Zm.294,1.4c0,.245.1.384.316.384s.318-.139.318-.384v-1.415c0-.239-.1-.384-.318-.384s-.316.145-.316.384Z" transform="translate(-350.613 -269.374)" fill="#263238"/>
      <path id="Path_2829" data-name="Path 2829" d="M370.194,272.66c.421,0,.6.213.6.61v.218c0,.294-.1.476-.331.55.245.074.334.263.334.557v.415a.66.66,0,0,0,.055.321h-.3a.7.7,0,0,1-.05-.323v-.418c0-.3-.142-.4-.389-.4h-.21v1.141h-.3V272.66Zm-.076,1.259c.237,0,.379-.076.379-.368v-.263c0-.239-.087-.365-.31-.365H369.9v.989Z" transform="translate(-354.844 -269.455)" fill="#263238"/>
      <path id="Path_2830" data-name="Path 2830" d="M376.272,273.843v.263h-.652v.949h.8v.263h-1.1V272.66h1.1v.263h-.8v.912Z" transform="translate(-359.06 -269.455)" fill="#263238"/>
      <path id="Path_2831" data-name="Path 2831" d="M316.83,273.8h22.2V265.64" transform="translate(-315.949 -264.281)" fill="none" stroke="#263238" stroke-linecap="round" stroke-linejoin="round" stroke-width="1"/>
    </g>
    <g id="freepik--Files--inject-5" transform="translate(99.492 34.941)">
      <rect id="Rectangle_364" data-name="Rectangle 364" width="24.374" height="21.634" transform="translate(0)" fill="#fff" stroke="#263238" stroke-linecap="round" stroke-linejoin="round" stroke-width="1"/>
      <rect id="Rectangle_365" data-name="Rectangle 365" width="22.486" height="12.928" transform="translate(0.957 1.033)" fill="#13c693" stroke="#263238" stroke-miterlimit="10" stroke-width="1"/>
      <rect id="Rectangle_366" data-name="Rectangle 366" width="5.874" height="1.404" transform="translate(2.337 14.864)" fill="#999"/>
      <rect id="Rectangle_367" data-name="Rectangle 367" width="5.874" height="1.404" transform="translate(9.25 14.864)" fill="#999"/>
      <rect id="Rectangle_368" data-name="Rectangle 368" width="5.874" height="1.404" transform="translate(16.16 14.864)" fill="#999"/>
      <rect id="Rectangle_369" data-name="Rectangle 369" width="0.904" height="0.802" transform="translate(4.123 17.48)" fill="#bfbfbf"/>
      <rect id="Rectangle_370" data-name="Rectangle 370" width="3.36" height="0.802" transform="translate(5.556 17.48)" fill="#bfbfbf"/>
      <rect id="Rectangle_371" data-name="Rectangle 371" width="3.36" height="0.802" transform="translate(9.51 17.48)" fill="#bfbfbf"/>
      <rect id="Rectangle_372" data-name="Rectangle 372" width="1.68" height="0.802" transform="translate(18.563 17.48)" fill="#bfbfbf"/>
      <rect id="Rectangle_373" data-name="Rectangle 373" width="4.586" height="0.802" transform="translate(13.486 17.48)" fill="#bfbfbf"/>
      <rect id="Rectangle_374" data-name="Rectangle 374" width="3.36" height="0.802" transform="translate(19.444 19.652) rotate(180)" fill="#bfbfbf"/>
      <rect id="Rectangle_375" data-name="Rectangle 375" width="3.36" height="0.802" transform="translate(15.487 19.652) rotate(180)" fill="#bfbfbf"/>
      <rect id="Rectangle_376" data-name="Rectangle 376" width="1.68" height="0.802" transform="translate(6.434 19.652) rotate(180)" fill="#bfbfbf"/>
      <rect id="Rectangle_377" data-name="Rectangle 377" width="4.586" height="0.802" transform="translate(11.514 19.652) rotate(180)" fill="#bfbfbf"/>
      <path id="Path_2832" data-name="Path 2832" d="M203.68,106.213l4.7-4.77a4.549,4.549,0,0,1,5.34-.707l9.991,5.487Z" transform="translate(-201.908 -92.252)" fill="#fff" stroke="#263238" stroke-linecap="round" stroke-linejoin="round" stroke-width="1"/>
      <path id="Path_2833" data-name="Path 2833" d="M249.93,119.87l.41.526" transform="translate(-235.997 -106.768)" fill="#fff" stroke="#263238" stroke-linecap="round" stroke-linejoin="round" stroke-width="1"/>
      <path id="Path_2834" data-name="Path 2834" d="M232,101.473a1.57,1.57,0,0,1,1.228.473c.344.281,2,2.414,3.039,3.77" transform="translate(-222.782 -93.201)" fill="#fff" stroke="#263238" stroke-linecap="round" stroke-linejoin="round" stroke-width="1"/>
      <path id="Path_2835" data-name="Path 2835" d="M255.5,83.274a1.7,1.7,0,1,1-.5-1.2A1.7,1.7,0,0,1,255.5,83.274Z" transform="translate(-237.589 -78.538)" fill="#fff"/>
      <rect id="Rectangle_378" data-name="Rectangle 378" width="24.374" height="21.634" transform="translate(29.49 26.682)" fill="#fff" stroke="#263238" stroke-linecap="round" stroke-linejoin="round" stroke-width="1"/>
      <rect id="Rectangle_379" data-name="Rectangle 379" width="22.486" height="12.928" transform="translate(30.45 27.716)" fill="#13c693" stroke="#263238" stroke-miterlimit="10" stroke-width="1"/>
      <rect id="Rectangle_380" data-name="Rectangle 380" width="5.874" height="1.404" transform="translate(31.83 41.546)" fill="#999"/>
      <rect id="Rectangle_381" data-name="Rectangle 381" width="5.874" height="1.404" transform="translate(38.74 41.546)" fill="#999"/>
      <rect id="Rectangle_382" data-name="Rectangle 382" width="5.874" height="1.404" transform="translate(45.653 41.546)" fill="#999"/>
      <rect id="Rectangle_383" data-name="Rectangle 383" width="0.904" height="0.802" transform="translate(33.616 44.162)" fill="#bfbfbf"/>
      <rect id="Rectangle_384" data-name="Rectangle 384" width="3.36" height="0.802" transform="translate(35.046 44.162)" fill="#bfbfbf"/>
      <rect id="Rectangle_385" data-name="Rectangle 385" width="3.36" height="0.802" transform="translate(39.003 44.162)" fill="#bfbfbf"/>
      <rect id="Rectangle_386" data-name="Rectangle 386" width="1.68" height="0.802" transform="translate(48.056 44.162)" fill="#bfbfbf"/>
      <rect id="Rectangle_387" data-name="Rectangle 387" width="4.586" height="0.802" transform="translate(42.979 44.162)" fill="#bfbfbf"/>
      <rect id="Rectangle_388" data-name="Rectangle 388" width="3.36" height="0.802" transform="translate(48.937 46.334) rotate(180)" fill="#bfbfbf"/>
      <rect id="Rectangle_389" data-name="Rectangle 389" width="3.36" height="0.802" transform="translate(44.982 46.334) rotate(180)" fill="#bfbfbf"/>
      <rect id="Rectangle_390" data-name="Rectangle 390" width="1.68" height="0.802" transform="translate(35.93 46.334) rotate(180)" fill="#bfbfbf"/>
      <rect id="Rectangle_391" data-name="Rectangle 391" width="4.586" height="0.802" transform="translate(41.007 46.334) rotate(180)" fill="#bfbfbf"/>
      <path id="Path_2836" data-name="Path 2836" d="M344.11,198.22l3.749,6.915h5.167Z" transform="translate(-305.414 -164.517)" fill="#fff" stroke="#263238" stroke-linecap="round" stroke-linejoin="round" stroke-width="1"/>
      <path id="Path_2837" data-name="Path 2837" d="M316.77,205.135l7.189-6.915,3.749,6.915Z" transform="translate(-285.263 -164.517)" fill="#fff" stroke="#263238" stroke-linecap="round" stroke-linejoin="round" stroke-width="1"/>
      <line id="Line_12" data-name="Line 12" x2="0.823" transform="translate(38.359 38.546)" fill="#fff" stroke="#263238" stroke-linecap="round" stroke-linejoin="round" stroke-width="1"/>
      <line id="Line_13" data-name="Line 13" x2="2.472" transform="translate(35.354 38.546)" fill="#fff" stroke="#263238" stroke-linecap="round" stroke-linejoin="round" stroke-width="1"/>
      <line id="Line_14" data-name="Line 14" x2="0.768" transform="translate(43.465 39.463)" fill="#fff" stroke="#263238" stroke-linecap="round" stroke-linejoin="round" stroke-width="1"/>
      <line id="Line_15" data-name="Line 15" x2="1.167" transform="translate(41.898 39.463)" fill="#fff" stroke="#263238" stroke-linecap="round" stroke-linejoin="round" stroke-width="1"/>
      <line id="Line_16" data-name="Line 16" x2="2.724" transform="translate(37.526 36.592)" fill="#fff" stroke="#263238" stroke-linecap="round" stroke-linejoin="round" stroke-width="1"/>
      <path id="Path_2838" data-name="Path 2838" d="M366.038,184.754a1.7,1.7,0,1,1-.5-1.2A1.7,1.7,0,0,1,366.038,184.754Z" transform="translate(-319.065 -153.336)" fill="#fff"/>
      <rect id="Rectangle_392" data-name="Rectangle 392" width="24.374" height="21.634" transform="translate(58.91)" fill="#fff" stroke="#263238" stroke-linecap="round" stroke-linejoin="round" stroke-width="1"/>
      <rect id="Rectangle_393" data-name="Rectangle 393" width="22.486" height="12.928" transform="translate(59.87 1.033)" fill="#13c693" stroke="#263238" stroke-miterlimit="10" stroke-width="1"/>
      <rect id="Rectangle_394" data-name="Rectangle 394" width="5.874" height="1.404" transform="translate(61.25 14.864)" fill="#999"/>
      <rect id="Rectangle_395" data-name="Rectangle 395" width="5.874" height="1.404" transform="translate(68.16 14.864)" fill="#999"/>
      <rect id="Rectangle_396" data-name="Rectangle 396" width="5.874" height="1.404" transform="translate(75.072 14.864)" fill="#999"/>
      <rect id="Rectangle_397" data-name="Rectangle 397" width="0.904" height="0.802" transform="translate(63.035 17.48)" fill="#bfbfbf"/>
      <rect id="Rectangle_398" data-name="Rectangle 398" width="3.36" height="0.802" transform="translate(64.466 17.48)" fill="#bfbfbf"/>
      <rect id="Rectangle_399" data-name="Rectangle 399" width="3.36" height="0.802" transform="translate(68.423 17.48)" fill="#bfbfbf"/>
      <rect id="Rectangle_400" data-name="Rectangle 400" width="1.68" height="0.802" transform="translate(77.475 17.48)" fill="#bfbfbf"/>
      <rect id="Rectangle_401" data-name="Rectangle 401" width="4.586" height="0.802" transform="translate(72.398 17.48)" fill="#bfbfbf"/>
      <rect id="Rectangle_402" data-name="Rectangle 402" width="3.36" height="0.802" transform="translate(78.356 19.652) rotate(180)" fill="#bfbfbf"/>
      <rect id="Rectangle_403" data-name="Rectangle 403" width="3.36" height="0.802" transform="translate(74.402 19.652) rotate(180)" fill="#bfbfbf"/>
      <rect id="Rectangle_404" data-name="Rectangle 404" width="1.68" height="0.802" transform="translate(65.349 19.652) rotate(180)" fill="#bfbfbf"/>
      <rect id="Rectangle_405" data-name="Rectangle 405" width="4.586" height="0.802" transform="translate(70.426 19.652) rotate(180)" fill="#bfbfbf"/>
      <path id="Path_2839" data-name="Path 2839" d="M488.518,83.274a1.7,1.7,0,1,1-.5-1.2A1.7,1.7,0,0,1,488.518,83.274Z" transform="translate(-409.341 -78.538)" fill="#fff"/>
      <path id="Path_2840" data-name="Path 2840" d="M436.89,103.9l7.189-6.915,8.916,6.915Z" transform="translate(-373.8 -89.897)" fill="#fff" stroke="#263238" stroke-linecap="round" stroke-linejoin="round" stroke-width="1"/>
      <path id="Path_2841" data-name="Path 2841" d="M454.82,99.362l2.968-1.075,2.574,1.075-3.068-2.382Z" transform="translate(-387.015 -89.897)" fill="#fff" stroke="#263238" stroke-linecap="round" stroke-linejoin="round" stroke-width="1"/>
      <line id="Line_17" data-name="Line 17" x2="1.428" y2="2.519" transform="translate(71.92 10.541)" fill="#fff" stroke="#263238" stroke-linecap="round" stroke-linejoin="round" stroke-width="1"/>
      <line id="Line_18" data-name="Line 18" x2="0.389" y2="0.692" transform="translate(71.207 9.281)" fill="#fff" stroke="#263238" stroke-linecap="round" stroke-linejoin="round" stroke-width="1"/>
      <line id="Line_19" data-name="Line 19" x1="1.383" y2="2.65" transform="translate(68.178 9.629)" fill="#fff" stroke="#263238" stroke-linecap="round" stroke-linejoin="round" stroke-width="1"/>
      <rect id="Rectangle_406" data-name="Rectangle 406" width="24.374" height="21.634" transform="translate(58.91 26.922)" fill="#fff" stroke="#263238" stroke-linecap="round" stroke-linejoin="round" stroke-width="1"/>
      <rect id="Rectangle_407" data-name="Rectangle 407" width="22.486" height="12.928" transform="translate(59.87 27.955)" fill="#13c693" stroke="#263238" stroke-miterlimit="10" stroke-width="1"/>
      <rect id="Rectangle_408" data-name="Rectangle 408" width="5.874" height="1.404" transform="translate(61.25 41.785)" fill="#999"/>
      <rect id="Rectangle_409" data-name="Rectangle 409" width="5.874" height="1.404" transform="translate(68.16 41.785)" fill="#999"/>
      <rect id="Rectangle_410" data-name="Rectangle 410" width="5.874" height="1.404" transform="translate(75.072 41.785)" fill="#999"/>
      <rect id="Rectangle_411" data-name="Rectangle 411" width="0.904" height="0.802" transform="translate(63.035 44.401)" fill="#bfbfbf"/>
      <rect id="Rectangle_412" data-name="Rectangle 412" width="3.36" height="0.802" transform="translate(64.466 44.401)" fill="#bfbfbf"/>
      <rect id="Rectangle_413" data-name="Rectangle 413" width="3.36" height="0.802" transform="translate(68.423 44.401)" fill="#bfbfbf"/>
      <rect id="Rectangle_414" data-name="Rectangle 414" width="1.68" height="0.802" transform="translate(77.475 44.401)" fill="#bfbfbf"/>
      <rect id="Rectangle_415" data-name="Rectangle 415" width="4.586" height="0.802" transform="translate(72.398 44.401)" fill="#bfbfbf"/>
      <rect id="Rectangle_416" data-name="Rectangle 416" width="3.36" height="0.802" transform="translate(78.356 46.576) rotate(180)" fill="#bfbfbf"/>
      <rect id="Rectangle_417" data-name="Rectangle 417" width="3.36" height="0.802" transform="translate(74.402 46.576) rotate(180)" fill="#bfbfbf"/>
      <rect id="Rectangle_418" data-name="Rectangle 418" width="1.68" height="0.802" transform="translate(65.349 46.576) rotate(180)" fill="#bfbfbf"/>
      <rect id="Rectangle_419" data-name="Rectangle 419" width="4.586" height="0.802" transform="translate(70.426 46.576) rotate(180)" fill="#bfbfbf"/>
      <path id="Path_2842" data-name="Path 2842" d="M464.448,185.671a1.7,1.7,0,1,1-1.7-1.7A1.7,1.7,0,0,1,464.448,185.671Z" transform="translate(-391.6 -154.014)" fill="#fff"/>
      <path id="Path_2843" data-name="Path 2843" d="M453.7,213.413H437.6l2.792-3.092a3.734,3.734,0,0,1,2.771-1.231h4.27a3.726,3.726,0,0,1,2.487.949Z" transform="translate(-374.323 -172.529)" fill="#fff" stroke="#263238" stroke-linecap="round" stroke-linejoin="round" stroke-width="1"/>
      <line id="Line_20" data-name="Line 20" x1="0.978" y2="1.725" transform="translate(68.083 38.441)" fill="none" stroke="#263238" stroke-linecap="round" stroke-linejoin="round" stroke-width="1"/>
      <line id="Line_21" data-name="Line 21" x1="0.392" y2="0.689" transform="translate(69.382 37.184)" fill="none" stroke="#263238" stroke-linecap="round" stroke-linejoin="round" stroke-width="1"/>
      <line id="Line_22" data-name="Line 22" x2="0.994" y2="1.906" transform="translate(72.296 37.165)" fill="none" stroke="#263238" stroke-linecap="round" stroke-linejoin="round" stroke-width="1"/>
      <rect id="Rectangle_420" data-name="Rectangle 420" width="24.374" height="21.634" transform="translate(29.49)" fill="#fff" stroke="#263238" stroke-linecap="round" stroke-linejoin="round" stroke-width="1"/>
      <rect id="Rectangle_421" data-name="Rectangle 421" width="22.486" height="12.928" transform="translate(30.45 1.033)" fill="#13c693" stroke="#263238" stroke-miterlimit="10" stroke-width="1"/>
      <rect id="Rectangle_422" data-name="Rectangle 422" width="5.874" height="1.404" transform="translate(31.83 14.864)" fill="#999"/>
      <rect id="Rectangle_423" data-name="Rectangle 423" width="5.874" height="1.404" transform="translate(38.74 14.864)" fill="#999"/>
      <rect id="Rectangle_424" data-name="Rectangle 424" width="5.874" height="1.404" transform="translate(45.653 14.864)" fill="#999"/>
      <rect id="Rectangle_425" data-name="Rectangle 425" width="0.904" height="0.802" transform="translate(33.616 17.48)" fill="#bfbfbf"/>
      <rect id="Rectangle_426" data-name="Rectangle 426" width="3.36" height="0.802" transform="translate(35.046 17.48)" fill="#bfbfbf"/>
      <rect id="Rectangle_427" data-name="Rectangle 427" width="3.36" height="0.802" transform="translate(39.003 17.48)" fill="#bfbfbf"/>
      <rect id="Rectangle_428" data-name="Rectangle 428" width="1.68" height="0.802" transform="translate(48.056 17.48)" fill="#bfbfbf"/>
      <rect id="Rectangle_429" data-name="Rectangle 429" width="4.586" height="0.802" transform="translate(42.979 17.48)" fill="#bfbfbf"/>
      <rect id="Rectangle_430" data-name="Rectangle 430" width="3.36" height="0.802" transform="translate(48.937 19.652) rotate(180)" fill="#bfbfbf"/>
      <rect id="Rectangle_431" data-name="Rectangle 431" width="3.36" height="0.802" transform="translate(44.982 19.652) rotate(180)" fill="#bfbfbf"/>
      <rect id="Rectangle_432" data-name="Rectangle 432" width="1.68" height="0.802" transform="translate(35.93 19.652) rotate(180)" fill="#bfbfbf"/>
      <rect id="Rectangle_433" data-name="Rectangle 433" width="4.586" height="0.802" transform="translate(41.007 19.652) rotate(180)" fill="#bfbfbf"/>
      <path id="Path_2844" data-name="Path 2844" d="M312.75,103.339l7.378-7.1,3.849,7.1Z" transform="translate(-282.3 -89.351)" fill="#fff" stroke="#263238" stroke-linecap="round" stroke-linejoin="round" stroke-width="1"/>
      <path id="Path_2845" data-name="Path 2845" d="M342.76,97.376l9.592-9.226,5,9.226Z" transform="translate(-304.419 -83.388)" fill="#fff" stroke="#263238" stroke-linecap="round" stroke-linejoin="round" stroke-width="1"/>
      <path id="Path_2846" data-name="Path 2846" d="M352.548,83.709a1.7,1.7,0,1,1-.5-1.208A1.7,1.7,0,0,1,352.548,83.709Z" transform="translate(-309.122 -78.855)" fill="#fff"/>
      <line id="Line_23" data-name="Line 23" y1="0.634" x2="0.642" transform="translate(46.615 6.889)" fill="#fff" stroke="#263238" stroke-linecap="round" stroke-linejoin="round" stroke-width="1"/>
      <line id="Line_24" data-name="Line 24" y1="4.244" x2="4.296" transform="translate(41.677 8.156)" fill="#fff" stroke="#263238" stroke-linecap="round" stroke-linejoin="round" stroke-width="1"/>
      <line id="Line_25" data-name="Line 25" y1="0.418" x2="0.442" transform="translate(37.021 8.395)" fill="#fff" stroke="#263238" stroke-linecap="round" stroke-linejoin="round" stroke-width="1"/>
      <line id="Line_26" data-name="Line 26" y1="2.393" x2="2.514" transform="translate(34.068 9.232)" fill="#fff" stroke="#263238" stroke-linecap="round" stroke-linejoin="round" stroke-width="1"/>
      <rect id="Rectangle_434" data-name="Rectangle 434" width="24.374" height="21.634" transform="translate(0.045 26.922)" fill="#fff" stroke="#263238" stroke-linecap="round" stroke-linejoin="round" stroke-width="1"/>
      <rect id="Rectangle_435" data-name="Rectangle 435" width="22.486" height="12.928" transform="translate(1.002 27.955)" fill="#13c693" stroke="#263238" stroke-miterlimit="10" stroke-width="1"/>
      <rect id="Rectangle_436" data-name="Rectangle 436" width="5.874" height="1.404" transform="translate(2.382 41.785)" fill="#999"/>
      <rect id="Rectangle_437" data-name="Rectangle 437" width="5.874" height="1.404" transform="translate(9.295 41.785)" fill="#999"/>
      <rect id="Rectangle_438" data-name="Rectangle 438" width="5.874" height="1.404" transform="translate(16.207 41.785)" fill="#999"/>
      <rect id="Rectangle_439" data-name="Rectangle 439" width="0.904" height="0.802" transform="translate(4.167 44.401)" fill="#bfbfbf"/>
      <rect id="Rectangle_440" data-name="Rectangle 440" width="3.36" height="0.802" transform="translate(5.6 44.401)" fill="#bfbfbf"/>
      <rect id="Rectangle_441" data-name="Rectangle 441" width="3.36" height="0.802" transform="translate(9.555 44.401)" fill="#bfbfbf"/>
      <rect id="Rectangle_442" data-name="Rectangle 442" width="1.68" height="0.802" transform="translate(18.608 44.401)" fill="#bfbfbf"/>
      <rect id="Rectangle_443" data-name="Rectangle 443" width="4.586" height="0.802" transform="translate(13.53 44.401)" fill="#bfbfbf"/>
      <rect id="Rectangle_444" data-name="Rectangle 444" width="3.36" height="0.802" transform="translate(19.488 46.576) rotate(180)" fill="#bfbfbf"/>
      <rect id="Rectangle_445" data-name="Rectangle 445" width="3.36" height="0.802" transform="translate(15.531 46.576) rotate(180)" fill="#bfbfbf"/>
      <rect id="Rectangle_446" data-name="Rectangle 446" width="1.68" height="0.802" transform="translate(6.479 46.576) rotate(180)" fill="#bfbfbf"/>
      <rect id="Rectangle_447" data-name="Rectangle 447" width="4.586" height="0.802" transform="translate(11.558 46.576) rotate(180)" fill="#bfbfbf"/>
      <path id="Path_2847" data-name="Path 2847" d="M240.547,185.671a1.7,1.7,0,1,1-1.7-1.7A1.7,1.7,0,0,1,240.547,185.671Z" transform="translate(-226.57 -154.014)" fill="#fff"/>
      <path id="Path_2848" data-name="Path 2848" d="M237.15,209.987l3.142-5.527,3.242,5.527Z" transform="translate(-226.578 -169.117)" fill="#fff" stroke="#263238" stroke-linecap="round" stroke-linejoin="round" stroke-width="1"/>
      <path id="Path_2849" data-name="Path 2849" d="M240.54,214.378,242.8,210.4l2.314,3.947Z" transform="translate(-229.076 -173.495)" fill="#fff" stroke="#263238" stroke-linecap="round" stroke-linejoin="round" stroke-width="1"/>
      <line id="Line_27" data-name="Line 27" x2="0.026" y2="3.944" transform="translate(13.709 36.905)" fill="#fff" stroke="#263238" stroke-linecap="round" stroke-linejoin="round" stroke-width="1"/>
      <path id="Path_2850" data-name="Path 2850" d="M249.1,204.327l3.242,5.527,6.673-.021-3.255-5.553Z" transform="translate(-235.385 -168.984)" fill="#fff" stroke="#263238" stroke-linecap="round" stroke-linejoin="round" stroke-width="1"/>
      <path id="Path_2851" data-name="Path 2851" d="M260.52,209.748l1.275,2.169,2.635-.018-1.273-2.169Z" transform="translate(-243.803 -173.001)" fill="#fff" stroke="#263238" stroke-linecap="round" stroke-linejoin="round" stroke-width="1"/>
    </g>
    <g id="freepik--Graphics--inject-5" transform="translate(72.924 47.232)">
      <path id="Path_2852" data-name="Path 2852" d="M110.147,149.128a1.165,1.165,0,0,1-1.165,1.165h-4.8v4.8a1.165,1.165,0,1,1-2.33,0v-4.8h-4.8a1.165,1.165,0,0,1-.823-1.982,1.152,1.152,0,0,1,.823-.342h4.8v-4.8a1.166,1.166,0,0,1,2.332,0v4.8h4.8A1.165,1.165,0,0,1,110.147,149.128Z" transform="translate(-95.895 -135.37)" fill="none" stroke="#263238" stroke-linecap="round" stroke-linejoin="round" stroke-width="1"/>
      <path id="Path_2853" data-name="Path 2853" d="M384.435,333.3a.939.939,0,0,1,.939.941v3.873h3.873a.941.941,0,1,1,0,1.88h-3.873v3.876a.94.94,0,0,1-1.88,0v-3.876h-3.873a.941.941,0,0,1,0-1.88h3.873v-3.873A.941.941,0,0,1,384.435,333.3Z" transform="translate(-304.363 -276.372)" fill="none" stroke="#263238" stroke-linecap="round" stroke-linejoin="round" stroke-width="1"/>
      <path id="Path_2854" data-name="Path 2854" d="M311.022,337.29a.486.486,0,0,1,.486.486v2.009h2.006a.486.486,0,0,1,0,.973h-2.006v2.006a.486.486,0,1,1-.973,0v-2.006h-2.009a.486.486,0,1,1,0-.973h2.009v-2.009a.486.486,0,0,1,.486-.486Z" transform="translate(-252.26 -279.313)" fill="none" stroke="#263238" stroke-linecap="round" stroke-linejoin="round" stroke-width="1"/>
      <path id="Path_2855" data-name="Path 2855" d="M131.183,244.445a.486.486,0,0,1-.486.486H128.69v2.006a.489.489,0,1,1-.975,0v-2.006h-2.006a.489.489,0,1,1,0-.975h2.006v-2.006a.489.489,0,0,1,.975,0v2.006H130.7a.486.486,0,0,1,.486.489Z" transform="translate(-117.483 -208.706)" fill="none" stroke="#263238" stroke-linecap="round" stroke-linejoin="round" stroke-width="1"/>
      <path id="Path_2856" data-name="Path 2856" d="M351.254,361.79a.486.486,0,0,1,.486.489v2.006h2.006a.489.489,0,1,1,0,.975H351.74v2.006a.488.488,0,0,1-.975,0v-2h-2.006a.489.489,0,1,1,0-.975h2.006v-2.006a.489.489,0,0,1,.489-.492Z" transform="translate(-281.886 -297.371)" fill="none" stroke="#263238" stroke-linecap="round" stroke-linejoin="round" stroke-width="1"/>
      <path id="Path_2857" data-name="Path 2857" d="M131.283,119.735a.486.486,0,0,1-.486.489h-2.006v2.006a.489.489,0,0,1-.975,0v-2.006h-2.006a.489.489,0,0,1-.489-.489.494.494,0,0,1,.142-.344.484.484,0,0,1,.347-.142h2.006v-2.009a.489.489,0,0,1,.975,0v2.009H130.8A.486.486,0,0,1,131.283,119.735Z" transform="translate(-117.583 -116.786)" fill="none" stroke="#263238" stroke-linecap="round" stroke-linejoin="round" stroke-width="1"/>
      <path id="Path_2858" data-name="Path 2858" d="M582.875,208.367a.7.7,0,0,1-.129-.024A.74.74,0,0,0,582.875,208.367Zm-.134-.024a2.163,2.163,0,0,1-.231-.074A1.578,1.578,0,0,0,582.741,208.344Z" transform="translate(-454.563 -184.216)" fill="none" stroke="#263238" stroke-linecap="round" stroke-linejoin="round" stroke-width="1"/>
      <path id="Path_2859" data-name="Path 2859" d="M577.844,176.57c-1.72-.755-3.968.586-5.017,2.984-.936,2.14-.61,4.4.684,5.4l.16.113c-.439.981-2.571,5.813-2.571,5.813.476.852,1.031.31,1.031.31l.242-.66,1.783-4.843.124-.337c1.68.539,3.77-.789,4.772-3.076C580.1,179.881,579.564,177.317,577.844,176.57Zm.886,3.037a1.938,1.938,0,0,1-.016.245,6.162,6.162,0,0,1-.507,1.967,6.39,6.39,0,0,1-.308.615.291.291,0,0,0-.021.039c-.047.076-.092.158-.142.231s-.108.174-.168.263-.113.16-.171.237h0c-.058.079-.116.15-.179.223a5.229,5.229,0,0,1-.734.718l-.087.066-.037.029-.158.11c-.076.05-.153.1-.229.142l-.176.095a2.836,2.836,0,0,1-.6.221l-.089.018a1.432,1.432,0,0,1-.147.024h-.034a1.2,1.2,0,0,1-.192.013h-.016a.99.99,0,0,1-.153,0,.263.263,0,0,1-.066,0h-.026a.739.739,0,0,1-.129-.024h0a1.578,1.578,0,0,1-.231-.074h-.039l-.055-.026h-.039a.57.57,0,0,1-.079-.047l-.042-.018-.071-.055h0l-.032-.024a2.326,2.326,0,0,1-.652-1.819,6.893,6.893,0,0,1,.565-2.629c.018-.05.042-.105.066-.158a8.248,8.248,0,0,1,.76-1.367h0c0-.013.018-.029.029-.039.068-.092.134-.181.2-.263a1.5,1.5,0,0,1,.1-.124,4.112,4.112,0,0,1,1.362-1.131l.134-.058.047-.016.126-.045a1.456,1.456,0,0,1,.3-.06,1.312,1.312,0,0,1,.142,0,1.3,1.3,0,0,1,.205.016,1.037,1.037,0,0,1,.231.06h0c.074.021.147.05.229.079l.221.095a1.3,1.3,0,0,1,.552.578h0c.021.037.039.074.058.113v.026h0v.016c.021.053.042.1.063.16s.042.129.06.2h0a2.551,2.551,0,0,1,.06.263,3.936,3.936,0,0,1,.074.581A3.891,3.891,0,0,1,578.73,179.607Z" transform="translate(-446.153 -160.696)" fill="none" stroke="#263238" stroke-linecap="round" stroke-linejoin="round" stroke-width="1"/>
      <line id="Line_28" data-name="Line 28" x1="4.725" y2="2.443" transform="translate(127.5 16.963)" fill="none" stroke="#263238" stroke-linecap="round" stroke-linejoin="round" stroke-width="1"/>
      <path id="Path_2860" data-name="Path 2860" d="M598.838,181.483c-.018-.039-.037-.076-.058-.113" transform="translate(-466.556 -164.389)" fill="none" stroke="#263238" stroke-linecap="round" stroke-linejoin="round" stroke-width="1"/>
      <path id="Path_2861" data-name="Path 2861" d="M599.12,182l.063.16c.021.063.039.129.06.2" transform="translate(-466.806 -164.853)" fill="none" stroke="#263238" stroke-linecap="round" stroke-linejoin="round" stroke-width="1"/>
      <path id="Path_2862" data-name="Path 2862" d="M584.166,183.39c.024.084.042.174.06.263a4.8,4.8,0,0,1,.074.581,4.862,4.862,0,0,1,0,.555l-.016.245c-1.6.865-4.207,2.174-5.624,2.874h0" transform="translate(-451.726 -165.878)" fill="none" stroke="#263238" stroke-linecap="round" stroke-linejoin="round" stroke-width="1"/>
      <path id="Path_2863" data-name="Path 2863" d="M585.472,199.46a.285.285,0,0,0-.021.039c-.047.079-.092.158-.142.231l-.168.263c-.055.082-.113.16-.171.237h0c-.058.076-.116.15-.179.223a5.225,5.225,0,0,1-.734.718l-.087.066-.037.029-.158.11c-.076.05-.153.1-.229.142l-.176.095a2.836,2.836,0,0,1-.6.221l-.089.018a1.423,1.423,0,0,1-.147.024H582.5a1.2,1.2,0,0,1-.192.013h-.016a.969.969,0,0,1-.152,0h-.092a.737.737,0,0,1-.129-.024h0a1.577,1.577,0,0,1-.231-.074h-.021l-.092-.039-.1-.055-.042-.018-.071-.055h0Z" transform="translate(-453.716 -177.722)" fill="none" stroke="#263238" stroke-miterlimit="10" stroke-width="1"/>
      <path id="Path_2864" data-name="Path 2864" d="M587.084,178.292c-.991.526-2.132,1.1-3.124,1.578,0-.013.018-.029.029-.039.068-.092.134-.181.2-.263a1.5,1.5,0,0,1,.1-.124,4.113,4.113,0,0,1,1.362-1.131l.134-.058.047-.016.126-.045a1.456,1.456,0,0,1,.3-.06,1.319,1.319,0,0,1,.142,0,1.3,1.3,0,0,1,.205.016,1.035,1.035,0,0,1,.231.06h0C586.928,178.235,587,178.263,587.084,178.292Z" transform="translate(-455.632 -162.003)" fill="none" stroke="#263238" stroke-miterlimit="10" stroke-width="1"/>
      <line id="Line_29" data-name="Line 29" y1="1.599" x2="1.596" transform="translate(23.844 56.171)" fill="none" stroke="#263238" stroke-linecap="round" stroke-linejoin="round" stroke-width="1"/>
      <line id="Line_30" data-name="Line 30" y1="6.676" x2="6.676" transform="translate(15.572 59.366)" fill="none" stroke="#263238" stroke-linecap="round" stroke-linejoin="round" stroke-width="1"/>
      <line id="Line_31" data-name="Line 31" y1="2.351" x2="2.351" transform="translate(130.647 1.623)" fill="none" stroke="#263238" stroke-linecap="round" stroke-linejoin="round" stroke-width="1"/>
      <line id="Line_32" data-name="Line 32" y1="6.337" x2="6.337" transform="translate(123.127 5.154)" fill="none" stroke="#263238" stroke-linecap="round" stroke-linejoin="round" stroke-width="1"/>
    </g>
    <g id="freepik--Character--inject-5" transform="translate(94.438 65.936)">
      <path id="Path_2865" data-name="Path 2865" d="M245.351,248.923h0s-.954.163-.994.166c-1.349.158-5.427.765-8.267,1.112-1.125.139-1.733.342-2.876-.555-.973-.762-2.99-6.266-3.634-7.888a3.652,3.652,0,0,1,2.516-.841c.113-.079.263.037.36.124a.962.962,0,0,1,.218.344q1,2.238,1.817,4.549a1.249,1.249,0,0,0,1.372,1.052c2.69.192,4.4.631,8.453.741l3.208-.86,1.212.181,3.189.476s.095.468-.526.526a17,17,0,0,1-2.288-.045l.426.862-.918.434-.954.184-2.33-.563" transform="translate(-215.944 -226.964)" fill="#fff" stroke="#263238" stroke-linecap="round" stroke-linejoin="round" stroke-width="1"/>
      <path id="Path_2866" data-name="Path 2866" d="M299.446,267.413l-1.7-.263c-.166.155-.652.476-.818.631.205.11.768.089.973.2,0,0,.571.594-.586.852" transform="translate(-265.586 -246.319)" fill="none" stroke="#263238" stroke-linecap="round" stroke-linejoin="round" stroke-width="1"/>
      <path id="Path_2867" data-name="Path 2867" d="M299,268c.168.15.681.594,1,.6" transform="translate(-267.112 -246.945)" fill="#fff" stroke="#263238" stroke-linecap="round" stroke-linejoin="round" stroke-width="1"/>
      <path id="Path_2868" data-name="Path 2868" d="M219.224,455.349l-.455-3.053L216,452.11l.363,3.337a2.209,2.209,0,0,0,2.861-.1Z" transform="translate(-205.935 -382.647)" fill="#263238"/>
      <path id="Path_2869" data-name="Path 2869" d="M219.358,466.86l-.092-.042a1.375,1.375,0,0,0-.81-.216,4.051,4.051,0,0,0-.423.15c-.623.184-1.262-.418-1.488-1.136a5.61,5.61,0,0,1-.066-2.266,1.815,1.815,0,0,0,.166.245,1.686,1.686,0,0,0,.565.45h0a1.664,1.664,0,0,0,.973.155h.016a1.562,1.562,0,0,0,.9-.473,1,1,0,0,1,.379-.263.936.936,0,0,1,.789.126,39.725,39.725,0,0,0,4.906,2.366.576.576,0,0,1,.263.9Z" transform="translate(-206.227 -390.932)" fill="#fff" stroke="#263238" stroke-linecap="round" stroke-linejoin="round" stroke-width="1"/>
      <path id="Path_2870" data-name="Path 2870" d="M214.8,421.481c-1.386,1.77-3.121,4.033-3.121,4.033l-1.315-2.724a31.918,31.918,0,0,0,4.386-7.27c0,.726.076,1.525.1,1.967C214.922,418.846,214.8,420.116,214.8,421.481Z" transform="translate(-201.778 -355.678)" fill="#263238"/>
      <path id="Path_2871" data-name="Path 2871" d="M205.573,448.97a.5.5,0,0,1-.126.313c-.239.218-.513-.168-.72-.423a21.191,21.191,0,0,1-1.717-2.6l-.176-1.407-.46.2h-.06c-.045-.082-.092-.158-.137-.237-1.052-1.777.174-2.143,1.478-2.1.15,0,.463.034.978.991a6.219,6.219,0,0,1,.368.686A8.677,8.677,0,0,1,205.573,448.97Z" transform="translate(-195.453 -375.718)" fill="#fff" stroke="#263238" stroke-linecap="round" stroke-linejoin="round" stroke-width="1"/>
      <path id="Path_2872" data-name="Path 2872" d="M210.146,310.453a22.108,22.108,0,0,1-.053-2.337,3.944,3.944,0,0,0-1.52-3.155s-1.115,1.541-4.354,1.578h-.15a15.331,15.331,0,0,1-4.262-.652,15.556,15.556,0,0,1-1.722-.636,43.8,43.8,0,0,0-.379,7.7c.158,3.189,1.841,18.174,2.422,22.725.479,3.8,1.812,7.536,1.985,9.153.084.765,1.806.5,2.629.2,1.075-.4,1.149-.634,1.149-.634.058-1.178-.281-3.237-.276-4.412,2.908-3.71,7.428-9.6,7.546-10.5C214.061,322.5,210.261,311.173,210.146,310.453Zm-2.6,17.992c-.071.473-1.02,2.958-2.1,5.671-.018-1.2.5-2.448.628-4.378.263-3.715-.552-7.783-.484-10.78C206.225,321.535,207.671,327.567,207.545,328.445Z" transform="translate(-192.427 -274.187)" fill="#263238"/>
      <path id="Path_2873" data-name="Path 2873" d="M248.489,402.48a4.416,4.416,0,0,1-1.609.9" transform="translate(-228.696 -346.066)" fill="none" stroke="#bfbfbf" stroke-linecap="round" stroke-linejoin="round" stroke-width="1"/>
      <path id="Path_2874" data-name="Path 2874" d="M254.614,399.79c-.092.124-.192.245-.294.358" transform="translate(-234.179 -344.084)" fill="none" stroke="#bfbfbf" stroke-linecap="round" stroke-linejoin="round" stroke-width="1"/>
      <path id="Path_2875" data-name="Path 2875" d="M202.916,315.47a10.349,10.349,0,0,1-.87,2.679,2.974,2.974,0,0,1-1.785,1.407" transform="translate(-194.334 -281.934)" fill="none" stroke="#bfbfbf" stroke-linecap="round" stroke-linejoin="round" stroke-width="1"/>
      <path id="Path_2876" data-name="Path 2876" d="M235.23,391.65a11.078,11.078,0,0,0,.923,3.039" transform="translate(-220.109 -338.084)" fill="none" stroke="#bfbfbf" stroke-linecap="round" stroke-linejoin="round" stroke-width="1"/>
      <path id="Path_2877" data-name="Path 2877" d="M235.773,395.42a12.665,12.665,0,0,0,.3,4.5" transform="translate(-220.449 -340.863)" fill="none" stroke="#bfbfbf" stroke-linecap="round" stroke-linejoin="round" stroke-width="1"/>
      <path id="Path_2878" data-name="Path 2878" d="M202.79,330c.468,5.895,1.075,10.381,1.578,14.853" transform="translate(-196.198 -292.644)" fill="none" stroke="#bfbfbf" stroke-linecap="round" stroke-linejoin="round" stroke-width="1"/>
      <path id="Path_2879" data-name="Path 2879" d="M208.9,390.833v-.563" transform="translate(-200.702 -337.067)" fill="none" stroke="#bfbfbf" stroke-linecap="round" stroke-linejoin="round" stroke-width="1"/>
      <path id="Path_2880" data-name="Path 2880" d="M211.516,411.648c-.318-.941-2.516-8.2-2.656-11.214-.089-2-.189-3.418-.11-5.364" transform="translate(-200.57 -340.605)" fill="none" stroke="#bfbfbf" stroke-linecap="round" stroke-linejoin="round" stroke-width="1"/>
      <line id="Line_33" data-name="Line 33" x2="0.005" y2="6.518" transform="translate(13.191 59.253)" fill="none" stroke="#bfbfbf" stroke-linecap="round" stroke-linejoin="round" stroke-width="1"/>
      <path id="Path_2881" data-name="Path 2881" d="M207.05,325.66l1.578,16.481v4.328l-.055,1.328a11.937,11.937,0,0,0,.281,3.116l2.159,9.558" transform="translate(-199.338 -289.445)" fill="none" stroke="#bfbfbf" stroke-linecap="round" stroke-linejoin="round" stroke-width="1"/>
      <path id="Path_2882" data-name="Path 2882" d="M208.243,197.446a7.825,7.825,0,0,0,.481,3.97l-.105,3.458,3.355.621.292-2.408a4.334,4.334,0,0,0,1.825-.076c.631-.268,1.033-2.95,1.033-2.95a3.492,3.492,0,0,0,.741-.576c.113-.189-.878-1.12-.968-1.259a.544.544,0,0,1-.076-.3c0-.2.016-.4,0-.594a8.305,8.305,0,0,0-.313-1.141,1.425,1.425,0,0,0-.592-.789C212.011,194.212,208.642,195.908,208.243,197.446Z" transform="translate(-200.131 -193.14)" fill="#fff" stroke="#263238" stroke-linecap="round" stroke-linejoin="round" stroke-width="1"/>
      <path id="Path_2883" data-name="Path 2883" d="M231.5,206.594c.076-.021.174.121.223.313s.029.363-.045.381-.174-.121-.223-.313S231.425,206.613,231.5,206.594Z" transform="translate(-217.305 -201.684)" fill="#263238"/>
      <path id="Path_2884" data-name="Path 2884" d="M229.63,205.1h0a.628.628,0,0,1,.768-.45" transform="translate(-215.981 -200.239)" fill="#fff" stroke="#263238" stroke-linecap="round" stroke-linejoin="round" stroke-width="1"/>
      <path id="Path_2885" data-name="Path 2885" d="M229.56,217.051a1.17,1.17,0,0,0,1.215-.181" transform="translate(-215.93 -209.259)" fill="#fff" stroke="#263238" stroke-linecap="round" stroke-linejoin="round" stroke-width="1"/>
      <path id="Path_2886" data-name="Path 2886" d="M202.935,230.556a5.744,5.744,0,0,0-1.43-.158c-.66.068-.526.5-1.336.51-.991,0-2.921-.789-3.915-.326-2.487,1.131-2.905,1.241-3.268,1.738-.957,1.315.047,9.113.584,11.393.429,1.817.384,6.534,1.17,7.281,1.465,1.383,3.513,1.154,5.49.789,1.714-.329,4.575-.77,5.206-2.4a13.4,13.4,0,0,0,.018-2.629c-.158-4.267.1-6.723.021-9.466l1.6-.649S205.186,231.187,202.935,230.556Z" transform="translate(-188.679 -219.23)" fill="#13c693"/>
      <g id="Group_81" data-name="Group 81" transform="translate(3.909 11.168)" clip-path="url(#clip-path)">
        <path id="Path_2887" data-name="Path 2887" d="M222.87,266.182a7.463,7.463,0,0,0,3.82-5.482c.087-.728.6-2.653.105-3.26-.352,1.02-.584,2.924-.968,3.944-.2.526-.408,1.031-.634,1.533A29.539,29.539,0,0,1,222.87,266.182Z" transform="translate(-214.908 -250.33)" opacity="0.2"/>
        <path id="Path_2888" data-name="Path 2888" d="M196.824,293.22a6.48,6.48,0,0,0,4.257,3.468,12.754,12.754,0,0,0,5.784.092c-2.366,1.388-5.259,2.366-7.848,1.386a5.558,5.558,0,0,1-1.549-1.115c-.789-.815-.776-2.527-.707-3.66l-.431.024" transform="translate(-195.346 -276.702)" opacity="0.2"/>
        <path id="Path_2889" data-name="Path 2889" d="M212.383,235.3a.673.673,0,0,0,.35.263.486.486,0,0,0,.442-.2,2.892,2.892,0,0,0,.25-.442,1.938,1.938,0,0,1,.9-.836,3.786,3.786,0,0,0,.926,1.315h.134a2.8,2.8,0,0,0,.15-1.6.489.489,0,0,1-.263.323,2.264,2.264,0,0,0-.4-.594.807.807,0,0,0-.652-.263.894.894,0,0,0-.292.1,3.242,3.242,0,0,0-1.315,1.462,14.358,14.358,0,0,0-1.407-.889C211.563,234.4,211.986,234.848,212.383,235.3Z" transform="translate(-206.307 -232.51)" opacity="0.2"/>
      </g>
      <path id="Path_2891" data-name="Path 2891" d="M202.935,230.556a5.744,5.744,0,0,0-1.43-.158c-.66.068-.526.5-1.336.51-.991,0-2.921-.789-3.915-.326-2.487,1.131-2.905,1.241-3.268,1.738-.957,1.315.047,9.113.584,11.393.429,1.817.384,6.534,1.17,7.281,1.465,1.383,3.513,1.154,5.49.789,1.714-.329,4.575-.77,5.206-2.4a13.4,13.4,0,0,0,.018-2.629c-.158-4.267.1-6.723.021-9.466l1.6-.649S205.186,231.187,202.935,230.556Z" transform="translate(-188.679 -219.23)" fill="none" stroke="#263238" stroke-miterlimit="10" stroke-width="1"/>
      <path id="Path_2892" data-name="Path 2892" d="M237.806,244.2a3.92,3.92,0,0,1,1.086-.431l-1.578-2.645c-.158-.263-.389-.571-.694-.526,0,.526.618,1.386.8,1.922C237.493,242.72,237.969,244.118,237.806,244.2Z" transform="translate(-221.133 -226.745)" opacity="0.2"/>
      <g id="freepik--freepik--character-2--inject-97--inject-5" transform="translate(7.583 10.616)">
        <path id="Path_2893" data-name="Path 2893" d="M207.54,228.3c-.476.118-.86.15-.965.479-.068.21.095.4.263.584a9.991,9.991,0,0,0,2.419,1.8,6.794,6.794,0,0,1,1.4-1.578,7.625,7.625,0,0,1-2.892-1.167Z" transform="translate(-206.559 -228.3)" fill="#fff" stroke="#263238" stroke-linecap="round" stroke-linejoin="round" stroke-width="1"/>
        <path id="Path_2894" data-name="Path 2894" d="M222.289,229a.889.889,0,0,1,.71.368,2.458,2.458,0,0,1,.184,1.785c-.471-.526-.765-1.338-1.433-1.12C222.273,229.862,222.289,229,222.289,229Z" transform="translate(-217.756 -228.816)" fill="#fff" stroke="#263238" stroke-linecap="round" stroke-linejoin="round" stroke-width="1"/>
      </g>
      <path id="Path_2895" data-name="Path 2895" d="M225.213,254.89c.152,3.718-.245,7.625-4.643,9.728" transform="translate(-209.303 -237.282)" fill="none" stroke="#263238" stroke-linecap="round" stroke-linejoin="round" stroke-width="1"/>
      <path id="Path_2896" data-name="Path 2896" d="M213.77,298.44a15.25,15.25,0,0,0,5.924.344" transform="translate(-204.291 -269.382)" fill="none" stroke="#263238" stroke-linecap="round" stroke-linejoin="round" stroke-width="1"/>
      <path id="Path_2897" data-name="Path 2897" d="M207.94,296.59c.263.095.513.184.77.263" transform="translate(-199.994 -268.018)" fill="none" stroke="#263238" stroke-linecap="round" stroke-linejoin="round" stroke-width="1"/>
      <path id="Path_2898" data-name="Path 2898" d="M214.757,295.858c.1,0,.242-.1.176-.176-2.761.221-5.217-1.115-7.9-1.3.026.263-.082.389.082.552a3.456,3.456,0,0,0,1.052.334,18.289,18.289,0,0,0,2.224.476A19.7,19.7,0,0,0,214.757,295.858Z" transform="translate(-199.315 -266.389)" opacity="0.2"/>
      <path id="Path_2899" data-name="Path 2899" d="M223.31,233.31l.826,4.125-.513.126" transform="translate(-211.323 -221.376)" fill="none" stroke="#263238" stroke-linecap="round" stroke-linejoin="round" stroke-width="1"/>
      <path id="Path_2900" data-name="Path 2900" d="M222.6,224.882c-.547-.276.1.239.1.239a1.413,1.413,0,0,0,.279,0h1.089A7.186,7.186,0,0,1,222.6,224.882Z" transform="translate(-210.635 -215.105)" fill="#263238" stroke="#263238" stroke-linecap="round" stroke-linejoin="round" stroke-width="1"/>
      <path id="Path_2901" data-name="Path 2901" d="M240.76,251.449l2.088-1.089.376,1.125-2.238,1.16Z" transform="translate(-224.185 -233.943)" fill="#fff" stroke="#263238" stroke-linecap="round" stroke-linejoin="round" stroke-width="1"/>
      <path id="Path_2902" data-name="Path 2902" d="M215.32,225.21a6.419,6.419,0,0,0,.9,1.888" transform="translate(-205.434 -215.406)" fill="#263238" stroke="#263238" stroke-linecap="round" stroke-linejoin="round" stroke-width="1"/>
      <path id="Path_2903" data-name="Path 2903" d="M181,244.576a22.322,22.322,0,0,0,4.578,1.709,6.756,6.756,0,0,1,1.228-2.59,5.373,5.373,0,0,0,1.162-3.876,3.6,3.6,0,0,0-1.8-2.629C183.132,235.547,181.284,242.238,181,244.576Z" transform="translate(-180.138 -224.047)" fill="#13c693"/>
      <g id="Group_82" data-name="Group 82" transform="translate(0.862 12.886)" clip-path="url(#clip-path-2)">
        <path id="Path_2904" data-name="Path 2904" d="M184.819,240.526l.8.131a2.077,2.077,0,0,0-1.018,1.625l.526-.413a17.065,17.065,0,0,1-.1,1.864,2.654,2.654,0,0,0,.439,1.775,9.26,9.26,0,0,1,.757-2.4,5.78,5.78,0,0,0,0,2.59,3.5,3.5,0,0,1,.368,1.451,2.565,2.565,0,0,0-1.1-.41c-.323-.079-1.052-.439-1.37-.513a2.4,2.4,0,0,1-1.1-.452,1.748,1.748,0,0,1-.408-.263,1.919,1.919,0,0,1-.163-.5,6.458,6.458,0,0,1,.941-2.945c.237-.415,1.07-2.243,1.543-2.153C184.942,239.948,184.8,240.524,184.819,240.526Z" transform="translate(-182.076 -239.126)" opacity="0.2"/>
      </g>
      <path id="Path_2906" data-name="Path 2906" d="M181,244.576a22.322,22.322,0,0,0,4.578,1.709,6.756,6.756,0,0,1,1.228-2.59,5.373,5.373,0,0,0,1.162-3.876,3.6,3.6,0,0,0-1.8-2.629C183.132,235.547,181.284,242.238,181,244.576Z" transform="translate(-180.138 -224.047)" fill="none" stroke="#263238" stroke-miterlimit="10" stroke-width="1"/>
      <path id="Path_2907" data-name="Path 2907" d="M179.056,266.366l-1.336,4.877,6.928,10.88s1.286-1.6.815-2.227c-.939-1.246-2.493-6.234-3.531-8.514a2.658,2.658,0,0,1-.171-1.7l.5-2.227S181.646,265.067,179.056,266.366Z" transform="translate(-177.72 -245.456)" fill="#fff" stroke="#263238" stroke-linecap="round" stroke-linejoin="round" stroke-width="1"/>
      <path id="Path_2908" data-name="Path 2908" d="M185.551,242.92a7.262,7.262,0,0,0-3.071,4.309" transform="translate(-181.228 -228.46)" fill="none" stroke="#263238" stroke-linecap="round" stroke-linejoin="round" stroke-width="1"/>
      <path id="Path_2909" data-name="Path 2909" d="M236.64,241.22a16.453,16.453,0,0,1,1.207,3.828" transform="translate(-221.148 -227.207)" fill="none" stroke="#263238" stroke-linecap="round" stroke-linejoin="round" stroke-width="1"/>
      <path id="Path_2910" data-name="Path 2910" d="M195.986,256.32a6.77,6.77,0,0,0,.526,2.892" transform="translate(-191.179 -238.336)" fill="none" stroke="#263238" stroke-linecap="round" stroke-linejoin="round" stroke-width="1"/>
      <path id="Path_2911" data-name="Path 2911" d="M196.427,250.73c-.055.216-.1.431-.137.652" transform="translate(-191.407 -234.216)" fill="none" stroke="#263238" stroke-linecap="round" stroke-linejoin="round" stroke-width="1"/>
      <path id="Path_2912" data-name="Path 2912" d="M178.817,259.82l-.247,1.762,5.23,2.148.936-1.585Z" transform="translate(-178.347 -240.916)" fill="#fff" stroke="#263238" stroke-linecap="round" stroke-linejoin="round" stroke-width="1"/>
      <path id="Path_2913" data-name="Path 2913" d="M213.08,211.64a2.469,2.469,0,0,0,.376,1.27,1.059,1.059,0,0,0,1.081.507,2.555,2.555,0,0,0,.555,1.1" transform="translate(-203.783 -205.404)" fill="#fff" stroke="#263238" stroke-linecap="round" stroke-linejoin="round" stroke-width="1"/>
      <path id="Path_2914" data-name="Path 2914" d="M209.316,188.262a1,1,0,0,0-.7-.289,15.187,15.187,0,0,0-5.992.96,2.853,2.853,0,0,0-1.125.526,2.45,2.45,0,0,0-.563.915,4.033,4.033,0,0,0-.323,1.554,11.309,11.309,0,0,0,.789,2.737,2.2,2.2,0,0,1-.684,2.558,3.828,3.828,0,0,0,1.386-.807,1.191,1.191,0,0,1-.657.789,2.309,2.309,0,0,0,1.315-.331,1.9,1.9,0,0,1-.631.636,1.733,1.733,0,0,0,1.614-.812c.5-.839.205-1.9.026-2.866s-.1-2.182.789-2.629a2.577,2.577,0,0,1,.744-.2,14.35,14.35,0,0,0,3.121-.5C209.1,190.21,209.857,188.961,209.316,188.262Z" transform="translate(-194.592 -187.924)" fill="#263238" stroke="#263238" stroke-linecap="round" stroke-linejoin="round" stroke-width="1"/>
      <path id="Path_2915" data-name="Path 2915" d="M225.05,192.5a.663.663,0,0,1,.418.739" transform="translate(-212.605 -191.297)" fill="none" stroke="#bfbfbf" stroke-linecap="round" stroke-linejoin="round" stroke-width="0.75"/>
      <path id="Path_2916" data-name="Path 2916" d="M226.73,191a.55.55,0,0,1,.468.439,1.638,1.638,0,0,1-.029.686" transform="translate(-213.844 -190.191)" fill="none" stroke="#bfbfbf" stroke-linecap="round" stroke-linejoin="round" stroke-width="0.75"/>
      <path id="Path_2917" data-name="Path 2917" d="M230.28,191.4a.581.581,0,0,1,0,.891" transform="translate(-216.46 -190.486)" fill="none" stroke="#bfbfbf" stroke-linecap="round" stroke-linejoin="round" stroke-width="0.75"/>
      <path id="Path_2918" data-name="Path 2918" d="M221.62,195.35a.6.6,0,0,1,.465.387" transform="translate(-210.077 -193.397)" fill="none" stroke="#bfbfbf" stroke-linecap="round" stroke-linejoin="round" stroke-width="0.75"/>
      <path id="Path_2919" data-name="Path 2919" d="M223.37,194.28a.379.379,0,0,1,.347.418" transform="translate(-211.367 -192.609)" fill="none" stroke="#bfbfbf" stroke-linecap="round" stroke-linejoin="round" stroke-width="0.75"/>
      <path id="Path_2920" data-name="Path 2920" d="M212.9,202.464a.4.4,0,0,1-.455-.192,1.191,1.191,0,0,1-.137-.513,2.729,2.729,0,0,0-.392.789c-.018-.25-.037-.5-.053-.749l-.381.526a2.382,2.382,0,0,1,.1-.757l-2.022.294a5.283,5.283,0,0,1-.373-1.446,1.785,1.785,0,0,1,.452-1.383c.681-.676,1.89-.954,2.353-.047C212.154,199.314,213.253,202.33,212.9,202.464Z" transform="translate(-200.903 -195.652)" fill="#263238" stroke="#263238" stroke-linecap="round" stroke-linejoin="round" stroke-width="1"/>
      <path id="Path_2921" data-name="Path 2921" d="M232.1,197.418a1.189,1.189,0,0,1,.242.7c.068-.226.126-.458.174-.689a.3.3,0,0,0,0-.16.308.308,0,0,0-.087-.108,1.078,1.078,0,0,0-.423-.247.486.486,0,0,0-.489.11C231.646,197.192,231.949,197.221,232.1,197.418Z" transform="translate(-217.374 -194.53)" fill="#263238" stroke="#263238" stroke-linecap="round" stroke-linejoin="round" stroke-width="1"/>
    </g>
    <g id="freepik--Floor--inject-5" transform="translate(73.383 141.865)">
      <line id="Line_34" data-name="Line 34" x2="132.707" fill="none" stroke="#263238" stroke-linecap="round" stroke-linejoin="round" stroke-width="1"/>
    </g>
  </g>
</svg>
