<svg xmlns="http://www.w3.org/2000/svg" width="600" height="644.255" viewBox="0 0 600 644.255">
  <g id="Mobile_Marketing-cuate" data-name="Mobile Marketing-cuate" transform="translate(-46.98 -36.642)">
    <g id="freepik--background-complete--inject-40" transform="translate(64.092 36.642)">
      <path id="Path_1" data-name="Path 1" d="M61.264,246.691a42.854,42.854,0,1,1,55.075,25.225,42.854,42.854,0,0,1-55.075-25.225Z" transform="translate(-58.56 36.084)" fill="#ebebeb"/>
      <path id="Path_2" data-name="Path 2" d="M118,227.687c-4.921,13.728-19.314,23.2-19.314,23.2s-16.255-5.911-24.116-18.117c-6.62-10.2-4.6-22.269,3.561-25.816C89.8,201.871,95.39,222.6,95.39,222.6s.635-21.457,13.2-19.21C117.334,204.96,122.093,216.19,118,227.687Z" transform="translate(-52.802 42.941)" fill="#fff"/>
      <path id="Path_3" data-name="Path 3" d="M438.46,334.334a42.027,42.027,0,0,1-12.753,4.093,42.854,42.854,0,1,1,12.753-4.093Z" transform="translate(93.225 66.821)" fill="#ebebeb"/>
      <path id="Path_4" data-name="Path 4" d="M422.771,284.269a13.034,13.034,0,1,1-11.822-14.112,13.034,13.034,0,0,1,11.822,14.112Z" transform="translate(103.002 74.889)" fill="#fff"/>
      <path id="Path_5" data-name="Path 5" d="M433.322,312.385l-.458,5.364a42.025,42.025,0,0,1-12.753,4.093A42.573,42.573,0,0,1,388,313.877l.458-5.349a22.522,22.522,0,1,1,44.878,3.857Z" transform="translate(98.821 83.406)" fill="#fff"/>
      <circle id="Ellipse_1" data-name="Ellipse 1" cx="47.065" cy="47.065" r="47.065" transform="matrix(0.92, -0.392, 0.392, 0.92, 430.793, 36.886)" fill="#ebebeb"/>
      <g id="freepik--xsrjP0--inject-40" transform="translate(462.467 30.037)">
        <path id="Path_6" data-name="Path 6" d="M388.966,107.376c-1.241-.783-2.32-1.921-3.99-1.758-.635,0-.5-.473-.5-.813V85.993c0-.443,0-.828.532-1.079,4.788-2.409,6.857-7.167,9.8-11.216a18.767,18.767,0,0,0,3.473-14.23c-.207-1.4.458-2.039,1.729-2.335a3.177,3.177,0,0,1,3.576,1.138,25.3,25.3,0,0,1,2.734,8.216c.281,2.364-.576,4.684-.872,7.034-.222,1.729-.621,3.428-.946,5.172.414.3.9.148,1.36.148h15.885c2.231,0,3.325.635,3.635,2.113a4.256,4.256,0,0,1-2.305,4.6c-.4.192-1.123,0-1.167.635s.695.562,1.064.828c1.906,1.315,1.552,4.019-.665,5.586-.532.384-1.566.207-1.6.99s.961.621,1.4,1.049c1.478,1.478.768,4.433-1.478,5.541a8.679,8.679,0,0,0-.931.355c-.266.177-.517.384,0,.739,2.29,1.64,2.246,3.916,0,5.586l-.695.488a4.433,4.433,0,0,1-2.793.621H391.3A2.955,2.955,0,0,1,388.966,107.376Z" transform="translate(-365.336 -56.968)" fill="#fff" fill-rule="evenodd"/>
        <path id="Path_7" data-name="Path 7" d="M371.55,87.852V75.9c0-.8.074-1.2,1.064-1.2h14.57c.961,0,1.108.31,1.094,1.153V99.91c0,1.02-.281,1.3-1.3,1.286q-7.064-.089-14.127,0c-1.182,0-1.345-.4-1.33-1.478C371.579,95.831,371.55,91.842,371.55,87.852Z" transform="translate(-371.519 -48.497)" fill="#fff" fill-rule="evenodd"/>
      </g>
      <path id="Path_8" data-name="Path 8" d="M130.105,383.768c2.468,15.767-6.4,32.421-6.4,32.421s-18.678,2.778-32.7-4.847c-11.763-6.28-16.063-19.048-10.152-26.717,8.6-10.994,24.8,6.059,24.8,6.059s-10.6-21,2.675-25.387C117.589,362.208,128.14,370.617,130.105,383.768Z" transform="translate(-49.17 120.059)" fill="#ebebeb"/>
      <path id="Path_9" data-name="Path 9" d="M146.844,359.559c-7.064,9.384-20.407,13.3-20.407,13.3s-11.053-8.408-14.245-19.713c-2.66-9.428,1.788-18.25,8.866-19.018,10.211-1.123,9.546,16.166,9.546,16.166s5.615-16.358,14.777-11.63C151.765,341.9,152.726,351.7,146.844,359.559Z" transform="translate(-33.311 105.449)" fill="#ebebeb"/>
    </g>
    <g id="freepik--Shadow--inject-40" transform="translate(112.886 618.212)">
      <ellipse id="Ellipse_2" data-name="Ellipse 2" cx="234.101" cy="31.343" rx="234.101" ry="31.343" fill="#ebebeb"/>
    </g>
    <g id="freepik--Floor--inject-40" transform="translate(46.98 621.847)">
      <path id="Path_10" data-name="Path 10" d="M46.98,433.4l75.009-.355,74.994-.133,150-.251,150,.251,74.994.133,74.994.355-74.994.355-74.994.133-150,.251-150-.251-74.994-.133Z" transform="translate(-46.98 -432.66)" fill="#263238"/>
    </g>
    <g id="freepik--Device--inject-40" transform="translate(196.85 73.996)">
      <path id="Path_11" data-name="Path 11" d="M423.419,61.92H173.684A25.505,25.505,0,0,0,148.4,87.662V601.91a25.52,25.52,0,0,0,25.284,25.742H423.419a25.535,25.535,0,0,0,25.313-25.742V87.662A25.52,25.52,0,0,0,423.419,61.92Zm9.5,524.1c0,13.536-10.137,24.486-22.624,24.486H186.806c-12.546,0-22.668-10.95-22.668-24.486V107.153c0-27.574,10.122-28.919,22.668-28.919h44.76c2.6,0,4.729,2.955,4.729,6.62v1.581c0,8.586,4.7,8.615,10.477,8.615H350.213c5.911,0,10.477,0,10.477-8.615V84.854c0-3.665,2.1-6.62,4.758-6.62h44.775c12.487,0,22.624,3.665,22.624,28.919Z" transform="translate(-148.399 -61.92)" fill="#263238"/>
      <path id="Path_12" data-name="Path 12" d="M269.243,78.207H241a1.744,1.744,0,0,1-1.744-1.744h0A1.744,1.744,0,0,1,241,74.72h28.239a1.744,1.744,0,0,1,1.744,1.744h0A1.744,1.744,0,0,1,269.243,78.207Z" transform="translate(-104.993 -55.805)" fill="#fff"/>
      <path id="Path_13" data-name="Path 13" d="M427.833,101.879V580.75c0,13.536-10.137,24.486-22.624,24.486H181.718c-12.546,0-22.668-10.95-22.668-24.486V101.879c0-27.574,10.122-28.919,22.668-28.919h44.76c2.6,0,4.729,2.955,4.729,6.62v1.581c0,8.586,4.7,8.615,10.477,8.615H345.125c5.911,0,10.477,0,10.477-8.615V79.58c0-3.665,2.1-6.62,4.758-6.62h44.775C417.7,73.019,427.833,76.625,427.833,101.879Z" transform="translate(-143.311 -56.646)" fill="#fff"/>
      <path id="Path_14" data-name="Path 14" d="M427.857,101.879V137.61H159V101.879c0-27.574,10.2-28.86,22.727-28.86H226.5c2.6,0,4.729,2.955,4.729,6.62V81.22c0,8.586,4.7,8.615,10.462,8.615h103.5c5.822,0,10.492,0,10.492-8.615V79.58c0-3.665,2.1-6.62,4.743-6.62h44.76C417.72,73.019,427.857,76.625,427.857,101.879Z" transform="translate(-143.335 -56.646)" fill="#13c693"/>
      <path id="Path_15" data-name="Path 15" d="M178.845,109.725l-7.935-7.448,7.935-7.448,1.227,1.315-6.532,6.133,6.532,6.133Z" transform="translate(-137.645 -46.198)" fill="#fff"/>
      <path id="Path_16" data-name="Path 16" d="M327.961,110.41h-5.32v-1.862a.458.458,0,0,0-.251-.4c-.207-.1-.4-.222-.591-.34a.458.458,0,0,0-.473,0l-1.6.916-2.66-4.6,1.611-.931a.428.428,0,0,0,.207-.414,2.5,2.5,0,0,1,0-.34,2.62,2.62,0,0,1,0-.34.428.428,0,0,0-.207-.414l-1.611-.931,2.66-4.6,1.6.916a.458.458,0,0,0,.473,0c.192-.118.384-.236.591-.34a.458.458,0,0,0,.251-.4V94.48h5.32v1.847a.458.458,0,0,0,.251.4l.591.34a.458.458,0,0,0,.473,0l1.6-.916,2.645,4.6-1.6.931a.443.443,0,0,0-.222.414,2.632,2.632,0,0,1,0,.34v.325a.414.414,0,0,0,.207.429l1.6.931-2.645,4.6-1.611-.916a.428.428,0,0,0-.458,0l-.591.34a.458.458,0,0,0-.251.4Zm-4.212-1.108h3.1v-.754a1.566,1.566,0,0,1,.842-1.389,3.355,3.355,0,0,0,.5-.281,1.478,1.478,0,0,1,1.626,0l.635.369,1.552-2.689-.65-.369a1.478,1.478,0,0,1-.754-1.478v-.562a1.478,1.478,0,0,1,.768-1.478l.635-.369-1.552-2.689-.635.369a1.478,1.478,0,0,1-1.625,0,4.125,4.125,0,0,0-.488-.281,1.551,1.551,0,0,1-.857-1.389v-.739h-3.1v.739a1.552,1.552,0,0,1-.857,1.389,3.2,3.2,0,0,0-.488.281,1.478,1.478,0,0,1-1.626,0l-.635-.369-1.478,2.689.635.369a1.478,1.478,0,0,1,.768,1.478,2.675,2.675,0,0,0,0,.562,1.478,1.478,0,0,1-.768,1.478l-.635.369,1.478,2.689.635-.369a1.478,1.478,0,0,1,1.626,0,4.124,4.124,0,0,0,.488.281,1.552,1.552,0,0,1,.857,1.389Zm1.552-2.867a4,4,0,1,1,3.99-3.99,4,4,0,0,1-3.99,3.99Zm0-6.886a2.955,2.955,0,1,0,2.882,2.955,2.955,2.955,0,0,0-2.882-2.955Z" transform="translate(-67.821 -46.365)" fill="#fff"/>
      <g id="freepik--u5Zjqx--inject-40" transform="translate(65.76 25.107)">
        <path id="Path_17" data-name="Path 17" d="M202.579,80.875l-.429.429c-.089,0-.163.163-.251.251a5.763,5.763,0,0,0-4.167-1.729,5.7,5.7,0,0,0-4.167,1.729l-.236-.251-.429-.429h0l.547-.473a6,6,0,0,1,1.271-.813,6.178,6.178,0,0,1,1.67-.562,2.082,2.082,0,0,0,.842-.118h1.3a6.663,6.663,0,0,1,1.478.369,6.769,6.769,0,0,1,1.049.488,6.62,6.62,0,0,1,.99.695l.458.414Z" transform="translate(-192.9 -78.91)" fill="#fff"/>
        <path id="Path_18" data-name="Path 18" d="M194.49,82.308c-.222-.236-.443-.458-.68-.68a4.906,4.906,0,0,1,6.96,0l-.68.68a3.96,3.96,0,0,0-5.6,0Z" transform="translate(-192.465 -78.303)" fill="#fff"/>
        <path id="Path_19" data-name="Path 19" d="M198.995,82.382l-.68.68a1.936,1.936,0,0,0-1.478-.591,2,2,0,0,0-1.478.591l-.68-.68a2.955,2.955,0,0,1,4.315,0Z" transform="translate(-192.05 -77.698)" fill="#fff"/>
        <path id="Path_20" data-name="Path 20" d="M197.007,83.2a.606.606,0,0,1-.606.606.621.621,0,1,1,0-1.227.606.606,0,0,1,.606.621Z" transform="translate(-191.569 -77.159)" fill="#fff"/>
      </g>
      <path id="Path_21" data-name="Path 21" d="M170.9,81.7a1.788,1.788,0,1,1,1.788,1.788A1.788,1.788,0,0,1,170.9,81.7Z" transform="translate(-137.65 -53.326)" fill="#fff"/>
      <path id="Path_22" data-name="Path 22" d="M174.7,81.7a1.788,1.788,0,1,1,1.788,1.788A1.788,1.788,0,0,1,174.7,81.7Z" transform="translate(-135.835 -53.326)" fill="#fff"/>
      <path id="Path_23" data-name="Path 23" d="M178.5,81.7a1.773,1.773,0,1,1,.514,1.263A1.788,1.788,0,0,1,178.5,81.7Z" transform="translate(-134.019 -53.326)" fill="#fff"/>
      <path id="Path_24" data-name="Path 24" d="M182.3,81.7a1.773,1.773,0,1,1,.514,1.263A1.788,1.788,0,0,1,182.3,81.7Z" transform="translate(-132.204 -53.326)" fill="#fff"/>
      <path id="Path_25" data-name="Path 25" d="M186.09,81.7a1.788,1.788,0,1,1,1.788,1.788A1.788,1.788,0,0,1,186.09,81.7Z" transform="translate(-130.393 -53.326)" fill="#fff"/>
      <path id="Path_26" data-name="Path 26" d="M331.991,85.919H317.48V79.21h14.511Zm-13.772-.739h13.034V79.949h-13Z" transform="translate(-67.625 -53.66)" fill="#fff"/>
      <rect id="Rectangle_1" data-name="Rectangle 1" width="9.354" height="4.433" transform="translate(251.066 26.688)" fill="#fff"/>
      <rect id="Rectangle_2" data-name="Rectangle 2" width="1.286" height="3.591" transform="translate(264.366 27.116)" fill="#fff"/>
      <path id="Path_27" data-name="Path 27" d="M192.656,416.436h-2.039v9.384H186.8v-4.788h-6.768v4.788h-3.813v-9.384H174.17l9.251-9.546Z" transform="translate(-136.088 102.88)" fill="#ebebeb"/>
      <rect id="Rectangle_3" data-name="Rectangle 3" width="22.284" height="3.177" transform="translate(239.91 509.77)" fill="#ebebeb"/>
      <rect id="Rectangle_4" data-name="Rectangle 4" width="22.284" height="3.177" transform="translate(239.91 517.646)" fill="#ebebeb"/>
      <rect id="Rectangle_5" data-name="Rectangle 5" width="22.284" height="3.177" transform="translate(239.91 525.523)" fill="#ebebeb"/>
      <path id="Path_28" data-name="Path 28" d="M193.807,157.51a14.674,14.674,0,0,1-4.33,1.818,15.028,15.028,0,1,1,4.33-1.818Z" transform="translate(-137.667 -29.539)" fill="#dbdbdb"/>
      <path id="Path_29" data-name="Path 29" d="M187.092,140.206a4.566,4.566,0,1,1-4.566-4.566A4.566,4.566,0,0,1,187.092,140.206Z" transform="translate(-134.277 -26.702)" fill="#fff"/>
      <path id="Path_30" data-name="Path 30" d="M191.49,149.911v1.877a14.675,14.675,0,0,1-4.33,1.818,14.94,14.94,0,0,1-11.438-1.818v-1.877a7.891,7.891,0,1,1,15.767,0Z" transform="translate(-135.35 -23.817)" fill="#fff"/>
      <rect id="Rectangle_6" data-name="Rectangle 6" width="95.328" height="7.861" transform="translate(82.059 101.076)" fill="#ebebeb"/>
      <rect id="Rectangle_7" data-name="Rectangle 7" width="83.211" height="5.202" transform="translate(82.059 114.184)" fill="#ebebeb"/>
      <rect id="Rectangle_8" data-name="Rectangle 8" width="137.591" height="5.202" transform="translate(82.059 124.217)" fill="#ebebeb"/>
      <rect id="Rectangle_9" data-name="Rectangle 9" width="268.754" height="188.203" transform="translate(284.478 330.833) rotate(180)" fill="#ebebeb"/>
      <path id="Path_31" data-name="Path 31" d="M180.3,201.849a22.269,22.269,0,1,0,22.269-22.269A22.269,22.269,0,0,0,180.3,201.849Z" transform="translate(-133.16 -5.711)" fill="#dbdbdb"/>
      <path id="Path_32" data-name="Path 32" d="M239.8,290.843H389.257L314.528,189.56Z" transform="translate(-104.735 -0.943)" fill="#c7c7c7"/>
      <path id="Path_33" data-name="Path 33" d="M200.16,279.756H323.55L261.855,213.79Z" transform="translate(-123.672 10.632)" fill="#dbdbdb"/>
      <rect id="Rectangle_10" data-name="Rectangle 10" width="268.754" height="40.549" transform="translate(15.739 290.299)" fill="#dbdbdb"/>
      <path id="Path_34" data-name="Path 34" d="M193.777,361.97a14.986,14.986,0,1,1,6.694-16.314A15.058,15.058,0,0,1,193.777,361.97Z" transform="translate(-137.637 68.166)" fill="#dbdbdb"/>
      <path id="Path_35" data-name="Path 35" d="M187.092,344.646a4.566,4.566,0,1,1-4.566-4.566A4.566,4.566,0,0,1,187.092,344.646Z" transform="translate(-134.277 70.964)" fill="#fff"/>
      <path id="Path_36" data-name="Path 36" d="M191.49,354.337v1.936a15.058,15.058,0,0,1-4.33,1.8,14.881,14.881,0,0,1-11.438-1.818v-1.877a7.891,7.891,0,1,1,15.767,0Z" transform="translate(-135.35 73.863)" fill="#fff"/>
      <rect id="Rectangle_11" data-name="Rectangle 11" width="122.607" height="7.861" transform="translate(82.059 403.182)" fill="#ebebeb"/>
      <rect id="Rectangle_12" data-name="Rectangle 12" width="156.506" height="5.202" transform="translate(82.059 416.289)" fill="#ebebeb"/>
      <rect id="Rectangle_13" data-name="Rectangle 13" width="53.316" height="5.202" transform="translate(82.059 426.323)" fill="#ebebeb"/>
      <rect id="Rectangle_14" data-name="Rectangle 14" width="268.754" height="45.972" transform="translate(15.739 444.75)" fill="#ebebeb"/>
      <path id="Path_37" data-name="Path 37" d="M223.1,398.762H181.19a22.269,22.269,0,0,1,41.908,0Z" transform="translate(-132.734 91.96)" fill="#dbdbdb"/>
      <circle id="Ellipse_3" data-name="Ellipse 3" cx="8.896" cy="8.896" r="8.896" transform="translate(33.531 341.886)" fill="#ebebeb"/>
      <g id="freepik--xsrjp0--inject-40-2" data-name="freepik--xsrjp0--inject-40" transform="translate(36.752 344.797)">
        <path id="Path_38" data-name="Path 38" d="M176.587,304.781c-.236-.148-.443-.369-.754-.34s-.089-.074-.089-.148v-3.547a.192.192,0,0,1,.1-.207c.9-.458,1.3-1.36,1.862-2.128a3.561,3.561,0,0,0,.65-2.689c0-.266.089-.384.325-.443a.606.606,0,0,1,.68.222,4.8,4.8,0,0,1,.517,1.552,6.809,6.809,0,0,1-.163,1.33,5.646,5.646,0,0,1-.177.975h3.207c.429,0,.635.118.695.4a.8.8,0,0,1-.443.872c-.074,0-.207,0-.222.118s.133.1.207.163c.355.236.3.754-.133,1.049-.089.074-.3,0-.3.192s.177.118.266.192a.68.68,0,0,1-.3,1.049.9.9,0,0,0-.177.074s-.089,0,0,.133a.591.591,0,0,1,0,1.064l-.118.089a.857.857,0,0,1-.532.118h-4.714a.591.591,0,0,1-.4-.089Z" transform="translate(-172.124 -295.25)" fill="#fff" fill-rule="evenodd"/>
        <path id="Path_39" data-name="Path 39" d="M173.27,301.1v-2.261c0-.163,0-.236.207-.236h2.749c.177,0,.207,0,.207.222v4.551c0,.192,0,.251-.236.236h-2.675c-.222,0-.251-.074-.251-.281C173.285,302.59,173.27,301.851,173.27,301.1Z" transform="translate(-173.27 -293.649)" fill="#fff" fill-rule="evenodd"/>
      </g>
      <path id="Path_40" data-name="Path 40" d="M183.99,304.267a8.866,8.866,0,1,1,4.019,5.506A8.866,8.866,0,0,1,183.99,304.267Z" transform="translate(-131.515 48.628)" fill="#13c693"/>
      <path id="Path_41" data-name="Path 41" d="M195.94,301.786A11.438,11.438,0,0,1,191.4,306.1a11.423,11.423,0,0,1-4.551-4.315c-1.108-2.261-.4-4.714,1.36-5.246,2.542-.768,3.192,3.65,3.192,3.65s.65-4.433,3.177-3.65C196.353,297.072,197.063,299.525,195.94,301.786Z" transform="translate(-130.283 50.119)" fill="#fff"/>
      <rect id="Rectangle_15" data-name="Rectangle 15" width="126.271" height="5.142" transform="translate(83.537 349.629)" fill="#ebebeb"/>
      <path id="Path_42" data-name="Path 42" d="M159.04,319.447l33.6-.266,33.589-.1,67.192-.177,67.192.177,33.589.1,33.6.266-33.6.266-33.589.1-67.192.192-67.192-.192-33.589-.1Z" transform="translate(-143.316 60.845)" fill="#ebebeb"/>
    </g>
    <g id="freepik--Icons--inject-40" transform="translate(69.587 129.744)">
      <rect id="Rectangle_16" data-name="Rectangle 16" width="93.835" height="93.835" transform="translate(0 255.814) rotate(-14.93)" fill="#455a64"/>
      <path id="Path_43" data-name="Path 43" d="M102.291,319.522l-12.147,3.236c-1.271-4.743-2.468-9.221-3.724-13.95l11.925-3.177c-.236-1.079-.384-1.921-.591-2.749-.9-3.694-2.024-7.389-2.66-11.068-1.374-8.216,2.024-15.176,9.664-18.383,4.758-2.01,10.019-2.808,15.176-4.182,1.167,4.33,2.217,8.275,3.4,12.694-1.847.488-3.694.946-5.512,1.478a26.272,26.272,0,0,0-4.8,1.64,4.684,4.684,0,0,0-2.689,5.438c.8,3.606,1.862,7.152,2.955,11.024l13.861-3.709c.621,4.729,1.256,9.1,1.729,13.492,0,.429-.872,1.226-1.478,1.478-3.325.99-6.679,1.832-10.344,2.793,3.192,12.014,6.339,23.821,9.546,35.82l-14.777,3.931C108.675,343.417,105.512,331.61,102.291,319.522Z" transform="translate(-50.745 -18.622)" fill="#fff"/>
      <rect id="Rectangle_17" data-name="Rectangle 17" width="94.087" height="94.087" transform="matrix(0.995, 0.099, -0.099, 0.995, 444.809, 329.686)" fill="#13c693"/>
      <path id="Path_44" data-name="Path 44" d="M439.95,353.766c.887-9.369-4.433-16.019-13.654-17.023q-19.21-2.113-38.569-3.827c-9.1-.8-15.59,4.64-16.624,13.7-.724,6.413-1.286,12.841-1.921,19.21s-1.286,12.561-1.862,18.841c-.872,9.59,4.433,16.255,13.846,17.334q19.063,2.084,38.155,3.783c9.31.813,15.886-4.714,16.846-13.964Q438.162,372.8,439.95,353.766Zm-9.945,37.593c-.65,5.911-4.167,8.866-10.093,8.334q-19.092-1.773-38.155-3.783c-5.911-.621-8.866-4.212-8.3-10.108q1.818-19.21,3.813-38.495c.606-5.911,4.226-8.866,10.108-8.379q19.092,1.758,38.155,3.768c5.911.635,8.866,4.315,8.29,10.182-.562,6.413-1.241,12.827-1.877,19.21s-1.227,12.827-1.936,19.24Z" transform="translate(83.403 11.756)" fill="#fff"/>
      <path id="Path_45" data-name="Path 45" d="M399.55,345.352a18.072,18.072,0,1,0,12.238,6.655,18.087,18.087,0,0,0-12.238-6.655Zm-3.207,29.953a12.221,12.221,0,0,1-10.625-13.019,12.073,12.073,0,1,1,24.028,2.379,12.206,12.206,0,0,1-13.4,10.64Z" transform="translate(89.312 17.687)" fill="#fff"/>
      <path id="Path_46" data-name="Path 46" d="M411.613,348.2a4.153,4.153,0,1,1-8.142-1.566c.443-2.5,2.2-3.5,4.729-3.4C410.712,343.912,412.071,345.523,411.613,348.2Z" transform="translate(100.642 16.718)" fill="#fff"/>
      <rect id="Rectangle_18" data-name="Rectangle 18" width="69.97" height="69.97" transform="translate(460.055 110.978) rotate(19.59)" fill="#455a64"/>
      <path id="Path_47" data-name="Path 47" d="M367.07,220.94a24.087,24.087,0,0,0,16.255.695c-5.408-3.99-7.167-6.709-6.827-10.462l4.138,1.241c-4.123-3.532-5.793-7.743-4.3-13.122l3.8,2.586c-2.423-7.078-1.788-11.674,2.246-14.777a32.081,32.081,0,0,0,17.733,18.383c.207-.695.34-1.227.5-1.744a10.521,10.521,0,0,1,9.206-7.921,10.64,10.64,0,0,1,10.935,5.438,2.217,2.217,0,0,0,2.128,1.3h5.734a11.038,11.038,0,0,1-5.807,3.694,2.516,2.516,0,0,1,0,.34l5.482.488.133.281c-1.758.842-3.5,1.758-5.3,2.5a2.955,2.955,0,0,0-1.891,1.847,31.2,31.2,0,0,1-37.239,19.949,31.653,31.653,0,0,1-16.181-9.768A10,10,0,0,0,367.07,220.94Z" transform="translate(83.328 -57.867)" fill="#fff"/>
      <rect id="Rectangle_19" data-name="Rectangle 19" width="60.808" height="60.808" transform="translate(435.83 19.234) rotate(-18.44)" fill="#13c693"/>
      <path id="Path_48" data-name="Path 48" d="M376.048,161.487c-.192-3.62-.4-6.975-.5-10.344a3.62,3.62,0,0,0-1.167-2.645,22.689,22.689,0,1,1,24.368,4.8,24.117,24.117,0,0,1-11.245,1.478,3.591,3.591,0,0,0-2.084.517C382.328,157.32,379.329,159.3,376.048,161.487Zm3.5-6.753c1.921-1.241,3.532-2.35,5.216-3.34a3.354,3.354,0,0,1,1.965-.384,20.008,20.008,0,0,0,9.339-.621c11.053-3.473,16.491-16.624,10.832-26.6a17.54,17.54,0,0,0-17.984-9.59,17.821,17.821,0,0,0-16.255,13.093c-2.423,7.581-.355,14.171,5.5,19.595a3.384,3.384,0,0,1,.961,1.995c.281,1.847.31,3.739.429,5.793Z" transform="translate(83.851 -94.466)" fill="#fff"/>
      <path id="Path_49" data-name="Path 49" d="M375.132,122.5c.8-2.438,2.882-2.7,4.611-.887.68.709.872.961,1.581,1.8a2.763,2.763,0,0,1,.532,3.561c-.547.931-.266,1.478.517,2.113a15.827,15.827,0,0,0,8.29,3.31,1.478,1.478,0,0,0,1.818-1.094c1.123-2.852,1.167-2.837,4.226-2.483l1.049.133a2.616,2.616,0,0,1,2.157,4.182,6.28,6.28,0,0,1-5.482,3.443,22.846,22.846,0,0,1-16.255-5.527,8.66,8.66,0,0,1-3.236-4.285A7.61,7.61,0,0,1,375.132,122.5Z" transform="translate(86.983 -89.716)" fill="#fff"/>
    </g>
    <g id="freepik--Character--inject-40" transform="translate(64.24 125.75)">
      <path id="Path_50" data-name="Path 50" d="M260.127,280.85s-10.448,33.1-23.644,76.191c-14.659,47.893-32.717,108.1-43.563,148.866h98.712c1.655-6.561,3.458-13.654,5.364-21.191l8.334-32.51c7.891-30.722,16.58-64.311,24.161-93.525,11.364-43.785,20.23-77.787,20.23-77.787Z" transform="translate(5.479 -9.086)" fill="#455a64"/>
      <path id="Path_51" data-name="Path 51" d="M305.991,297.629c-2.128,7.581-4.8,15.029-7.152,22.521s-4.773,15.354-7.137,23.038q-7.034,22.831-13.95,45.676-13.876,45.676-27.663,91.412c-1.847,6.133-3.783,12.25-5.689,18.383h2.955q5.305-17.614,10.61-35.258,13.92-46.415,27.737-92.875,6.916-23.333,13.758-46.711c2.29-7.876,4.433-15.767,6.724-23.644C307.351,296.24,306.849,294.511,305.991,297.629Z" transform="translate(30.072 -1.837)" fill="#263238"/>
      <path id="Path_52" data-name="Path 52" d="M245.29,280.85c6.221,48.129,18.073,138.389,26.717,203.926,20.23-79.339,52.725-203.926,52.725-203.926Z" transform="translate(30.497 -9.086)" fill="#263238"/>
      <path id="Path_53" data-name="Path 53" d="M282.682,452.162c.488,18.117.975,37.076,1.359,53.745h90.7c-1.847-41.2-5.024-99.347-7.684-146.221-2.512-44.524-4.581-78.837-4.581-78.837H240.36s2.069,42.854,11.822,76.842c.783,2.808,1.64,5.571,2.571,8.216a159.805,159.805,0,0,1,25.831,13.3S281.677,413.683,282.682,452.162Z" transform="translate(28.142 -9.086)" fill="#455a64"/>
      <path id="Path_54" data-name="Path 54" d="M324.051,501.054h1.478q-.9-16.373-1.655-32.732c-2.63-58.961-4.7-117.967-6.65-176.943a.362.362,0,1,0-.724,0c.99,33.352,1.862,66.719,2.955,100.071Q321.362,446.157,324.051,501.054Z" transform="translate(64.516 -4.233)" fill="#263238"/>
      <path id="Path_55" data-name="Path 55" d="M247.456,336.692a196.908,196.908,0,0,1,30.234,15.841.355.355,0,0,1-.325.621c-10.2-4.965-20.614-9.738-30.53-15.235a.695.695,0,0,1,.621-1.227Z" transform="translate(31.095 17.574)" fill="#263238"/>
      <path id="Path_56" data-name="Path 56" d="M243.03,304.639c.842,4.537,1.936,9.029,2.955,13.536.916,4.226,1.581,8.541,2.7,12.708a21.575,21.575,0,0,0,5.911,10.669c1.655,1.478,3.487,2.955,5.261,4.315.946.754,1.98,1.478,2.955,2.261-.133-.591-.236-1.212-.34-1.818-.31-1.729-.591-3.443-.887-5.157-.635-3.827-1.256-7.655-1.832-11.482-1.153-7.522-2.217-15.117-3.783-22.565a.251.251,0,0,1,.473-.118c1.877,7.389,3.946,14.689,5.571,22.166.8,3.65,3.665,21.678,3.783,22.949s.236,2.63.3,3.96a16.144,16.144,0,0,1,0,4.049c-.074.325-.473.266-.621,0h0a16.622,16.622,0,0,1-1.153-3.916c-.325-1.286-.621-2.586-.842-3.9-.089-.473-.148-.946-.222-1.478-1.773-1.079-3.428-2.5-5.083-3.709s-3.606-2.556-5.305-3.975a20.407,20.407,0,0,1-6.472-10.108,73.889,73.889,0,0,1-2.113-12.96c-.576-5.113-.99-10.27-1.714-15.368C242.513,304.461,242.971,304.328,243.03,304.639Z" transform="translate(29.196 2.192)" fill="#263238"/>
      <path id="Path_57" data-name="Path 57" d="M287.7,208.7c-6.059,48.292-16.639,129.286-33.766,135.832-2.955,1.138-15.575,3.635-24.19-6.059-14.526-16.344-39.647-71.492-46.7-89.24-3.118-7.862,48.159-33.515,52.548-25.609,6.147,11.068,12.6,27.737,13.817,27.175,2.054-.931,5.541-21.486,19.21-50.361C285.687,164.558,289.957,190.743,287.7,208.7Z" transform="translate(0.696 -56.052)" fill="#ad6359"/>
      <path id="Path_58" data-name="Path 58" d="M173.133,231.567c5.054,10.846,24.057,28.978,30.323,31.594s38.17-28.653,37.357-35.584-20.688-42.1-31.579-47.524S167.916,220.337,173.133,231.567Z" transform="translate(-4.259 -57.451)" fill="#ad6359"/>
      <path id="Path_59" data-name="Path 59" d="M224.138,226.408s-1.049-15.531,2.63-28.727c3.1-11.1,8.97-27.234,3.059-29.126-12.117-3.886-26.717,36.352-26.717,36.352s-3.606,18.782,8.068,23.644A12.575,12.575,0,0,0,224.138,226.408Z" transform="translate(10.096 -62.858)" fill="#ad6359"/>
      <path id="Path_60" data-name="Path 60" d="M201,234.162,183.02,231l9.177-52.09,22.757,4Z" transform="translate(0.75 -57.785)" fill="#13c693"/>
      <path id="Path_61" data-name="Path 61" d="M214.958,182.915l-5.32,19.55-8.63,31.712-18-3.177,9.191-52.09Z" transform="translate(0.745 -57.785)" fill="#13c693"/>
      <path id="Path_62" data-name="Path 62" d="M213.119,182.915l-5.32,19.55-20.939-3.694,3.5-19.861Z" transform="translate(2.584 -57.785)" opacity="0.1"/>
      <rect id="Rectangle_20" data-name="Rectangle 20" width="28.756" height="21.841" transform="translate(191.915 106.718) rotate(10)" fill="#13c693"/>
      <path id="Path_63" data-name="Path 63" d="M228.728,181.26l-22.388-1.685,6.133-34.815,21.6,6.088Z" transform="translate(11.89 -74.099)" fill="#13c693"/>
      <path id="Path_64" data-name="Path 64" d="M248.308,157.386l-9.044,51.38-37.7-2.084-91.4,16.447L131.922,99.74l80.255,46.726Z" transform="translate(-34.052 -95.606)" fill="#13c693"/>
      <ellipse id="Ellipse_4" data-name="Ellipse 4" cx="62.951" cy="20.23" rx="62.951" ry="20.23" transform="translate(54.141 123.99) rotate(-80)" fill="#13c693"/>
      <ellipse id="Ellipse_5" data-name="Ellipse 5" cx="55.887" cy="16.565" rx="55.887" ry="16.565" transform="translate(58.139 116.422) rotate(-80)" opacity="0.2"/>
      <path id="Path_65" data-name="Path 65" d="M131.652,147.671c-.724,4.049-1.478,7.965-2.468,11.718A12.5,12.5,0,0,1,110.8,146.3l1.02-5.822a12.487,12.487,0,0,1,21.678-6.1C133.07,138.716,132.45,143.237,131.652,147.671Z" transform="translate(-33.841 -81.088)" fill="#13c693"/>
      <path id="Path_66" data-name="Path 66" d="M224.657,200.636l-43.3-3.251,11.866-67.325,41.8,11.748Z" transform="translate(-0.043 -81.122)" fill="#13c693"/>
      <path id="Path_67" data-name="Path 67" d="M224.657,200.636l-43.3-3.251,11.866-67.325,41.8,11.748Z" transform="translate(-0.043 -81.122)" opacity="0.2"/>
      <path id="Path_68" data-name="Path 68" d="M134.273,106.15a39.278,39.278,0,0,1,4.433,13.388,88.667,88.667,0,0,1,1.108,14.127c0,2.364-.074,4.729-.148,7.078s-.31,4.714-.562,7.064-.5,4.7-.857,7.034-.695,4.67-1.108,6.99a154.778,154.778,0,0,1-7.389,27.323,79.9,79.9,0,0,1-6.147,12.768,33.633,33.633,0,0,1-9.384,10.492,34.46,34.46,0,0,0,8.866-10.817,79.5,79.5,0,0,0,5.748-12.8,165.5,165.5,0,0,0,6.99-27.2,169.008,169.008,0,0,0,2.955-27.929,88.943,88.943,0,0,0-.724-14.024,40.741,40.741,0,0,0-3.783-13.492Z" transform="translate(-32.118 -92.544)" opacity="0.2"/>
      <path id="Path_69" data-name="Path 69" d="M97.33,98.9c2.556,2.024,5.024,4.182,7.389,6.339s4.817,4.433,7.182,6.62,4.684,4.522,6.96,6.871l3.384,3.517c1.094,1.212,2.231,2.394,3.3,3.635-1.3-1-2.527-2.069-3.8-3.1l-3.68-3.236c-2.438-2.143-4.817-4.433-7.182-6.62s-4.684-4.522-6.945-6.871S99.473,101.368,97.33,98.9Z" transform="translate(-40.186 -96.007)" fill="#263238"/>
      <path id="Path_70" data-name="Path 70" d="M123.67,163.42c-3.561.931-7.167,1.7-10.758,2.438s-7.211,1.478-10.832,2.054-7.241,1.227-10.891,1.729l-5.468.739c-1.818.192-3.65.429-5.482.576,1.773-.473,3.576-.857,5.364-1.3L91,168.518c3.591-.768,7.211-1.478,10.832-2.054s7.241-1.227,10.891-1.714S120.006,163.745,123.67,163.42Z" transform="translate(-48.351 -65.185)" fill="#263238"/>
      <path id="Path_71" data-name="Path 71" d="M63.83,155.281c5.394-.414,10.787-.68,16.255-.916s10.787-.4,16.181-.532,10.8-.207,16.255-.192h8.1c2.7,0,5.408,0,8.113.192-2.7.222-5.394.355-8.1.532l-8.1.4c-5.394.251-10.787.384-16.255.532s-10.8.192-16.255.177S69.238,155.473,63.83,155.281Z" transform="translate(-56.19 -69.857)" fill="#263238"/>
      <path id="Path_72" data-name="Path 72" d="M76.92,99.63c4.611,2.955,9.132,6.059,13.639,9.177s8.97,6.3,13.418,9.487,8.866,6.443,13.211,9.768l6.532,4.98c2.143,1.714,4.315,3.369,6.443,5.113-2.32-1.478-4.581-2.955-6.871-4.522l-6.768-4.655c-4.522-3.1-8.97-6.3-13.418-9.487s-8.866-6.458-13.211-9.768S81.176,103.132,76.92,99.63Z" transform="translate(-49.937 -95.659)" fill="#263238"/>
      <path id="Path_73" data-name="Path 73" d="M133.255,144.2c-6.266-.857-12.516-1.877-18.752-2.955s-12.457-2.217-18.678-3.31-12.428-2.379-18.619-3.665l-9.295-1.936c-3.074-.709-6.177-1.359-9.251-2.113,3.133.429,6.266.931,9.384,1.389l9.369,1.478c6.236,1.034,12.457,2.217,18.678,3.31s12.428,2.379,18.619,3.665S127.138,142.736,133.255,144.2Z" transform="translate(-58.66 -81.045)" fill="#263238"/>
      <path id="Path_74" data-name="Path 74" d="M226.481,196.157c-.695,6.3-7.728,1.891-7.728,1.891s8.6,8.778,5.379,15.014c-3.118,5.985-11.423.355-12.029,0,.458.473,8.142,8.748,4.271,14.674s-11.408-.931-11.822-1.389c.281.576,3.946,8.26,0,12.088-6.827,6.576-16.713-12.827-24.1-14.881,0,0-4.921,12.117-5.142,12.442,0,0-9.783-18.25-6.443-28.077a6.62,6.62,0,0,1,6.916-4.566s-3.8-5.527-.9-10.344c1.478-2.438,6.738-2.217,6.738-2.217s-2.867-4.566,0-8.63c2.261-3.251,7.152-2.527,7.152-2.527s-.724-5.645,2.675-8.231C198.168,166.233,227.929,182.666,226.481,196.157Z" transform="translate(-6.345 -61.836)" fill="#ad6359"/>
      <path id="Path_75" data-name="Path 75" d="M182.6,176.733a.089.089,0,0,1,0-.163c11.112,2.955,22.388,9.723,29.658,18.738.236.3-.148.813-.473.532A121.175,121.175,0,0,0,182.6,176.733Z" transform="translate(0.522 -58.903)" fill="#263238"/>
      <path id="Path_76" data-name="Path 76" d="M177.146,184.2c-.118,0,0-.251.1-.207,11.423,3.162,23.91,11.083,31.032,22.447.236.4.074.99-.251.562C202.755,199.8,187.18,188.676,177.146,184.2Z" transform="translate(-2.08 -55.36)" fill="#263238"/>
      <path id="Path_77" data-name="Path 77" d="M202.145,216.674c-7.285-10.64-17.245-17.88-28.535-23.836-.148,0,0-.281.118-.236,6.31,1.478,13.122,5.911,18.117,9.945a33.841,33.841,0,0,1,10.669,13.876C202.6,216.644,202.293,216.836,202.145,216.674Z" transform="translate(-3.775 -51.246)" fill="#263238"/>
      <path id="Path_78" data-name="Path 78" d="M215.047,189.11c.281.355-.547.384-.281.739,1.167,1.478,7.315,11.349,4.625,14.482-2.157,2.512-7.034,1.345-8.719.163l-4.271-2.955,2.955,4.271A20.94,20.94,0,0,1,212.313,212a7.566,7.566,0,0,1-.458,6.192,4.344,4.344,0,0,1-5.069,2.054,13.3,13.3,0,0,1-5.542-3.546l-4.33-4.433,2.645,5.527a20.228,20.228,0,0,1,1.626,4.832,8.379,8.379,0,0,1-.251,4.743,3.946,3.946,0,0,1-3.369,2.394,8.659,8.659,0,0,1-4.507-1.729,68.8,68.8,0,0,1-8.083-6.99c-1.3-1.241-2.616-2.483-3.99-3.665a12.945,12.945,0,0,0-4.6-2.837,13.877,13.877,0,0,1,4.256,3.207c1.271,1.271,2.468,2.6,3.68,3.931a57.9,57.9,0,0,0,7.876,7.566,10.078,10.078,0,0,0,5.364,2.261,5.586,5.586,0,0,0,5.083-3.354,10.078,10.078,0,0,0,.5-5.911,21.945,21.945,0,0,0-1.714-5.408l-1.685,1.153a15.1,15.1,0,0,0,6.517,4.256,6.325,6.325,0,0,0,4.256-.236,7.226,7.226,0,0,0,3.133-2.808,9.59,9.59,0,0,0,.576-7.847,22.889,22.889,0,0,0-3.413-6.753l-1.3,1.3c2.217,1.478,7.507,3.325,11.349-.148C225.258,200.577,216.732,190.78,215.047,189.11Z" transform="translate(-2.418 -52.912)" fill="#263238"/>
      <path id="Path_79" data-name="Path 79" d="M202.4,191.642a12.8,12.8,0,0,0,3.813.813,2.955,2.955,0,0,0,2.689-1.286,6,6,0,0,0,.547-3.354c-.089-1.271-.251-2.6-.473-3.975a9.886,9.886,0,0,1,1.847,3.768,5.911,5.911,0,0,1-.429,4.507,4.108,4.108,0,0,1-1.965,1.581,4.433,4.433,0,0,1-2.379.133,6.842,6.842,0,0,1-3.65-2.187Z" transform="translate(10.008 -55.43)" fill="#263238"/>
      <path id="Path_80" data-name="Path 80" d="M180.3,267.556l56.05-45s13.58,28.077,14.378,27.959,9.694-37.372,24.442-60.587,18.294,1.98,15.161,21.131-17.88,125.3-31.136,135.02-25.712-2.453-31.032-7.61C220.731,331.275,180.3,267.556,180.3,267.556Z" transform="translate(-0.55 -56.969)" fill="#13c693"/>
      <path id="Path_81" data-name="Path 81" d="M187.616,254.53c1.758-1.8,19.373-15.546,23.259-18.442l11.7-8.689c4.019-2.955,7.995-6.221,12.25-8.866a.179.179,0,0,1,.222.281c-3.694,3.4-7.862,6.354-11.822,9.443s-7.788,6.118-11.689,9.147-21.634,16.255-23.762,17.422C187.6,254.914,187.5,254.707,187.616,254.53Z" transform="translate(2.921 -38.875)" fill="#263238"/>
      <path id="Path_82" data-name="Path 82" d="M228,227.87c1.478,3.31,2.955,6.709,4.2,10.108s2.483,6.871,3.591,10.344,2.113,6.99,2.955,10.551a94.75,94.75,0,0,1,2.024,10.773c-.547-1.758-.99-3.517-1.478-5.246s-1.034-3.487-1.581-5.231l-3.251-10.344-3.251-10.344-1.729-5.349C228.975,231.372,228.429,229.628,228,227.87Z" transform="translate(22.238 -34.395)" fill="#263238"/>
      <path id="Path_83" data-name="Path 83" d="M228.226,369.046c2.423,2.409,151.452-5.482,152.206-6.443,1.965-2.63-51.336-161.234-86.27-186.326-7.507-5.394-27.693,1.832-32.879,7.034-3.251,3.266-10.344,23.88-14.955,40.918C237.018,258.364,226.113,366.933,228.226,369.046Z" transform="translate(22.219 -59.954)" fill="#fff"/>
      <path id="Path_84" data-name="Path 84" d="M254.42,177.327c-5.911,4.433-10.433,27.057,3.074,30.116s26.038-18.265,27.885-25.121S267.2,167.84,254.42,177.327Z" transform="translate(32.11 -60.665)" fill="#13c693"/>
      <path id="Path_85" data-name="Path 85" d="M259.982,212.73c8.379,1.079,21.1-12.886,25.579-23.644.31-.739-1.478-7.935-3.34-16.8-1.079-5.379-2.143-11.393-2.734-16.964L245.5,167.452s4.655,11.3,5.615,21.013a12.01,12.01,0,0,1,0,2.305v.384C250.835,195.6,251.884,211.7,259.982,212.73Z" transform="translate(30.598 -69.054)" fill="#ad6359"/>
      <path id="Path_86" data-name="Path 86" d="M277.891,155.74c-.355,7.064-3.029,32.51-23.185,35.081A23.805,23.805,0,0,1,251.1,191a1.049,1.049,0,0,1,0-.384,15,15,0,0,0,0-2.305c-.975-9.694-5.63-21-5.63-21Z" transform="translate(30.583 -68.854)" fill="#263238"/>
      <path id="Path_87" data-name="Path 87" d="M287.069,132.752c4.95,12.029,1.818,48.41-6.221,57.232-11.674,12.782-32.51,15.871-43.755,1.478-10.935-13.964-6.014-61.326,3.133-69.453C253.687,109.877,279.74,114.99,287.069,132.752Z" transform="translate(23.593 -88.129)" fill="#ad6359"/>
      <path id="Path_88" data-name="Path 88" d="M265.25,165.58h0" transform="translate(40.033 -64.153)" fill="none" stroke="#f4a69d" stroke-linecap="round" stroke-linejoin="round" stroke-width="0"/>
      <path id="Path_89" data-name="Path 89" d="M247.249,144.157c0-.089.192.133.177.236-.281,2.453-.177,5.29,1.965,6.28v.148C246.687,150.215,246.6,146.432,247.249,144.157Z" transform="translate(31.273 -74.397)" fill="#263238"/>
      <path id="Path_90" data-name="Path 90" d="M249.614,142.54c3.96,0,3.635,7.95,0,7.935S246.289,142.525,249.614,142.54Z" transform="translate(31.316 -75.16)" fill="#263238"/>
      <path id="Path_91" data-name="Path 91" d="M238.776,143.817c0-.089-.192.118-.192.207,0,2.468-.473,5.275-2.734,6v.148C238.6,149.905,239.145,146.152,238.776,143.817Z" transform="translate(25.988 -74.56)" fill="#263238"/>
      <path id="Path_92" data-name="Path 92" d="M237.5,142.006c-3.945-.458-4.581,7.389-.931,7.891S240.8,142.42,237.5,142.006Z" transform="translate(25.179 -75.424)" fill="#263238"/>
      <path id="Path_93" data-name="Path 93" d="M252.964,142.032a28.076,28.076,0,0,1-3.029-1.212A5.275,5.275,0,0,1,247.082,139a1.685,1.685,0,0,1,.355-2.024,4.167,4.167,0,0,1,4.212-.251,6.147,6.147,0,0,1,3.414,2.793,1.788,1.788,0,0,1-2.1,2.512Z" transform="translate(31.262 -78.154)" fill="#263238"/>
      <path id="Path_94" data-name="Path 94" d="M235.1,140.9c1.094-.133,2.1-.443,3.177-.68a5.187,5.187,0,0,0,3.118-1.33,1.67,1.67,0,0,0,0-2.039,4.167,4.167,0,0,0-4.123-.96,6.147,6.147,0,0,0-3.827,2.172A1.8,1.8,0,0,0,235.1,140.9Z" transform="translate(24.681 -78.427)" fill="#263238"/>
      <path id="Path_95" data-name="Path 95" d="M250.839,159.743c-.606.547-1.227,1.315-2.128,1.345a6.309,6.309,0,0,1-2.616-.724.089.089,0,0,0-.1.118,3.251,3.251,0,0,0,3.059,1.478,2.6,2.6,0,0,0,2.024-2.084A.14.14,0,0,0,250.839,159.743Z" transform="translate(30.83 -66.961)" fill="#263238"/>
      <path id="Path_96" data-name="Path 96" d="M252.3,163.411a8.3,8.3,0,0,1-5.734,3.487,10.343,10.343,0,0,1-2.955,0,3.369,3.369,0,0,1-.576-.089l-.532-.1a.606.606,0,0,1-.473-.576h0a1.476,1.476,0,0,1,0-.251h0v-.222c0-1.891.34-4.758.34-4.758-.709.31-4.3,1.758-4.212.768.842-8.172,1.758-17.245,4.315-25.121.074-.266.488-.192.443,0-.488,7.891-2.364,15.62-2.955,23.525a14.437,14.437,0,0,1,3.99-1.02c.266.089-.68,5.527-.621,6.384a.414.414,0,0,0,0,.089c3.162.547,5.6-.325,8.763-2.32C252.273,163.056,252.465,163.219,252.3,163.411Z" transform="translate(27.091 -78.106)" fill="#263238"/>
      <path id="Path_97" data-name="Path 97" d="M242.76,157.795a9.812,9.812,0,0,0,4.078,2.882,4.433,4.433,0,0,0,2.7,0c1.921-.606,1.877-2.394,1.478-3.9a10.964,10.964,0,0,0-.99-2.305A12.738,12.738,0,0,1,242.76,157.795Z" transform="translate(29.289 -69.46)" fill="#263238"/>
      <path id="Path_98" data-name="Path 98" d="M245.52,159.931a4.433,4.433,0,0,0,2.7,0c1.921-.606,1.877-2.394,1.478-3.9A4.581,4.581,0,0,0,245.52,159.931Z" transform="translate(30.607 -68.715)" fill="#f392b9"/>
      <path id="Path_99" data-name="Path 99" d="M286.862,166.469c.887-3.177,9.088-37.431,8.187-41.169-.828-3.4-4.551-2.01-4.6-2.2s-.177-3.3-2.1-4.433a5.216,5.216,0,0,0-4.152,0s-.576-3.266-2.63-4.152a4.138,4.138,0,0,0-4.019.872,5.468,5.468,0,0,0-3.281-3.9,3.561,3.561,0,0,0-3.975,1.478s-.872-3.118-2.955-3.724-3.99,1.714-3.99,1.714A4.714,4.714,0,0,0,259.568,108a4.108,4.108,0,0,0-3.62,2.808s-1.478-2.749-3.99-2.822-3.281,2.955-3.281,2.955-1-2.719-3.31-2.542-2.837,3.4-2.837,3.4-1.286-2.955-4-2.113c-4.152,1.345-4.67,21.205-5.615,29.835,0,0,1.153-4.123,2.955-4.271s3.074,2.645,6.369,3.384c4.684,1.034,12.487-4.433,18.944-3.088s10.92,7.935,13.181,17.733C276.828,164.636,284.763,174.005,286.862,166.469Z" transform="translate(24.583 -91.67)" fill="#263238"/>
      <path id="Path_100" data-name="Path 100" d="M250.876,158.888a10.167,10.167,0,0,1-8.172-11.822h0a10.122,10.122,0,1,1,10.684,11.91A10.345,10.345,0,0,1,250.876,158.888Zm-6.842-11.526a8.778,8.778,0,1,0,10.2-7.078,8.335,8.335,0,0,0-2.172-.118,8.763,8.763,0,0,0-8.024,7.2Z" transform="translate(29.183 -76.967)" fill="#13c693"/>
      <path id="Path_101" data-name="Path 101" d="M236.008,158.2c-4.152-.192-7.315-4.891-7.064-10.462a12.1,12.1,0,0,1,2.468-6.975,6.31,6.31,0,0,1,10.787.5,12.058,12.058,0,0,1,1.8,7.167c-.236,5.29-3.473,9.487-7.389,9.768Zm-3.547-16.595A10.714,10.714,0,0,0,230.3,147.8c-.222,4.832,2.364,8.866,5.763,9.058s6.369-3.65,6.591-8.482a10.891,10.891,0,0,0-1.581-6.369,5.409,5.409,0,0,0-4.2-2.675h-.458a5.645,5.645,0,0,0-3.96,2.276Z" transform="translate(22.682 -77.344)" fill="#13c693"/>
      <path id="Path_102" data-name="Path 102" d="M244.98,146.181l.916-1c-1.478-1.359-4.936-3.251-7.536-.724l.946.961C241.626,143.151,244.847,146.048,244.98,146.181Z" transform="translate(27.187 -74.84)" fill="#13c693"/>
      <path id="Path_103" data-name="Path 103" d="M281.735,150.663l1.241-.562c-.266-.576-2.675-5.63-5.66-6.251s-21.013.266-21.8.31v1.345c5.216-.251,19.21-.783,21.442-.34S281.1,149.274,281.735,150.663Z" transform="translate(35.385 -74.638)" fill="#13c693"/>
      <path id="Path_104" data-name="Path 104" d="M264.425,149.953s7.241-12.191,12.708-9.694.635,19.742-5.364,22.506a6.28,6.28,0,0,1-8.659-2.749Z" transform="translate(39.011 -76.41)" fill="#ad6359"/>
      <path id="Path_105" data-name="Path 105" d="M274.509,143.47a.089.089,0,0,1,0,.163c-4.2,2.084-6.177,6.266-7.462,10.551,1.167-1.7,2.852-2.719,5.113-1.345a.133.133,0,0,1-.089.236,3.9,3.9,0,0,0-4.152,1.67,18.442,18.442,0,0,0-1.773,3.591c-.177.4-.887.251-.783-.207a.281.281,0,0,0,0-.1C264.918,152.514,268.627,144.475,274.509,143.47Z" transform="translate(40.069 -74.715)" fill="#263238"/>
      <path id="Path_106" data-name="Path 106" d="M292.064,184.214c48.218,33.16,83.018,85.146,86.373,96.052,8.113,26.6,20.215,73.443,22.077,94.486.695,7.788-59.271,6.339-60.276-1.951-3.118-25.978-14.29-82.487-14.57-83.447-1.995-6.842-19.018-36.441-36.515-68.64S271.73,170.249,292.064,184.214Z" transform="translate(45.36 -57.517)" fill="#ad6359"/>
      <path id="Path_107" data-name="Path 107" d="M327.594,392.368c6.118,2.1,10.093-3.31,10.093-3.31a13.788,13.788,0,0,0,8.054,4.817c5.63.828,9.384-7.64,9.384-7.64a17.082,17.082,0,0,0,9.31,3.724C369.9,390.2,374.9,382.2,374.9,382.2a15.117,15.117,0,0,0,10.255-1.891c5.187-3.34,7.743-19.875,7.655-29.185s-9.058-35.613-10.255-40.815H322.806s-11.482,41.834-9.812,52.769C314.383,372.345,320.722,390.018,327.594,392.368Z" transform="translate(62.762 4.988)" fill="#ad6359"/>
      <path id="Path_108" data-name="Path 108" d="M330.963,372.918c-3.827-9.443-4.67-19.491-6.073-29.481a.177.177,0,0,1,.355,0c1.271,9.945,4.507,19.521,6.192,29.392a.251.251,0,0,1-.473.089Z" transform="translate(68.524 20.729)" fill="#263238"/>
      <path id="Path_109" data-name="Path 109" d="M341.6,371a26.793,26.793,0,0,1-1.094-6.857q-.34-3.68-.532-7.389c-.281-4.921-.458-9.842-.473-14.777a.171.171,0,1,1,.34,0c.3,4.906.65,9.8,1.138,14.674.251,2.453.517,4.891.8,7.389a31.162,31.162,0,0,1,.488,6.931.355.355,0,0,1-.665.03Z" transform="translate(75.504 20.028)" fill="#263238"/>
      <path id="Path_110" data-name="Path 110" d="M355.379,367.409a18.4,18.4,0,0,1-.65-6.236c-.089-2.231-.177-4.433-.281-6.724-.207-4.433-.429-8.955-.8-13.432a.177.177,0,0,1,.355,0c.384,4.537.842,9.073,1.212,13.625l.488,6.694a17.26,17.26,0,0,1-.1,6.1.118.118,0,0,1-.222-.03Z" transform="translate(82.264 19.573)" fill="#263238"/>
      <path id="Path_111" data-name="Path 111" d="M339.08,374.57l65.537-5.29s-14.437-70.591-22.269-89.668-46.829-66.143-87.5-94.042c-27.663-18.959-25.949-2.793-13.167,22.328s42.854,82.62,44.332,87.186S339.08,374.57,339.08,374.57Z" transform="translate(43.635 -58.563)" fill="#13c693"/>
      <path id="Path_112" data-name="Path 112" d="M318.476,303.2c2.453-.576,24.693-2.616,29.554-2.955l14.526-1c5.01-.34,10.093-.916,15.117-.857a.177.177,0,1,1,0,.34c-4.936.872-10.049,1.123-15.029,1.6l-14.777,1.389c-4.936.443-26.968,1.98-29.407,1.818C318.269,303.51,318.313,303.244,318.476,303.2Z" transform="translate(65.393 -0.713)" fill="#263238"/>
    </g>
  </g>
</svg>
