<svg xmlns="http://www.w3.org/2000/svg" xmlns:xlink="http://www.w3.org/1999/xlink" width="170" height="113.293" viewBox="0 0 170 113.293">
  <defs>
    <clipPath id="clip-path">
      <path id="Path_2735" data-name="Path 2735" d="M308.2,122.975s-.455,1.021-1.09,2.318h0c-1.1,2.262-3.419,5.306-7.836,5.084-7.185-.569-9.287-8.648-9.287-8.648s.14-3.207-1.432-4.274S285.13,105.2,285.13,105.2l5.4-9.118,5.383,1.966,7.474,2.737,2.533,1.849.135,3.994-2.875,3.133s.881,7.063.549,9.4C303.425,121.31,308.2,122.975,308.2,122.975Z" transform="translate(-285.13 -96.08)" fill="#263238" opacity="0.2"/>
    </clipPath>
  </defs>
  <g id="Video_tutorial-bro" data-name="Video tutorial-bro" transform="translate(-44.714 -28.73)">
    <g id="freepik--Plants--inject-10" transform="translate(44.714 97.019)">
      <g id="freepik--freepik--Plants--inject-32--inject-10" transform="translate(0 0)">
        <path id="Path_2688" data-name="Path 2688" d="M439.358,397.667c-.015,0,.306-1.037.334-1.1.322-.728,1.381-1.948,2.26-1.854a1.054,1.054,0,0,1,.906,1.187.765.765,0,0,1-.02.11,2.21,2.21,0,0,1-1.277,1.346A7.68,7.68,0,0,1,439.358,397.667Z" transform="translate(-338.589 -369.549)" fill="#263238"/>
        <path id="Path_2689" data-name="Path 2689" d="M696.093,353.836a7.612,7.612,0,0,1-1.683-1.453s.98-.447,1.047-.47c.766-.237,2.367-.255,2.883.48a1.055,1.055,0,0,1-.294,1.461.635.635,0,0,1-.1.059A2.194,2.194,0,0,1,696.093,353.836Z" transform="translate(-528.516 -337.571)" fill="#263238"/>
        <path id="Path_2690" data-name="Path 2690" d="M625.463,318.967c-.4.283-.766.557-1.083.807l-.608-.163c.411-.309.894-.651,1.422-1.021.309-.215.643-.439.991-.664a10.7,10.7,0,0,1-.414-1.108,6.9,6.9,0,0,1-1.823-.363c-.14.345-.271.679-.391,1-.273.72-.493,1.366-.674,1.913l-.511-.135c.2-.557.439-1.213.733-1.948.141-.35.3-.723.46-1.1a6.485,6.485,0,0,1-1.481-1.226,1.937,1.937,0,0,1-.34-1.6.924.924,0,0,1,1.167-.6l.092.033c.707.34.935,1.734.84,2.428,0,.038-.115.478-.186.751.069-.158.13-.3.2-.462.14-.319.289-.626.442-.963l.255-.48c.077-.156.184-.322.278-.485.222-.378.465-.746.72-1.111a6.217,6.217,0,0,1-1.6-.965,1.949,1.949,0,0,1-.58-1.532.929.929,0,0,1,1.057-.779.366.366,0,0,1,.1.023c.751.227,1.18,1.575,1.2,2.273,0,.043-.049.546-.079.822.156-.22.309-.439.472-.654.472-.628.968-1.246,1.461-1.864l.449-.572a6.294,6.294,0,0,1-1.66-.988,1.961,1.961,0,0,1-.58-1.532.932.932,0,0,1,1.065-.771.369.369,0,0,1,.1.023c.751.227,1.18,1.575,1.2,2.273,0,.051-.069.766-.094.96.329-.419.651-.84.952-1.277a16.332,16.332,0,0,0,1.118-1.8,6.176,6.176,0,0,1-1.67-.993,1.952,1.952,0,0,1-.58-1.532.929.929,0,0,1,1.062-.766.685.685,0,0,1,.1.02c.751.227,1.18,1.576,1.2,2.273,0,.046-.049.6-.079.861h.043a12.009,12.009,0,0,0,.766-1.981c.115-.375.2-.741.281-1.1a6.221,6.221,0,0,1-1.724-.794,1.9,1.9,0,0,1-.743-1.455.927.927,0,0,1,.973-.881h.1c.766.143,1.351,1.432,1.44,2.127v.71c.033-.161.069-.329.1-.483.107-.585.171-1.124.222-1.6q.041-.411.061-.751a6.263,6.263,0,0,1-1.157-1.494,1.951,1.951,0,0,1,0-1.629.927.927,0,0,1,1.277-.337l.084.054c.618.483.539,1.895.3,2.553-.015.056-.449.906-.46.9h0c0,.222-.023.46-.046.72-.041.483-.1,1.021-.189,1.614a16.825,16.825,0,0,1-.4,1.879,12.1,12.1,0,0,1-.733,2.022v.026c.158-.169.613-.62.651-.651.549-.439,1.864-.958,2.515-.511a.924.924,0,0,1,.225,1.292l-.061.079a1.938,1.938,0,0,1-1.547.523,6.4,6.4,0,0,1-1.821-.646,16.862,16.862,0,0,1-1.111,1.89c-.24.352-.49.7-.746,1.049.14-.14.255-.255.286-.281.546-.437,1.861-.958,2.515-.511a.927.927,0,0,1,.225,1.292.61.61,0,0,1-.064.079,1.922,1.922,0,0,1-1.532.526,6.353,6.353,0,0,1-1.772-.62c-.1.13-.2.255-.3.393-.48.631-.96,1.259-1.412,1.89-.158.222-.3.452-.457.669l.255-.255c.546-.437,1.861-.958,2.515-.511a.929.929,0,0,1,.225,1.292.988.988,0,0,1-.064.082,1.877,1.877,0,0,1-1.532.511,6.242,6.242,0,0,1-1.724-.6c-.148.235-.3.47-.426.7-.084.156-.181.309-.255.477l-.24.488c-.143.319-.289.636-.419.947-.092.214-.176.421-.255.628.153-.222.47-.651.511-.684a3.614,3.614,0,0,1,1.568-.922.989.989,0,0,1,.153-.138.924.924,0,0,1,1.3.143.936.936,0,0,1,.059.082c.4.672-.179,1.958-.638,2.487-.026.033-.357.334-.572.511.143-.092.278-.181.431-.273.291-.186.585-.363.9-.552l.475-.255c.156-.089.332-.166.5-.255.4-.189.8-.363,1.218-.526a6.029,6.029,0,0,1-.792-1.685,1.953,1.953,0,0,1,.36-1.593.927.927,0,0,1,1.31-.051l.069.072c.511.6.122,1.964-.255,2.553-.023.036-.34.432-.511.643.255-.1.5-.2.753-.289.738-.255,1.494-.511,2.247-.746l.689-.23a5.955,5.955,0,0,1-.835-1.741,1.939,1.939,0,0,1,.357-1.591.93.93,0,0,1,1.313-.051l.069.069c.511.605.122,1.966-.255,2.553-.028.043-.485.61-.608.748.511-.169,1.006-.342,1.494-.531a16.85,16.85,0,0,0,1.925-.886,6.17,6.17,0,0,1-.84-1.752,1.947,1.947,0,0,1,.357-1.593.929.929,0,0,1,1.313-.051.881.881,0,0,1,.066.072c.511.6.123,1.966-.255,2.553-.026.038-.373.472-.541.672l.028.036a11.657,11.657,0,0,0,1.744-1.228c.3-.255.577-.511.84-.766a6.214,6.214,0,0,1-1-1.614,1.919,1.919,0,0,1,.181-1.624.929.929,0,0,1,1.3-.2.629.629,0,0,1,.077.061c.567.546.337,1.941.031,2.569a6.9,6.9,0,0,1-.383.6c.118-.115.255-.232.35-.347.411-.424.766-.843,1.07-1.213.174-.214.327-.409.465-.59a6.347,6.347,0,0,1-.14-1.884,1.931,1.931,0,0,1,.909-1.361.932.932,0,0,1,1.246.424c.013.031.026.059.036.089.255.743-.592,1.877-1.164,2.3-.046.036-.873.511-.876.5v-.015c-.13.181-.278.373-.434.577-.3.38-.643.8-1.055,1.241a16.676,16.676,0,0,1-1.371,1.348,12.13,12.13,0,0,1-1.734,1.277h-.02c.222-.054.853-.181.9-.186.7-.061,2.084.232,2.385.952a.924.924,0,0,1-.526,1.2l-.1.033a1.943,1.943,0,0,1-1.578-.414,6.577,6.577,0,0,1-1.162-1.545,16.685,16.685,0,0,1-1.969.96c-.4.161-.8.319-1.2.465a2.648,2.648,0,0,1,.393-.072c.7-.061,2.084.232,2.385.952a.924.924,0,0,1-.526,1.2l-.1.033a1.938,1.938,0,0,1-1.578-.416,6.109,6.109,0,0,1-1.134-1.5l-.467.166c-.748.255-1.5.511-2.221.792-.255.1-.511.2-.766.306l.342-.066c.7-.061,2.084.232,2.385.955a.927.927,0,0,1-.511,1.2l-.1.033a1.962,1.962,0,0,1-1.581-.416,5.472,5.472,0,0,1-1.106-1.453c-.255.11-.511.23-.743.35-.161.087-.322.158-.48.255l-.518.3c-.291.186-.592.375-.871.562-.194.125-.378.255-.564.383.255-.11.766-.283.8-.3.682-.171,2.091-.087,2.5.58a.927.927,0,0,1-.337,1.277.743.743,0,0,1-.089.046,1.934,1.934,0,0,1-1.624-.171,6.367,6.367,0,0,1-1.376-1.341C626.035,318.558,625.738,318.765,625.463,318.967Z" transform="translate(-474.355 -296.173)" fill="#263238"/>
        <path id="Path_2691" data-name="Path 2691" d="M46.853,359.8a6.551,6.551,0,0,0,1.532-1.228s-.855-.434-.912-.457c-.666-.237-2.094-.3-2.582.329a.935.935,0,0,0,.212,1.307.473.473,0,0,0,.084.054A1.958,1.958,0,0,0,46.853,359.8Z" transform="translate(-44.714 -342.175)" fill="#263238"/>
        <path id="Path_2692" data-name="Path 2692" d="M81.478,326.56s-.475-.832-.511-.883c-.424-.562-1.578-1.4-2.329-1.146a.932.932,0,0,0-.546,1.205.623.623,0,0,0,.041.094,1.946,1.946,0,0,0,1.379.9A6.7,6.7,0,0,0,81.478,326.56Z" transform="translate(-69.524 -317.254)" fill="#263238"/>
        <path id="Path_2693" data-name="Path 2693" d="M62.438,330.671c.34.255.654.511.935.766l.544-.125c-.355-.289-.766-.613-1.226-.958-.255-.2-.559-.411-.855-.626a9.494,9.494,0,0,0,.414-.968,6.146,6.146,0,0,0,1.632-.255c.11.312.214.615.309.9.217.651.393,1.231.534,1.724l.439-.1c-.151-.5-.345-1.093-.585-1.754-.112-.317-.237-.654-.368-1a5.626,5.626,0,0,0,1.353-1.037,1.718,1.718,0,0,0,.36-1.4.822.822,0,0,0-1.021-.575l-.084.028c-.646.276-.891,1.509-.832,2.127,0,.036.084.429.143.677-.056-.14-.107-.278-.166-.419-.112-.283-.235-.564-.365-.868l-.2-.434c-.069-.146-.153-.294-.23-.442-.184-.342-.388-.679-.6-1.021a5.173,5.173,0,0,0,1.453-.8,1.782,1.782,0,0,0,.575-1.338.825.825,0,0,0-.919-.72l-.084.015c-.669.176-1.106,1.353-1.139,1.974,0,.041.023.488.041.733-.128-.2-.255-.4-.4-.6-.4-.572-.815-1.136-1.231-1.706-.128-.171-.255-.345-.38-.511a5.65,5.65,0,0,0,1.507-.822,1.766,1.766,0,0,0,.577-1.338.825.825,0,0,0-.917-.72.476.476,0,0,0-.087.015c-.669.174-1.1,1.353-1.136,1.974,0,.049.033.695.051.855-.278-.383-.552-.766-.8-1.159a14.553,14.553,0,0,1-.929-1.655,5.371,5.371,0,0,0,1.514-.827,1.761,1.761,0,0,0,.577-1.335.827.827,0,0,0-.919-.723l-.084.015c-.669.174-1.106,1.353-1.139,1.976,0,.038.023.526.043.766H58.7a10.823,10.823,0,0,1-.674-1.787c-.089-.335-.153-.664-.212-.983a5.308,5.308,0,0,0,1.558-.646,1.693,1.693,0,0,0,.712-1.261.83.83,0,0,0-.827-.8h-.087c-.684.1-1.249,1.226-1.346,1.836,0,.033-.026.38-.031.631-.023-.143-.051-.294-.069-.432-.077-.511-.115-1-.143-1.432-.015-.255-.023-.462-.028-.666a5.72,5.72,0,0,0,1.078-1.277,1.7,1.7,0,0,0,.049-1.448.825.825,0,0,0-1.116-.34l-.074.043c-.567.406-.546,1.665-.363,2.257,0,.051.368.822.365.815H57.5v.643c.02.426.049.912.112,1.438a14.393,14.393,0,0,0,.291,1.683,10.725,10.725,0,0,0,.585,1.813v.02c-.133-.146-.511-.572-.554-.6-.472-.406-1.629-.914-2.216-.549a.82.82,0,0,0-.255,1.136.5.5,0,0,0,.054.074,1.718,1.718,0,0,0,1.361.511,5.722,5.722,0,0,0,1.639-.511,14.79,14.79,0,0,0,.927,1.713c.2.322.411.638.626.955q-.125-.122-.237-.255c-.472-.409-1.621-.914-2.216-.552a.825.825,0,0,0-.255,1.139l.054.074a1.727,1.727,0,0,0,1.361.511,5.44,5.44,0,0,0,1.593-.493l.255.363c.406.577.812,1.149,1.19,1.724.135.2.255.409.388.62-.1-.115-.2-.212-.212-.225-.472-.406-1.629-.912-2.214-.549a.822.822,0,0,0-.255,1.139l.054.074a1.73,1.73,0,0,0,1.361.511,4.992,4.992,0,0,0,1.552-.472c.123.214.255.426.352.638.071.146.151.283.214.432s.13.3.2.442c.112.283.232.577.337.855.074.194.14.38.209.569-.133-.2-.4-.595-.424-.626a3.2,3.2,0,0,0-1.384-.884.881.881,0,0,0-.13-.128.827.827,0,0,0-1.164.082l-.054.069c-.38.585.089,1.752.48,2.234.026.028.306.309.493.485-.125-.087-.243-.174-.373-.268-.255-.174-.511-.342-.784-.529l-.411-.255c-.135-.089-.289-.161-.437-.243-.342-.181-.7-.352-1.06-.511a5.331,5.331,0,0,0,.766-1.471,1.759,1.759,0,0,0-.255-1.427A.827.827,0,0,0,57.9,324.8l-.064.061c-.467.511-.176,1.741.133,2.273.02.033.289.393.442.59-.22-.1-.437-.194-.661-.281-.646-.255-1.307-.511-1.969-.743l-.6-.2a5.748,5.748,0,0,0,.8-1.532,1.748,1.748,0,0,0-.255-1.425.822.822,0,0,0-1.121-.051.466.466,0,0,0-.064.059c-.465.511-.179,1.741.135,2.273.023.041.409.559.511.684-.444-.166-.881-.337-1.31-.523a14.357,14.357,0,0,1-1.678-.85,5.708,5.708,0,0,0,.807-1.532,1.733,1.733,0,0,0-.255-1.427.827.827,0,0,0-1.164-.094l-.064.061c-.465.511-.176,1.739.135,2.273.02.033.314.429.46.613l-.028.031a10.764,10.764,0,0,1-1.507-1.149c-.255-.23-.5-.467-.72-.7a5.646,5.646,0,0,0,.945-1.4,1.7,1.7,0,0,0-.1-1.445.822.822,0,0,0-1.144-.222.457.457,0,0,0-.069.054c-.511.465-.37,1.711-.117,2.28a6,6,0,0,0,.319.544c-.1-.1-.2-.214-.3-.319-.35-.393-.646-.766-.906-1.116-.148-.194-.276-.373-.4-.541a5.554,5.554,0,0,0,.194-1.667,1.706,1.706,0,0,0-.766-1.241.827.827,0,0,0-1.121.332.748.748,0,0,0-.036.079c-.255.651.462,1.688.95,2.084.043.033.766.483.766.47v-.013c.112.166.235.34.37.526.255.347.541.738.886,1.139a14.211,14.211,0,0,0,1.175,1.244,10.659,10.659,0,0,0,1.491,1.2h.02c-.189-.056-.766-.192-.794-.2-.618-.079-1.856.133-2.153.766a.825.825,0,0,0,.419,1.088.957.957,0,0,0,.092.033A1.754,1.754,0,0,0,51,326.56a5.789,5.789,0,0,0,1.085-1.33,14.371,14.371,0,0,0,1.716.922c.342.158.692.309,1.047.452l-.347-.082c-.615-.079-1.856.133-2.15.766a.822.822,0,0,0,.421,1.088l.089.033a1.748,1.748,0,0,0,1.415-.314,5.313,5.313,0,0,0,1.06-1.289l.409.163c.656.255,1.31.511,1.953.786.225.094.442.2.659.3-.151-.038-.281-.066-.3-.069-.615-.079-1.854.133-2.15.766a.825.825,0,0,0,.421,1.088l.089.033a1.758,1.758,0,0,0,1.417-.314,4.6,4.6,0,0,0,1.021-1.251c.222.11.439.22.649.337.14.082.281.151.411.243l.414.255c.255.174.511.35.766.534.171.12.329.237.488.357-.22-.1-.659-.276-.7-.289-.6-.171-1.854-.151-2.242.429a.822.822,0,0,0,.255,1.136l.077.043a1.736,1.736,0,0,0,1.448-.094,6.073,6.073,0,0,0,1.277-1.146C61.953,330.288,62.2,330.485,62.438,330.671Z" transform="translate(-45.903 -306.678)" fill="#263238"/>
      </g>
    </g>
    <g id="freepik--background-simple--inject-10" transform="translate(61.843 28.73)">
      <path id="Path_2694" data-name="Path 2694" d="M225.2,33.941c-15.083-8.937-35.15-5.786-49.281,4.931-10.109,7.66-19.493,16.6-31.029,21.878-8.871,4.052-18.995,6-25.618,13.7-10.354,12.052-8.975,29.04-1.787,42.31,8.345,15.4,23.491,22.319,40.372,24.513,16.819,2.193,34.535-.327,49.294-8.985,19.661-11.536,30.2-33.585,33.96-55.409C243.925,60.441,240.47,42.983,225.2,33.941Z" transform="translate(-111.794 -28.73)" fill="#13c693"/>
      <path id="Path_2695" data-name="Path 2695" d="M225.2,33.941c-15.083-8.937-35.15-5.786-49.281,4.931-10.109,7.66-19.493,16.6-31.029,21.878-8.871,4.052-18.995,6-25.618,13.7-10.354,12.052-8.975,29.04-1.787,42.31,8.345,15.4,23.491,22.319,40.372,24.513,16.819,2.193,34.535-.327,49.294-8.985,19.661-11.536,30.2-33.585,33.96-55.409C243.925,60.441,240.47,42.983,225.2,33.941Z" transform="translate(-111.794 -28.73)" fill="#fff" opacity="0.7"/>
    </g>
    <g id="freepik--Interface--inject-10" transform="translate(62.237 42.115)">
      <g id="freepik--capa-6--inject-10">
        <path id="Path_2696" data-name="Path 2696" d="M245.814,85.059v83.665a3.912,3.912,0,0,1-3.914,3.912H117.252a3.912,3.912,0,0,1-3.912-3.912V84.893a3.912,3.912,0,0,1,3.708-3.743H242.1a3.912,3.912,0,0,1,3.708,3.743C245.811,84.942,245.814,85,245.814,85.059Z" transform="translate(-113.34 -81.15)" fill="#fff" stroke="#263238" stroke-linecap="round" stroke-linejoin="round" stroke-width="1"/>
        <path id="Path_2697" data-name="Path 2697" d="M245.824,84.893H113.36a3.912,3.912,0,0,1,3.708-3.743H242.116A3.912,3.912,0,0,1,245.824,84.893Z" transform="translate(-113.355 -81.15)" fill="#13c693" stroke="#263238" stroke-miterlimit="10" stroke-width="1"/>
        <path id="Path_2698" data-name="Path 2698" d="M136.326,86.683a.61.61,0,1,1-.179-.434A.613.613,0,0,1,136.326,86.683Z" transform="translate(-129.544 -84.814)" fill="#263238"/>
        <path id="Path_2699" data-name="Path 2699" d="M145.786,86.683a.61.61,0,1,1-.179-.434A.613.613,0,0,1,145.786,86.683Z" transform="translate(-136.588 -84.814)" fill="#263238"/>
        <path id="Path_2700" data-name="Path 2700" d="M155.241,86.683a.613.613,0,1,1-.18-.434A.615.615,0,0,1,155.241,86.683Z" transform="translate(-143.625 -84.814)" fill="#263238"/>
      </g>
      <circle id="Ellipse_40" data-name="Ellipse 40" cx="3.143" cy="3.143" r="3.143" transform="translate(3.542 38.115)" fill="#fff" stroke="#263238" stroke-linecap="round" stroke-linejoin="round" stroke-width="1"/>
      <path id="Path_2701" data-name="Path 2701" d="M137.292,235.46l-1.552,1.856,1.552,1.507" transform="translate(-130.02 -196.058)" fill="#fff" stroke="#263238" stroke-linecap="round" stroke-linejoin="round" stroke-width="1"/>
    </g>
    <g id="freepik--progress-bar--inject-10" transform="translate(75.885 117.109)">
      <path id="Path_2702" data-name="Path 2702" d="M383.354,402.1a1.6,1.6,0,0,0,.3,1.246,1.623,1.623,0,0,0,.871.687v2.681s-2.387.465-2.957.125c-.386-.232-.37-1.445-.319-2.2a.7.7,0,0,1,.646-.656l.766-.064S382.481,401.8,383.354,402.1Z" transform="translate(-326.472 -395.122)" fill="#263238"/>
      <rect id="Rectangle_342" data-name="Rectangle 342" width="0.871" height="2.842" transform="translate(58.412 8.802)" fill="#263238"/>
      <path id="Path_2703" data-name="Path 2703" d="M405.153,411.316v.225a.59.59,0,1,1-1.177,0v-.072l.355-.036v.082c0,.194.084.278.227.278s.225-.084.225-.255v-.255c0-.194-.084-.278-.278-.278h-.146v-.347h.133c.194,0,.278-.084.278-.278v-.189a.194.194,0,0,0-.209-.22c-.133,0-.209.077-.209.255v.054h-.37v-.059a.572.572,0,1,1,1.141,0v.158a.546.546,0,0,0,.026.947Z" transform="translate(-343.412 -400.735)" fill="#263238"/>
      <path id="Path_2704" data-name="Path 2704" d="M409.75,411.719v-1.333a.592.592,0,0,1,1.182,0v1.33a.592.592,0,0,1-1.182,0Zm.812,0v-1.333a.222.222,0,1,0-.444,0v1.33a.222.222,0,0,0,.444,0Z" transform="translate(-347.712 -400.9)" fill="#263238"/>
      <path id="Path_2705" data-name="Path 2705" d="M419.048,411.282l-.14.268v.733h-.368V409.85h.373v.988l.488-.988h.4l-.511,1.021.557,1.4h-.419Z" transform="translate(-354.258 -400.913)" fill="#263238"/>
      <path id="Path_2706" data-name="Path 2706" d="M439.988,412.324a1.834,1.834,0,0,1,1.177-1.933V407.71s-2.39-.467-2.957-.125c-.388.232-.37,1.445-.322,2.2a.7.7,0,0,0,.649.656l.766.064S439.117,412.628,439.988,412.324Z" transform="translate(-368.645 -399.133)" fill="#263238"/>
      <rect id="Rectangle_343" data-name="Rectangle 343" width="0.871" height="2.842" transform="translate(73 8.528)" fill="#263238"/>
      <path id="Path_2707" data-name="Path 2707" d="M463.509,410.373h-.419v-.255a.615.615,0,0,0,.529-.268h.255v2.436h-.368Z" transform="translate(-387.432 -400.913)" fill="#263238"/>
      <path id="Path_2708" data-name="Path 2708" d="M467.756,411.822h.73v.35H467.32v-.322l.539-.858a1.224,1.224,0,0,0,.255-.677c0-.168-.079-.255-.222-.255s-.222.094-.222.255v.143h-.355v-.115a.562.562,0,0,1,.58-.638.546.546,0,0,1,.587.6,1.532,1.532,0,0,1-.327.873Z" transform="translate(-390.574 -400.804)" fill="#263238"/>
      <path id="Path_2709" data-name="Path 2709" d="M472.952,411.7v-.074l.355-.036v.082c0,.194.084.271.22.271s.22-.077.22-.237v-.567c0-.143-.077-.215-.194-.215a.222.222,0,0,0-.23.24v.043h-.37V409.82h1.055v.347h-.7v.605a.4.4,0,0,1,.352-.176.434.434,0,0,1,.439.49v.613a.582.582,0,1,1-1.162,0Z" transform="translate(-394.763 -400.891)" fill="#263238"/>
      <path id="Path_2710" data-name="Path 2710" d="M268.78,410.541v-1.874h.955l1.455-1.417v4.44l-1.205-1.226Z" transform="translate(-242.738 -398.977)" fill="#263238"/>
      <path id="Path_2711" data-name="Path 2711" d="M281.193,412.135a1.412,1.412,0,0,1-.883,1.312V410.81A1.412,1.412,0,0,1,281.193,412.135Z" transform="translate(-251.324 -401.628)" fill="#263238"/>
      <path id="Path_2712" data-name="Path 2712" d="M279.74,407.24a2.257,2.257,0,0,1,.14,4.417" transform="translate(-250.899 -398.969)" fill="none" stroke="#263238" stroke-miterlimit="10" stroke-width="1"/>
      <path id="Path_2713" data-name="Path 2713" d="M205.466,412.719h0a.416.416,0,0,1-.416-.416v-3.087a.416.416,0,0,1,.416-.416h0a.416.416,0,0,1,.416.416V412.3A.416.416,0,0,1,205.466,412.719Z" transform="translate(-195.281 -400.131)" fill="#263238"/>
      <path id="Path_2714" data-name="Path 2714" d="M211.976,412.719h0a.416.416,0,0,1-.416-.416v-3.087a.416.416,0,0,1,.416-.416h0a.416.416,0,0,1,.416.416V412.3A.416.416,0,0,1,211.976,412.719Z" transform="translate(-200.128 -400.131)" fill="#263238"/>
      <path id="Path_2715" data-name="Path 2715" d="M173.009,409h0a.421.421,0,0,1,.419.419v3.113a.419.419,0,0,1-.419.419h0a.416.416,0,0,1-.419-.419v-3.125A.419.419,0,0,1,173.009,409Z" transform="translate(-171.109 -400.28)" fill="#263238"/>
      <path id="Path_2716" data-name="Path 2716" d="M179.112,409.723v3.253a.171.171,0,0,1-.276.135l-2.155-1.706a.171.171,0,0,1,0-.273l2.155-1.558a.171.171,0,0,1,.276.148Z" transform="translate(-174.105 -400.681)" fill="#263238"/>
      <path id="Path_2717" data-name="Path 2717" d="M244.254,412.26h0a.421.421,0,0,1-.414-.424l.038-3.113a.416.416,0,0,1,.424-.414h0a.416.416,0,0,1,.414.424l-.036,3.113A.424.424,0,0,1,244.254,412.26Z" transform="translate(-224.166 -399.766)" fill="#263238"/>
      <path id="Path_2718" data-name="Path 2718" d="M233.31,412.313l.038-3.263a.171.171,0,0,1,.278-.13l2.135,1.731a.171.171,0,0,1,0,.271l-2.173,1.532a.171.171,0,0,1-.278-.14Z" transform="translate(-216.324 -400.192)" fill="#263238"/>
      <rect id="Rectangle_344" data-name="Rectangle 344" width="77.351" height="5.303" rx="2.652" transform="translate(0 0)" fill="#fff" stroke="#263238" stroke-linecap="round" stroke-linejoin="round" stroke-width="1"/>
      <path id="Path_2719" data-name="Path 2719" d="M249.785,383.465a.59.59,0,0,1-.595.595H178.335a.595.595,0,1,1,0-1.19H249.19a.6.6,0,0,1,.595.595Z" transform="translate(-174.944 -380.822)" fill="#263238"/>
      <path id="Path_2720" data-name="Path 2720" d="M196.25,382.87l-.041,1.19H178.335a.595.595,0,1,1,0-1.19Z" transform="translate(-174.944 -380.822)" fill="#13c693"/>
      <path id="Path_2721" data-name="Path 2721" d="M245.823,380a1.621,1.621,0,1,1-1.621-1.621A1.621,1.621,0,0,1,245.823,380Z" transform="translate(-223.228 -377.479)" fill="#263238"/>
      <path id="Path_2722" data-name="Path 2722" d="M247.648,382.736a.659.659,0,1,1-.659-.656A.659.659,0,0,1,247.648,382.736Z" transform="translate(-226.02 -380.234)" fill="#fff"/>
    </g>
    <g id="freepik--Window--inject-10" transform="translate(75.885 48.978)">
      <path id="Path_2723" data-name="Path 2723" d="M247.02,135.416V185.5a3.769,3.769,0,0,1-3.766,3.766h-72.7a3.766,3.766,0,0,1-3.766-3.766V135.416a3.369,3.369,0,0,1,.046-.585,3.769,3.769,0,0,1,3.72-3.182h72.686a3.774,3.774,0,0,1,3.72,3.182A3.64,3.64,0,0,1,247.02,135.416Z" transform="translate(-166.79 -125.619)" fill="#fff" stroke="#263238" stroke-linecap="round" stroke-linejoin="round" stroke-width="1"/>
      <rect id="Rectangle_345" data-name="Rectangle 345" width="25.812" height="2.735" transform="translate(1.371)" fill="#263238"/>
    </g>
    <g id="freepik--Character--inject-10" transform="translate(78.83 41.415)">
      <path id="Path_2724" data-name="Path 2724" d="M194.739,186.952a29.051,29.051,0,0,0,3.48,8.076c3.008,2.809,4.905,2.965,7.2,2.965a4.841,4.841,0,0,0,3.4-1.152l.4-2.719-1.187-4.2s-4.193-4.78-5.7-6.016a18.469,18.469,0,0,1-5.694-9.723,20.666,20.666,0,0,0-2.454-7s-.531-4.7-1.231-4.642-1.458,2.673-1.277,4.341c0,0-1.836-1.335-2.39-1.851s-2.712-3.008-3.092-2.673.9,3.718,2.778,5.286a4.669,4.669,0,0,1-2.331-1.124c-.9-.912-2.625-2.793-3.411-2.459a.965.965,0,0,0-.613,1.093s-.845.255-.582,1.55a2.509,2.509,0,0,0,.319,2.793,13.913,13.913,0,0,0,5.191,4.221c1.925.9,2.709,1.458,3.409,3.064S194.739,186.952,194.739,186.952Z" transform="translate(-180.885 -140.893)" fill="#fff"/>
      <path id="Path_2725" data-name="Path 2725" d="M209.173,194.176l-.255,1.734-.143.986a4.845,4.845,0,0,1-3.4,1.144c-2.293,0-4.2-.166-7.2-2.97A28.879,28.879,0,0,1,194.7,187s-3.1-8.551-3.794-10.15-1.489-2.155-3.414-3.064a13.943,13.943,0,0,1-5.189-4.223,2.726,2.726,0,0,1-.477-2.456,1.687,1.687,0,0,1,.156-.337c-.255-1.307.585-1.55.585-1.55a.965.965,0,0,1,.613-1.09c.786-.337,2.507,1.532,3.409,2.456a4.557,4.557,0,0,0,2.334,1.126c-1.867-1.583-3.148-4.954-2.77-5.286s2.538,2.158,3.09,2.673,2.393,1.851,2.393,1.851c-.176-1.667.582-4.28,1.277-4.341s1.231,4.642,1.231,4.642a20.674,20.674,0,0,1,2.449,7,18.489,18.489,0,0,0,5.7,9.726c1.5,1.236,5.7,6.016,5.7,6.016Z" transform="translate(-180.843 -140.947)" fill="#263238" opacity="0.2"/>
      <path id="Path_2726" data-name="Path 2726" d="M259.16,206.214a56.757,56.757,0,0,0,3.608-5.618c.516-1.277,2.86-5.173,5.39-5.467a17.363,17.363,0,0,0,4.734-1.32l13.454.781s2.839,1.062,5.418,2.043c2.431.924,5.137,2.472,5.222,4.892.074,2.117,4.111,9.831,6.938,12.256l-11.1,3.376s-.386,3.222-2.1,4.509c0,0,3.756,8.779,2.209,14l-30.544-.11s-1.2-11.976,4.1-16.176a18.307,18.307,0,0,1-1.473-5.75C265.018,213.635,264.08,211.1,259.16,206.214Z" transform="translate(-238.519 -164.343)" fill="#13c693"/>
      <path id="Path_2727" data-name="Path 2727" d="M208.92,209.648l-1.175,1.246s-.485.766-2.533.827c-2.3.074-4.029-.1-7.035-2.9a28.88,28.88,0,0,1-3.48-8.074s-3.1-8.562-3.794-10.16-1.489-2.155-3.414-3.064A13.943,13.943,0,0,1,182.3,183.3a2.726,2.726,0,0,1-.477-2.456,30.819,30.819,0,0,1,2.809,1.994c1.583.955,2.684,1.7,4.3,2.574,3.2,1.749,4.88,5.472,6.1,9.019s2.3,7.354,4.928,9.938a12.356,12.356,0,0,0,5.413,3c1.205.327,2.574.6,3.271,1.672a2.37,2.37,0,0,1,.283.613Z" transform="translate(-180.843 -154.685)" fill="#263238" opacity="0.1"/>
      <path id="Path_2728" data-name="Path 2728" d="M290.743,221.184c.222.077,4.139,8.914,2.209,14l-17.07-.11-13.737-.169s-.817-11.84,4.479-16.038A16.752,16.752,0,0,1,265,213.11s-.894-2.3-5.817-7.19c0,0,3.046-4.6,3.559-5.86s2.725-5.033,5.257-5.326a12.977,12.977,0,0,0,4.645-1.573l13.454.781a17.563,17.563,0,0,0,2.753,1.292c.832.3,1.734.48,2.622.817,3.381,1.277,4.984,2.724,5.265,4.826s4.111,9.831,6.935,12.256l-11.2,3.856S292.007,220.155,290.743,221.184Z" transform="translate(-238.534 -163.859)" fill="#13c693"/>
      <path id="Path_2729" data-name="Path 2729" d="M330.606,227.327s4.037,7.617,2.209,14l-17.07-.11a9.381,9.381,0,0,1-.255-3.439,4.362,4.362,0,0,1-.061-2.2,6.039,6.039,0,0,0-1.065-3.215,12.122,12.122,0,0,1-1.532-3.064,3.045,3.045,0,0,1,.822-3.143c.991-.766,2.367-.439,3.575-.158a14.572,14.572,0,0,0,6.023.368,7.354,7.354,0,0,0,5-3.251,3.649,3.649,0,0,0,.511-1.3,5.316,5.316,0,0,0-.1-1.726,19.382,19.382,0,0,1-.48-5.12c.11-1.126.442-2.216.587-3.34a10.119,10.119,0,0,0-1.591-6.869c.715-.942.9-2.372,1.532-3.353.832.3,1.775.618,2.7.853,2.673.682,5.173,2.684,5.454,4.783s3.174,8.9,6.746,12.348l-10.921,3.3S332.422,226.053,330.606,227.327Z" transform="translate(-278.397 -170.003)" opacity="0.1"/>
      <path id="Path_2730" data-name="Path 2730" d="M391.1,227.589s.792-.97,1.532-.766c0,0,1.77,2.377,2.515,3.25a5.587,5.587,0,0,1,.983,3.759,1.9,1.9,0,0,1-.843,1.369,8.837,8.837,0,0,1-4.655,1.66c-2.469-.1-6.611-2.043-8.053-5.092a23.77,23.77,0,0,1-1.77-7.03s-1.907-2.086-1.629-4.121A28.5,28.5,0,0,1,381.025,215c.3-.8.666-1.91,1.18-1.764s1.19,1.943.166,4.951a1.94,1.94,0,0,0,1.509-1.072c.651-1.072,2.663-5.8,3.925-4.341,0,0,1.159-.8,1.647-.015,0,0,.873-.58.9.179a34.154,34.154,0,0,1-.329,3.794s.924-.695.924.858a8.293,8.293,0,0,1-2.536,6.057A11.806,11.806,0,0,0,391.1,227.589Z" transform="translate(-327.871 -178.195)" fill="#fff"/>
      <path id="Path_2731" data-name="Path 2731" d="M396.133,233.822a1.9,1.9,0,0,1-.853,1.379,9.368,9.368,0,0,1-4.313,1.65h-.332c-2.467-.094-6.611-2.043-8.053-5.089a23.76,23.76,0,0,1-1.77-7.032s-1.907-2.086-1.632-4.124a27.9,27.9,0,0,1,1.849-5.6c.3-.8.666-1.91,1.18-1.762s1.192,1.941.166,4.949a1.943,1.943,0,0,0,1.509-1.072c.654-1.072,2.666-5.8,3.925-4.341,0,0,1.159-.8,1.647-.015,0,0,.871-.58.9.179a32.316,32.316,0,0,1-.317,3.69h0v.1s.924-.695.924.858a8.268,8.268,0,0,1-2.538,6.054,11.866,11.866,0,0,0,2.689,3.94,1.87,1.87,0,0,1,1.325-.8s1.979,2.4,2.724,3.273A5.7,5.7,0,0,1,396.133,233.822Z" transform="translate(-327.873 -178.195)" fill="#263238" opacity="0.2"/>
      <path id="Path_2732" data-name="Path 2732" d="M303.165,110.138,306.038,107l-.138-3.988-2.53-1.854L290.513,96.47l-5.4,9.118s1.846,11.184,3.419,12.256,1.438,4.274,1.438,4.274,2.063,7.969,9.243,8.539c6.639.439,8.914-7.4,8.914-7.4s-3.942-1.4-4.762-3.605S303.165,110.138,303.165,110.138Z" transform="translate(-257.843 -91.858)" fill="#fff"/>
      <path id="Path_2733" data-name="Path 2733" d="M308.2,122.975s-.455,1.021-1.09,2.318h0c-1.1,2.262-3.419,5.306-7.836,5.084-7.185-.569-9.287-8.648-9.287-8.648s.14-3.207-1.432-4.274S285.13,105.2,285.13,105.2l5.4-9.118,5.383,1.966,7.474,2.737,2.533,1.849.135,3.994-2.875,3.133s.881,7.063.549,9.4C303.425,121.31,308.2,122.975,308.2,122.975Z" transform="translate(-257.857 -91.568)" fill="#263238" opacity="0.2"/>
      <g id="Group_77" data-name="Group 77" transform="translate(27.273 4.512)" clip-path="url(#clip-path)">
        <path id="Path_2734" data-name="Path 2734" d="M323.226,128.116s-.411,1-1.047,2.3h0l-.255.488c-4.412-3.189-6.478-8.112-6.662-13.719-.02-.569.47-7.632.7-7.627-6.639-.1-10.592-6.6-10.592-6.6l5.618.209,7.474,2.737,2.533,1.849.135,3.994-2.875,3.133a79.994,79.994,0,0,0,.549,9.4C319.248,126.393,323.226,128.116,323.226,128.116Z" transform="translate(-300.202 -101.203)" fill="#263238" opacity="0.1"/>
      </g>
      <path id="Path_2736" data-name="Path 2736" d="M348.23,124.757s.935-2.52,2.855-2.043,1.021,5.633-.677,6.128-1.815-1.021-1.815-1.021" transform="translate(-304.845 -111.356)" fill="none" stroke="#263238" stroke-linecap="round" stroke-linejoin="round" stroke-width="0.98"/>
      <path id="Path_2737" data-name="Path 2737" d="M310.009,132.276v-.156c.031.582.161,1.154.166,1.736a2.155,2.155,0,0,1-.549,1.593c-.271.255-.674.447-.73.827a1.021,1.021,0,0,0,.153.592,2.48,2.48,0,0,0,.577.781,1.085,1.085,0,0,0,.886.255" transform="translate(-275.554 -118.405)" fill="none" stroke="#263238" stroke-linecap="round" stroke-linejoin="round" stroke-width="0.98"/>
      <path id="Path_2738" data-name="Path 2738" d="M312.77,153.143s4.014-.873,4.931-3.723c0,0,.646,3.028-1.172,4.292A2.869,2.869,0,0,1,312.77,153.143Z" transform="translate(-278.44 -131.288)" fill="#fff" stroke="#263238" stroke-linecap="round" stroke-linejoin="round" stroke-width="0.98"/>
      <path id="Path_2739" data-name="Path 2739" d="M290,120.57a60.9,60.9,0,0,0,1.918,10.783c.766,2.416,2.413,4.793,5.155,4.634,3.319-.194,5.85-.766,8.023-3.447" transform="translate(-261.484 -109.804)" fill="none" stroke="#263238" stroke-linecap="round" stroke-linejoin="round" stroke-width="0.98"/>
      <path id="Path_2740" data-name="Path 2740" d="M319.89,123.108a2.065,2.065,0,0,1,2.735-.064" transform="translate(-283.742 -111.283)" fill="none" stroke="#263238" stroke-linecap="round" stroke-linejoin="round" stroke-width="0.98"/>
      <path id="Path_2741" data-name="Path 2741" d="M299.293,125.9a1.988,1.988,0,0,0-2.553.914" transform="translate(-266.503 -113.648)" fill="none" stroke="#263238" stroke-linecap="round" stroke-linejoin="round" stroke-width="0.98"/>
      <path id="Path_2742" data-name="Path 2742" d="M274.845,180.67s.133,3.8-1.021,4.4-5.737-.8-8.189,1.614-5.2,8.832-6.555,9.772" transform="translate(-238.459 -154.558)" fill="none" stroke="#263238" stroke-linecap="round" stroke-linejoin="round" stroke-width="0.98"/>
      <path id="Path_2743" data-name="Path 2743" d="M324.3,132.348c0,.544-.194.986-.437.986s-.439-.442-.439-.986.2-.988.439-.988S324.3,131.8,324.3,132.348Z" transform="translate(-286.37 -117.839)" fill="#263238"/>
      <path id="Path_2744" data-name="Path 2744" d="M302.306,134.466c0,.544-.194.986-.437.986s-.439-.442-.439-.986.2-.986.439-.986S302.306,133.919,302.306,134.466Z" transform="translate(-269.995 -119.418)" fill="#263238"/>
      <path id="Path_2745" data-name="Path 2745" d="M271.276,90.693s1.757-.46,3.679-6.006c0,0,5.446,7.045,11.3,6.149,0,0,1.624-1.974,3.046-.511,1.192,1.226,0,5.107-.993,5.462s-1.33.02-1.33.02-2.809,5.342-.02,9.856,8.664,2.084,10.553-1.389a6.262,6.262,0,0,0,.056-6.248,2.614,2.614,0,0,1,1.387,2.372s1.113-1.969-.554-4.744-3.473-5.559-5.155-8.373c-1.629-2.719-2.842-6.33-5.858-7.785-3.529-1.7-7.936-1.233-11.462.2-2.913,1.19-4.4,4.029-5.569,6.922-.827,2.043-1.3,4.246-2.17,6.281-.766,1.787-2.127,3.179-2.9,4.969a9.829,9.829,0,0,0,4.285,12.665s.393-.991,2.227-1.164a23.33,23.33,0,0,1,3.942-.289c1.721.059,2.278-.115,2.666-1.157a15.675,15.675,0,0,0,.511-3.307,4.808,4.808,0,0,1-3.858-.914,9.126,9.126,0,0,1-2.553-5.293C272.118,96.05,271.276,90.693,271.276,90.693Z" transform="translate(-242.451 -78.408)" fill="#263238"/>
      <path id="Path_2746" data-name="Path 2746" d="M321.065,171.849s-.329,2.183,2.043,1.55,4.954-4.708,4.954-4.708A12.373,12.373,0,0,1,321.065,171.849Z" transform="translate(-284.605 -145.637)" fill="#263238"/>
      <path id="Path_2747" data-name="Path 2747" d="M270.615,309.919s-1.644-10.658,4.328-16.2" transform="translate(-246.895 -238.742)" fill="none" stroke="#263238" stroke-linecap="round" stroke-linejoin="round" stroke-width="0.98"/>
      <path id="Path_2748" data-name="Path 2748" d="M283.988,260.672c-2.1-3.258-2.885-8.865.163-11.8" transform="translate(-255.625 -205.344)" fill="none" stroke="#263238" stroke-linecap="round" stroke-linejoin="round" stroke-width="0.98"/>
      <path id="Path_2749" data-name="Path 2749" d="M349.52,172.59s.511,5.618,7.234,7.535c5.39,1.532,6.618,3.273,6.961,3.955" transform="translate(-305.806 -148.541)" fill="none" stroke="#263238" stroke-linecap="round" stroke-linejoin="round" stroke-width="0.98"/>
      <path id="Path_2750" data-name="Path 2750" d="M304.64,198s2.73,8.278,10,8.388c5.311.082,8.051-7.433,8.051-7.433" transform="translate(-272.386 -167.463)" fill="none" stroke="#263238" stroke-linecap="round" stroke-linejoin="round" stroke-width="0.98"/>
      <path id="Path_2751" data-name="Path 2751" d="M307.74,298c3.8,1.629,8.01,1.759,12.116,1.864" transform="translate(-274.694 -241.929)" fill="none" stroke="#263238" stroke-linecap="round" stroke-linejoin="round" stroke-width="0.98"/>
      <path id="Path_2752" data-name="Path 2752" d="M207.161,211.375a3.6,3.6,0,0,1-1.3.447,8.4,8.4,0,0,1-8.559-3.416,18.355,18.355,0,0,1-2.316-5.28c-1.341-4.157-2.742-8.265-4.341-12.32a5.043,5.043,0,0,0-.95-1.45,12.952,12.952,0,0,0-3.845-2.283c-1.849-.531-5.168-4.6-4.6-5.717s3.575,2.725,4.852,3.064" transform="translate(-180.453 -154.916)" fill="none" stroke="#263238" stroke-linecap="round" stroke-linejoin="round" stroke-width="0.98"/>
      <path id="Path_2753" data-name="Path 2753" d="M285.97,220.691a16.359,16.359,0,0,1,.845-6.491" transform="translate(-258.452 -179.527)" fill="none" stroke="#263238" stroke-linecap="round" stroke-linejoin="round" stroke-width="0.98"/>
      <g id="Group_78" data-name="Group 78" transform="translate(26.24 2.089)" opacity="0.42">
        <path id="Path_2754" data-name="Path 2754" d="M318.43,92.92s3.01,5.224,8.278,5.748" transform="translate(-308.895 -91.304)" fill="none" stroke="#fff" stroke-linecap="round" stroke-linejoin="round" stroke-width="0.98"/>
        <path id="Path_2755" data-name="Path 2755" d="M361.911,148.19a16.549,16.549,0,0,0,1.432,10.214" transform="translate(-341.08 -132.461)" fill="none" stroke="#fff" stroke-linecap="round" stroke-linejoin="round" stroke-width="0.98"/>
        <path id="Path_2756" data-name="Path 2756" d="M357.77,107.17a14.594,14.594,0,0,1,4.188,5.406,19.684,19.684,0,0,1,.766,6.442c.061,2.176.266,4.451,1.455,6.238" transform="translate(-338.19 -101.915)" fill="none" stroke="#fff" stroke-linecap="round" stroke-linejoin="round" stroke-width="0.98"/>
        <path id="Path_2757" data-name="Path 2757" d="M336.27,86.59q1.787,1.864,3.692,3.623" transform="translate(-322.18 -86.59)" fill="none" stroke="#fff" stroke-linecap="round" stroke-linejoin="round" stroke-width="0.98"/>
        <path id="Path_2758" data-name="Path 2758" d="M282.789,142.57a13.788,13.788,0,0,0-1.167,10.436" transform="translate(-281.087 -128.276)" fill="none" stroke="#fff" stroke-linecap="round" stroke-linejoin="round" stroke-width="0.98"/>
      </g>
      <path id="Path_2759" data-name="Path 2759" d="M185.417,169.5S193,158.05,192.2,157.356s-8.339,11.378-8.339,11.378a7.023,7.023,0,0,0-2.878,1.236c-.866.848-2.893,6.128-2.635,6.3s2.832-4.208,3.064-4.152-1.43,5.257-1.2,5.316,2.947-4.535,3.319-4.392-1.749,5.168-1.4,5.255,3.539-4.5,3.593-5.5A23.735,23.735,0,0,0,185.417,169.5Z" transform="translate(-178.322 -137.176)" fill="#fff" stroke="#263238" stroke-linecap="round" stroke-linejoin="round" stroke-width="0.98"/>
      <path id="Path_2760" data-name="Path 2760" d="M359.05,227a6.475,6.475,0,0,0,1.381-1.427" transform="translate(-312.903 -187.993)" fill="none" stroke="#263238" stroke-linecap="round" stroke-linejoin="round" stroke-width="0.98"/>
      <path id="Path_2761" data-name="Path 2761" d="M334.63,234.09a7.422,7.422,0,0,0,4.913,0" transform="translate(-294.718 -194.338)" fill="none" stroke="#263238" stroke-linecap="round" stroke-linejoin="round" stroke-width="0.98"/>
      <path id="Path_2762" data-name="Path 2762" d="M386.331,221.98a5.929,5.929,0,0,0-3.83-1s1.552-4.979.357-5.362c-.812-.255-1.228,1.185-1.427,1.736-.388,1.078-.86,2.086-1.277,3.151-.766,1.948-.628,4.716.973,6.192" transform="translate(-328.283 -180.564)" fill="none" stroke="#263238" stroke-linecap="round" stroke-linejoin="round" stroke-width="0.98"/>
      <path id="Path_2763" data-name="Path 2763" d="M414,236.309a7.914,7.914,0,0,0,2.211-2.656,7.53,7.53,0,0,0,.462-1.887c.094-.633.174-1.277.243-1.9a.809.809,0,0,0-.125-.659.483.483,0,0,0-.541-.064,1.243,1.243,0,0,0-.429.4,5.207,5.207,0,0,0-.766,1.461,8.01,8.01,0,0,1-.59,1.632c-.026.043-.054.084-.082.125" transform="translate(-353.822 -190.61)" fill="none" stroke="#263238" stroke-linecap="round" stroke-linejoin="round" stroke-width="0.98"/>
      <path id="Path_2764" data-name="Path 2764" d="M411.8,217.757a14.617,14.617,0,0,0,.654-4.719,1.062,1.062,0,0,0-.952.355,3.167,3.167,0,0,0-.562.922c-.71,1.57-1.295,3.217-2.119,4.716" transform="translate(-349.964 -178.654)" fill="none" stroke="#263238" stroke-linecap="round" stroke-linejoin="round" stroke-width="0.98"/>
      <path id="Path_2765" data-name="Path 2765" d="M408.166,212.277a.736.736,0,0,0-1-.329,1.974,1.974,0,0,0-.794.868c-.873,1.517-1.4,3.228-2.206,4.777" transform="translate(-346.502 -177.795)" fill="none" stroke="#263238" stroke-linecap="round" stroke-linejoin="round" stroke-width="0.98"/>
      <path id="Path_2766" data-name="Path 2766" d="M396.673,213.04c.072-.36-.342-.664-.692-.6a1.427,1.427,0,0,0-.832.646c-.712.973-1.162,2.122-1.787,3.153s-1.182,1.872-2.331,2.112" transform="translate(-336.717 -178.208)" fill="none" stroke="#263238" stroke-linecap="round" stroke-linejoin="round" stroke-width="0.98"/>
      <path id="Path_2767" data-name="Path 2767" d="M385.26,253.558s.689,4.085,1.307,6.315c.6,2.163,5.505,9.279,13.186,4.982a1.91,1.91,0,0,0,.937-1.315,4.77,4.77,0,0,0-.832-3.667c-1.652-2.37-5.094-5.74-5.852-7.893" transform="translate(-332.42 -207.66)" fill="none" stroke="#263238" stroke-linecap="round" stroke-linejoin="round" stroke-width="0.98"/>
      <path id="Path_2768" data-name="Path 2768" d="M415.09,256.83a8.225,8.225,0,0,0,1.494,2.523c.779.894,1.736,1.6,2.569,2.438a5.278,5.278,0,0,1,1.672,3.09" transform="translate(-354.633 -211.272)" fill="none" stroke="#263238" stroke-linecap="round" stroke-linejoin="round" stroke-width="0.98"/>
      <path id="Path_2769" data-name="Path 2769" d="M381.1,284.94s-.184,4.142-3.319,5.393" transform="translate(-326.85 -232.204)" fill="none" stroke="#263238" stroke-linecap="round" stroke-linejoin="round" stroke-width="0.98"/>
      <path id="Path_2770" data-name="Path 2770" d="M382.79,302.91s4.057,6.973,2.209,14" transform="translate(-330.581 -245.585)" fill="none" stroke="#263238" stroke-linecap="round" stroke-linejoin="round" stroke-width="0.98"/>
      <path id="Path_2771" data-name="Path 2771" d="M182.665,175.391s-.452-1.238.255-1.706,4.274,3.391,5.232,3.319" transform="translate(-181.45 -149.328)" fill="none" stroke="#263238" stroke-linecap="round" stroke-linejoin="round" stroke-width="0.98"/>
      <path id="Path_2772" data-name="Path 2772" d="M185.083,170.54a.83.83,0,0,1,.421-1.021,1.246,1.246,0,0,1,1.144.112,4.214,4.214,0,0,1,.906.8c1.208,1.277,2.426,2.387,4.142,2.571" transform="translate(-183.322 -146.188)" fill="none" stroke="#263238" stroke-linecap="round" stroke-linejoin="round" stroke-width="0.98"/>
      <path id="Path_2773" data-name="Path 2773" d="M201.555,167.655s-3.268-3.164-3.039-4.895,2.4,2.553,4.522,3.4" transform="translate(-193.351 -140.918)" fill="none" stroke="#263238" stroke-linecap="round" stroke-linejoin="round" stroke-width="0.98"/>
      <path id="Path_2774" data-name="Path 2774" d="M217.6,168.708c-.117-.378-.278-.8-.365-1.2-.138-.654-.207-1.323-.291-1.987-.059-.462-.161-2.37-1.021-1.833-1.358.85-.95,5.661-.95,5.661A5.156,5.156,0,0,0,213,172.666" transform="translate(-204.145 -141.84)" fill="#fff"/>
      <path id="Path_2775" data-name="Path 2775" d="M217.6,168.659a6.675,6.675,0,0,1-.365-1.241c-.138-.656-.207-1.325-.291-1.989-.059-.462-.161-2.37-1.021-1.833-1.358.85-.95,5.661-.95,5.661A5.156,5.156,0,0,0,213,172.576" transform="translate(-204.145 -141.773)" fill="#263238" opacity="0.2"/>
      <path id="Path_2776" data-name="Path 2776" d="M217.6,168.068a5.462,5.462,0,0,1-.388-1.1c-.14-.654-.207-1.323-.294-1.987-.059-.462-.158-2.37-1.021-1.833-1.358.85-.952,5.661-.952,5.661a5.156,5.156,0,0,0-1.969,3.319" transform="translate(-204.13 -141.438)" fill="none" stroke="#263238" stroke-linecap="round" stroke-linejoin="round" stroke-width="0.98"/>
      <path id="Path_2777" data-name="Path 2777" d="M243.993,205.025c-.651-2.377-7.331-7.183-9.5-12.113a32.491,32.491,0,0,1-1.333-4.328,51.367,51.367,0,0,0-1.787-5.166c-.1-.255-.209-.485-.314-.717" transform="translate(-217.594 -156.07)" fill="none" stroke="#263238" stroke-linecap="round" stroke-linejoin="round" stroke-width="0.98"/>
      <path id="Path_2778" data-name="Path 2778" d="M411.543,247.37a9.368,9.368,0,0,1-4.313,1.65,13.465,13.465,0,0,1-1.453-1.06A12.759,12.759,0,0,1,401,237.868a4.9,4.9,0,0,1,.651-2.421c.707-1.111,1.981-1.621,2.755-2.663.883-1.192.878-2.809,1.89-3.978v.1s.924-.695.924.858a8.268,8.268,0,0,1-2.538,6.054,11.866,11.866,0,0,0,2.689,3.94,2.114,2.114,0,0,1,1.292-.827s2.012,2.426,2.758,3.3a5.583,5.583,0,0,1,.983,3.759A1.905,1.905,0,0,1,411.543,247.37Z" transform="translate(-344.136 -190.364)" fill="#263238" opacity="0.1"/>
      <path id="Path_2779" data-name="Path 2779" d="M269.21,231.481c0-.179,3.5-3.9,4.412-7.811,0,0-.087,3.871-.135,4.509v.184a7.409,7.409,0,0,0,.286,2.467,18.047,18.047,0,0,0-1.31,4.149Z" transform="translate(-246.002 -186.579)" opacity="0.1"/>
      <path id="Path_2780" data-name="Path 2780" d="M284.584,325.018c.465-1.381.86-8.909-.133-10.083s-19.592-1.665-20.152.14c-.682,2.206.442,9.93.442,9.93Z" transform="translate(-242.182 -253.757)" fill="#263238"/>
      <path id="Path_2781" data-name="Path 2781" d="M343.768,329.282a2.13,2.13,0,0,1,2.387-.59c.937.378,1.021,1.7.766,2.576-.391,1.369-1.614,3.279-3.192,3.064" transform="translate(-301.494 -264.675)" fill="none" stroke="#263238" stroke-linecap="round" stroke-linejoin="round" stroke-width="2.939"/>
      <path id="Path_2782" data-name="Path 2782" d="M299.075,300.685a1.841,1.841,0,0,0,.511-1.31,3.32,3.32,0,0,0-.409-1.713,4.761,4.761,0,0,0-.457-.669c-.179-.227-.368-.447-.564-.659-.023-.026-.066-.026-.082-.056s.056-.031.031-.013" transform="translate(-267.494 -240.628)" fill="none" stroke="#263238" stroke-linecap="round" stroke-linejoin="round" stroke-width="0.98"/>
      <path id="Path_2783" data-name="Path 2783" d="M320.15,271.586a5.252,5.252,0,0,0,2.071-4.966" transform="translate(-283.935 -218.562)" fill="none" stroke="#263238" stroke-linecap="round" stroke-linejoin="round" stroke-width="0.98"/>
      <path id="Path_2784" data-name="Path 2784" d="M320.048,246.692a6.415,6.415,0,0,0-2.3-2.982" transform="translate(-282.148 -201.502)" fill="none" stroke="#263238" stroke-linecap="round" stroke-linejoin="round" stroke-width="0.98"/>
      <path id="Path_2785" data-name="Path 2785" d="M284.771,325.117c.462-1.381.861-8.909-.133-10.083s-19.592-1.665-20.152.138c-.684,2.206.442,9.933.442,9.933Z" transform="translate(-242.321 -253.831)" fill="#fff" opacity="0.2"/>
      <path id="Path_2786" data-name="Path 2786" d="M284.584,325.018c.465-1.381.86-8.909-.133-10.083s-19.592-1.665-20.152.14c-.682,2.206.442,9.93.442,9.93Z" transform="translate(-242.182 -253.757)" fill="none" stroke="#263238" stroke-linecap="round" stroke-linejoin="round" stroke-width="0.98"/>
      <path id="Path_2787" data-name="Path 2787" d="M286.855,317.588a74.4,74.4,0,0,1-9.077.278,74.4,74.4,0,0,1-9.077-.278,74.36,74.36,0,0,1,9.077-.278A74.36,74.36,0,0,1,286.855,317.588Z" transform="translate(-245.623 -256.308)" fill="#263238"/>
      <path id="Path_2788" data-name="Path 2788" d="M300.2,255.89a2.661,2.661,0,0,1,1.348,2.165,2.7,2.7,0,0,1-1.1,2.313c-.937.659-2.158.587-3.279.746s-2.39.8-2.51,1.971a2.522,2.522,0,0,0,.544,1.66,16.908,16.908,0,0,0,1.989,2.091,4.812,4.812,0,0,1,1.466,2.464,2.172,2.172,0,0,1-1.157,2.426c.557,0,1.126.054,1.683.054,1.1,0,1.491-1.759,1.387-2.9a4.277,4.277,0,0,0-1.629-2.873,7.284,7.284,0,0,1-1.295-1.093,1.357,1.357,0,0,1-.138-1.6c.444-.557,1.277-.37,1.976-.419a3.211,3.211,0,0,0,2.7-3.082A4.835,4.835,0,0,0,300.2,255.89Z" transform="translate(-264.957 -210.572)" fill="#fff" stroke="#263238" stroke-linecap="round" stroke-linejoin="round" stroke-width="0.98"/>
    </g>
    <g id="freepik--Videos--inject-10" transform="translate(141.853 51.782)">
      <rect id="Rectangle_346" data-name="Rectangle 346" width="15.913" height="1.581" transform="translate(31.938 4.323)" fill="#263238"/>
      <rect id="Rectangle_347" data-name="Rectangle 347" width="15.913" height="1.581" transform="translate(31.938 7.379)" fill="#263238"/>
      <rect id="Rectangle_348" data-name="Rectangle 348" width="15.913" height="1.581" transform="translate(31.938 10.436)" fill="#263238"/>
      <rect id="Rectangle_349" data-name="Rectangle 349" width="27.878" height="17.442" rx="8.721" transform="translate(0 1.343)" opacity="0.1"/>
      <rect id="Rectangle_350" data-name="Rectangle 350" width="27.878" height="17.442" rx="8.721" transform="translate(1.856)" fill="#13c693" stroke="#263238" stroke-miterlimit="10" stroke-width="1"/>
      <circle id="Ellipse_41" data-name="Ellipse 41" cx="5.901" cy="5.901" r="5.901" transform="translate(9.907 2.901)" fill="#fff"/>
      <path id="Path_2789" data-name="Path 2789" d="M480.49,147.826V141.31l5.178,3.258Z" transform="translate(-466.357 -135.616)" fill="#263238"/>
      <rect id="Rectangle_351" data-name="Rectangle 351" width="15.913" height="1.581" transform="translate(31.938 27.416)" fill="#263238"/>
      <rect id="Rectangle_352" data-name="Rectangle 352" width="15.913" height="1.581" transform="translate(31.938 30.47)" fill="#263238"/>
      <rect id="Rectangle_353" data-name="Rectangle 353" width="15.913" height="1.581" transform="translate(31.938 33.526)" fill="#263238"/>
      <rect id="Rectangle_354" data-name="Rectangle 354" width="27.878" height="17.442" rx="8.721" transform="translate(0 23.977)" opacity="0.1"/>
      <rect id="Rectangle_355" data-name="Rectangle 355" width="27.878" height="17.442" rx="8.721" transform="translate(1.856 22.731)" fill="#13c693" stroke="#263238" stroke-miterlimit="10" stroke-width="1"/>
      <circle id="Ellipse_42" data-name="Ellipse 42" cx="5.901" cy="5.901" r="5.901" transform="translate(8.116 28.351) rotate(-22.17)" fill="#fff"/>
      <path id="Path_2790" data-name="Path 2790" d="M480.49,237.076V230.56l5.178,3.258Z" transform="translate(-466.357 -202.077)" fill="#263238"/>
      <rect id="Rectangle_356" data-name="Rectangle 356" width="15.913" height="1.581" transform="translate(31.938 49.975)" fill="#263238"/>
      <rect id="Rectangle_357" data-name="Rectangle 357" width="15.913" height="1.581" transform="translate(31.938 53.032)" fill="#263238"/>
      <rect id="Rectangle_358" data-name="Rectangle 358" width="15.913" height="1.581" transform="translate(31.938 56.088)" fill="#263238"/>
      <rect id="Rectangle_359" data-name="Rectangle 359" width="27.878" height="17.442" rx="8.721" transform="translate(0 46.477)" opacity="0.1"/>
      <rect id="Rectangle_360" data-name="Rectangle 360" width="27.878" height="17.442" rx="8.721" transform="translate(1.856 45.464)" fill="#13c693" stroke="#263238" stroke-miterlimit="10" stroke-width="1"/>
      <circle id="Ellipse_43" data-name="Ellipse 43" cx="5.901" cy="5.901" r="5.901" transform="translate(8.105 51.173) rotate(-22.33)" fill="#fff"/>
      <path id="Path_2791" data-name="Path 2791" d="M480.49,326.329V319.81l5.178,3.258Z" transform="translate(-466.357 -268.537)" fill="#263238"/>
    </g>
  </g>
</svg>
