<svg xmlns="http://www.w3.org/2000/svg" xmlns:xlink="http://www.w3.org/1999/xlink" width="151" height="128.247" viewBox="0 0 151 128.247">
  <defs>
    <clipPath id="clip-path">
      <rect id="Rectangle_339" data-name="Rectangle 339" width="59.03" height="34.173" fill="none"/>
    </clipPath>
    <clipPath id="clip-path-2">
      <path id="Path_2613" data-name="Path 2613" d="M204.984,140.483c0,.466-.717.9-.771,1.359s.624,1.007.548,1.463-.864.774-.971,1.24.452,1.093.308,1.531-.975.627-1.154,1.054.28,1.151.072,1.563-1.075.466-1.3.864.1,1.176-.168,1.552-1.118.3-1.434.66-.072,1.179-.394,1.513-1.151.14-1.495.448-.24,1.158-.606,1.434-1.158-.025-1.545.233-.394,1.111-.8,1.344-1.147-.179-1.563.025-.541,1.047-.971,1.226-1.111-.337-1.552-.186-.674.964-1.126,1.075-1.054-.477-1.513-.387-.8.868-1.255.928-.986-.609-1.452-.581-.9.76-1.366.76-.907-.717-1.366-.76-1,.638-1.452.581-.807-.839-1.258-.928-1.075.505-1.513.387-.688-.936-1.126-1.075-1.126.358-1.552.183-.556-1.018-.971-1.222-1.161.208-1.563-.025-.412-1.075-.8-1.344-1.183.05-1.545-.237-.262-1.133-.606-1.434-1.176-.115-1.495-.448-.1-1.158-.394-1.513-1.147-.283-1.434-.66.072-1.158-.168-1.556-1.075-.448-1.3-.86.244-1.136.068-1.563-1.011-.613-1.154-1.054.419-1.075.312-1.531-.9-.764-.975-1.222.584-1,.548-1.463-.735-.9-.735-1.373.735-.9.771-1.362-.62-1.007-.548-1.463.868-.774.975-1.222-.455-1.075-.312-1.531.979-.627,1.154-1.054-.28-1.147-.068-1.559,1.075-.47,1.3-.864-.1-1.179.168-1.556,1.118-.3,1.434-.66.072-1.179.394-1.513,1.151-.14,1.5-.448.237-1.158.6-1.434,1.161.021,1.545-.237.394-1.111.8-1.344,1.147.183,1.563-.025.541-1.047.971-1.222,1.111.333,1.552.186.674-.968,1.126-1.075,1.057.477,1.513.387.8-.868,1.258-.928.986.613,1.452.581.9-.76,1.366-.76.907.717,1.366.76.993-.638,1.434-.581.807.842,1.258.928,1.075-.505,1.513-.387.688.939,1.126,1.075,1.126-.358,1.552-.186.559,1.022.971,1.222,1.165-.208,1.563.025.416,1.075.8,1.344,1.183-.047,1.545.237.262,1.133.606,1.434,1.176.118,1.495.448.1,1.158.394,1.513,1.147.287,1.434.66-.072,1.161.168,1.556,1.093.452,1.3.864-.247,1.133-.072,1.559,1.011.613,1.154,1.054-.419,1.075-.308,1.531.9.764.971,1.222-.584,1-.548,1.463S204.984,140.013,204.984,140.483Z" transform="translate(-164 -121.38)" fill="#263238" stroke="#263238" stroke-linecap="round" stroke-linejoin="round" stroke-width="1"/>
    </clipPath>
    <clipPath id="clip-path-3">
      <path id="Path_2619" data-name="Path 2619" d="M165.052,239.315a98.5,98.5,0,0,1-9.679,2.151c-4.065.6-6.571.6-7.406,2.631s-7.65,24.971-9.084,27.721-2.269,8.962.24,9.08,10.037-15.651,10.037-15.651l2.269,4.3s-7.048,22.1-6.929,23.061,3.226,2.868,9.08,3.345,6.453.358,10.518,1.434,9.557-.358,12.188-1.792,5.614-1.911,6.811-2.628,1.194-.835,1.194-2.269-5.617-22.107-5.617-22.107l3.348-8.844s7.646,15.773,8,17.207a4.43,4.43,0,0,0,4.778,2.75c2.151-.477,4.3-2.033,3.707-5.617s-10.636-28.556-11.353-30.707.118-4.183-2.868-4.9-17.684.118-17.684.118Z" transform="translate(-137.517 -238.189)" fill="#13c693" stroke="#263238" stroke-linecap="round" stroke-linejoin="round" stroke-width="1"/>
    </clipPath>
    <clipPath id="clip-path-4">
      <path id="Path_2626" data-name="Path 2626" d="M135.843,323.149s-1.434,9.08-2.868,10.274-3.7.839-4.66-3.585,0-5.5,1.552-7.646S135.244,318.367,135.843,323.149Z" transform="translate(-127.932 -320.063)" fill="#13c693" stroke="#263238" stroke-linecap="round" stroke-linejoin="round" stroke-width="1"/>
    </clipPath>
    <clipPath id="clip-path-5">
      <path id="Path_2630" data-name="Path 2630" d="M203.559,213.552a34.173,34.173,0,0,1,1.312,8.245,102.836,102.836,0,0,1-1.312,10.4c-.358,2.269,1.312.717,5.137-4.18s4.9-6.334,5.137-8.008.24-6.212.24-6.212a5.055,5.055,0,0,1-4.9,1.194c-2.986-.835-4.9-2.986-5.377-2.986S203.559,213.552,203.559,213.552Z" transform="translate(-203.497 -212)" fill="#fff" stroke="#263238" stroke-linecap="round" stroke-linejoin="round" stroke-width="1"/>
    </clipPath>
    <clipPath id="clip-path-6">
      <path id="Path_2635" data-name="Path 2635" d="M241.864,192.81s1.337-1.563,2.233-.222-1.792,5.807-2.57,5.807-.445-3.129-.445-3.911A3.23,3.23,0,0,1,241.864,192.81Z" transform="translate(-241.012 -192.045)" fill="#fff" stroke="#263238" stroke-linecap="round" stroke-linejoin="round" stroke-width="1"/>
    </clipPath>
    <clipPath id="clip-path-7">
      <path id="Path_2639" data-name="Path 2639" d="M211.755,160.21c-.14.341-.237.749-.495.9-.4.229-1.147-.183-1.563.022s-.541,1.047-.971,1.226-1.111-.333-1.552-.186-.674.964-1.126,1.075-1.058-.48-1.513-.391-.8.871-1.258.928-.986-.609-1.452-.581c-.4.025-.789.588-1.19.717a17.894,17.894,0,0,0-.875,5.879s-.111,7.367.67,9.378,4.915,5.7,6.363,5.918a2.807,2.807,0,0,0,2.793-.893c.67-.67,5.019-4.244,5.47-5.7s2.122-10.83,1.563-13.955C216.279,162.644,214.207,161.07,211.755,160.21Z" transform="translate(-199.755 -160.21)" fill="#fff" stroke="#263238" stroke-linecap="round" stroke-linejoin="round" stroke-width="1"/>
    </clipPath>
    <clipPath id="clip-path-8">
      <path id="Path_2651" data-name="Path 2651" d="M254.9,338.713a20.951,20.951,0,0,1-1.911-7.051c-.118-3.345,1.316-5.137,2.868-3.466S256.214,337.038,254.9,338.713Z" transform="translate(-252.981 -327.561)" fill="#13c693" stroke="#263238" stroke-linecap="round" stroke-linejoin="round" stroke-width="1"/>
    </clipPath>
    <clipPath id="clip-path-9">
      <path id="Path_2655" data-name="Path 2655" d="M224.676,306.167s-8.008,0-12.428-1.671a34.042,34.042,0,0,1-10.4-5.976c-2.033-1.911-2.749-2.391-5.137-2.628s-4.183-1.556-4.183-.717a2.2,2.2,0,0,0,1.434,1.792c.717.358,3.345,1.552,3.345,1.552s.24.6-2.269,1.075a34.661,34.661,0,0,0-7.288,2.269c-2.151.957-2.868,1.674-2.151,1.914s2.986-.6,3.463-.6,3.108-.358,3.108-.358a57.943,57.943,0,0,0-5.617,2.749c-.717.6-2.746,1.434-1.911,1.792s4.3-.24,4.3-.24-3.585,1.075-2.151,1.552,4.42-.237,4.42-.237,3.466.477,4.424,0,6.571-2.868,6.571-2.868,8.6,7.406,16.013,9.2,7.288,0,7.288,0" transform="translate(-184.447 -294.9)" fill="#fff" stroke="#263238" stroke-linecap="round" stroke-linejoin="round" stroke-width="1"/>
    </clipPath>
    <clipPath id="clip-path-10">
      <path id="Path_2659" data-name="Path 2659" d="M276.017,330.033c-.48,2.986-1.792,5.019-7.291,4.9s-10.4,0-10.4,0a33.65,33.65,0,0,0,.957-5.259c.358-3.226.358-8,.358-8s7.528,1.671,13.622,1.075" transform="translate(-258.33 -321.67)" fill="#13c693" stroke="#263238" stroke-linecap="round" stroke-linejoin="round" stroke-width="1"/>
    </clipPath>
    <clipPath id="clip-path-11">
      <path id="Path_2663" data-name="Path 2663" d="M136.174,280.455s-.645,1.993-4.542,9.32c-3.284,6.18-4.3,8.844-4.3,11.113s2.033,4.9,5.019,2.986,3.943-4.2,4.431-7.549,3.058-14.36,3.058-14.36A2.521,2.521,0,0,0,136.174,280.455Z" transform="translate(-127.33 -280.151)" fill="#fff" stroke="#263238" stroke-linecap="round" stroke-linejoin="round" stroke-width="1"/>
    </clipPath>
    <clipPath id="clip-path-12">
      <path id="Path_2671" data-name="Path 2671" d="M158.746,276.575h0a5.08,5.08,0,0,1-5.076-5.08V263.67h10.156V271.5A5.08,5.08,0,0,1,158.746,276.575Z" transform="translate(-153.67 -263.67)" fill="#fff" stroke="#263238" stroke-linecap="round" stroke-linejoin="round" stroke-width="1"/>
    </clipPath>
    <clipPath id="clip-path-13">
      <path id="Path_2685" data-name="Path 2685" d="M359.734,296.256H324.94V235.24h8.245l.925.767a1.817,1.817,0,0,0,1.154.416h14.554a1.792,1.792,0,0,0,1.19-.448l.839-.717h7.886Z" transform="translate(-324.94 -235.24)" fill="#263238" stroke="#263238" stroke-linecap="round" stroke-linejoin="round" stroke-width="1"/>
    </clipPath>
  </defs>
  <g id="Voice_control-bro_1_" data-name="Voice control-bro (1)" transform="translate(-46.83 -66.987)">
    <g id="freepik--background-simple--inject-3" transform="translate(54.135 66.987)">
      <path id="Path_2596" data-name="Path 2596" d="M199.417,155a63,63,0,0,0,.276-13.78c-3.366-40.153-36.987-82.646-74.828-72.8-13.074,3.4-22.763,12.7-28.531,26.05-4.234,9.8-7.238,21.268-14.12,29.1-11.3,12.869-24.928,33-7.79,50.6s38.167,6.166,56.083,5.259c15.056-.764,30.277,4.847,45.29,2.828C190.061,180.327,197.474,169.157,199.417,155Z" transform="translate(-66.313 -66.987)" fill="#13c693"/>
      <path id="Path_2597" data-name="Path 2597" d="M199.417,155a63,63,0,0,0,.276-13.78c-3.366-40.153-36.987-82.646-74.828-72.8-13.074,3.4-22.763,12.7-28.531,26.05-4.234,9.8-7.238,21.268-14.12,29.1-11.3,12.869-24.928,33-7.79,50.6s38.167,6.166,56.083,5.259c15.056-.764,30.277,4.847,45.29,2.828C190.061,180.327,197.474,169.157,199.417,155Z" transform="translate(-66.313 -66.987)" fill="#fff" opacity="0.7"/>
    </g>
    <g id="freepik--Window--inject-3" transform="translate(134.106 87.22)">
      <path id="Path_2598" data-name="Path 2598" d="M289.4,123.43V203.1h49.685V123.43Zm25.928,1.932h21.964v17.594H315.328Zm0,19.526h21.964V162.3H315.328Zm0,19.358h21.964V182.03H315.328Zm-1.814,36.923h-22.3V183.962h22.3Zm0-19.153h-22.3V164.228h22.3Zm0-19.716h-22.3V144.888h22.3Zm0-19.358h-22.3v-17.58h22.3Zm1.814,58.209V183.944h21.964v17.207Z" transform="translate(-289.4 -123.43)" fill="#b2b2b2"/>
    </g>
    <g id="freepik--Pictures--inject-3" transform="translate(59.421 100.211)">
      <rect id="Rectangle_335" data-name="Rectangle 335" width="21.559" height="29.176" transform="translate(12.683)" fill="#b2b2b2"/>
      <rect id="Rectangle_336" data-name="Rectangle 336" width="17.486" height="23.663" transform="translate(14.719 2.753)" fill="#fff"/>
      <rect id="Rectangle_337" data-name="Rectangle 337" width="16.898" height="22.867" transform="translate(0 32.539)" fill="#b2b2b2"/>
      <rect id="Rectangle_338" data-name="Rectangle 338" width="13.704" height="18.547" transform="translate(1.595 34.7)" fill="#fff"/>
    </g>
    <g id="freepik--Couch--inject-3" transform="translate(49.721 155.065)">
      <g id="Group_64" data-name="Group 64" transform="translate(0)" clip-path="url(#clip-path)">
        <path id="Path_2599" data-name="Path 2599" d="M0,0H26.925V19.881a7.04,7.04,0,0,1-7.04,7.04H7.044A7.04,7.04,0,0,1,0,19.881V0Z" transform="translate(51.681 30.51) rotate(180)" fill="#fff" stroke="#263238" stroke-miterlimit="10" stroke-width="1"/>
        <path id="Path_2600" data-name="Path 2600" d="M0,0H18.938V22.8a7.316,7.316,0,0,1-7.316,7.316H0V0Z" transform="translate(20.752 48.993) rotate(180)" fill="#fff"/>
        <path id="Path_2601" data-name="Path 2601" d="M0,0H18.938V22.8a7.316,7.316,0,0,1-7.316,7.316H0V0Z" transform="translate(20.752 48.993) rotate(180)" fill="none" stroke="#263238" stroke-miterlimit="10" stroke-width="1"/>
        <path id="Path_2602" data-name="Path 2602" d="M0,0H18.938V22.8a7.316,7.316,0,0,1-7.316,7.316H0V0Z" transform="translate(26.011 48.993) rotate(180)" fill="#fff" stroke="#263238" stroke-miterlimit="10" stroke-width="1"/>
        <path id="Path_2603" data-name="Path 2603" d="M0,0H26.925V19.881a7.04,7.04,0,0,1-7.04,7.04H7.04A7.04,7.04,0,0,1,0,19.881V0Z" transform="translate(47.57 30.51) rotate(180)" fill="#fff"/>
        <path id="Path_2604" data-name="Path 2604" d="M0,0H26.925V19.881a7.04,7.04,0,0,1-7.04,7.04H7.04A7.04,7.04,0,0,1,0,19.881V0Z" transform="translate(47.57 30.51) rotate(180)" fill="none" stroke="#263238" stroke-miterlimit="10" stroke-width="1"/>
        <path id="Path_2605" data-name="Path 2605" d="M0,0H36.037V16.622a2.545,2.545,0,0,1-2.545,2.545H0Z" transform="translate(44.626 48.993) rotate(180)" fill="#fff"/>
        <path id="Path_2606" data-name="Path 2606" d="M0,0H36.037V16.622a2.545,2.545,0,0,1-2.545,2.545H0Z" transform="translate(44.626 48.993) rotate(180)" fill="none" stroke="#263238" stroke-miterlimit="10" stroke-width="1"/>
        <line id="Line_3" data-name="Line 3" x2="18.279" transform="translate(9.12 36.439)" fill="#fff" stroke="#263238" stroke-miterlimit="10" stroke-width="1"/>
        <path id="Path_2607" data-name="Path 2607" d="M0,0H18.938V22.8a7.316,7.316,0,0,1-7.316,7.316H0V0Z" transform="translate(46.415 48.993) rotate(180)" fill="#fff"/>
        <path id="Path_2608" data-name="Path 2608" d="M0,0H18.938V22.8a7.316,7.316,0,0,1-7.316,7.316H0V0Z" transform="translate(46.415 48.993) rotate(180)" fill="none" stroke="#263238" stroke-miterlimit="10" stroke-width="1"/>
        <path id="Path_2609" data-name="Path 2609" d="M0,0H18.938V22.8a7.316,7.316,0,0,1-7.316,7.316H0V0Z" transform="translate(51.681 48.993) rotate(180)" fill="#fff" stroke="#263238" stroke-miterlimit="10" stroke-width="1"/>
      </g>
    </g>
    <g id="freepik--Character--inject-3" transform="translate(76.008 86.485)">
      <path id="Path_2610" data-name="Path 2610" d="M194.872,394.3l-.824-7.664H157.139L155.16,394.3Z" transform="translate(-145.184 -291.551)" fill="#263238" stroke="#263238" stroke-linecap="round" stroke-linejoin="round" stroke-width="1"/>
      <path id="Path_2611" data-name="Path 2611" d="M204.984,140.483c0,.466-.717.9-.771,1.359s.624,1.007.548,1.463-.864.774-.971,1.24.452,1.093.308,1.531-.975.627-1.154,1.054.28,1.151.072,1.563-1.075.466-1.3.864.1,1.176-.168,1.552-1.118.3-1.434.66-.072,1.179-.394,1.513-1.151.14-1.495.448-.24,1.158-.606,1.434-1.158-.025-1.545.233-.394,1.111-.8,1.344-1.147-.179-1.563.025-.541,1.047-.971,1.226-1.111-.337-1.552-.186-.674.964-1.126,1.075-1.054-.477-1.513-.387-.8.868-1.255.928-.986-.609-1.452-.581-.9.76-1.366.76-.907-.717-1.366-.76-1,.638-1.452.581-.807-.839-1.258-.928-1.075.505-1.513.387-.688-.936-1.126-1.075-1.126.358-1.552.183-.556-1.018-.971-1.222-1.161.208-1.563-.025-.412-1.075-.8-1.344-1.183.05-1.545-.237-.262-1.133-.606-1.434-1.176-.115-1.495-.448-.1-1.158-.394-1.513-1.147-.283-1.434-.66.072-1.158-.168-1.556-1.075-.448-1.3-.86.244-1.136.068-1.563-1.011-.613-1.154-1.054.419-1.075.312-1.531-.9-.764-.975-1.222.584-1,.548-1.463-.735-.9-.735-1.373.735-.9.771-1.362-.62-1.007-.548-1.463.868-.774.975-1.222-.455-1.075-.312-1.531.979-.627,1.154-1.054-.28-1.147-.068-1.559,1.075-.47,1.3-.864-.1-1.179.168-1.556,1.118-.3,1.434-.66.072-1.179.394-1.513,1.151-.14,1.5-.448.237-1.158.6-1.434,1.161.021,1.545-.237.394-1.111.8-1.344,1.147.183,1.563-.025.541-1.047.971-1.222,1.111.333,1.552.186.674-.968,1.126-1.075,1.057.477,1.513.387.8-.868,1.258-.928.986.613,1.452.581.9-.76,1.366-.76.907.717,1.366.76.993-.638,1.434-.581.807.842,1.258.928,1.075-.505,1.513-.387.688.939,1.126,1.075,1.126-.358,1.552-.186.559,1.022.971,1.222,1.165-.208,1.563.025.416,1.075.8,1.344,1.183-.047,1.545.237.262,1.133.606,1.434,1.176.118,1.495.448.1,1.158.394,1.513,1.147.287,1.434.66-.072,1.161.168,1.556,1.093.452,1.3.864-.247,1.133-.072,1.559,1.011.613,1.154,1.054-.419,1.075-.308,1.531.9.764.971,1.222-.584,1-.548,1.463S204.984,140.013,204.984,140.483Z" transform="translate(-150.855 -121.38)" fill="#263238"/>
      <g id="Group_65" data-name="Group 65" transform="translate(13.145)" clip-path="url(#clip-path-2)">
        <path id="Path_2612" data-name="Path 2612" d="M204.946,140.483c0-.47-.717-.9-.767-1.362s.62-1.007.545-1.463-.864-.774-.971-1.222.452-1.075.308-1.531-.975-.627-1.154-1.054.28-1.147.072-1.559-1.075-.47-1.3-.864.1-1.176-.168-1.556-1.118-.3-1.434-.66-.072-1.176-.394-1.513-1.151-.136-1.495-.448-.237-1.154-.606-1.434-1.158.025-1.545-.237-.394-1.111-.8-1.344-1.147.183-1.563-.025-.541-1.047-.971-1.222-1.111.333-1.552.186-.674-.968-1.126-1.075-1.054.477-1.513.387-.8-.868-1.258-.928-.982.613-1.434.581-.9-.76-1.366-.76-.907.717-1.366.76-1-.638-1.452-.581-.807.842-1.258.928-1.075-.505-1.513-.387-.688.939-1.126,1.075-1.126-.358-1.552-.186-.556,1.022-.971,1.222-1.161-.208-1.563.025-.412,1.075-.8,1.344-1.179-.047-1.545.237-.262,1.133-.6,1.434-1.176.115-1.5.448-.1,1.158-.394,1.513-1.147.283-1.434.66.072,1.158-.168,1.556-1.075.448-1.3.864.247,1.133.068,1.559-1.011.613-1.154,1.054.419,1.075.312,1.531-.9.764-.975,1.222.584,1,.548,1.463-.771.893-.771,1.362.735.9.771,1.359-.62,1.007-.548,1.463.868.774.975,1.222-.455,1.093-.312,1.531.975.627,1.154,1.054-.28,1.151-.068,1.563a.918.918,0,0,0,.466.358h0c-.108-.391-.4-.832-.29-1.161.143-.441.979-.627,1.154-1.054s-.276-1.147-.068-1.559,1.075-.47,1.3-.864-.1-1.179.168-1.556,1.122-.3,1.416-.66.075-1.176.394-1.513,1.154-.136,1.5-.448.237-1.154.6-1.434,1.161.022,1.545-.237.4-1.111.8-1.344,1.144.183,1.563-.025.541-1.047.968-1.222,1.111.333,1.552.186.678-.968,1.126-1.075,1.075.477,1.513.387.8-.868,1.258-.928.986.613,1.434.581.9-.76,1.366-.76.907.717,1.366.76.993-.638,1.452-.581.8.842,1.255.928,1.075-.505,1.516-.387.688.939,1.126,1.075,1.126-.358,1.552-.186.556,1.022.968,1.226,1.165-.208,1.563.022.416,1.075.8,1.344,1.179-.047,1.545.237.258,1.133.6,1.434,1.176.118,1.5.452.1,1.154.394,1.509,1.147.287,1.416.663-.072,1.158.168,1.552c.147.24.52.358.835.5a1.817,1.817,0,0,0,.061.183,1,1,0,0,1-.043-.534c.108-.448.9-.764.971-1.222s-.584-1-.545-1.463S204.946,140.96,204.946,140.483Z" transform="translate(-163.961 -121.38)" fill="#fff" opacity="0.1"/>
      </g>
      <path id="Path_2614" data-name="Path 2614" d="M204.984,140.483c0,.466-.717.9-.771,1.359s.624,1.007.548,1.463-.864.774-.971,1.24.452,1.093.308,1.531-.975.627-1.154,1.054.28,1.151.072,1.563-1.075.466-1.3.864.1,1.176-.168,1.552-1.118.3-1.434.66-.072,1.179-.394,1.513-1.151.14-1.495.448-.24,1.158-.606,1.434-1.158-.025-1.545.233-.394,1.111-.8,1.344-1.147-.179-1.563.025-.541,1.047-.971,1.226-1.111-.337-1.552-.186-.674.964-1.126,1.075-1.054-.477-1.513-.387-.8.868-1.255.928-.986-.609-1.452-.581-.9.76-1.366.76-.907-.717-1.366-.76-1,.638-1.452.581-.807-.839-1.258-.928-1.075.505-1.513.387-.688-.936-1.126-1.075-1.126.358-1.552.183-.556-1.018-.971-1.222-1.161.208-1.563-.025-.412-1.075-.8-1.344-1.183.05-1.545-.237-.262-1.133-.606-1.434-1.176-.115-1.495-.448-.1-1.158-.394-1.513-1.147-.283-1.434-.66.072-1.158-.168-1.556-1.075-.448-1.3-.86.244-1.136.068-1.563-1.011-.613-1.154-1.054.419-1.075.312-1.531-.9-.764-.975-1.222.584-1,.548-1.463-.735-.9-.735-1.373.735-.9.771-1.362-.62-1.007-.548-1.463.868-.774.975-1.222-.455-1.075-.312-1.531.979-.627,1.154-1.054-.28-1.147-.068-1.559,1.075-.47,1.3-.864-.1-1.179.168-1.556,1.118-.3,1.434-.66.072-1.179.394-1.513,1.151-.14,1.5-.448.237-1.158.6-1.434,1.161.021,1.545-.237.394-1.111.8-1.344,1.147.183,1.563-.025.541-1.047.971-1.222,1.111.333,1.552.186.674-.968,1.126-1.075,1.057.477,1.513.387.8-.868,1.258-.928.986.613,1.452.581.9-.76,1.366-.76.907.717,1.366.76.993-.638,1.434-.581.807.842,1.258.928,1.075-.505,1.513-.387.688.939,1.126,1.075,1.126-.358,1.552-.186.559,1.022.971,1.222,1.165-.208,1.563.025.416,1.075.8,1.344,1.183-.047,1.545.237.262,1.133.606,1.434,1.176.118,1.495.448.1,1.158.394,1.513,1.147.287,1.434.66-.072,1.161.168,1.556,1.093.452,1.3.864-.247,1.133-.072,1.559,1.011.613,1.154,1.054-.419,1.075-.308,1.531.9.764.971,1.222-.584,1-.548,1.463S204.984,140.013,204.984,140.483Z" transform="translate(-150.855 -121.38)" fill="none" stroke="#263238" stroke-linecap="round" stroke-linejoin="round" stroke-width="1"/>
      <path id="Path_2615" data-name="Path 2615" d="M165.052,239.315a98.5,98.5,0,0,1-9.679,2.151c-4.065.6-6.571.6-7.406,2.631s-7.65,24.971-9.084,27.721-2.269,8.962.24,9.08,10.037-15.651,10.037-15.651l2.269,4.3s-7.048,22.1-6.929,23.061,3.226,2.868,9.08,3.345,6.453.358,10.518,1.434,9.557-.358,12.188-1.792,5.614-1.911,6.811-2.628,1.194-.835,1.194-2.269-5.617-22.107-5.617-22.107l3.348-8.844s7.646,15.773,8,17.207a4.43,4.43,0,0,0,4.778,2.75c2.151-.477,4.3-2.033,3.707-5.617s-10.636-28.556-11.353-30.707.118-4.183-2.868-4.9-17.684.118-17.684.118Z" transform="translate(-133.865 -196.316)" fill="#13c693"/>
      <g id="Group_66" data-name="Group 66" transform="translate(3.652 41.873)" clip-path="url(#clip-path-3)">
        <path id="Path_2616" data-name="Path 2616" d="M239.882,243.381c-.717-2.151.118-4.183-2.868-4.9-2.706-.649-15.013-.025-17.314.1l.824,2.767a61.735,61.735,0,0,0,8.783,1.075c3.226,0,5.915-.358,7.169,3.047s8.962,25.631,11.83,30.291a26.063,26.063,0,0,0,1.846,2.585,4.6,4.6,0,0,0,1.075-4.259C250.636,270.5,240.6,245.532,239.882,243.381Z" transform="translate(-190.239 -238.19)" opacity="0.3"/>
        <path id="Path_2617" data-name="Path 2617" d="M200.267,315.941c1.194-.717,1.194-.835,1.194-2.269s-5.617-22.107-5.617-22.107l3.2-8.467c-.921-1.348-2.287-3.556-2.129-4.556a40.248,40.248,0,0,0,.24-4.542s-.9,5.736-3.406,8.962-15.235,4.66-21.508,4.66c-3.273,0-5.08.391-5.707.993l1.1,2.09c2.545,1.61,8.775,3.915,15.716,4.983s10.575,15.235,11.83,17.207-2.689,5.019-5.2,5.377-5.915-1.434-9.32-1.075-5.019,2.151-6.094.358-.358-6.094-1.434-4.122-1.434,4.3-2.689,4.3c-.9,0-4.1-.093-6.173-.212a21.9,21.9,0,0,0,6.47,1.405c5.857.48,6.453.358,10.518,1.434s9.557-.358,12.188-1.792S199.07,316.658,200.267,315.941Z" transform="translate(-154.686 -261.163)" opacity="0.3"/>
        <path id="Path_2618" data-name="Path 2618" d="M150.652,298.792l.068-.176s-2.384-3.639-2.119-5.194a41.106,41.106,0,0,0-.032-5.922s-3.226,12.188-4.66,14.518-5.556,8.962-5.556,8.962-.032.133-.082.358a1.5,1.5,0,0,0,1.337,1.194c2.509.122,10.037-15.651,10.037-15.651Z" transform="translate(-138 -269.823)" opacity="0.3"/>
      </g>
      <path id="Path_2620" data-name="Path 2620" d="M165.052,239.315a98.5,98.5,0,0,1-9.679,2.151c-4.065.6-6.571.6-7.406,2.631s-7.65,24.971-9.084,27.721-2.269,8.962.24,9.08,10.037-15.651,10.037-15.651l2.269,4.3s-7.048,22.1-6.929,23.061,3.226,2.868,9.08,3.345,6.453.358,10.518,1.434,9.557-.358,12.188-1.792,5.614-1.911,6.811-2.628,1.194-.835,1.194-2.269-5.617-22.107-5.617-22.107l3.348-8.844s7.646,15.773,8,17.207a4.43,4.43,0,0,0,4.778,2.75c2.151-.477,4.3-2.033,3.707-5.617s-10.636-28.556-11.353-30.707.118-4.183-2.868-4.9-17.684.118-17.684.118Z" transform="translate(-133.865 -196.316)" fill="none" stroke="#263238" stroke-linecap="round" stroke-linejoin="round" stroke-width="1"/>
      <path id="Path_2621" data-name="Path 2621" d="M257.571,276.948s-2.033-2.509-2.273-4.18S257.331,265,257.331,265" transform="translate(-209.413 -213.516)" fill="none" stroke="#263238" stroke-linecap="round" stroke-linejoin="round" stroke-width="1"/>
      <path id="Path_2622" data-name="Path 2622" d="M168.133,292.981a9.638,9.638,0,0,1-1.043-3.463c0-1.452,1.972-8.1,1.972-8.1" transform="translate(-152.837 -224.05)" fill="none" stroke="#263238" stroke-linecap="round" stroke-linejoin="round" stroke-width="1"/>
      <path id="Path_2623" data-name="Path 2623" d="M208.99,244.84a47.485,47.485,0,0,0,5.176-6.42c-4.033.118-7.686.326-7.686.326l-1.556.717s-2.007.556-4.492,1.133c-.14,1.968-.434,6.338-.527,8.786-.118,3.226-.237,4.778-.237,4.778S204.567,249.5,208.99,244.84Z" transform="translate(-173.738 -196.464)" fill="none" stroke="#263238" stroke-linecap="round" stroke-linejoin="round" stroke-width="1"/>
      <path id="Path_2624" data-name="Path 2624" d="M135.843,323.149s-1.434,9.08-2.868,10.274-3.7.839-4.66-3.585,0-5.5,1.552-7.646S135.244,318.367,135.843,323.149Z" transform="translate(-127.716 -248.84)" fill="#13c693"/>
      <g id="Group_67" data-name="Group 67" transform="translate(0.216 71.223)" clip-path="url(#clip-path-4)">
        <path id="Path_2625" data-name="Path 2625" d="M135.843,323.149s-1.434,9.08-2.868,10.274-3.7.839-4.66-3.585,0-5.5,1.552-7.646S135.244,318.367,135.843,323.149Z" transform="translate(-127.932 -320.063)" opacity="0.3"/>
      </g>
      <path id="Path_2627" data-name="Path 2627" d="M135.843,323.149s-1.434,9.08-2.868,10.274-3.7.839-4.66-3.585,0-5.5,1.552-7.646S135.244,318.367,135.843,323.149Z" transform="translate(-127.716 -248.84)" fill="none" stroke="#263238" stroke-linecap="round" stroke-linejoin="round" stroke-width="1"/>
      <path id="Path_2628" data-name="Path 2628" d="M203.559,213.552a34.173,34.173,0,0,1,1.312,8.245,102.836,102.836,0,0,1-1.312,10.4c-.358,2.269,1.312.717,5.137-4.18s4.9-6.334,5.137-8.008.24-6.212.24-6.212a5.055,5.055,0,0,1-4.9,1.194c-2.986-.835-4.9-2.986-5.377-2.986S203.559,213.552,203.559,213.552Z" transform="translate(-176.193 -179.515)" fill="#fff"/>
      <g id="Group_68" data-name="Group 68" transform="translate(27.304 32.485)" clip-path="url(#clip-path-5)">
        <path id="Path_2629" data-name="Path 2629" d="M209.173,214.986c-2.986-.835-4.9-2.986-5.377-2.986s-.237,1.552-.237,1.552.287,1.011.6,2.413c1.477,1.817,4.363,5.377,4.782,5.832.563.642,1.606,3.226-.24,6.216,3.825-4.9,4.9-6.334,5.137-8.008s.24-6.212.24-6.212a5.055,5.055,0,0,1-4.9,1.194Z" transform="translate(-203.497 -212)" fill="#263238" opacity="0.2"/>
      </g>
      <path id="Path_2631" data-name="Path 2631" d="M203.559,213.552a34.173,34.173,0,0,1,1.312,8.245,102.836,102.836,0,0,1-1.312,10.4c-.358,2.269,1.312.717,5.137-4.18s4.9-6.334,5.137-8.008.24-6.212.24-6.212a5.055,5.055,0,0,1-4.9,1.194c-2.986-.835-4.9-2.986-5.377-2.986S203.559,213.552,203.559,213.552Z" transform="translate(-176.193 -179.515)" fill="none" stroke="#263238" stroke-linecap="round" stroke-linejoin="round" stroke-width="1"/>
      <path id="Path_2632" data-name="Path 2632" d="M195.76,189.38s-1.337-1.563-2.233-.222,1.792,5.807,2.57,5.807.445-3.126.445-3.907A3.248,3.248,0,0,0,195.76,189.38Z" transform="translate(-169.681 -164.513)" fill="#fff" stroke="#263238" stroke-linecap="round" stroke-linejoin="round" stroke-width="1"/>
      <path id="Path_2633" data-name="Path 2633" d="M241.864,192.81s1.337-1.563,2.233-.222-1.792,5.807-2.57,5.807-.445-3.129-.445-3.911A3.23,3.23,0,0,1,241.864,192.81Z" transform="translate(-200.26 -166.713)" fill="#fff"/>
      <g id="Group_69" data-name="Group 69" transform="translate(40.752 25.331)" clip-path="url(#clip-path-6)">
        <path id="Path_2634" data-name="Path 2634" d="M241.864,192.81s1.337-1.563,2.233-.222-1.792,5.807-2.57,5.807-.445-3.129-.445-3.911A3.23,3.23,0,0,1,241.864,192.81Z" transform="translate(-241.012 -192.045)" fill="#263238" opacity="0.2"/>
      </g>
      <path id="Path_2636" data-name="Path 2636" d="M241.864,192.81s1.337-1.563,2.233-.222-1.792,5.807-2.57,5.807-.445-3.129-.445-3.911A3.23,3.23,0,0,1,241.864,192.81Z" transform="translate(-200.26 -166.713)" fill="none" stroke="#263238" stroke-linecap="round" stroke-linejoin="round" stroke-width="1"/>
      <path id="Path_2637" data-name="Path 2637" d="M211.755,160.21c-.14.341-.237.749-.495.9-.4.229-1.147-.183-1.563.022s-.541,1.047-.971,1.226-1.111-.333-1.552-.186-.674.964-1.126,1.075-1.058-.48-1.513-.391-.8.871-1.258.928-.986-.609-1.452-.581c-.4.025-.789.588-1.19.717a17.894,17.894,0,0,0-.875,5.879s-.111,7.367.67,9.378,4.915,5.7,6.363,5.918a2.807,2.807,0,0,0,2.793-.893c.67-.67,5.019-4.244,5.47-5.7s2.122-10.83,1.563-13.955C216.279,162.644,214.207,161.07,211.755,160.21Z" transform="translate(-173.792 -146.29)" fill="#fff"/>
      <g id="Group_70" data-name="Group 70" transform="translate(25.962 13.92)" clip-path="url(#clip-path-7)">
        <path id="Path_2638" data-name="Path 2638" d="M220.658,162.16a7.694,7.694,0,0,1,.778,4.563c-.409,4.481-.1,8.048-.817,11.113s-3.151,6.413-4.517,7.169-3.022.57-4.857-.448l-.1-.054a8.217,8.217,0,0,0,2.957,1.868,2.8,2.8,0,0,0,2.793-.893c.67-.67,5.019-4.244,5.47-5.7s2.122-10.83,1.563-13.955A5.713,5.713,0,0,0,220.658,162.16Z" transform="translate(-207.059 -161.461)" fill="#263238" opacity="0.2"/>
      </g>
      <path id="Path_2640" data-name="Path 2640" d="M211.755,160.21c-.14.341-.237.749-.495.9-.4.229-1.147-.183-1.563.022s-.541,1.047-.971,1.226-1.111-.333-1.552-.186-.674.964-1.126,1.075-1.058-.48-1.513-.391-.8.871-1.258.928-.986-.609-1.452-.581c-.4.025-.789.588-1.19.717a17.894,17.894,0,0,0-.875,5.879s-.111,7.367.67,9.378,4.915,5.7,6.363,5.918a2.807,2.807,0,0,0,2.793-.893c.67-.67,5.019-4.244,5.47-5.7s2.122-10.83,1.563-13.955C216.279,162.644,214.207,161.07,211.755,160.21Z" transform="translate(-173.792 -146.29)" fill="none" stroke="#263238" stroke-linecap="round" stroke-linejoin="round" stroke-width="1"/>
      <path id="Path_2641" data-name="Path 2641" d="M222.51,202.687s1.674.226,1.792-1.337" transform="translate(-188.39 -172.683)" fill="none" stroke="#263238" stroke-linecap="round" stroke-linejoin="round" stroke-width="1"/>
      <path id="Path_2642" data-name="Path 2642" d="M220.5,209.49a13.665,13.665,0,0,1-5.474-.67s.448,2.681,2.233,3.126S220.5,209.49,220.5,209.49Z" transform="translate(-183.592 -177.475)" fill="none" stroke="#263238" stroke-linecap="round" stroke-linejoin="round" stroke-width="1"/>
      <path id="Path_2643" data-name="Path 2643" d="M215.932,190.39c-.021.645-.287,1.165-.6,1.154s-.541-.545-.52-1.19.287-1.165.6-1.154S215.957,189.741,215.932,190.39Z" transform="translate(-183.455 -164.888)" fill="#263238"/>
      <path id="Path_2644" data-name="Path 2644" d="M214,189.385a1.714,1.714,0,0,1,1.7.147" transform="translate(-182.931 -164.905)" fill="none" stroke="#263238" stroke-linecap="round" stroke-linejoin="round" stroke-width="1"/>
      <path id="Path_2645" data-name="Path 2645" d="M232.372,192.493c-.068.642-.358,1.14-.678,1.108s-.5-.581-.43-1.226.358-1.14.678-1.108S232.44,191.848,232.372,192.493Z" transform="translate(-193.997 -166.214)" fill="#263238"/>
      <path id="Path_2646" data-name="Path 2646" d="M230.69,191.369a1.7,1.7,0,0,1,1.681.269" transform="translate(-193.638 -166.208)" fill="none" stroke="#263238" stroke-linecap="round" stroke-linejoin="round" stroke-width="1"/>
      <path id="Path_2647" data-name="Path 2647" d="M210.32,182.431a4.083,4.083,0,0,1,3.836-.222" transform="translate(-180.57 -160.163)" fill="none" stroke="#263238" stroke-linecap="round" stroke-linejoin="round" stroke-width="2"/>
      <path id="Path_2648" data-name="Path 2648" d="M229.87,184.15s1.767-1.179,3.538.961" transform="translate(-193.112 -161.44)" fill="none" stroke="#263238" stroke-linecap="round" stroke-linejoin="round" stroke-width="2"/>
      <path id="Path_2649" data-name="Path 2649" d="M254.9,338.713a20.951,20.951,0,0,1-1.911-7.051c-.118-3.345,1.316-5.137,2.868-3.466S256.214,337.038,254.9,338.713Z" transform="translate(-207.938 -253.65)" fill="#13c693"/>
      <g id="Group_71" data-name="Group 71" transform="translate(45.043 73.91)" clip-path="url(#clip-path-8)">
        <path id="Path_2650" data-name="Path 2650" d="M254.9,338.713a20.951,20.951,0,0,1-1.911-7.051c-.118-3.345,1.316-5.137,2.868-3.466S256.214,337.038,254.9,338.713Z" transform="translate(-252.981 -327.561)" opacity="0.3"/>
      </g>
      <path id="Path_2652" data-name="Path 2652" d="M254.9,338.713a20.951,20.951,0,0,1-1.911-7.051c-.118-3.345,1.316-5.137,2.868-3.466S256.214,337.038,254.9,338.713Z" transform="translate(-207.938 -253.65)" fill="none" stroke="#263238" stroke-linecap="round" stroke-linejoin="round" stroke-width="1"/>
      <path id="Path_2653" data-name="Path 2653" d="M224.676,306.167s-8.008,0-12.428-1.671a34.042,34.042,0,0,1-10.4-5.976c-2.033-1.911-2.749-2.391-5.137-2.628s-4.183-1.556-4.183-.717a2.2,2.2,0,0,0,1.434,1.792c.717.358,3.345,1.552,3.345,1.552s.24.6-2.269,1.075a34.661,34.661,0,0,0-7.288,2.269c-2.151.957-2.868,1.674-2.151,1.914s2.986-.6,3.463-.6,3.108-.358,3.108-.358a57.943,57.943,0,0,0-5.617,2.749c-.717.6-2.746,1.434-1.911,1.792s4.3-.24,4.3-.24-3.585,1.075-2.151,1.552,4.42-.237,4.42-.237,3.466.477,4.424,0,6.571-2.868,6.571-2.868,8.6,7.406,16.013,9.2,7.288,0,7.288,0" transform="translate(-163.972 -232.698)" fill="#fff"/>
      <g id="Group_72" data-name="Group 72" transform="translate(20.475 62.203)" clip-path="url(#clip-path-9)">
        <path id="Path_2654" data-name="Path 2654" d="M217.662,316.532c1.434-.634,2.567-1.158,2.567-1.158l.358-7.169a29.234,29.234,0,0,1-6.983-1.384,33.861,33.861,0,0,1-10.4-5.965,8.282,8.282,0,0,0-3.362-2.316,2.807,2.807,0,0,1,1.212,1.792c0,1.255-2.151,2.509-3.764,3.226l-6.453,2.868s5.2-2.151,4.839-.9-3.943,2.868-7.528,3.764a11.746,11.746,0,0,0-1.6.52,22.083,22.083,0,0,0,3.746-.341s-3.585,1.075-2.151,1.552,4.42-.237,4.42-.237,3.466.477,4.424,0,6.571-2.868,6.571-2.868S210.761,314.119,217.662,316.532Z" transform="translate(-185.796 -297.235)" fill="#263238" opacity="0.2"/>
      </g>
      <path id="Path_2656" data-name="Path 2656" d="M224.676,306.167s-8.008,0-12.428-1.671a34.042,34.042,0,0,1-10.4-5.976c-2.033-1.911-2.749-2.391-5.137-2.628s-4.183-1.556-4.183-.717a2.2,2.2,0,0,0,1.434,1.792c.717.358,3.345,1.552,3.345,1.552s.24.6-2.269,1.075a34.661,34.661,0,0,0-7.288,2.269c-2.151.957-2.868,1.674-2.151,1.914s2.986-.6,3.463-.6,3.108-.358,3.108-.358a57.943,57.943,0,0,0-5.617,2.749c-.717.6-2.746,1.434-1.911,1.792s4.3-.24,4.3-.24-3.585,1.075-2.151,1.552,4.42-.237,4.42-.237,3.466.477,4.424,0,6.571-2.868,6.571-2.868,8.6,7.406,16.013,9.2,7.288,0,7.288,0" transform="translate(-163.972 -232.698)" fill="none" stroke="#263238" stroke-linecap="round" stroke-linejoin="round" stroke-width="1"/>
      <line id="Line_4" data-name="Line 4" y1="1.488" x2="4.223" transform="translate(24.975 72.939)" fill="none" stroke="#263238" stroke-linecap="round" stroke-linejoin="round" stroke-width="1"/>
      <line id="Line_5" data-name="Line 5" y1="0.728" x2="2.785" transform="translate(27.244 75.014)" fill="none" stroke="#263238" stroke-linecap="round" stroke-linejoin="round" stroke-width="1"/>
      <path id="Path_2657" data-name="Path 2657" d="M276.017,330.033c-.48,2.986-1.792,5.019-7.291,4.9s-10.4,0-10.4,0a33.65,33.65,0,0,0,.957-5.259c.358-3.226.358-8,.358-8s7.528,1.671,13.622,1.075" transform="translate(-211.37 -249.871)" fill="#13c693"/>
      <g id="Group_73" data-name="Group 73" transform="translate(46.96 71.799)" clip-path="url(#clip-path-10)">
        <path id="Path_2658" data-name="Path 2658" d="M276.017,330.033c-.48,2.986-1.792,5.019-7.291,4.9s-10.4,0-10.4,0a33.65,33.65,0,0,0,.957-5.259c.358-3.226.358-8,.358-8s7.528,1.671,13.622,1.075" transform="translate(-258.33 -321.67)" opacity="0.3"/>
      </g>
      <path id="Path_2660" data-name="Path 2660" d="M276.017,330.033c-.48,2.986-1.792,5.019-7.291,4.9s-10.4,0-10.4,0a33.65,33.65,0,0,0,.957-5.259c.358-3.226.358-8,.358-8s7.528,1.671,13.622,1.075" transform="translate(-211.37 -249.871)" fill="none" stroke="#263238" stroke-linecap="round" stroke-linejoin="round" stroke-width="1"/>
      <path id="Path_2661" data-name="Path 2661" d="M136.174,280.455s-.645,1.993-4.542,9.32c-3.284,6.18-4.3,8.844-4.3,11.113s2.033,4.9,5.019,2.986,3.943-4.2,4.431-7.549,3.058-14.36,3.058-14.36A2.521,2.521,0,0,0,136.174,280.455Z" transform="translate(-127.33 -223.236)" fill="#fff"/>
      <g id="Group_74" data-name="Group 74" transform="translate(0 56.915)" clip-path="url(#clip-path-11)">
        <path id="Path_2662" data-name="Path 2662" d="M137.639,296.344c.477-3.345,3.058-14.36,3.058-14.36a2.5,2.5,0,0,0-2.509-1.792l-.717,2.832s-2.588,13.762-5.1,17.347a5.574,5.574,0,0,1-3.7,2.47c.771,1.473,2.413,2.416,4.538,1.054C136.2,301.983,137.162,299.689,137.639,296.344Z" transform="translate(-128.19 -280.17)" fill="#263238" opacity="0.2"/>
      </g>
      <path id="Path_2664" data-name="Path 2664" d="M136.174,280.455s-.645,1.993-4.542,9.32c-3.284,6.18-4.3,8.844-4.3,11.113s2.033,4.9,5.019,2.986,3.943-4.2,4.431-7.549,3.058-14.36,3.058-14.36A2.521,2.521,0,0,0,136.174,280.455Z" transform="translate(-127.33 -223.236)" fill="none" stroke="#263238" stroke-linecap="round" stroke-linejoin="round" stroke-width="1"/>
      <path id="Path_2665" data-name="Path 2665" d="M146.7,269.639s-4.062,0-4.538.6-.48,2.151.954,2.151,3.707-.118,4.424-.6S147.9,269.42,146.7,269.639Z" transform="translate(-136.659 -216.48)" fill="#fff" stroke="#263238" stroke-linecap="round" stroke-linejoin="round" stroke-width="1"/>
      <path id="Path_2666" data-name="Path 2666" d="M150.557,287.79a2.09,2.09,0,0,0,.717,1.868c.932.832,2.7.312,2.387-.2a9.849,9.849,0,0,0-2.18-1.559Z" transform="translate(-142.219 -228.136)" fill="#fff" stroke="#263238" stroke-linecap="round" stroke-linejoin="round" stroke-width="1"/>
      <path id="Path_2667" data-name="Path 2667" d="M149.277,282.582s-.717,1.194-.24,1.792,1.792.717,3.348.358,2.029-2.033.717-2.151a37.378,37.378,0,0,0-3.825,0Z" transform="translate(-141.151 -224.764)" fill="#fff" stroke="#263238" stroke-linecap="round" stroke-linejoin="round" stroke-width="1"/>
      <path id="Path_2668" data-name="Path 2668" d="M147.121,276.653a1.362,1.362,0,0,0-.6,1.556c.358.957,1.911.954,3.821.6s1.914-2.387,1.2-2.509A36.118,36.118,0,0,0,147.121,276.653Z" transform="translate(-139.593 -220.749)" fill="#fff" stroke="#263238" stroke-linecap="round" stroke-linejoin="round" stroke-width="1"/>
      <path id="Path_2669" data-name="Path 2669" d="M158.746,276.575h0a5.08,5.08,0,0,1-5.076-5.08V263.67h10.156V271.5A5.08,5.08,0,0,1,158.746,276.575Z" transform="translate(-144.228 -212.663)" fill="#fff"/>
      <g id="Group_75" data-name="Group 75" transform="translate(9.442 51.007)" clip-path="url(#clip-path-12)">
        <path id="Path_2670" data-name="Path 2670" d="M162.635,263.7v8.6a3.574,3.574,0,0,1-3.043,2.509,8.962,8.962,0,0,1-2.061.154,5.047,5.047,0,0,0,3.692,1.6h0a5.08,5.08,0,0,0,5.08-5.069V263.67H162.66Z" transform="translate(-156.146 -263.67)" opacity="0.3"/>
      </g>
      <path id="Path_2672" data-name="Path 2672" d="M158.746,276.575h0a5.08,5.08,0,0,1-5.076-5.08V263.67h10.156V271.5A5.08,5.08,0,0,1,158.746,276.575Z" transform="translate(-144.228 -212.663)" fill="none" stroke="#263238" stroke-linecap="round" stroke-linejoin="round" stroke-width="1"/>
      <path id="Path_2673" data-name="Path 2673" d="M149.83,230.579a2.344,2.344,0,0,1,1.592-.38" transform="translate(-141.764 -191.179)" fill="none" stroke="#263238" stroke-linecap="round" stroke-linejoin="round" stroke-width="1"/>
      <path id="Path_2674" data-name="Path 2674" d="M151.186,244.243a3.473,3.473,0,0,0-.871-3.409c-1.2-1.434-3.359-1.642-4.524-3.086a2.985,2.985,0,0,1,.075-3.427" transform="translate(-138.847 -193.834)" fill="none" stroke="#263238" stroke-linecap="round" stroke-linejoin="round" stroke-width="1"/>
      <path id="Path_2675" data-name="Path 2675" d="M163,245.59a5.235,5.235,0,0,1,3.406,2.825c.8,2.172.219,2.972.219,2.972" transform="translate(-150.213 -201.064)" fill="none" stroke="#263238" stroke-linecap="round" stroke-linejoin="round" stroke-width="1"/>
    </g>
    <g id="freepik--Floor--inject-3" transform="translate(47.33 189.238)">
      <line id="Line_6" data-name="Line 6" x2="150" fill="none" stroke="#263238" stroke-linecap="round" stroke-linejoin="round" stroke-width="1"/>
    </g>
    <g id="freepik--Device--inject-3" transform="translate(144.33 122.953)">
      <rect id="Rectangle_340" data-name="Rectangle 340" width="39.83" height="71.781" rx="6.75" transform="translate(1.846)" fill="#263238" stroke="#263238" stroke-linecap="round" stroke-linejoin="round" stroke-width="1"/>
      <rect id="Rectangle_341" data-name="Rectangle 341" width="39.83" height="71.781" rx="6.75" fill="#fff" stroke="#263238" stroke-linecap="round" stroke-linejoin="round" stroke-width="1"/>
      <path id="Path_2676" data-name="Path 2676" d="M371.367,233.248h-4.958a.509.509,0,0,1-.509-.509h0a.513.513,0,0,1,.509-.509h4.958a.509.509,0,0,1,.509.509h0a.505.505,0,0,1-.509.509Z" transform="translate(-348.7 -228.961)" fill="#263238"/>
      <path id="Path_2677" data-name="Path 2677" d="M359.734,296.256H324.94V235.24h8.245l.925.767a1.817,1.817,0,0,0,1.154.416h14.554a1.792,1.792,0,0,0,1.19-.448l.839-.717h7.886Z" transform="translate(-322.424 -230.892)" fill="#263238"/>
      <g id="Group_76" data-name="Group 76" transform="translate(2.516 4.348)" clip-path="url(#clip-path-13)">
        <circle id="Ellipse_38" data-name="Ellipse 38" cx="11.382" cy="11.382" r="11.382" transform="translate(1.379 23.079) rotate(-45)" fill="none" stroke="#13c693" stroke-miterlimit="10" stroke-width="1"/>
        <circle id="Ellipse_39" data-name="Ellipse 39" cx="9.381" cy="9.381" r="9.381" transform="translate(8.091 13.697)" fill="#13c693"/>
        <path id="Path_2678" data-name="Path 2678" d="M363.646,357.82h0a14.666,14.666,0,0,0-2.1-.38,10.175,10.175,0,0,0-2.219.308c-.4,0-.875-1-2.423-1.617s-2.757,1.387-4.1,1.387a2,2,0,0,1-1.466-.946,3,3,0,0,0-.7-.749,1.756,1.756,0,0,0-1-.462,2.11,2.11,0,0,0-.3,0,2.146,2.146,0,0,0-.3,0,1.756,1.756,0,0,0-1,.462,3,3,0,0,0-.7.749,2,2,0,0,1-1.466.946c-1.344,0-2.556-2-4.1-1.387s-2.018,1.617-2.423,1.617a10.21,10.21,0,0,0-2.219-.308,14.754,14.754,0,0,0-2.1.38h0a14.253,14.253,0,0,0,2.1.38,9.955,9.955,0,0,0,2.219-.308c.4,0,.875,1,2.423,1.62s2.757-1.387,4.1-1.387a1.985,1.985,0,0,1,1.466.946,3.051,3.051,0,0,0,.7.746,1.792,1.792,0,0,0,1,.466,2.142,2.142,0,0,0,.3,0,2.115,2.115,0,0,0,.3,0,1.792,1.792,0,0,0,1-.466,3.052,3.052,0,0,0,.7-.746,1.992,1.992,0,0,1,1.466-.946c1.344,0,2.556,2,4.1,1.387s2.018-1.62,2.423-1.62a9.99,9.99,0,0,0,2.219.308,14.171,14.171,0,0,0,2.1-.38Z" transform="translate(-331.419 -312.297)" fill="#13c693"/>
        <path id="Path_2679" data-name="Path 2679" d="M364.661,359.294h0a8.293,8.293,0,0,0-1.265-.251,5.819,5.819,0,0,0-1.337.2c-.262,0-.527-.663-1.459-1.075s-1.66.921-2.47.921c-.387,0-.634-.3-.885-.627a2,2,0,0,0-.419-.5,1.014,1.014,0,0,0-.6-.3,1.036,1.036,0,0,0-.183,0,1.011,1.011,0,0,0-.781.312,2,2,0,0,0-.419.5c-.251.326-.5.627-.885.627a1.793,1.793,0,0,1-.943-.437,3.051,3.051,0,0,0-.764-.484.882.882,0,0,0-.384-.075.867.867,0,0,0-.38.075,3.051,3.051,0,0,0-.764.484,1.792,1.792,0,0,1-.946.437c-.384,0-.631-.3-.882-.627a2,2,0,0,0-.419-.5,1.025,1.025,0,0,0-.6-.3,1.039,1.039,0,0,0-.183,0,1.076,1.076,0,0,0-.183,0,1.025,1.025,0,0,0-.6.3,1.986,1.986,0,0,0-.416.5c-.251.326-.5.627-.885.627-.81,0-1.538-1.33-2.47-.921s-1.219,1.075-1.459,1.075a5.484,5.484,0,0,0-1.337-.2,8.3,8.3,0,0,0-1.265.251h0a7.887,7.887,0,0,0,1.265.251,5.464,5.464,0,0,0,1.337-.2c.244,0,.527.667,1.459,1.075s1.66-.921,2.47-.921c.387,0,.635.3.885.627a1.911,1.911,0,0,0,.416.495,1.051,1.051,0,0,0,.6.308,1.631,1.631,0,0,0,.183,0,1.575,1.575,0,0,0,.183,0,1.051,1.051,0,0,0,.6-.308,1.922,1.922,0,0,0,.419-.495c.251-.326.5-.627.882-.627a1.75,1.75,0,0,1,.946.437,3.051,3.051,0,0,0,.764.484.861.861,0,0,0,.38.072.875.875,0,0,0,.384-.072,2.954,2.954,0,0,0,.764-.487,1.767,1.767,0,0,1,.943-.434c.387,0,.635.3.885.627a1.922,1.922,0,0,0,.419.495,1.04,1.04,0,0,0,.6.308,1.541,1.541,0,0,0,.179,0,1.561,1.561,0,0,0,.183,0,1.04,1.04,0,0,0,.6-.308,1.923,1.923,0,0,0,.419-.495c.251-.326.5-.627.885-.627.81,0,1.538,1.33,2.47.921s1.215-1.075,1.459-1.075a5.34,5.34,0,0,0,1.337.2,7.889,7.889,0,0,0,1.265-.251h0Z" transform="translate(-334.005 -313.775)" fill="#fff" opacity="0.7"/>
        <path id="Path_2680" data-name="Path 2680" d="M370.083,288.886h0a1.889,1.889,0,0,1-1.893-1.893V281a1.889,1.889,0,0,1,1.893-1.889h0A1.889,1.889,0,0,1,371.972,281v5.994a1.889,1.889,0,0,1-1.889,1.893Z" transform="translate(-352.686 -263.384)" fill="#263238"/>
        <path id="Path_2681" data-name="Path 2681" d="M367.5,298.334a3.348,3.348,0,0,1-3.345-3.341v-2.814a.358.358,0,1,1,.692,0v2.814a2.653,2.653,0,0,0,5.305,0v-2.814a.358.358,0,1,1,.688,0v2.814a3.345,3.345,0,0,1-3.341,3.341Z" transform="translate(-350.091 -271.473)" fill="#263238"/>
        <path id="Path_2682" data-name="Path 2682" d="M372.846,312.343a.358.358,0,0,1-.358-.358V308.4a.358.358,0,1,1,.692,0v3.585A.359.359,0,0,1,372.846,312.343Z" transform="translate(-355.435 -281.884)" fill="#263238"/>
        <path id="Path_2683" data-name="Path 2683" d="M370.88,319.459h-4.61a.358.358,0,1,1,0-.692h4.61a.358.358,0,1,1,0,.692Z" transform="translate(-351.164 -288.817)" fill="#263238"/>
        <path id="Path_2684" data-name="Path 2684" d="M360.157,269.8V235.24h-7.886l-.839.717a1.792,1.792,0,0,1-1.19.448H335.687a1.817,1.817,0,0,1-1.154-.416l-.9-.749H325.6Z" transform="translate(-325.363 -235.24)" fill="#fff" opacity="0.3"/>
      </g>
      <path id="Path_2686" data-name="Path 2686" d="M359.734,296.256H324.94V235.24h8.245l.925.767a1.817,1.817,0,0,0,1.154.416h14.554a1.792,1.792,0,0,0,1.19-.448l.839-.717h7.886Z" transform="translate(-322.424 -230.892)" fill="none" stroke="#263238" stroke-linecap="round" stroke-linejoin="round" stroke-width="1"/>
      <path id="Path_2687" data-name="Path 2687" d="M373.734,409.282a.789.789,0,1,0-.23.56A.792.792,0,0,0,373.734,409.282Z" transform="translate(-352.71 -342.036)" fill="#263238"/>
    </g>
  </g>
</svg>
